<svg xmlns="http://www.w3.org/2000/svg" xmlns:xlink="http://www.w3.org/1999/xlink" viewBox="0 0 470.56 220.14"><defs><style>.cls-1,.cls-2{fill:#fff;}.cls-1{stroke:#fff;stroke-linecap:round;stroke-linejoin:round;stroke-width:13px;}.cls-3{fill:url(#linear-gradient);}.cls-4{fill:#e14e96;}.cls-5{fill:url(#linear-gradient-2);}.cls-6{fill:url(#linear-gradient-3);}.cls-7{fill:url(#linear-gradient-4);}.cls-8{fill:url(#linear-gradient-5);}.cls-9{fill:url(#linear-gradient-6);}.cls-10{fill:url(#linear-gradient-7);}.cls-11{fill:none;}.cls-12{fill:url(#linear-gradient-8);}.cls-13{fill:url(#linear-gradient-9);}.cls-14{fill:url(#linear-gradient-10);}.cls-15{fill:url(#linear-gradient-11);}.cls-16{fill:url(#linear-gradient-12);}.cls-17{fill:url(#linear-gradient-13);}.cls-18{fill:url(#linear-gradient-14);}.cls-19{fill:url(#linear-gradient-15);}.cls-20{fill:url(#linear-gradient-16);}.cls-21{fill:url(#linear-gradient-17);}.cls-22{fill:url(#linear-gradient-18);}.cls-23{fill:url(#linear-gradient-19);}.cls-24{fill:url(#linear-gradient-20);}.cls-25{fill:url(#linear-gradient-21);}.cls-26{fill:url(#linear-gradient-22);}.cls-27{fill:url(#linear-gradient-23);}.cls-28{fill:url(#linear-gradient-24);}.cls-29{fill:url(#linear-gradient-25);}.cls-30{fill:url(#linear-gradient-26);}.cls-31{fill:url(#linear-gradient-27);}.cls-32{fill:url(#linear-gradient-28);}.cls-33{fill:url(#linear-gradient-29);}.cls-34{fill:url(#linear-gradient-30);}.cls-35{fill:url(#linear-gradient-31);}.cls-36{fill:url(#linear-gradient-32);}.cls-37{fill:url(#linear-gradient-33);}.cls-38{fill:url(#linear-gradient-34);}.cls-39{fill:url(#linear-gradient-35);}</style><linearGradient id="linear-gradient" x1="164.15" y1="141.54" x2="202.94" y2="141.54" gradientUnits="userSpaceOnUse"><stop offset="0" stop-color="#4a8cca"/><stop offset="1" stop-color="#4262ae"/></linearGradient><linearGradient id="linear-gradient-2" x1="170.76" y1="180.17" x2="202.03" y2="180.17" xlink:href="#linear-gradient"/><linearGradient id="linear-gradient-3" x1="209.5" y1="183.76" x2="240.21" y2="183.76" gradientUnits="userSpaceOnUse"><stop offset="0" stop-color="#7653a2"/><stop offset="1" stop-color="#5153a4"/></linearGradient><linearGradient id="linear-gradient-4" x1="269.65" y1="155.39" x2="300.14" y2="155.39" xlink:href="#linear-gradient"/><linearGradient id="linear-gradient-5" x1="310.09" y1="164.39" x2="341.84" y2="164.39" xlink:href="#linear-gradient-3"/><linearGradient id="linear-gradient-6" x1="300.14" y1="190.6" x2="331.03" y2="190.6" xlink:href="#linear-gradient"/><linearGradient id="linear-gradient-7" x1="355.46" y1="161.67" x2="380.42" y2="161.67" xlink:href="#linear-gradient-3"/><linearGradient id="linear-gradient-8" x1="40.81" y1="94.36" x2="84.79" y2="94.36" xlink:href="#linear-gradient"/><linearGradient id="linear-gradient-9" x1="101.26" y1="78.73" x2="137.42" y2="78.73" xlink:href="#linear-gradient"/><linearGradient id="linear-gradient-10" x1="122.37" y1="140.95" x2="155.51" y2="140.95" xlink:href="#linear-gradient-3"/><linearGradient id="linear-gradient-11" x1="407.65" y1="-23.34" x2="374.93" y2="26.59" gradientTransform="translate(81.22 -117.72) rotate(25.58)" xlink:href="#linear-gradient-3"/><linearGradient id="linear-gradient-12" x1="401.43" y1="5.86" x2="401.43" y2="27.41" gradientTransform="translate(81.22 -117.72) rotate(25.58)" xlink:href="#linear-gradient"/><linearGradient id="linear-gradient-13" x1="366.11" y1="-18.76" x2="350.72" y2="27.41" gradientTransform="translate(81.22 -117.72) rotate(25.58)" gradientUnits="userSpaceOnUse"><stop offset="0" stop-color="#ed228b"/><stop offset="1" stop-color="#ac4c9d"/></linearGradient><linearGradient id="linear-gradient-14" x1="212.54" y1="104.75" x2="240.95" y2="104.75" xlink:href="#linear-gradient"/><linearGradient id="linear-gradient-15" x1="224.65" y1="159.33" x2="254.49" y2="159.33" xlink:href="#linear-gradient-3"/><linearGradient id="linear-gradient-16" x1="359.33" y1="83.61" x2="409.82" y2="83.61" xlink:href="#linear-gradient"/><linearGradient id="linear-gradient-17" x1="361.57" y1="110.74" x2="420.85" y2="110.74" xlink:href="#linear-gradient-3"/><linearGradient id="linear-gradient-18" x1="304.68" y1="97" x2="334.78" y2="97" xlink:href="#linear-gradient"/><linearGradient id="linear-gradient-19" x1="298.61" y1="131.44" x2="352.17" y2="131.44" xlink:href="#linear-gradient-3"/><linearGradient id="linear-gradient-20" x1="262.8" y1="95.6" x2="289.03" y2="95.6" xlink:href="#linear-gradient"/><linearGradient id="linear-gradient-21" x1="263.22" y1="64.34" x2="287.23" y2="64.34" xlink:href="#linear-gradient"/><linearGradient id="linear-gradient-22" x1="13.9" y1="56.75" x2="27.96" y2="56.75" xlink:href="#linear-gradient-3"/><linearGradient id="linear-gradient-23" x1="124.54" y1="49.03" x2="130.24" y2="49.03" xlink:href="#linear-gradient-3"/><linearGradient id="linear-gradient-24" x1="130.69" y1="38.4" x2="146.47" y2="38.4" xlink:href="#linear-gradient-3"/><linearGradient id="linear-gradient-25" x1="145.42" y1="37.01" x2="153" y2="37.01" xlink:href="#linear-gradient-3"/><linearGradient id="linear-gradient-26" x1="152.66" y1="38.1" x2="168.65" y2="38.1" xlink:href="#linear-gradient-3"/><linearGradient id="linear-gradient-27" x1="169.73" y1="32.54" x2="183.45" y2="32.54" xlink:href="#linear-gradient-3"/><linearGradient id="linear-gradient-28" x1="204.68" y1="43.77" x2="218.73" y2="43.77" xlink:href="#linear-gradient-3"/><linearGradient id="linear-gradient-29" x1="221.14" y1="42.62" x2="226.42" y2="42.62" xlink:href="#linear-gradient-3"/><linearGradient id="linear-gradient-30" x1="229.37" y1="40.2" x2="245.15" y2="40.2" xlink:href="#linear-gradient-3"/><linearGradient id="linear-gradient-31" x1="244.11" y1="38.8" x2="251.68" y2="38.8" xlink:href="#linear-gradient-3"/><linearGradient id="linear-gradient-32" x1="251.34" y1="39.9" x2="267.33" y2="39.9" xlink:href="#linear-gradient-3"/><linearGradient id="linear-gradient-33" x1="268.41" y1="34.34" x2="282.13" y2="34.34" xlink:href="#linear-gradient-3"/><linearGradient id="linear-gradient-34" x1="321.54" y1="59.46" x2="334.68" y2="59.46" gradientTransform="translate(-16.64 54.03) rotate(-9.9)" xlink:href="#linear-gradient-3"/><linearGradient id="linear-gradient-35" x1="350.79" y1="59.98" x2="363.94" y2="59.98" gradientTransform="translate(-16.64 54.03) rotate(-9.9)" xlink:href="#linear-gradient-3"/></defs><g id="Layer_2" data-name="Layer 2"><g id="Layer_2-2" data-name="Layer 2"><polygon class="cls-1" points="50.37 69.3 266.8 36.1 303.2 56.75 350.13 77.89 389.08 116.92 331.07 142.34 201.13 165.76 136.51 150.05 50.37 69.3"/><path class="cls-2" d="M181.65,168.38a6.49,6.49,0,0,1-4.26-1.6L170.73,161a6.5,6.5,0,0,1,.86-10.45,45.48,45.48,0,0,0,7.15-5.36,42.08,42.08,0,0,0,5.08-5.59c.61-.82,1.14-1.6,1.6-2.33l-.77.06a60,60,0,0,0-6.94,1.17,87.63,87.63,0,0,0-9.59,2.82,6.47,6.47,0,0,1-8.27-4l-2.73-7.72a6.51,6.51,0,0,1,4-8.31,96.71,96.71,0,0,1,9.29-2.7,92.76,92.76,0,0,1,9.3-1.72,69.29,69.29,0,0,1,8.79-.61,45.48,45.48,0,0,1,5.56.35,22.38,22.38,0,0,1,6.18,1.68,13.74,13.74,0,0,1,6,5,14.68,14.68,0,0,1,2.31,8.34,27.17,27.17,0,0,1-1.25,7.45,42.51,42.51,0,0,1-3.92,8.93,56.43,56.43,0,0,1-7.07,9.64,65.41,65.41,0,0,1-10.89,9.52A6.51,6.51,0,0,1,181.65,168.38Z"/><path class="cls-2" d="M188.49,122.8a37.83,37.83,0,0,1,4.74.3,16.19,16.19,0,0,1,4.4,1.18,7.4,7.4,0,0,1,3.21,2.66,8.27,8.27,0,0,1,1.2,4.7,21.22,21.22,0,0,1-1,5.64,36.45,36.45,0,0,1-3.33,7.53,49.87,49.87,0,0,1-6.27,8.51,58.72,58.72,0,0,1-9.8,8.56L175,156.1a51.48,51.48,0,0,0,8.19-6.15,48,48,0,0,0,5.87-6.48,32.77,32.77,0,0,0,3.54-5.8,11,11,0,0,0,1.17-4.14,2.32,2.32,0,0,0-1.36-2.38,7.71,7.71,0,0,0-3.07-.58q-2,0-5.28.3a63.2,63.2,0,0,0-7.74,1.3,90.81,90.81,0,0,0-10.34,3l-2.72-7.73q4.25-1.47,8.64-2.52a86.43,86.43,0,0,1,8.65-1.59,61.81,61.81,0,0,1,8-.56m0-13a75.17,75.17,0,0,0-9.63.67,97.87,97.87,0,0,0-10,1.83,103.27,103.27,0,0,0-9.92,2.89,13,13,0,0,0-8,16.61l2.73,7.73a13,13,0,0,0,11,8.61,13,13,0,0,0,1.76,17.77l6.66,5.78a13,13,0,0,0,16,.79,71.08,71.08,0,0,0,12-10.49A63.42,63.42,0,0,0,209,151.23a48.62,48.62,0,0,0,4.5-10.32,33.35,33.35,0,0,0,1.51-9.27,20.92,20.92,0,0,0-3.43-12,20.36,20.36,0,0,0-8.78-7.3,28.88,28.88,0,0,0-8-2.16,50.58,50.58,0,0,0-6.37-.41Z"/><path class="cls-2" d="M154.27,208.78a14,14,0,0,1-7.67-2,12.83,12.83,0,0,1-4.72-5.37,18.83,18.83,0,0,1-1.63-5.63,37,37,0,0,1-.33-4.94c0-2.14.11-4.45.33-6.87s.5-4.72.84-7.09.72-4.6,1.12-6.62a6.49,6.49,0,0,1,7.44-5.13l6.08,1a6.49,6.49,0,0,1,5.29,7.78c-.45,2.09-.84,4.2-1.15,6.28s-.55,4.06-.71,5.92c0,.68-.1,1.34-.14,2a39,39,0,0,0,4.31-2.46,41.72,41.72,0,0,0,4.85-3.74,6.52,6.52,0,0,1,4.31-1.63,6.86,6.86,0,0,1,1.73.23,6.5,6.5,0,0,1,4.46,4.31l2,6.37a6.5,6.5,0,0,1-1.89,6.83,46.4,46.4,0,0,1-12.45,7.89,41.21,41.21,0,0,1-6.15,2.11A24.16,24.16,0,0,1,154.27,208.78Z"/><path class="cls-2" d="M148.58,171.5l6.09,1q-.72,3.35-1.23,6.68c-.33,2.22-.59,4.33-.75,6.35s-.26,3.85-.26,5.51c0,.72,0,1.47.13,2.27a4.32,4.32,0,0,0,.68,2,2.05,2.05,0,0,0,1.82.83,9.8,9.8,0,0,0,2.52-.52A29.73,29.73,0,0,0,161.7,194a43.8,43.8,0,0,0,5.17-2.93,47.85,47.85,0,0,0,5.62-4.32l2,6.37a39,39,0,0,1-5.22,3.91,40,40,0,0,1-5.47,2.88,34.7,34.7,0,0,1-5.18,1.78,18.18,18.18,0,0,1-4.36.61,7.62,7.62,0,0,1-4.16-1,6.38,6.38,0,0,1-2.36-2.68,12.7,12.7,0,0,1-1.06-3.71,31,31,0,0,1-.27-4.08c0-2,.1-4,.31-6.29s.47-4.49.79-6.75.68-4.34,1.06-6.26m0-13A13,13,0,0,0,135.84,169c-.43,2.13-.83,4.47-1.19,7s-.65,5-.87,7.43c-.24,2.62-.36,5.13-.36,7.46a43.25,43.25,0,0,0,.39,5.8,25.06,25.06,0,0,0,2.2,7.55,19.42,19.42,0,0,0,7.06,8,20.3,20.3,0,0,0,11.2,3.08,31,31,0,0,0,7.51-1,47.93,47.93,0,0,0,7.14-2.44,53.1,53.1,0,0,0,7.25-3.81,52.23,52.23,0,0,0,6.94-5.19,13,13,0,0,0,3.79-13.66l-2-6.37A13,13,0,0,0,176,174.2a12.82,12.82,0,0,0-3.46-.47,13,13,0,0,0-5,1,13,13,0,0,0-10.69-15l-6.08-1a13.06,13.06,0,0,0-2.14-.18Z"/><path class="cls-2" d="M198.19,195.34a6.5,6.5,0,0,1-3.37-1,24.82,24.82,0,0,0-2.72-1.4c-1.2-.55-2.54-1.12-4-1.68-1.64-.63-3.38-1.26-5.18-1.86s-3.62-1.17-5.37-1.67-3.4-.93-4.93-1.28-2.64-.56-3.63-.69a6.49,6.49,0,0,1-5.55-7.59l1.11-6.24a6.51,6.51,0,0,1,6.4-5.36,6,6,0,0,1,.73,0,48.69,48.69,0,0,1,5.22.92c1.79.41,3.72.91,5.74,1.48s4.09,1.21,6.15,1.9,4.09,1.43,6,2.17,3.56,1.44,5.16,2.17,3.15,1.52,4.42,2.25a6.49,6.49,0,0,1,2.52,8.62L204,191.83a6.53,6.53,0,0,1-4,3.27A6.61,6.61,0,0,1,198.19,195.34Z"/><path class="cls-2" d="M171,173.12a40.85,40.85,0,0,1,4.5.8q2.53.59,5.42,1.39t5.85,1.81q3,1,5.7,2.07c1.73.66,3.33,1.34,4.82,2s2.77,1.34,3.87,2l-2.94,5.66a32.42,32.42,0,0,0-3.39-1.77q-2-.9-4.33-1.82c-1.74-.67-3.57-1.33-5.47-2s-3.79-1.22-5.65-1.75-3.62-1-5.25-1.36a42.17,42.17,0,0,0-4.24-.8l1.11-6.25m0-13a13,13,0,0,0-12.79,10.71l-1.11,6.25a13,13,0,0,0,11.11,15.18,30.13,30.13,0,0,1,3,.58c1.41.32,3,.72,4.6,1.19s3.38,1,5.1,1.58,3.34,1.16,4.88,1.76c1.32.51,2.55,1,3.65,1.53a18.48,18.48,0,0,1,2,1,13,13,0,0,0,6.76,1.9,12.69,12.69,0,0,0,3.5-.49,13,13,0,0,0,8-6.53l2.93-5.66a13,13,0,0,0-5-17.24c-1.45-.84-3.07-1.67-5-2.53-1.72-.79-3.57-1.57-5.52-2.32s-4.11-1.54-6.27-2.27-4.34-1.4-6.46-2-4.17-1.12-6-1.55a54.32,54.32,0,0,0-5.94-1.05,14.48,14.48,0,0,0-1.47-.08Z"/><path class="cls-2" d="M221.16,206.47a6.51,6.51,0,0,1-5.89-3.75c-.44-.93-1-2-1.65-3.1s-1.44-2.36-2.26-3.56-1.69-2.38-2.54-3.45a31.83,31.83,0,0,0-2.3-2.66,6.49,6.49,0,0,1-.47-8.57,6.51,6.51,0,0,1-3.6-5.46l-.34-6.3a6.5,6.5,0,0,1,6.17-6.85c1.28-.07,2.57-.1,3.85-.1,1.62,0,3.26.05,4.87.16a70.55,70.55,0,0,1,8.41,1,63.29,63.29,0,0,1,7.64,1.87,37.6,37.6,0,0,1,4,1.52,18.41,18.41,0,0,1,4.48,2.76,12.11,12.11,0,0,1,3.71,5.38,11.91,11.91,0,0,1-.09,7.55,16.3,16.3,0,0,1-3.21,5.6,30.5,30.5,0,0,1-4.49,4.23,42.28,42.28,0,0,1-4.42,3,6.49,6.49,0,0,1-3.74,7.88L223.64,206A6.39,6.39,0,0,1,221.16,206.47Z"/><path class="cls-2" d="M212.13,169.17c1.49,0,3,.05,4.45.14a66.28,66.28,0,0,1,7.66.93,55.83,55.83,0,0,1,6.85,1.68,31.6,31.6,0,0,1,3.34,1.26,12.4,12.4,0,0,1,2.91,1.79,5.74,5.74,0,0,1,1.75,2.52A5.53,5.53,0,0,1,239,181a9.75,9.75,0,0,1-2,3.35,23.37,23.37,0,0,1-3.51,3.3,36.18,36.18,0,0,1-4.5,3,41.07,41.07,0,0,1-4.83,2.34c.52.82,1,1.63,1.46,2.43s.85,1.55,1.21,2.27L221.16,200c-.53-1.13-1.17-2.34-1.93-3.63s-1.6-2.62-2.51-4-1.84-2.6-2.79-3.81a41,41,0,0,0-2.77-3.18l4.72-3a29.51,29.51,0,0,1,2.25,2.37q1.2,1.41,2.43,3a25.59,25.59,0,0,0,4.07-1.75,32,32,0,0,0,3.41-2.13,19.91,19.91,0,0,0,2.44-2.06,4.61,4.61,0,0,0,1.13-1.52,1.55,1.55,0,0,0-.62-1.76,8.22,8.22,0,0,0-2.71-1.33,29.2,29.2,0,0,0-4-.91c-1.53-.25-3.17-.43-4.92-.56s-3.51-.2-5.28-.23l-1.83,0c-1.13,0-2.22,0-3.29.06l-.34-6.3c1.18-.06,2.36-.09,3.53-.09"/><path class="cls-2" d="M247.66,195.24a6.5,6.5,0,0,1-6.37-5.24l-1.23-6.23a6.51,6.51,0,0,1,4.72-7.54,50.34,50.34,0,0,1,5.2-1c1.8-.26,3.78-.5,5.88-.7s4.25-.36,6.42-.46,4.32-.15,6.37-.15,3.85.06,5.6.16,3.49.27,4.93.49a6.49,6.49,0,0,1,5.47,7.13L284,188a6.5,6.5,0,0,1-6.46,5.8,6.27,6.27,0,0,1-1.14-.1,28.26,28.26,0,0,0-3-.32c-1.32-.08-2.78-.12-4.32-.12-1.75,0-3.6.05-5.5.14s-3.79.23-5.61.39-3.51.37-5.06.6-2.66.43-3.63.67A6.77,6.77,0,0,1,247.66,195.24Z"/><path class="cls-2" d="M268.65,180.39q2.78,0,5.22.15c1.63.09,3.07.24,4.32.43l-.68,6.33a34.86,34.86,0,0,0-3.8-.41c-1.45-.08-3-.13-4.7-.13-1.87,0-3.81.05-5.81.15s-4,.23-5.91.41-3.72.39-5.38.63-3.07.51-4.25.79l-1.22-6.22a42.18,42.18,0,0,1,4.48-.89q2.58-.37,5.56-.66c2-.19,4-.34,6.11-.43s4.09-.15,6.06-.15m0-13c-2.15,0-4.39.06-6.66.16s-4.56.27-6.75.48-4.3.46-6.21.74a54.09,54.09,0,0,0-5.91,1.18A13,13,0,0,0,233.68,185l1.23,6.23a13,13,0,0,0,15.85,10.12,30.67,30.67,0,0,1,3-.55c1.43-.21,3-.39,4.72-.55s3.51-.29,5.32-.38,3.54-.13,5.19-.13c1.42,0,2.75,0,3.95.11a20.65,20.65,0,0,1,2.27.23,12.55,12.55,0,0,0,2.28.2,13,13,0,0,0,12.92-11.6l.69-6.33a13,13,0,0,0-10.95-14.25c-1.67-.26-3.48-.44-5.53-.56-1.89-.11-3.9-.17-6-.17Z"/><path class="cls-2" d="M286.75,177.56a26.79,26.79,0,0,1-5-.47,14.8,14.8,0,0,1-5.94-2.58,13.89,13.89,0,0,1-4.49-5.81,14.51,14.51,0,0,1-.83-2.46,6.62,6.62,0,0,1-.88.06,6.51,6.51,0,0,1-6.42-5.44l-.89-5.44a6.5,6.5,0,0,1,3.14-6.68l-.78-4.12a6.5,6.5,0,0,1,5.07-7.57,105.85,105.85,0,0,1,21.8-2.22c.67,0,1.34,0,2,0l2.09.05a6.51,6.51,0,0,1,6.26,6.84l-.19,3.67a6.47,6.47,0,0,1,3.32,6l-.28,5.51a6.67,6.67,0,0,1-.81,2.81,6.69,6.69,0,0,1,.27.9l1.33,6.08a6.5,6.5,0,0,1-3.26,7.11,27.53,27.53,0,0,1-5.15,2.12,37.21,37.21,0,0,1-5.22,1.19A33.83,33.83,0,0,1,286.75,177.56Z"/><path class="cls-2" d="M291.57,141.33c.63,0,1.26,0,1.91,0l2,.05-.29,5.54c-.67,0-1.37-.09-2.1-.12s-1.49-.06-2.25-.06q-3,0-6.41.29c-.19.75-.38,1.53-.56,2.34s-.35,1.66-.52,2.52c2.4-.26,4.77-.47,7.13-.63s4.52-.23,6.51-.23h.81q.42,0,.81,0l-.29,5.51c-.5-.05-1-.07-1.56-.07H295.1q-2.91,0-6.17.25c-2.18.17-4.34.39-6.5.65-.07.65-.13,1.26-.18,1.84s-.07,1.11-.07,1.62a6.23,6.23,0,0,0,.37,2.26,2.86,2.86,0,0,0,1.39,1.5,6.36,6.36,0,0,0,2.88.52,18.55,18.55,0,0,0,6.79-1.22,46.58,46.58,0,0,0,4.3-1.91l1.33,6.08a20.84,20.84,0,0,1-3.94,1.62,32.79,32.79,0,0,1-4.34,1,27.1,27.1,0,0,1-4.21.34,19.56,19.56,0,0,1-3.73-.36,8.29,8.29,0,0,1-3.33-1.44,7.5,7.5,0,0,1-2.37-3.15,13.82,13.82,0,0,1-.9-5.45c0-.72,0-1.49.07-2.3q-3.75.64-6.84,1.44l-.9-5.44c1.15-.29,2.45-.58,3.89-.86s3-.56,4.6-.8q.43-2.52,1.05-5c-2.28.36-4.33.76-6.16,1.22l-1-5.54a97.88,97.88,0,0,1,20.48-2.09m0-13a115.16,115.16,0,0,0-11.79.59c-3.75.39-7.56,1-11.33,1.77a13,13,0,0,0-10.14,15.13l.12.63a13,13,0,0,0-2.51,10l.9,5.44a13,13,0,0,0,9,10.3,20,20,0,0,0,6.2,7.54,21.23,21.23,0,0,0,8.52,3.71,33.4,33.4,0,0,0,6.21.59,40.53,40.53,0,0,0,6.21-.49,43.82,43.82,0,0,0,6.1-1.4,34,34,0,0,0,6.36-2.62,13,13,0,0,0,6.52-14.22l-1.13-5.18a13.76,13.76,0,0,0,.48-2.88l.28-5.51a13,13,0,0,0-3.15-9.19l0-.5a13,13,0,0,0-12.53-13.66l-2.19-.06c-.73,0-1.44,0-2.15,0Z"/><path class="cls-2" d="M310.41,175.87a6.49,6.49,0,0,1-6.38-5.25l-1.23-6.23a6.51,6.51,0,0,1,4.72-7.54,48.46,48.46,0,0,1,5.2-1c1.81-.27,3.78-.51,5.88-.71s4.25-.35,6.43-.45,4.31-.16,6.36-.16,3.85.06,5.6.16,3.49.27,4.93.5a6.49,6.49,0,0,1,5.48,7.12l-.69,6.33a6.49,6.49,0,0,1-6.46,5.81,7.31,7.31,0,0,1-1.14-.1,25.67,25.67,0,0,0-3-.33c-1.32-.07-2.78-.11-4.32-.11-1.75,0-3.6,0-5.5.13s-3.79.23-5.61.4-3.51.36-5.06.59-2.66.43-3.63.67A6.76,6.76,0,0,1,310.41,175.87Z"/><path class="cls-2" d="M331.39,161q2.78,0,5.22.15c1.64.09,3.08.24,4.32.43l-.68,6.34a32.36,32.36,0,0,0-3.8-.42c-1.45-.08-3-.12-4.7-.12-1.87,0-3.81,0-5.81.14s-4,.23-5.9.41-3.73.4-5.39.63-3.07.51-4.24.8l-1.23-6.23a40,40,0,0,1,4.48-.88c1.72-.26,3.57-.48,5.57-.67s4-.34,6.1-.43,4.1-.15,6.06-.15m0-13c-2.15,0-4.39.06-6.66.16s-4.56.27-6.75.48-4.29.46-6.21.74a53.41,53.41,0,0,0-5.9,1.18,13,13,0,0,0-9.44,15.07l1.22,6.23A13,13,0,0,0,313.5,182a30.67,30.67,0,0,1,3-.55c1.44-.21,3-.39,4.72-.55s3.51-.29,5.32-.37,3.54-.13,5.19-.13c1.42,0,2.75,0,4,.1a20.41,20.41,0,0,1,2.27.24,13.3,13.3,0,0,0,2.27.2,13,13,0,0,0,12.92-11.61l.69-6.33a13,13,0,0,0-10.95-14.25c-1.66-.25-3.47-.44-5.53-.56-1.89-.11-3.9-.17-6-.17Z"/><path class="cls-2" d="M307.23,213.64a14,14,0,0,1-9.12-3.28c-2.55-2.13-4.28-5.35-5.16-9.56a6.48,6.48,0,0,1,1.52-5.66,6.53,6.53,0,0,1-1.45-6.31l1.7-5.55a6.38,6.38,0,0,1,2-3.07,6.42,6.42,0,0,1,.38-1.57l2-5.25a6.46,6.46,0,0,1,8.27-3.83,36.82,36.82,0,0,1,4.61,2c1.46.75,2.86,1.55,4.15,2.37a26.81,26.81,0,0,1,3.62,2.7,6.5,6.5,0,0,1,2.09,5.78,6.47,6.47,0,0,1,3.83-1.63,4.1,4.1,0,0,1,.5,0,6.48,6.48,0,0,1,5,2.37l4,4.83a6.49,6.49,0,0,1,.42,7.67,37.48,37.48,0,0,1-4.46,5.56,48.83,48.83,0,0,1-5.3,4.74,45.52,45.52,0,0,1-5.88,3.88,34.56,34.56,0,0,1-6.16,2.71A21.17,21.17,0,0,1,307.23,213.64Z"/><path class="cls-2" d="M305.18,175.68a30.9,30.9,0,0,1,3.83,1.67c1.29.66,2.49,1.35,3.62,2.07a21,21,0,0,1,2.77,2.05l-2.91,5a22.18,22.18,0,0,0-4.09-2.92,53.84,53.84,0,0,0-5.2-2.63l2-5.25m-4.25,9.5c1,.22,2.14.51,3.31.88s2.34.79,3.5,1.24,2.2.93,3.16,1.41l-2.26,5.4a25.85,25.85,0,0,0-2.94-1.37c-1.14-.46-2.28-.86-3.44-1.22a29.57,29.57,0,0,0-3-.8l1.69-5.54m25.24,2.09,4,4.82a29.94,29.94,0,0,1-3.69,4.59,43,43,0,0,1-4.61,4.12,37.16,37.16,0,0,1-5,3.33,28.91,28.91,0,0,1-5,2.22,14.76,14.76,0,0,1-4.54.79,7.52,7.52,0,0,1-5-1.76q-2.1-1.77-3-5.91l5.08-2.34a6.64,6.64,0,0,0,1.4,3.1,3.16,3.16,0,0,0,2.38.93,8,8,0,0,0,2.57-.59,24.66,24.66,0,0,0,3.66-1.75,32.33,32.33,0,0,0,4.14-2.84,34.54,34.54,0,0,0,4.1-3.89,29.43,29.43,0,0,0,3.53-4.82m-21-24.6A13,13,0,0,0,293,171.09l-2,5.26c-.08.23-.16.45-.23.68a12.92,12.92,0,0,0-2.3,4.36l-1.69,5.54a13,13,0,0,0,.22,8.27,13,13,0,0,0-.44,6.93c1.18,5.68,3.66,10.12,7.35,13.21a20.41,20.41,0,0,0,13.29,4.8,27.92,27.92,0,0,0,8.54-1.42,42.17,42.17,0,0,0,7.31-3.21,52.76,52.76,0,0,0,6.71-4.42,57.78,57.78,0,0,0,6-5.37,44.12,44.12,0,0,0,5.24-6.53,13,13,0,0,0-.84-15.35l-4-4.82a13,13,0,0,0-10-4.75,13.79,13.79,0,0,0-2.13-2.47,35.84,35.84,0,0,0-4.47-3.34c-1.47-.93-3-1.83-4.67-2.67a44.94,44.94,0,0,0-5.39-2.35,13,13,0,0,0-4.39-.77Z"/><path class="cls-2" d="M372.24,183a6.46,6.46,0,0,1-3.2-.84l-5-2.81a7.25,7.25,0,0,1-.79-.53c-.75-.17-1.5-.35-2.24-.54-1.86-.48-3.57-1-5.1-1.55a25.5,25.5,0,0,1-4.82-2.23,6.51,6.51,0,0,1-3-6.64l.91-5.18a6.44,6.44,0,0,1,2.11-3.76,6.06,6.06,0,0,1,.43-1.14l1.14-2.34a6.63,6.63,0,0,1-.14-2.7l.84-5.32a6.5,6.5,0,0,1,6.42-5.49l.59,0a56.63,56.63,0,0,1,7.89,1.22A54.25,54.25,0,0,1,374.5,145a28.62,28.62,0,0,1,5.76,2.69,11.81,11.81,0,0,1,5.61,12.23,31.19,31.19,0,0,1-1.63,6.18c-.59,1.65-1.39,3.59-2.36,5.79s-2.31,4.84-3.94,7.8a6.49,6.49,0,0,1-3.92,3.13A6.7,6.7,0,0,1,372.24,183Z"/><path class="cls-2" d="M359.86,148.44a51,51,0,0,1,7,1.08,47.57,47.57,0,0,1,5.43,1.55,22.08,22.08,0,0,1,4.47,2.06,5.88,5.88,0,0,1,2.29,2.44,6,6,0,0,1,.37,3.41,24.85,24.85,0,0,1-1.31,4.88c-.54,1.49-1.26,3.27-2.18,5.34s-2.15,4.5-3.7,7.31l-5-2.81.38-.62q-2.48-.44-5-1.09c-1.67-.43-3.18-.89-4.54-1.37a19.94,19.94,0,0,1-3.58-1.63l.9-5.19c.62.28,1.25.55,1.89.82s1.33.53,2,.79a52.87,52.87,0,0,0,5.33,1.6c1.82.45,3.68.82,5.58,1.13l.71-1.55a46,46,0,0,0-9.48-4.7c-1.2-.43-2.57-.84-4.11-1.24l2.43-4.94a40.83,40.83,0,0,1,4,1.21,49,49,0,0,1,4.79,2,41.9,41.9,0,0,1,4.42,2.51,10.45,10.45,0,0,0,.64-2.6,1.89,1.89,0,0,0-.7-1.63,8.76,8.76,0,0,0-2.69-1.35,25.92,25.92,0,0,0-3.43-.94c-1.27-.26-2.58-.49-3.94-.69s-2.68-.35-4-.48l.84-5.32m0-13a13,13,0,0,0-12.83,11l-.84,5.32a12.8,12.8,0,0,0-.14,2.62l-.28.57c-.08.16-.15.32-.22.48a12.92,12.92,0,0,0-2.89,6.16l-.9,5.19a13,13,0,0,0,6,13.28,32.07,32.07,0,0,0,6.05,2.81c1.71.62,3.61,1.2,5.65,1.73l1.25.31.21.12,5,2.81a13,13,0,0,0,17.81-5c1.73-3.16,3.1-5.87,4.18-8.29s1.89-4.42,2.54-6.23a37.66,37.66,0,0,0,1.95-7.49,18.3,18.3,0,0,0-8.56-18.6,35.58,35.58,0,0,0-7.06-3.33,61.69,61.69,0,0,0-6.89-2,67.34,67.34,0,0,0-8.77-1.36c-.39,0-.79-.05-1.18-.05Z"/><path class="cls-2" d="M395.7,177.53c-7.68,0-13.23-4.56-15.23-12.51a6.48,6.48,0,0,1,3.64-7.51l5.55-2.5c-.37-.37-.75-.72-1.14-1.06A22.87,22.87,0,0,0,385,151.4a6.49,6.49,0,0,1-1.51-10.1l4.14-4.39a6.48,6.48,0,0,1,8.06-1.13,48.94,48.94,0,0,1,5.3,3.71,33,33,0,0,1,5.4,5.53,6.51,6.51,0,0,1,1.24,2.7q.11-.19.21-.42a6.51,6.51,0,0,1,4.65-3.44,6.27,6.27,0,0,1,1.14-.1,6.49,6.49,0,0,1,4.41,1.72l4.57,4.21a6.48,6.48,0,0,1,2.1,4.78,6.65,6.65,0,0,1-.69,2.94,31.35,31.35,0,0,1-3,4.72,49.53,49.53,0,0,1-4,4.58,45.65,45.65,0,0,1-4.88,4.29,40.17,40.17,0,0,1-5.59,3.56,25.25,25.25,0,0,1-6.17,2.38A21.43,21.43,0,0,1,395.7,177.53Z"/><path class="cls-2" d="M392.32,141.36a40.87,40.87,0,0,1,4.57,3.21,26,26,0,0,1,4.32,4.43l-4.43,4.32a27.54,27.54,0,0,0-4-4.29,28.76,28.76,0,0,0-4.59-3.27l4.14-4.4m21.27,8.9,4.58,4.21v0a24.74,24.74,0,0,1-2.36,3.71,40.42,40.42,0,0,1-3.42,3.94,38.86,38.86,0,0,1-4.18,3.68,32.67,32.67,0,0,1-4.66,3,19.58,19.58,0,0,1-4.57,1.8,16.14,16.14,0,0,1-3.28.43q-7,0-8.93-7.6l5.44-2.45a6.37,6.37,0,0,0,1.44,3,3.14,3.14,0,0,0,2.34.94,8.92,8.92,0,0,0,1.94-.36,18.44,18.44,0,0,0,3.26-1.28,24.13,24.13,0,0,0,4.05-2.57,28.33,28.33,0,0,0,4.32-4.22,32.13,32.13,0,0,0,4-6.22m-21.27-21.9a13,13,0,0,0-9.46,4.09l-4.14,4.39a13,13,0,0,0-.72,17,13,13,0,0,0-3.83,12.76C376.91,177.51,385,184,395.7,184a27.85,27.85,0,0,0,6.09-.74,31.72,31.72,0,0,0,7.76-3,47,47,0,0,0,6.53-4.15,52.72,52.72,0,0,0,5.59-4.92,53.67,53.67,0,0,0,4.52-5.22,37.12,37.12,0,0,0,3.61-5.73,13,13,0,0,0-2.83-15.4l-4.57-4.21a13,13,0,0,0-8.81-3.44,12.84,12.84,0,0,0-4.6.84,38.14,38.14,0,0,0-4-3.68,53.51,53.51,0,0,0-6-4.22,12.93,12.93,0,0,0-6.66-1.84Z"/><path class="cls-2" d="M185.31,116.45a34,34,0,0,1-30.46-19.19c-4.69-10.08-4.55-23.8.35-34.12C159.56,54,169.81,47,180.72,45.85a32.17,32.17,0,0,1,3.41-.18,35.74,35.74,0,0,1,25.67,11.2,36.62,36.62,0,0,1,7.68,36.76,35,35,0,0,1-30,22.75C186.75,116.43,186,116.45,185.31,116.45Z"/><path class="cls-2" d="M184.13,52.17A29,29,0,0,1,201.29,58a28.72,28.72,0,0,1,3.77,3.37,29.94,29.94,0,0,1,6.31,30.07A28.7,28.7,0,0,1,187,109.89c-.57,0-1.13.06-1.7.06-10.19,0-20.26-6.16-24.56-15.43-3.9-8.39-3.65-20.22.32-28.59,3.61-7.6,12.15-12.75,20.33-13.62.91-.09,1.82-.14,2.73-.14m1.42,36.77a6.48,6.48,0,0,0,3.69-1.13,4.7,4.7,0,0,0,.65-.53,6.55,6.55,0,0,0-.55-10,7.21,7.21,0,0,0-4.43-1.44c-2.64,0-5.25,1.34-5.82,4.16a7.85,7.85,0,0,0,2.7,7.7,6.32,6.32,0,0,0,3.76,1.19m-1.42-49.77h0a39.72,39.72,0,0,0-4.09.21c-13.28,1.41-25.33,9.64-30.71,21-5.68,12-5.83,27.91-.37,39.65,6.38,13.73,21,23,36.35,23,.86,0,1.73,0,2.59-.09a41.61,41.61,0,0,0,35.69-27c5.3-14.57,1.66-32-9.05-43.42a41.1,41.1,0,0,0-5.49-4.89,42,42,0,0,0-24.92-8.37Z"/><path class="cls-1" d="M140.59,84.65c-2.12,5.12.95,19.19,4.36,33.1"/><path class="cls-2" d="M93.94,111.42a6.52,6.52,0,0,1-4.57-1.87L79.32,99.63a6.5,6.5,0,0,1,2.33-10.74l16.47-6a6.51,6.51,0,0,1,8.27,8.53L100,107.35a6.5,6.5,0,0,1-4.71,3.93A6.58,6.58,0,0,1,93.94,111.42Z"/><path class="cls-2" d="M100.36,89h0m0,0-6.42,16q-5-5-10.06-9.92l16.48-6m0-13-.92,0a12.81,12.81,0,0,0-3.82.87L79.42,82.79a13,13,0,0,0-4.67,21.46l3.16,3.12,6.9,6.8a13,13,0,0,0,9.13,3.75,13.14,13.14,0,0,0,2.64-.27,13,13,0,0,0,9.42-7.88l4.5-11.19,1.78-4.42A13,13,0,0,0,100.82,76Zm0,26Z"/><path class="cls-2" d="M44.9,115.77a6.53,6.53,0,0,1-6.33-5c-2.09-9-3.7-16.58-5.06-23.94a6.51,6.51,0,0,1,5.41-7.61l29.85-4.55a6.61,6.61,0,0,1,1-.08,6.48,6.48,0,0,1,4.56,1.87L88.45,90.37a6.49,6.49,0,0,1-2.33,10.73l-39,14.27A6.6,6.6,0,0,1,44.9,115.77Z"/><path class="cls-2" d="M69.76,81.06,83.88,95l-39,14.27c-1.82-7.78-3.52-15.64-5-23.65l29.86-4.56m0-13a13.07,13.07,0,0,0-2,.15l-15,2.29L37.94,72.77A13,13,0,0,0,27.12,88c1.36,7.36,3,15.29,5.12,24.24a13,13,0,0,0,17.13,9.25l39-14.26A13,13,0,0,0,93,85.74l-4.18-4.13-9.94-9.8a13,13,0,0,0-9.13-3.75Z"/><path class="cls-2" d="M100.36,95.47a6.5,6.5,0,0,1-6-8.93l5.54-13.77a6.49,6.49,0,0,1,4.94-4l29.88-5.09a6.59,6.59,0,0,1,1.09-.09,6.51,6.51,0,0,1,6.45,5.75c.22,1.83.47,3.66.72,5.49a6.49,6.49,0,0,1-4.2,7L102.59,95.07A6.4,6.4,0,0,1,100.36,95.47Z"/><path class="cls-2" d="M135.78,70.1c.22,1.88.47,3.76.73,5.64L100.36,89q2.76-6.89,5.54-13.78l29.88-5.09m0-13a12.27,12.27,0,0,0-2.18.19l-29.89,5.09a13,13,0,0,0-9.87,8L90.32,79.1l-2,5a13,13,0,0,0,16.52,17.06L141,88a13,13,0,0,0,8.41-14c-.23-1.61-.48-3.5-.7-5.35A13,13,0,0,0,135.78,57.1Z"/><path class="cls-2" d="M126.44,172.26a6.48,6.48,0,0,1-6.35-5.15l-5-23.54a6.48,6.48,0,0,1,1.67-5.84l23.48-24.48a6.5,6.5,0,0,1,11,3c.49,2,1,4,1.48,6,3.17,12.65,6,25.22,8.24,36.36a6.49,6.49,0,0,1-5,7.63l-28.16,5.94A6.26,6.26,0,0,1,126.44,172.26Z"/><path class="cls-2" d="M145,117.75c.49,2,1,4,1.49,6,2.92,11.68,5.79,24.16,8.17,36.05l-28.16,5.94-5-23.53L145,117.75m0-13a13,13,0,0,0-9.38,4l-23.48,24.48a13,13,0,0,0-3.34,11.69l3.35,15.86,1.63,7.67a13,13,0,0,0,12.7,10.32,13.19,13.19,0,0,0,2.7-.29l28.16-5.94a13,13,0,0,0,10.07-15.27c-2.25-11.22-5.12-23.9-8.31-36.65-.5-2-1-4-1.48-6A13,13,0,0,0,145,104.75Z"/><path class="cls-2" d="M60.58,182.18a6.5,6.5,0,0,1-6.37-5.26c-2.82-14.37-6.38-28.63-9.83-42.41-1.94-7.75-4-15.77-5.81-23.77a6.5,6.5,0,0,1,4.09-7.58l39-14.27a6.63,6.63,0,0,1,2.23-.39,6.51,6.51,0,0,1,4.57,1.87l3.1,3.06,2.78-6.89a6.47,6.47,0,0,1,3.79-3.67l36.16-13.24A6.5,6.5,0,0,1,143,74.84a411.52,411.52,0,0,0,8.31,41.37,6.48,6.48,0,0,1-1.62,6l-23.48,24.48a6.54,6.54,0,0,1-4.69,2,6.49,6.49,0,0,1-6.36-5.16l-2-9.49-3.17,6.32a6.49,6.49,0,0,1-4.05,3.34l-5.95,1.68a6.61,6.61,0,0,1-1.76.24A6.51,6.51,0,0,1,94,144.12l-5-4.28,7.36,28.8a6.5,6.5,0,0,1-5.12,8l-29.41,5.43A6.73,6.73,0,0,1,60.58,182.18Z"/><path class="cls-2" d="M136.51,75.74a423.75,423.75,0,0,0,8.44,42l-23.48,24.48q-2.94-13.84-5.86-27.67l-11.49,22.93-6,1.67L77.58,121.68Q83.79,146,90,170.25l-29.4,5.43C56.15,153,50.07,131.47,44.9,109.27L83.88,95q5,4.95,10.06,9.92l6.42-16,36.15-13.23m0-13a13,13,0,0,0-4.46.79L95.89,76.76A13,13,0,0,0,88.82,83a13,13,0,0,0-9.4-.18l-39,14.27a13,13,0,0,0-8.19,15.16c1.87,8,3.88,16.09,5.83,23.87,3.43,13.7,7,27.87,9.76,42.08a13,13,0,0,0,12.74,10.51,12.75,12.75,0,0,0,2.37-.22L92.35,183a13,13,0,0,0,10.24-16l-3.81-14.88a13.8,13.8,0,0,0,2.91-.47l1.57-.45,4.38-1.23a13.07,13.07,0,0,0,2.68-1.08,13,13,0,0,0,7.58,5.81,13.2,13.2,0,0,0,3.57.5,13,13,0,0,0,9.38-4l23.48-24.48a13,13,0,0,0,3.24-12.09,403.6,403.6,0,0,1-8.18-40.72,13,13,0,0,0-12.88-11.2Z"/><path class="cls-2" d="M409.38,79.41a6.5,6.5,0,0,1-6.13-4.34l-5.87-16.63a6.5,6.5,0,0,1,4-8.29l54-19a6.5,6.5,0,0,1,8,8.93l-10.78,22.5a6.44,6.44,0,0,1-3.7,3.32L411.54,79A6.41,6.41,0,0,1,409.38,79.41Z"/><path class="cls-2" d="M457.56,37.23,446.79,59.72l-19.17,6.76-18.24,6.43-5.87-16.63,18.24-6.43,35.81-12.62m0-13a13,13,0,0,0-4.32.74L417.43,37.59,399.19,44a13,13,0,0,0-7.94,16.58l5.87,16.63a13,13,0,0,0,12.26,8.68,12.83,12.83,0,0,0,4.32-.74l18.24-6.43L451.11,72a13,13,0,0,0,7.41-6.64l10.77-22.5a13,13,0,0,0-11.73-18.61Zm0,26h0Z"/><path class="cls-2" d="M435.41,90h-.35a6.51,6.51,0,0,1-5.78-4.33l-5.06-14.36a6.52,6.52,0,0,1,4-8.3l14.37-5.06a6.4,6.4,0,0,1,2.15-.37,6.51,6.51,0,0,1,5.87,9.31L441.27,86.3A6.5,6.5,0,0,1,435.41,90Z"/><path class="cls-2" d="M444.72,64.06l-9.31,19.43-5.06-14.37,14.37-5.06m0-13a13,13,0,0,0-4.32.74L426,56.86a13,13,0,0,0-7.94,16.59l5.06,14.36a13,13,0,0,0,11.56,8.66l.71,0a13,13,0,0,0,11.72-7.38l9.3-19.43a13,13,0,0,0-11.73-18.62Zm0,26Z"/><path class="cls-2" d="M384.81,65.76a6.49,6.49,0,0,1-5.86-9.3L401.1,10.19A6.5,6.5,0,0,1,407,6.5h.35a6.49,6.49,0,0,1,5.78,4.33l12.06,34.21a6.51,6.51,0,0,1-4,8.29L387,65.39A6.46,6.46,0,0,1,384.81,65.76Z"/><path class="cls-2" d="M407,13l5.63,16L419,47.21l-18.24,6.43-16,5.62L407,13m0-13a13,13,0,0,0-11.72,7.39L373.09,53.65a13,13,0,0,0,16,17.87l16-5.62,18.24-6.43a13,13,0,0,0,7.94-16.58l-6.43-18.24-5.63-16A13,13,0,0,0,407.66,0L407,0Z"/><path class="cls-2" d="M211.64,123.8a6.48,6.48,0,0,1-6.5-6.5v-4.63a6.49,6.49,0,0,1,5.49-6.42l-.24-12.32a6.52,6.52,0,0,1,6.5-6.63h.33l22.87,1.16a6.5,6.5,0,0,1,6.17,6.63l-.32,14.62a6.74,6.74,0,0,1,.59,2.25,6.5,6.5,0,0,1-5.39,6.9l-28.41,4.84A6.77,6.77,0,0,1,211.64,123.8Z"/><path class="cls-2" d="M216.89,93.8,239.76,95l-.39,17.5H240l-28.4,4.83v-4.63l5.61-.31-.36-18.56m0-13a13,13,0,0,0-13,13.25l.16,8.06a13,13,0,0,0-5.41,10.56v4.63a13,13,0,0,0,13,13,13.45,13.45,0,0,0,2.18-.18l28.41-4.84A13,13,0,0,0,253,111.47a13.53,13.53,0,0,0-.55-2.86l.3-13.36A13,13,0,0,0,240.42,82l-22.87-1.16-.66,0Z"/><path class="cls-2" d="M248.85,175.91c-13.9,0-23.32-2.91-29.67-9.18a6.5,6.5,0,0,1,2.19-10.67L250,144.81a6.5,6.5,0,0,1,2.38-.46l.54,0,.91.07a6.51,6.51,0,0,1,6,6.38l.28,18.37a6.49,6.49,0,0,1-6.2,6.59C252.15,175.87,250.46,175.91,248.85,175.91Z"/><path class="cls-2" d="M252.33,150.85l1,.08.28,18.37c-1.64.08-3.22.11-4.72.11-12.49,0-20.29-2.55-25.11-7.3l28.58-11.26m0-13a13,13,0,0,0-4.76.91L219,150a13,13,0,0,0-4.37,21.35c7.53,7.44,18.73,11,34.24,11,1.7,0,3.48,0,5.31-.12a13,13,0,0,0,12.41-13.19l-.28-18.37a13,13,0,0,0-12-12.76l-.62-.05-.23,0c-.36,0-.72-.05-1.09-.05Z"/><path class="cls-2" d="M359.35,98.65a6.48,6.48,0,0,1-6.48-6c-.43-5.53-.72-10-.93-14A6.5,6.5,0,0,1,358,71.79l25.44-1.6h.4a6.5,6.5,0,0,1,3.84,1.25c1.41-.14,2.82-.21,4.18-.21a31.65,31.65,0,0,1,8.17,1,32.52,32.52,0,0,1,13.05,6.53A6.5,6.5,0,0,1,410,90.12l-49.57,8.44A6.68,6.68,0,0,1,359.35,98.65Z"/><path class="cls-2" d="M383.87,76.68v1.95a37.24,37.24,0,0,1,8-.91,25.14,25.14,0,0,1,6.53.78,26,26,0,0,1,10.51,5.21l-49.57,8.44c-.37-4.76-.69-9.45-.92-13.87l25.44-1.6m0-13c-.28,0-.55,0-.82,0l-25.44,1.6A13,13,0,0,0,345.45,79c.21,4.08.52,8.72.94,14.19a13,13,0,0,0,13,12,13.45,13.45,0,0,0,2.18-.18l49.57-8.44a13,13,0,0,0,6.18-22.77,38.88,38.88,0,0,0-15.58-7.83,37.74,37.74,0,0,0-9.82-1.21c-.9,0-1.81,0-2.73.08a12.9,12.9,0,0,0-5.28-1.12Zm0,26Z"/><path class="cls-2" d="M397.51,141.82a6.5,6.5,0,0,1-5.71-3.4,6.82,6.82,0,0,1-1,1.42,6.47,6.47,0,0,1-4.67,2l-23.41,0a6.49,6.49,0,0,1-6.49-6.2c-.34-7.33-1.13-16.69-2-26.6l0-.29a6.51,6.51,0,0,1,4.09-6.6l52-20.48a6.65,6.65,0,0,1,2.38-.45,6.52,6.52,0,0,1,5.23,2.63c8.82,11.91,8.65,29.38,8.51,44.8,0,2.27-.05,4.52,0,6.7a6.49,6.49,0,0,1-6.5,6.52Z"/><path class="cls-2" d="M412.67,87.72c8.71,11.75,7.14,31.34,7.2,47.65l-22.35-.05c-.06-11.46,1.43-36.1-7.65-36.1a5.27,5.27,0,0,0-.68,0c-6.95.88-3.46,25.23-3.1,36.06l-23.41,0c-.34-7.52-1.16-17.1-2-27.14l52-20.48m0-13a13,13,0,0,0-4.76.9l-52,20.48a13,13,0,0,0-8.19,13.2l0,.25c.84,9.86,1.63,19.17,2,26.38a13,13,0,0,0,13,12.41h0l23.41,0a13,13,0,0,0,5.7-1.32,12.93,12.93,0,0,0,5.69,1.32l22.35.05h0a13,13,0,0,0,13-13.05c0-2.12,0-4.3,0-6.61.15-16.43.33-35.07-9.79-48.73a13,13,0,0,0-10.45-5.26Z"/><path class="cls-2" d="M323.79,137.27a12.91,12.91,0,0,1-7.62-2.46A13.72,13.72,0,0,1,311,126.6a6.51,6.51,0,0,1,4-7.41l11.61-4.57a6.61,6.61,0,0,1,2.38-.45,6.52,6.52,0,0,1,5.37,2.83,12.94,12.94,0,0,1-1.79,16.86,11.9,11.9,0,0,1-1.35,1.1,13,13,0,0,1-7.43,2.31Z"/><path class="cls-2" d="M329,120.67a6.47,6.47,0,0,1-.86,8.44,5.56,5.56,0,0,1-.65.53,6.56,6.56,0,0,1-7.45-.06,7.22,7.22,0,0,1-2.65-4.34L329,120.67m0-13a13,13,0,0,0-4.76.9l-11.61,4.58A13,13,0,0,0,304.67,128a20.19,20.19,0,0,0,7.66,12.09,19.55,19.55,0,0,0,22.62.23,18.64,18.64,0,0,0,2.08-1.69,19.4,19.4,0,0,0,2.69-25.26A13,13,0,0,0,329,107.67Z"/><path class="cls-2" d="M303.78,108.12A6.51,6.51,0,0,1,299.23,97,33.83,33.83,0,0,1,319,87.68a32.32,32.32,0,0,1,3.41-.18,35.05,35.05,0,0,1,14.15,3A6.5,6.5,0,0,1,335,102.9L304.87,108A5.82,5.82,0,0,1,303.78,108.12Z"/><path class="cls-2" d="M322.37,94a28.44,28.44,0,0,1,11.51,2.49l-30.1,5.13a27.36,27.36,0,0,1,15.86-7.48c.91-.09,1.82-.14,2.73-.14m0-13a39.53,39.53,0,0,0-4.08.21,40.44,40.44,0,0,0-23.6,11.11,13,13,0,0,0,9.08,22.3,12.46,12.46,0,0,0,2.19-.19l30.1-5.12a13,13,0,0,0,3.1-24.7A41.74,41.74,0,0,0,322.37,81Z"/><path class="cls-2" d="M323.56,158.28a33.11,33.11,0,0,1-32.06-23.36,6.51,6.51,0,0,1,3.82-8L315,119.19a6.5,6.5,0,0,1,7.52,2.07,6.5,6.5,0,0,1,4.09-6.64l20.24-8a6.49,6.49,0,0,1,2.38-.45,6.66,6.66,0,0,1,2.62.55,6.52,6.52,0,0,1,3.45,3.62,35.91,35.91,0,0,1,.43,25.09,35,35,0,0,1-30,22.75C325,158.25,324.27,158.28,323.56,158.28Z"/><path class="cls-2" d="M349.23,112.7a29.66,29.66,0,0,1,.39,20.53,28.72,28.72,0,0,1-24.36,18.49c-.57,0-1.14.06-1.7.06A27.63,27.63,0,0,1,299,136.35a28.1,28.1,0,0,1-1.28-3.36l19.67-7.75a7.22,7.22,0,0,0,2.65,4.34,6.56,6.56,0,0,0,7.45.06,5.56,5.56,0,0,0,.65-.53,6.47,6.47,0,0,0,.86-8.44l20.24-8m0-13a12.82,12.82,0,0,0-4.76.91l-20.24,8a13,13,0,0,0-5.22,3.77,14.86,14.86,0,0,0-1.63-.1,12.86,12.86,0,0,0-4.76.91l-19.68,7.74a13,13,0,0,0-7.65,16,39.86,39.86,0,0,0,1.92,5c6.37,13.73,21,22.95,36.35,22.95.86,0,1.73,0,2.58-.09a41.6,41.6,0,0,0,35.69-27,42.36,42.36,0,0,0-.46-29.63,13,13,0,0,0-12.14-8.35Z"/><path class="cls-2" d="M317.38,131.74A6.5,6.5,0,0,1,311,126.6a15,15,0,0,1,0-6c1.13-5.61,6-9.38,12.19-9.38a13.62,13.62,0,0,1,8.45,2.84,13.26,13.26,0,0,1,2.75,2.94,6.51,6.51,0,0,1-3,9.72l-11.61,4.57A6.53,6.53,0,0,1,317.38,131.74Z"/><path class="cls-2" d="M323.16,117.72a7.16,7.16,0,0,1,4.42,1.44,6.7,6.7,0,0,1,1.41,1.51l-11.61,4.57a8.27,8.27,0,0,1,0-3.36c.57-2.82,3.17-4.16,5.82-4.16m0-13c-9.19,0-16.82,6-18.56,14.58a21.42,21.42,0,0,0,.07,8.66,13,13,0,0,0,17.47,9.38l11.61-4.57a13,13,0,0,0,6-19.44,19.94,19.94,0,0,0-4.08-4.37,20.17,20.17,0,0,0-12.48-4.24Z"/><path class="cls-2" d="M262.93,115.07a6.5,6.5,0,0,1-6.48-5.95A189.9,189.9,0,0,1,255.52,84,6.5,6.5,0,0,1,262,77.74h25.47A6.51,6.51,0,0,1,294,84.5a164.66,164.66,0,0,0,.63,19.27,6.52,6.52,0,0,1-5.39,6.92L264,115A6.68,6.68,0,0,1,262.93,115.07Z"/><path class="cls-2" d="M287.48,84.24h0m0,0a171.33,171.33,0,0,0,.65,20l-25.2,4.29A184.69,184.69,0,0,1,262,84.24h25.47m0-13H262a13,13,0,0,0-13,12.42,197.59,197.59,0,0,0,.95,26,13,13,0,0,0,13,11.91,13.45,13.45,0,0,0,2.18-.18l25.2-4.29a13,13,0,0,0,10.78-13.83A161.64,161.64,0,0,1,300.46,85c0-.25,0-.51,0-.77a13,13,0,0,0-13-13Zm0,26h0Z"/><path class="cls-2" d="M262.33,80.79a6.5,6.5,0,0,1-6.5-6.46c0-6.19,0-12.29.41-18.77a6.49,6.49,0,0,1,6.48-6.06h23.6a6.5,6.5,0,0,1,6.49,6.82c0,.86-.09,1.87-.15,3-.19,3.36-.42,7.54-.4,10l.18,4.76A6.49,6.49,0,0,1,286,80.79Z"/><path class="cls-2" d="M286.32,56h0m0,0c-.17,3.58-.6,10-.56,13.44l.19,4.85H262.33c0-6.21,0-12.1.39-18.29h23.6m0-13H262.72a13,13,0,0,0-13,12.12c-.46,6.71-.46,12.94-.42,19.25a13,13,0,0,0,13,12.92H286a13,13,0,0,0,13-13.5l-.18-4.65c0-2.26.22-6.43.39-9.48.05-1,.1-1.93.14-2.73q0-.47,0-.93a13,13,0,0,0-13-13Zm0,26h0Z"/><path class="cls-2" d="M252.33,157.35a4.87,4.87,0,0,1-.54,0c-7.82-.66-13.35-2-16.74-6.38-3.07-4-3.07-8.73-3.07-15.28,0-1.59,0-3.35,0-5.31a6.51,6.51,0,0,1,6.5-6.64h5.22c0-1.61,0-3.23,0-4.7l-3.73-.06a6.5,6.5,0,0,1-1-12.91l22.89-3.9a6.59,6.59,0,0,1,1.09-.09,6.49,6.49,0,0,1,6.47,6l.08.86c.45,5.36.91,10.85,1.08,16.6h12.52c-.17-5.35-.61-10.67-1-15.87-.13-1.61-.27-3.22-.39-4.84A6.5,6.5,0,0,1,287,97.87l15.65-2.66a5.74,5.74,0,0,1,1.09-.1,6.5,6.5,0,0,1,4.54,11.15,15.15,15.15,0,0,0-3.13,4.28,30.26,30.26,0,0,0-1.28,20.52,6.49,6.49,0,0,1-3.82,8L254.72,156.9A6.5,6.5,0,0,1,252.33,157.35Z"/><path class="cls-2" d="M303.78,101.62h0m0,0a21.39,21.39,0,0,0-4.46,6.13A36.71,36.71,0,0,0,297.71,133l-45.38,17.86c-15.89-1.33-13.55-4.94-13.9-20.63l11.69,0c0-6.69.09-17.62.09-17.62L240,112.47l22.89-3.9A226.26,226.26,0,0,1,264.1,132l25.54,0c.15-9.48-.8-18.62-1.51-27.72l15.65-2.66m0-13q-.4,0-.81,0a12.36,12.36,0,0,0-1.62.2L286,91.46a13,13,0,0,0-10.82,12.62,13,13,0,0,0-12.2-8.51,13.27,13.27,0,0,0-2.18.18l-22.89,3.9a13,13,0,0,0-8.05,20.84c-.22.2-.45.41-.66.63a13,13,0,0,0-3.72,9.39c0,1.86,0,3.54,0,5.16,0,6.93,0,13.48,4.41,19.24,5.38,7,13.84,8.27,21.35,8.9.37,0,.73,0,1.09,0a13,13,0,0,0,4.77-.9l45.37-17.87a13,13,0,0,0,7.65-16,24,24,0,0,1,.94-15.79,8.56,8.56,0,0,1,1.73-2.34,13,13,0,0,0-8-22.34c-.33,0-.65,0-1,0Zm0,26Z"/><path class="cls-2" d="M264.09,138.47a6.51,6.51,0,0,1-6.49-6.62A208.25,208.25,0,0,0,256.52,110l-.07-.86a6.51,6.51,0,0,1,5.39-7L287,97.87a6.52,6.52,0,0,1,5.08,1.28,6.51,6.51,0,0,1,2.49,4.62c.12,1.59.25,3.19.38,4.78.63,7.58,1.28,15.42,1.15,23.55a6.5,6.5,0,0,1-6.5,6.4Z"/><path class="cls-2" d="M288.13,104.28c.71,9.1,1.66,18.24,1.51,27.72l-25.54,0a226.26,226.26,0,0,0-1.17-23.4l25.2-4.29m0-13a13.27,13.27,0,0,0-2.18.18l-25.2,4.29A13,13,0,0,0,250,109.66l.07.83a204,204,0,0,1,1.06,21.25,13,13,0,0,0,13,13.23l25.55,0h0a13,13,0,0,0,13-12.8c.13-8.46-.53-16.46-1.17-24.2-.13-1.58-.26-3.16-.38-4.73a13,13,0,0,0-13-12Z"/><path class="cls-2" d="M349.23,119.2a6.42,6.42,0,0,1-2.62-.55,6.49,6.49,0,0,1-3.45-3.62,22.58,22.58,0,0,0-4.59-7.43,22,22,0,0,0-2.92-2.6,23.32,23.32,0,0,0-4.41-2.57,6.5,6.5,0,0,1,1.55-12.35l25.47-4.33a5.67,5.67,0,0,1,1.09-.1,6.51,6.51,0,0,1,6.48,6c.42,5.5.91,11.32,1.31,16a6.5,6.5,0,0,1-4.09,6.6l-11.44,4.5A6.53,6.53,0,0,1,349.23,119.2Z"/><path class="cls-2" d="M359.35,92.15c.4,5.33.86,10.75,1.32,16l-11.44,4.5a28.31,28.31,0,0,0-9.7-12.91,29.81,29.81,0,0,0-5.65-3.3l25.47-4.34m0-13a12.27,12.27,0,0,0-2.18.19L331.7,83.67a13,13,0,0,0-3.1,24.7,16.13,16.13,0,0,1,3.17,1.85,15.12,15.12,0,0,1,2.07,1.84,16.31,16.31,0,0,1,3.25,5.29A13,13,0,0,0,354,124.8l11.44-4.51a13,13,0,0,0,8.19-13.19c-.49-5.71-.92-10.85-1.31-15.94a13,13,0,0,0-13-12Z"/><path class="cls-2" d="M297.71,139.49a6.51,6.51,0,0,1-6.21-4.57c-2.95-9.48-2.19-21.24,1.95-29.95a27.53,27.53,0,0,1,5.79-8,6.4,6.4,0,0,1,3.45-1.76l30.1-5.13a6.68,6.68,0,0,1,1.09-.09,6.48,6.48,0,0,1,2.64.56,36.22,36.22,0,0,1,6.89,4,34.7,34.7,0,0,1,11.89,15.79,6.51,6.51,0,0,1-3.69,8.38l-20.24,8a6.51,6.51,0,0,1-7.52-2.07,6.49,6.49,0,0,1-4.09,6.64L300.09,139A6.57,6.57,0,0,1,297.71,139.49Z"/><path class="cls-2" d="M333.88,96.49a29.81,29.81,0,0,1,5.65,3.3,28.31,28.31,0,0,1,9.7,12.91l-20.24,8a6.7,6.7,0,0,0-1.41-1.51,7.16,7.16,0,0,0-4.42-1.44c-2.65,0-5.25,1.34-5.82,4.16a8.27,8.27,0,0,0,0,3.36L297.71,133a36.71,36.71,0,0,1,1.61-25.24,21.39,21.39,0,0,1,4.46-6.13l30.1-5.13m0-13a13.27,13.27,0,0,0-2.18.18L301.6,88.8a13,13,0,0,0-6.91,3.52,34.5,34.5,0,0,0-7.12,9.86,49.65,49.65,0,0,0-2.28,34.67A13,13,0,0,0,297.71,146a12.86,12.86,0,0,0,4.76-.91l19.67-7.74a13,13,0,0,0,5.22-3.77,12.74,12.74,0,0,0,1.63.1,13,13,0,0,0,4.76-.9l20.24-8a13,13,0,0,0,7.38-16.75,42,42,0,0,0-8.59-13.8,42.45,42.45,0,0,0-5.48-4.89,43,43,0,0,0-8.14-4.75,13,13,0,0,0-5.28-1.12Z"/><path class="cls-2" d="M412.68,94.22a6.5,6.5,0,0,1-5.23-2.63,16.63,16.63,0,0,0-2.71-2.9,6.5,6.5,0,0,1,3.09-11.38l24.53-4.18a6.92,6.92,0,0,1,1.1-.1,6.5,6.5,0,0,1,2.38,12.55l-20.78,8.19A6.65,6.65,0,0,1,412.68,94.22Z"/><path class="cls-2" d="M433.46,79.54h0m0,0-20.79,8.18a22.91,22.91,0,0,0-3.75-4l24.54-4.17m0-13c-.34,0-.68,0-1,0a13.11,13.11,0,0,0-1.42.19L406.74,70.9a13,13,0,0,0-6.19,22.77,10.55,10.55,0,0,1,1.68,1.78,13,13,0,0,0,10.45,5.27,12.81,12.81,0,0,0,4.76-.91l20.49-8.06a13.46,13.46,0,0,0,2.68-1.35,13.1,13.1,0,0,0,2.77-2.47,13,13,0,0,0-8.08-21.27,14,14,0,0,0-1.83-.13Zm0,26Z"/><path class="cls-2" d="M360.67,114.7a6.51,6.51,0,0,1-6.48-6c-.4-4.7-.9-10.54-1.32-16.1a6.49,6.49,0,0,1,5.39-6.9l49.57-8.44a5.74,5.74,0,0,1,1.09-.1,6.51,6.51,0,0,1,4.18,1.53,29.87,29.87,0,0,1,4.8,5.11,6.51,6.51,0,0,1-2.84,9.92l-52,20.48A6.57,6.57,0,0,1,360.67,114.7Z"/><path class="cls-2" d="M408.92,83.71a22.91,22.91,0,0,1,3.75,4l-52,20.48c-.46-5.3-.92-10.72-1.32-16l49.57-8.44m0-13a12.27,12.27,0,0,0-2.18.19l-49.57,8.44a13,13,0,0,0-10.78,13.8c.39,5.2.83,10.39,1.32,16.16a13,13,0,0,0,17.72,11l52-20.48A13,13,0,0,0,423.12,80a36.67,36.67,0,0,0-5.84-6.22,13,13,0,0,0-8.36-3.05Z"/><path class="cls-2" d="M215.92,171.69a6.5,6.5,0,0,1-6.22-4.63l-13.88-46.25a6.5,6.5,0,0,1,5.13-8.28l9.6-1.63a5.67,5.67,0,0,1,1.09-.1,6.52,6.52,0,0,1,6.5,6.5V124a6.49,6.49,0,0,1,4.89,6.48c-.35,12.73.41,22.2,5.29,27a6.51,6.51,0,0,1-2.19,10.68l-7.82,3.08A6.58,6.58,0,0,1,215.92,171.69Z"/><path class="cls-2" d="M211.64,117.3v13h4.89c-.39,14.29.51,25.2,7.22,31.82l-7.83,3.08L202,118.94l9.6-1.64m4.89,13h0m-4.9-26a12.46,12.46,0,0,0-2.19.19l-9.59,1.63a13,13,0,0,0-10.27,16.55l13.88,46.26a13,13,0,0,0,12.45,9.26,13.11,13.11,0,0,0,4.77-.9l7.82-3.09a13,13,0,0,0,4.37-21.34c-3.37-3.33-3.6-12.93-3.36-22,0-.21,0-.41,0-.62a13,13,0,0,0-4.9-10.17V117.3a13,13,0,0,0-13-13Z"/><path class="cls-2" d="M223.75,168.61a6.48,6.48,0,0,1-4.57-1.88C211.5,159.15,210,148,210,136.58a6.55,6.55,0,0,1-2.9-1.68,6.46,6.46,0,0,1-1.91-4.6v-13a6.48,6.48,0,0,1,5.41-6.4l28.4-4.84A6.68,6.68,0,0,1,240,106l10.27.16a6.5,6.5,0,0,1,6.4,6.53s-.06,10.93-.09,17.62a6.51,6.51,0,0,1-6.5,6.47H245c0,2.56,0,5.34.39,6.26.46.27,2.08.92,7.51,1.38a6.5,6.5,0,0,1,1.84,12.52l-28.59,11.26A6.57,6.57,0,0,1,223.75,168.61Z"/><path class="cls-2" d="M240,112.47l10.17.16s-.06,10.93-.09,17.62l-11.69,0c.35,15.69-2,19.3,13.9,20.63l-28.58,11.26c-6.71-6.62-7.61-17.53-7.22-31.82h-4.89v-13l28.4-4.83m0-13a13.27,13.27,0,0,0-2.18.18l-28.41,4.84a13,13,0,0,0-10.81,12.81v13a13,13,0,0,0,3.81,9.2,12.4,12.4,0,0,0,1.09,1c.44,11.29,2.73,22.65,11.08,30.89a13,13,0,0,0,13.89,2.84L257.1,163A13,13,0,0,0,259,139.71a13,13,0,0,0,4.09-9.4c0-6.68.09-17.61.09-17.61a13,13,0,0,0-12.79-13.07l-10.17-.16Z"/><path class="cls-2" d="M24.51,74.42a6.53,6.53,0,0,1-3.93-1.32l-4-3c-.8-.61-1.62-1.23-2.47-1.86S12.52,67,11.72,66.48s-1.35-.89-1.91-1.2A6.51,6.51,0,0,1,7.61,56c.4-.58.86-1.28,1.39-2.09s1.06-1.64,1.61-2.54,1.15-1.87,1.71-2.8,1-1.65,1.38-2.38.68-1.31.8-1.58a6.51,6.51,0,0,1,3.76-3.5,6.6,6.6,0,0,1,2.19-.38,6.46,6.46,0,0,1,2.92.69l4,2A6.49,6.49,0,0,1,30.29,52c-.31.66-.68,1.38-1.13,2.19s-.83,1.47-1.29,2.27c-.09.16-.18.32-.28.47L29.16,58l1.49,1,.22.16a6.79,6.79,0,0,1,1.39,9.27l-2.55,3.39a6.45,6.45,0,0,1-4.3,2.54A5.46,5.46,0,0,1,24.51,74.42Z"/><path class="cls-2" d="M20.45,47.2l4,2c-.25.53-.57,1.13-1,1.82l-1.22,2.16c-.44.75-.88,1.48-1.32,2.2s-.85,1.36-1.22,1.94-.68,1-.93,1.39q2.68,1.88,4.3,3l2.46,1.68,1.13.76.23.16-.09,0,0,0s0,0,0,0,.1.12.3.27l-2.55,3.4-1.69-1.29-2.26-1.74c-.83-.63-1.68-1.28-2.57-1.93s-1.75-1.27-2.61-1.86S13.72,60,13,59.61c.41-.61.89-1.33,1.44-2.17s1.12-1.73,1.7-2.69l1.74-2.83q.86-1.41,1.53-2.64c.45-.83.79-1.52,1-2.08M26.9,64.3h0l0,0M20.45,34.2A13,13,0,0,0,8.55,42,11.94,11.94,0,0,1,8,43c-.35.66-.77,1.37-1.24,2.15S5.66,47,5.08,47.92s-1,1.69-1.52,2.41-1,1.44-1.33,2a13,13,0,0,0,4.4,18.61c.27.15.74.43,1.42.9s1.47,1,2.21,1.57,1.61,1.2,2.38,1.79L14.92,77l1.74,1.33a13,13,0,0,0,7.85,2.64,12.24,12.24,0,0,0,1.81-.13,13,13,0,0,0,8.59-5.08l2.55-3.39A13.32,13.32,0,0,0,36,55l.13-.26a13,13,0,0,0-5.9-17.2l-4-2a12.91,12.91,0,0,0-5.85-1.39Z"/><path class="cls-2" d="M30,74.68a6.5,6.5,0,0,1-6.33-5.06c-.07-.29-.17-.78-.3-1.45s-.23-1.26-.38-2.07-.3-1.73-.46-2.69l-.44-2.75c-.17-1-.32-2-.46-3,0,0-.53-3.52-.57-3.8a6.49,6.49,0,0,1,5.27-7.43l4.16-.74a6.17,6.17,0,0,1,1.13-.1A10.59,10.59,0,0,1,33.9,45a10.32,10.32,0,0,1,1.66-.13,9.69,9.69,0,0,1,2.35.28,11,11,0,0,1,3.91-1.42,11.83,11.83,0,0,1,2-.16,10.19,10.19,0,0,1,4.27.9A10.8,10.8,0,0,1,52.36,48a15.37,15.37,0,0,1,2,3.87,26.47,26.47,0,0,1,1,3.56c.21,1,.41,2,.57,3s.33,2.17.44,3.1c.09.73.19,1.43.31,2.07A6.51,6.51,0,0,1,51.4,71.2l-4.27.68a6.18,6.18,0,0,1-1,.09,6.53,6.53,0,0,1-1-.08,6.59,6.59,0,0,1-1.94.63L39,73.19a7,7,0,0,1-1,.08,6,6,0,0,1-.73,0,6.59,6.59,0,0,1-1.85.61l-4.29.74A6,6,0,0,1,30,74.68Z"/><path class="cls-2" d="M43.76,50.06a3.87,3.87,0,0,1,1.6.32,4.4,4.4,0,0,1,1.76,1.45,9.19,9.19,0,0,1,1.19,2.27,20.75,20.75,0,0,1,.77,2.68c.2.93.37,1.83.51,2.71s.3,2,.41,2.84.22,1.68.37,2.45l-4.27.69q-.1-.6-.24-1.5c-.1-.6-.19-1.21-.29-1.83s-.17-1.15-.24-1.6-.12-.72-.13-.8c-.16-1-.33-1.92-.52-2.78A8,8,0,0,0,44,54.89a1.1,1.1,0,0,0-.94-.67h-.15a1.46,1.46,0,0,0-1,.8,6.37,6.37,0,0,0-.62,1.75A16.63,16.63,0,0,0,40.9,59c.14.64.27,1.27.38,1.9s.23,1.25.32,1.84.2,1.26.27,1.77.16,1,.25,1.61L38,66.77c-.21-1.33-.41-2.51-.59-3.53s-.37-2-.57-2.94a15.09,15.09,0,0,0-1.14-3.68c-.36-.69-.75-1-1.18-1h-.13a1.58,1.58,0,0,0-1.18,1.17,9.49,9.49,0,0,0-.52,2.45c.23,1.31.48,2.68.76,4.1s.57,2.8.86,4.12L30,68.18c-.06-.25-.14-.65-.25-1.22s-.23-1.24-.38-2-.28-1.63-.43-2.55-.29-1.83-.44-2.75-.32-2-.46-2.91l-.36-2.4c-.1-.68-.17-1.17-.22-1.46l4.16-.74c0,.46.11,1,.2,1.69a4.92,4.92,0,0,1,1.26-1.6,3.71,3.71,0,0,1,1.85-.8,3.41,3.41,0,0,1,.63,0,2.94,2.94,0,0,1,1.65.47,6,6,0,0,1,1.72,1.77c.88-2,2.19-3.19,3.92-3.46a5.9,5.9,0,0,1,.91-.08m0-13a18.87,18.87,0,0,0-3,.24,17.13,17.13,0,0,0-3.92,1.11c-.43,0-.87,0-1.31,0a17.41,17.41,0,0,0-2.69.21,18.21,18.21,0,0,0-2.55.61c-.33,0-.66.08-1,.14l-4.16.74A13,13,0,0,0,14.63,54.92c0,.26.1.69.19,1.29s.23,1.51.37,2.46.3,2,.47,3l.19,1.19.25,1.56q.25,1.52.48,2.82c.16.83.29,1.55.4,2.15s.25,1.24.35,1.67A13,13,0,0,0,30,81.18,12.8,12.8,0,0,0,32.2,81l4.29-.74a12.69,12.69,0,0,0,1.93-.49A14.83,14.83,0,0,0,40,79.61l4.15-.67a14.35,14.35,0,0,0,2-.47,12.71,12.71,0,0,0,2-.17l4.27-.68A13,13,0,0,0,63.15,62.45c-.09-.51-.17-1.08-.25-1.68-.12-1-.28-2.15-.47-3.34S62,55.18,61.79,54a33.36,33.36,0,0,0-1.27-4.42,22.26,22.26,0,0,0-2.9-5.46,17.61,17.61,0,0,0-6.89-5.62,16.8,16.8,0,0,0-7-1.48Z"/><path class="cls-2" d="M58.3,70.11a14,14,0,0,1-3.52-.44A13,13,0,0,1,49.49,67a14,14,0,0,1-3.44-4.35,16.9,16.9,0,0,1-1.58-4.91,14.25,14.25,0,0,1,2.44-10.62,13.88,13.88,0,0,1,4-3.74,14.26,14.26,0,0,1,5.32-2,16,16,0,0,1,2.48-.2,14.83,14.83,0,0,1,3.27.37,14.44,14.44,0,0,1,5.09,2.27,14.17,14.17,0,0,1,3.86,4.08,14.81,14.81,0,0,1,2,5.43A13.68,13.68,0,0,1,61,69.89,17.71,17.71,0,0,1,58.3,70.11Z"/><path class="cls-2" d="M58.71,47.68a8.37,8.37,0,0,1,1.81.2,7.89,7.89,0,0,1,2.8,1.25,7.68,7.68,0,0,1,2.1,2.22,8.17,8.17,0,0,1,1.1,3A7.24,7.24,0,0,1,60,63.47a10.71,10.71,0,0,1-1.65.14,7.65,7.65,0,0,1-1.89-.23A6.79,6.79,0,0,1,53.69,62a7.45,7.45,0,0,1-1.84-2.35,10,10,0,0,1-1-3A7.76,7.76,0,0,1,51,53.55a7.52,7.52,0,0,1,1.22-2.68,7.34,7.34,0,0,1,2.14-2,7.85,7.85,0,0,1,2.92-1.06,9.05,9.05,0,0,1,1.45-.12m-.25,11.87a6.2,6.2,0,0,0,.83-.07A3.67,3.67,0,0,0,61.88,58,4.18,4.18,0,0,0,62.36,55a3.72,3.72,0,0,0-1.48-2.58,3.51,3.51,0,0,0-2.11-.66,5.19,5.19,0,0,0-.77.06,3.47,3.47,0,0,0-1.76.83,3.91,3.91,0,0,0-1.12,1.62,3.83,3.83,0,0,0-.2,2A4.62,4.62,0,0,0,55.6,58a3.26,3.26,0,0,0,1.45,1.24,3.32,3.32,0,0,0,1.41.29m.25-24.87A23.17,23.17,0,0,0,55.2,35a20.66,20.66,0,0,0-7.72,2.86,20.5,20.5,0,0,0-9.14,12.72,20.65,20.65,0,0,0-.29,8.19,23.3,23.3,0,0,0,2.21,6.82,20.29,20.29,0,0,0,5,6.37,19.72,19.72,0,0,0,7.86,4,20.94,20.94,0,0,0,5.15.64,23.58,23.58,0,0,0,3.71-.3,20.17,20.17,0,0,0,17.34-24,20.92,20.92,0,0,0-2.91-7.84,20.58,20.58,0,0,0-5.62-6,21.05,21.05,0,0,0-12.11-3.83Z"/><path class="cls-2" d="M76.18,67.22a9.71,9.71,0,0,1-4.47-1A10.09,10.09,0,0,1,67.41,62a16.77,16.77,0,0,1-1.53-4l-.18-.8L65.45,57A6.47,6.47,0,0,1,62,53.33l-1.39-3.75a6.5,6.5,0,0,1,3.46-8.2l.3-.13c0-.38,0-.76,0-1.15a6.51,6.51,0,0,1,6-6.49l4.3-.31h.47a6.47,6.47,0,0,1,4.58,1.89,6.61,6.61,0,0,1,1.7,2.92,6.52,6.52,0,0,1,5,6.12l.13,4a6.47,6.47,0,0,1-.82,3.38l1.53,2.23a6.49,6.49,0,0,1-.18,7.64,14,14,0,0,1-9,5.63A11.92,11.92,0,0,1,76.18,67.22Z"/><path class="cls-2" d="M75.17,39.79h0m0,0c-.06.88-.1,1.76-.11,2.63s0,1.71,0,2.52c.92-.14,1.79-.26,2.61-.35s1.59-.14,2.29-.16l.13,4c-.58,0-1.19.08-1.81.15s-1.24.16-1.87.26c-.38.06-.75.13-1.13.21.1,1.22.2,2.26.31,3.11s.2,1.48.26,1.84a8.25,8.25,0,0,0,.47,1.92c.15.34.34.51.56.51H77a2,2,0,0,0,.89-.44,4.78,4.78,0,0,0,.9-.94,5.52,5.52,0,0,0,.68-1.2L82,57.48a7.6,7.6,0,0,1-4.86,3.16,6.13,6.13,0,0,1-.92.08,3.35,3.35,0,0,1-1.53-.33,3.63,3.63,0,0,1-1.54-1.54,10.26,10.26,0,0,1-.91-2.46c-.23-.94-.43-1.94-.6-3s-.31-2.22-.41-3.4c-1.08.32-2.11.68-3.1,1.07L66.7,47.32A29.43,29.43,0,0,1,71,45.83c0-.86,0-1.76-.06-2.71s0-2,0-3l4.31-.31m0-13H75c-.29,0-.57,0-.85,0l-4.17.3A13,13,0,0,0,58.11,37.56a13,13,0,0,0-3.6,14.27l1.39,3.75a13,13,0,0,0,4.19,5.74,22.07,22.07,0,0,0,1.62,3.77,16.64,16.64,0,0,0,7,6.89,16.35,16.35,0,0,0,7.43,1.74,18.9,18.9,0,0,0,3-.24,20.44,20.44,0,0,0,13.13-8.1,13,13,0,0,0,.63-14.88A13.23,13.23,0,0,0,93.09,48L93,44a13,13,0,0,0-6.64-10.92,13,13,0,0,0-11-6.3Zm0,26Z"/><path class="cls-2" d="M84,65.81a6.51,6.51,0,0,1-6.36-5.15c-.22-1.09-.45-2.25-.66-3.48s-.41-2.38-.6-3.58c-.26-1.59-.49-3.13-.69-4.63s-.38-2.85-.53-4.09a7,7,0,0,1,0-1.12,6.59,6.59,0,0,1-.28-1.08l0-.15c-.05-.23-.1-.53-.16-.87-.1-.63-.19-1.31-.26-2s-.12-1.21-.16-1.67a6.5,6.5,0,0,1,5.56-7l4.4-.63a5.82,5.82,0,0,1,.93-.07,6.51,6.51,0,0,1,6.48,6c0,.56.09,1.19.14,1.89s.11,1.21.2,1.84a6.44,6.44,0,0,1,0,1.24,6.38,6.38,0,0,1,.34,1.64c0,.62.14,1.41.28,2.37s.33,2.21.52,3.4.38,2.32.58,3.46.38,2.16.55,3.08.31,1.64.41,2.13A6.49,6.49,0,0,1,89.3,65l-4.3.69A6,6,0,0,1,84,65.81Z"/><path class="cls-2" d="M85.1,36.8c0,.57.08,1.21.14,1.93s.14,1.45.24,2.21l-4.24.68-.09-.45c0-.16-.07-.33-.1-.53-.08-.53-.16-1.09-.22-1.69s-.11-1.1-.14-1.52l4.41-.63m.73,6.62c0,.77.16,1.71.32,2.82s.34,2.28.54,3.5.39,2.38.59,3.55.4,2.22.58,3.16.31,1.67.41,2.17l-4.3.69c-.21-1-.42-2.1-.62-3.25s-.4-2.32-.59-3.49c-.24-1.53-.46-3-.66-4.48s-.37-2.77-.51-4l4.24-.7M85.1,23.8a12.79,12.79,0,0,0-1.85.13l-4.4.63A13,13,0,0,0,67.73,38.47c0,.5.1,1.11.17,1.83s.19,1.63.32,2.4c.06.39.13.76.2,1.11s.11.58.18.86,0,.65.08,1c.15,1.29.33,2.7.54,4.21s.44,3.11.71,4.77c.2,1.23.4,2.45.61,3.67s.47,2.55.71,3.7A13,13,0,0,0,84,72.31,13.21,13.21,0,0,0,86,72.15l4.3-.69A13,13,0,0,0,101,56.15c-.09-.49-.23-1.19-.4-2.1s-.35-1.9-.54-3-.38-2.23-.56-3.37-.36-2.26-.51-3.31-.21-1.64-.23-1.9a13.05,13.05,0,0,0-.32-2.08c0-.41,0-.82-.11-1.23s-.12-1-.16-1.44c0-.69-.1-1.31-.14-1.85a13,13,0,0,0-13-12.07Z"/><path class="cls-2" d="M96.39,64a14,14,0,0,1-3.52-.44,13.13,13.13,0,0,1-5.29-2.71,14,14,0,0,1-3.44-4.36,16.17,16.17,0,0,1-1.58-4.9,14.39,14.39,0,0,1,.19-5.67A14.08,14.08,0,0,1,85,41a13.88,13.88,0,0,1,4-3.74,14.26,14.26,0,0,1,5.32-2,16,16,0,0,1,2.48-.2,14.51,14.51,0,0,1,8.36,2.64A14.14,14.14,0,0,1,109,41.79a14.4,14.4,0,0,1,2,5.43,13.68,13.68,0,0,1-12,16.56A17.82,17.82,0,0,1,96.39,64Z"/><path class="cls-2" d="M96.8,41.57a8.27,8.27,0,0,1,1.8.2A7.94,7.94,0,0,1,101.41,43a7.51,7.51,0,0,1,2.09,2.22,8,8,0,0,1,1.11,3,8,8,0,0,1-1.12,6.12,7.91,7.91,0,0,1-5.45,3,10.81,10.81,0,0,1-1.65.14,7.67,7.67,0,0,1-1.9-.23,6.71,6.71,0,0,1-2.71-1.38,7.4,7.4,0,0,1-1.85-2.35,10.51,10.51,0,0,1-1-3,7.94,7.94,0,0,1,.1-3.12,7.72,7.72,0,0,1,1.21-2.69,7.47,7.47,0,0,1,2.15-2,7.79,7.79,0,0,1,2.92-1.06,9,9,0,0,1,1.45-.12m-.25,11.86a4.78,4.78,0,0,0,.82-.07A3.59,3.59,0,0,0,100,51.91a4.14,4.14,0,0,0,.49-3.06A3.8,3.8,0,0,0,99,46.27a3.53,3.53,0,0,0-2.11-.66,5.09,5.09,0,0,0-.77.06,3.42,3.42,0,0,0-1.77.83,4.11,4.11,0,0,0-1.12,1.62,3.83,3.83,0,0,0-.19,2,4.56,4.56,0,0,0,.67,1.76,3.24,3.24,0,0,0,1.46,1.25,3.32,3.32,0,0,0,1.41.28m.25-24.86a22,22,0,0,0-3.51.28,20.77,20.77,0,0,0-7.73,2.86A20.46,20.46,0,0,0,79.7,37.2a20.7,20.7,0,0,0-3.56,15.42,23,23,0,0,0,2.21,6.82,20.52,20.52,0,0,0,5,6.37,19.83,19.83,0,0,0,7.87,4,20.88,20.88,0,0,0,5.15.64,22.47,22.47,0,0,0,3.71-.31,20.15,20.15,0,0,0,17.34-24,21,21,0,0,0-2.91-7.84,20.76,20.76,0,0,0-13-9.24,21,21,0,0,0-4.74-.54Z"/><path class="cls-2" d="M107.94,62a6.51,6.51,0,0,1-6.37-5.26c-.29-1.47-.55-2.83-.77-4.09s-.45-2.54-.65-3.78-.39-2.49-.56-3.75-.35-2.63-.51-4.09a6.5,6.5,0,0,1,5.43-7.14l4.17-.67a7.15,7.15,0,0,1,1-.08l.44,0a12.18,12.18,0,0,1,3.06-.89,14.39,14.39,0,0,1,2.23-.19,11.07,11.07,0,0,1,3.48.54,10.73,10.73,0,0,1,4.63,3,13.4,13.4,0,0,1,2.36,3.88A23.09,23.09,0,0,1,127,43c.21,1,.41,2,.57,3s.32,2.1.44,3.08.21,1.75.28,2.39c.1,1,.13,1.33.14,1.68a6.5,6.5,0,0,1-5.47,6.53l-4.15.66a6,6,0,0,1-1,.09,6.54,6.54,0,0,1-2.06-.34,6.46,6.46,0,0,1-2.68,1.1l-4,.67A6.56,6.56,0,0,1,107.94,62Z"/><path class="cls-2" d="M115.44,38.6a4.64,4.64,0,0,1,1.44.21A4.2,4.2,0,0,1,118.69,40a6.74,6.74,0,0,1,1.17,1.95,16.66,16.66,0,0,1,.74,2.47c.19.89.36,1.78.51,2.69s.29,1.94.4,2.85.2,1.67.27,2.28.1,1,.1,1.1l-4.15.67c-.07-.68-.16-1.41-.25-2.18s-.17-1.53-.26-2.29-.18-1.43-.28-2c-.53-3.33-1.33-5-2.38-5h-.17A3.56,3.56,0,0,0,112,44.14a10.31,10.31,0,0,0-1.42,3.38c0,.16.06.33.08.49.13.79.27,1.61.41,2.45s.29,1.65.44,2.42.27,1.42.38,2l-4,.67c-.28-1.45-.54-2.78-.76-4s-.43-2.45-.62-3.65-.38-2.41-.55-3.62-.33-2.52-.48-3.91l4.17-.67c.05.75.11,1.51.19,2.28a7.34,7.34,0,0,1,1.71-2.09,5.31,5.31,0,0,1,2.63-1.14,7.54,7.54,0,0,1,1.2-.11m0-13a20.29,20.29,0,0,0-3.26.27,19.44,19.44,0,0,0-3.24.81q-.64,0-1.29.15l-4.17.66A13,13,0,0,0,92.62,41.78c.17,1.5.34,2.93.53,4.25s.38,2.63.58,3.89.43,2.58.67,3.9.5,2.69.79,4.2a13,13,0,0,0,12.74,10.5,13.3,13.3,0,0,0,2.16-.18l4-.66a13,13,0,0,0,2.61-.73c.35,0,.71,0,1.06,0a12.91,12.91,0,0,0,2.06-.17l4.15-.66a13,13,0,0,0,10.94-13.05c0-.63-.06-1.17-.17-2.23-.07-.7-.17-1.54-.3-2.54s-.29-2.17-.47-3.31-.4-2.28-.64-3.39A28.56,28.56,0,0,0,132,37.17a19.53,19.53,0,0,0-3.52-5.78A17.34,17.34,0,0,0,121,26.47a17.88,17.88,0,0,0-5.53-.87Z"/><path class="cls-2" d="M126.35,59.25a8.94,8.94,0,0,1-3.81-.83,9.11,9.11,0,0,1-3.78-3.28,9.88,9.88,0,0,1-1.49-3.85,9.09,9.09,0,0,1,2-7.5,9.62,9.62,0,0,1,5.86-3.24,10.76,10.76,0,0,1,1.59-.13,8.86,8.86,0,0,1,5.4,1.78,9.15,9.15,0,0,1,3.55,6,9.15,9.15,0,0,1-2,7.74A9.52,9.52,0,0,1,128,59.12,11,11,0,0,1,126.35,59.25Z"/><path class="cls-2" d="M126.74,46.92a2.4,2.4,0,0,1,1.5.48,2.75,2.75,0,0,1,1,1.86,2.88,2.88,0,0,1-.49,2.42,3.06,3.06,0,0,1-1.87,1,3.88,3.88,0,0,1-.57,0,2.49,2.49,0,0,1-2.14-1.16,3.44,3.44,0,0,1-.52-1.34,2.58,2.58,0,0,1,.53-2.22,3.15,3.15,0,0,1,2-1.06,3.88,3.88,0,0,1,.57,0m0-13a16.65,16.65,0,0,0-2.63.21,16.07,16.07,0,0,0-9.75,5.41,15.51,15.51,0,0,0-3.52,12.77,16.43,16.43,0,0,0,2.45,6.36,15.52,15.52,0,0,0,6.49,5.63,15.26,15.26,0,0,0,6.56,1.45,16.84,16.84,0,0,0,2.63-.21,16.07,16.07,0,0,0,9.57-5.27A16.28,16.28,0,0,0,136,37a15.37,15.37,0,0,0-9.29-3.07Z"/><path class="cls-2" d="M136.77,57.47a13.78,13.78,0,0,1-2.63-.25,12.81,12.81,0,0,1-4.87-2,13.07,13.07,0,0,1-3.79-4.06,15.22,15.22,0,0,1-2-5.52,16.08,16.08,0,0,1,.18-6.37,13.74,13.74,0,0,1,6.62-8.79,14.83,14.83,0,0,1,1.6-.79c0-.44-.07-.88-.11-1.32a6.5,6.5,0,0,1,5.88-7l4.19-.39a6.08,6.08,0,0,1,.61,0A6.5,6.5,0,0,1,149,27c.08,1.28.2,2.71.35,4.25s.32,3,.53,4.59.44,3.11.68,4.61.45,2.68.69,3.92.47,2.35.69,3.35a6.51,6.51,0,0,1-4.83,7.75l-4.22,1a6.49,6.49,0,0,1-1.51.18h0a12.22,12.22,0,0,1-2.36.62A14.61,14.61,0,0,1,136.77,57.47Z"/><path class="cls-2" d="M142.49,27.44c.08,1.39.2,2.87.36,4.46s.34,3.2.56,4.83.45,3.23.7,4.78.47,2.82.73,4.12.49,2.49.73,3.54l-4.22,1c-.07-.31-.12-.61-.17-.91a7.25,7.25,0,0,1-1.45,1,5.63,5.63,0,0,1-1.79.59,7.68,7.68,0,0,1-1.17.09,7.37,7.37,0,0,1-1.4-.13,6.45,6.45,0,0,1-2.42-1A6.61,6.61,0,0,1,131,47.75a8.9,8.9,0,0,1-1.09-3.18A9.43,9.43,0,0,1,130,40.8,7.23,7.23,0,0,1,131.34,38a7.4,7.4,0,0,1,2.18-1.89,7.69,7.69,0,0,1,2.58-.92,10.31,10.31,0,0,1,1.53-.13h.05a8.07,8.07,0,0,1,1.33.1c-.14-1.21-.27-2.43-.4-3.66s-.22-2.45-.32-3.65l4.2-.39M137,46.58a2.92,2.92,0,0,0,.51,0A3.91,3.91,0,0,0,139,46a4.1,4.1,0,0,0,1.29-1.45q0-.3-.09-.57c-.21-1.33-.42-2.7-.61-4.1a3.93,3.93,0,0,0-2.11-.66,3.66,3.66,0,0,0-.57,0,4.8,4.8,0,0,0-1.18.36,3.42,3.42,0,0,0-1.1.8,3.11,3.11,0,0,0-.72,1.33,4.52,4.52,0,0,0-.05,2,3.59,3.59,0,0,0,.82,1.93,2.71,2.71,0,0,0,1.37.83,3.78,3.78,0,0,0,.92.11m5.5-32.14c-.41,0-.82,0-1.22.06l-4.19.39a13,13,0,0,0-11.63,10.94,20.48,20.48,0,0,0-4.32,4.1,20.18,20.18,0,0,0-3.75,7.76,22.6,22.6,0,0,0-.28,8.94,21.8,21.8,0,0,0,2.82,7.87,19.71,19.71,0,0,0,5.68,6,19.32,19.32,0,0,0,7.3,3.05,20.37,20.37,0,0,0,3.87.37,19.37,19.37,0,0,0,3.23-.26,17.82,17.82,0,0,0,2.55-.58,14.09,14.09,0,0,0,1.82-.3l4.21-1a13,13,0,0,0,9.67-15.49c-.21-.95-.43-2-.65-3.15s-.44-2.41-.65-3.73-.46-2.94-.66-4.45-.37-2.92-.5-4.35-.25-2.81-.33-4a13,13,0,0,0-13-12.18Z"/><path class="cls-2" d="M147.8,55.57a6.49,6.49,0,0,1-6.35-5.16c-.23-1.08-.46-2.24-.67-3.48s-.41-2.37-.6-3.57c-.25-1.59-.49-3.13-.69-4.63s-.38-2.86-.53-4.09a7,7,0,0,1,0-1.12,7.56,7.56,0,0,1-.28-1.09l0-.14c0-.23-.11-.53-.16-.87-.11-.63-.2-1.32-.27-2s-.12-1.22-.16-1.68a6.5,6.5,0,0,1,5.56-6.95l4.41-.63a7,7,0,0,1,.92-.06,6.49,6.49,0,0,1,6.48,6c0,.56.09,1.19.14,1.89s.11,1.19.2,1.82a5.87,5.87,0,0,1,.05,1.25,6.21,6.21,0,0,1,.34,1.65c.05.62.14,1.41.28,2.36s.33,2.22.52,3.4.38,2.33.58,3.46.38,2.17.56,3.09.3,1.63.4,2.13a6.5,6.5,0,0,1-5.35,7.66l-4.29.69A7.4,7.4,0,0,1,147.8,55.57Z"/><path class="cls-2" d="M148.93,26.56c0,.56.09,1.21.14,1.92s.14,1.46.24,2.22l-4.24.68c0-.15,0-.3-.09-.46s-.06-.33-.1-.52c-.08-.53-.15-1.09-.22-1.69s-.11-1.11-.14-1.52l4.41-.63m.73,6.61c.06.77.16,1.71.33,2.83s.34,2.28.53,3.49.39,2.39.6,3.55.39,2.22.57,3.16.31,1.67.41,2.18l-4.29.69c-.22-1-.43-2.1-.63-3.26s-.4-2.32-.58-3.48c-.25-1.54-.47-3-.67-4.48s-.37-2.78-.51-4l4.24-.71m-.73-19.61a12.79,12.79,0,0,0-1.85.13l-4.4.63a13,13,0,0,0-11.12,13.9c0,.5.1,1.12.17,1.84s.19,1.62.32,2.4c.06.39.13.76.2,1.11s.11.57.18.86,0,.65.08,1c.15,1.29.33,2.7.54,4.21s.44,3.1.71,4.77c.2,1.22.4,2.45.62,3.66s.46,2.56.71,3.71a13,13,0,0,0,12.7,10.31,12,12,0,0,0,2.07-.17l4.3-.68a13,13,0,0,0,10.7-15.31c-.09-.49-.22-1.19-.4-2.1l-.54-3c-.19-1.1-.38-2.23-.56-3.37s-.36-2.25-.51-3.3-.21-1.64-.22-1.9a14.44,14.44,0,0,0-.33-2.09c0-.4-.05-.81-.11-1.22s-.12-1-.16-1.44c-.05-.69-.1-1.31-.14-1.85a13,13,0,0,0-13-12.07Z"/><path class="cls-2" d="M161.11,53.6a9.26,9.26,0,0,1-4.55-1.2,12.11,12.11,0,0,1-3.2-2.62,24.68,24.68,0,0,1-1.58-2l-.07-.09A42.65,42.65,0,0,1,149.36,44a45.72,45.72,0,0,1-2.13-4.26,44.07,44.07,0,0,1-1.69-4.53,6.51,6.51,0,0,1,4.29-8.11l4.36-1.36a6.69,6.69,0,0,1,1.93-.29,6.57,6.57,0,0,1,2.65.56l.06-.06a6.52,6.52,0,0,1,4.44-1.75h.24l4.48.16a6.52,6.52,0,0,1,6.22,7.22c-.19,1.73-.38,3.19-.57,4.46s-.43,2.6-.67,3.67-.52,2.09-.81,3-.56,1.66-.88,2.48a23.18,23.18,0,0,1-1,2.22A13,13,0,0,1,168,50.69a9.54,9.54,0,0,1-5.38,2.78A8.86,8.86,0,0,1,161.11,53.6Z"/><path class="cls-2" d="M163.27,30.71l4.48.17c-.18,1.61-.36,3-.54,4.22s-.37,2.26-.58,3.18S166.2,40,166,40.75s-.5,1.46-.77,2.16c-.18.48-.42,1-.71,1.63a6.49,6.49,0,0,1-1.15,1.63,3,3,0,0,1-1.73.89,4.38,4.38,0,0,1-.51,0,2.64,2.64,0,0,1-1.34-.36,5.76,5.76,0,0,1-1.52-1.25c-.45-.51-.86-1-1.23-1.52-.67-.95-1.34-2-2-3.17a39,39,0,0,1-1.83-3.66,35.54,35.54,0,0,1-1.42-3.82L156.12,32a38.9,38.9,0,0,0,1.31,4.22A27.5,27.5,0,0,0,159,39.63,15.56,15.56,0,0,0,160.57,42l.43.46a2.28,2.28,0,0,0,.31-.58,29.9,29.9,0,0,0,1.31-4.77,39.57,39.57,0,0,0,.65-6.41m0-13A12.92,12.92,0,0,0,157.55,19a13.71,13.71,0,0,0-1.43-.08,12.74,12.74,0,0,0-3.86.59l-4.37,1.36a13,13,0,0,0-8.56,16.21,47.37,47.37,0,0,0,1.94,5.23,52.67,52.67,0,0,0,2.44,4.87,48.15,48.15,0,0,0,2.7,4.27l.14.19c.58.79,1.23,1.6,1.92,2.39a18.87,18.87,0,0,0,4.89,4,15.73,15.73,0,0,0,10.31,1.83,16,16,0,0,0,9-4.69,19.61,19.61,0,0,0,3.44-4.89c.48-1,.88-1.9,1.22-2.79s.69-1.88,1-2.82.67-2.26,1-3.53.53-2.61.76-4.16c.2-1.36.4-2.94.6-4.69a13,13,0,0,0-12.44-14.43l-4.48-.17Z"/><path class="cls-2" d="M175.17,50.19a6.46,6.46,0,0,1-3.37-.94L168,47a6.49,6.49,0,0,1-2.38-8.58c.39-.74.84-1.55,1.35-2.42l1-1.69L167,33.35c-.69-.62-1.28-1.17-1.78-1.65a13,13,0,0,1-1.75-2,6.5,6.5,0,0,1,.89-8.34l3.18-3a6.52,6.52,0,0,1,9,0c.7.66,1.47,1.37,2.33,2.13s1.77,1.57,2.69,2.37,1.81,1.57,2.71,2.32,1.71,1.44,2.46,2.05a6.5,6.5,0,0,1,.92,9.16,32,32,0,0,0-2.14,3c-.79,1.23-1.57,2.5-2.31,3.79s-1.65,2.81-2.44,4.07A6.49,6.49,0,0,1,175.17,50.19Z"/><path class="cls-2" d="M172,23c.73.69,1.55,1.43,2.44,2.24l2.76,2.43c.94.82,1.87,1.61,2.79,2.39l2.54,2.11A38.79,38.79,0,0,0,180,35.77q-1.27,2-2.46,4t-2.32,3.87l-3.76-2.28c.35-.67.76-1.39,1.21-2.17s.93-1.57,1.42-2.36,1-1.52,1.41-2.2l1.14-1.7c-.42-.32-.93-.73-1.52-1.24s-1.23-1-1.88-1.59l-1.9-1.66c-.61-.55-1.14-1-1.58-1.46a7.11,7.11,0,0,1-.89-1L172,23m0-13a13,13,0,0,0-9,3.6l-3.18,3a13,13,0,0,0-1.79,16.68,18.29,18.29,0,0,0,1.77,2.19,13,13,0,0,0,4.84,17l3.76,2.28a13,13,0,0,0,17.77-4.2c.83-1.34,1.7-2.78,2.57-4.29.68-1.19,1.4-2.37,2.14-3.52a25.51,25.51,0,0,1,1.7-2.38,13,13,0,0,0-1.84-18.3c-.73-.6-1.52-1.26-2.38-2s-1.75-1.48-2.63-2.25-1.78-1.55-2.63-2.31-1.56-1.41-2.2-2A13,13,0,0,0,172,10Z"/><path class="cls-2" d="M215.29,61.43a6.5,6.5,0,0,1-3.93-1.32l-4-3c-.8-.62-1.63-1.24-2.48-1.87s-1.61-1.17-2.4-1.71-1.35-.88-1.91-1.2a6.5,6.5,0,0,1-2.2-9.3c.39-.59.86-1.28,1.38-2.09s1.06-1.64,1.62-2.55l1.71-2.79c.51-.85,1-1.65,1.38-2.38s.68-1.31.8-1.58a6.51,6.51,0,0,1,8.87-3.19l4,2A6.49,6.49,0,0,1,221.06,39c-.3.64-.67,1.36-1.12,2.18s-.83,1.48-1.29,2.27l-.28.48L219.94,45l1.57,1.07a6.33,6.33,0,0,1,1.79,2,6.52,6.52,0,0,1-.27,7.39l-2.54,3.4a6.5,6.5,0,0,1-4.3,2.54A6.8,6.8,0,0,1,215.29,61.43Z"/><path class="cls-2" d="M211.23,34.22l4,2c-.25.53-.56,1.14-.94,1.83s-.79,1.4-1.23,2.15-.87,1.49-1.32,2.2-.84,1.36-1.22,2-.68,1-.92,1.39l4.3,3q1.62,1.13,2.46,1.68l1.12.76.24.16-.09,0-.05,0a0,0,0,0,0,0,0,1.56,1.56,0,0,0,.29.27l-2.54,3.39-1.69-1.28-2.27-1.74c-.83-.64-1.68-1.28-2.56-1.93s-1.75-1.27-2.62-1.86-1.65-1.09-2.37-1.49l1.43-2.17c.55-.84,1.12-1.74,1.71-2.69l1.74-2.84c.56-.93,1.07-1.81,1.52-2.64s.8-1.51,1-2.07m6.45,17.1h0m-6.45-30.1A13,13,0,0,0,199.33,29c0,.05-.17.38-.55,1.07s-.77,1.37-1.24,2.15l-1.68,2.74c-.54.87-1.05,1.68-1.53,2.4s-1,1.45-1.33,2A13,13,0,0,0,197.4,58c.27.15.74.43,1.43.9s1.47,1,2.21,1.57,1.61,1.2,2.38,1.79L205.7,64l1.73,1.32a13,13,0,0,0,7.86,2.64,13.87,13.87,0,0,0,1.81-.12,13,13,0,0,0,8.59-5.08l2.55-3.4a13.31,13.31,0,0,0-1.43-17.27l.12-.26A13,13,0,0,0,221,24.6l-4-2a13,13,0,0,0-5.84-1.38Z"/><path class="cls-2" d="M222.76,62.44a6.78,6.78,0,0,1-.77,0l-2.53-.3a6.51,6.51,0,0,1-5.7-7.06l.4-4.2c.14-1.54.3-3.14.47-4.79s.34-3.27.52-4.88.34-3.1.5-4.52.33-2.75.47-3.89.28-2.1.38-2.78a6.48,6.48,0,0,1,7.29-5.49l2.58.34a6.52,6.52,0,0,1,5.55,7.58c-.13.7-.27,1.62-.41,2.73s-.32,2.54-.49,4-.35,3-.52,4.55-.34,3.16-.5,4.72-.3,3-.42,4.42l-.34,3.71a6.51,6.51,0,0,1-6.48,5.92Z"/><path class="cls-2" d="M222.93,30.92l2.59.34c-.15.8-.3,1.82-.45,3s-.33,2.57-.51,4.05-.35,3-.52,4.62-.34,3.19-.5,4.77-.31,3.07-.44,4.47-.24,2.65-.34,3.73l-2.53-.31c.12-1.26.25-2.66.4-4.19s.3-3.1.46-4.73.35-3.24.52-4.83.34-3.09.5-4.51.32-2.69.46-3.8.26-2,.36-2.65m0-13A13,13,0,0,0,210.07,29c-.11.72-.24,1.69-.4,2.9s-.3,2.49-.47,4-.33,3-.51,4.55-.36,3.26-.53,4.92-.33,3.29-.48,4.86-.27,2.93-.39,4.21a13,13,0,0,0,11.4,14.1l2.53.3a11.38,11.38,0,0,0,1.54.1,13,13,0,0,0,13-11.84c.1-1.07.21-2.31.34-3.7s.27-2.81.42-4.35.32-3.11.49-4.67.34-3.05.51-4.49.34-2.74.49-3.93.28-2,.36-2.43a13,13,0,0,0-11.09-15.15L224.64,18a14.48,14.48,0,0,0-1.73-.11Z"/><path class="cls-2" d="M235.45,59.27a14.64,14.64,0,0,1-2.63-.25A13,13,0,0,1,228,57a13.21,13.21,0,0,1-3.8-4.06,15.27,15.27,0,0,1-2-5.53,16,16,0,0,1,.18-6.36,13.73,13.73,0,0,1,6.62-8.8,13.11,13.11,0,0,1,1.6-.78c0-.45-.07-.89-.11-1.33a6.51,6.51,0,0,1,5.88-7l4.19-.4a6.08,6.08,0,0,1,.61,0,6.49,6.49,0,0,1,6.48,6.1c.08,1.28.2,2.71.35,4.24s.32,3,.53,4.59.44,3.12.68,4.61.45,2.69.69,3.93.47,2.35.69,3.35a6.49,6.49,0,0,1-4.83,7.74l-4.22,1a6.49,6.49,0,0,1-1.51.18h0a13,13,0,0,1-2.36.61A13.42,13.42,0,0,1,235.45,59.27Z"/><path class="cls-2" d="M241.17,29.23q.12,2.09.36,4.47c.15,1.58.34,3.19.56,4.83s.45,3.23.7,4.77.48,2.83.73,4.13.49,2.48.73,3.54L240,52c-.07-.31-.12-.62-.17-.91a7.21,7.21,0,0,1-1.45,1,5.39,5.39,0,0,1-1.79.59,6.6,6.6,0,0,1-1.17.1,7.47,7.47,0,0,1-1.4-.14,6.28,6.28,0,0,1-2.42-1,6.76,6.76,0,0,1-1.92-2.08,8.9,8.9,0,0,1-1.09-3.18,9.43,9.43,0,0,1,.07-3.77A7.23,7.23,0,0,1,230,39.77a7.37,7.37,0,0,1,2.18-1.88,7.74,7.74,0,0,1,2.59-.92,8.92,8.92,0,0,1,1.52-.13h.05a9.37,9.37,0,0,1,1.33.09c-.14-1.21-.27-2.43-.4-3.66s-.22-2.44-.31-3.64l4.19-.4m-5.5,19.15a2.78,2.78,0,0,0,.51,0,3.73,3.73,0,0,0,1.52-.6A4,4,0,0,0,239,46.29l-.09-.56c-.21-1.34-.42-2.71-.61-4.11a3.91,3.91,0,0,0-2.11-.65,3.64,3.64,0,0,0-.57,0,4.84,4.84,0,0,0-1.18.37,3.27,3.27,0,0,0-1.1.8,3.15,3.15,0,0,0-.72,1.33,4.48,4.48,0,0,0-.05,2,3.56,3.56,0,0,0,.82,1.93,2.73,2.73,0,0,0,1.37.84,4.35,4.35,0,0,0,.92.11m5.5-32.15c-.41,0-.81,0-1.22.06l-4.19.4a13,13,0,0,0-11.63,10.94,20.24,20.24,0,0,0-8.06,11.85,22.24,22.24,0,0,0-.28,8.94,21.31,21.31,0,0,0,2.82,7.87,19.39,19.39,0,0,0,13,9.11,21,21,0,0,0,3.86.37,20.49,20.49,0,0,0,3.23-.26,19.82,19.82,0,0,0,2.56-.59,14.23,14.23,0,0,0,1.81-.3l4.22-1a13,13,0,0,0,9.66-15.48c-.21-1-.43-2-.65-3.16s-.44-2.41-.65-3.73-.45-2.94-.66-4.44-.36-2.92-.5-4.36-.25-2.8-.33-4a13,13,0,0,0-13-12.19Z"/><path class="cls-2" d="M246.48,57.37a6.5,6.5,0,0,1-6.35-5.16c-.23-1.08-.45-2.24-.67-3.48s-.41-2.38-.6-3.58c-.25-1.58-.49-3.12-.69-4.63s-.38-2.85-.53-4.08a7.14,7.14,0,0,1,0-1.13,7.78,7.78,0,0,1-.28-1.08l0-.15c-.05-.23-.11-.53-.16-.87-.11-.62-.2-1.31-.27-2s-.12-1.21-.16-1.67a6.5,6.5,0,0,1,5.56-6.95l4.41-.63a5.62,5.62,0,0,1,.92-.07,6.49,6.49,0,0,1,6.48,6c0,.56.09,1.19.14,1.89s.12,1.21.2,1.84a5.75,5.75,0,0,1,0,1.24,6.06,6.06,0,0,1,.34,1.64c.05.62.14,1.42.28,2.37s.33,2.21.52,3.4.38,2.33.58,3.46.38,2.16.56,3.08.3,1.64.4,2.13a6.49,6.49,0,0,1-5.35,7.66l-4.29.69A6.18,6.18,0,0,1,246.48,57.37Z"/><path class="cls-2" d="M247.61,28.35c0,.57.09,1.21.14,1.93s.14,1.45.24,2.21l-4.24.68c0-.14-.05-.3-.09-.45s-.06-.33-.1-.53c-.08-.53-.15-1.09-.21-1.69s-.11-1.1-.15-1.52l4.41-.63m.73,6.62q.09,1.16.33,2.82c.16,1.11.34,2.28.53,3.5s.39,2.38.6,3.55.39,2.22.57,3.16.31,1.67.41,2.17l-4.29.69c-.22-1-.43-2.09-.63-3.25s-.4-2.32-.58-3.49c-.25-1.53-.47-3-.67-4.48s-.37-2.77-.51-4l4.24-.71m-.73-19.62a14.23,14.23,0,0,0-1.84.13l-4.41.63A13,13,0,0,0,230.24,30q.06.75.18,1.83c.08.81.19,1.63.31,2.4.06.4.13.77.2,1.12s.11.57.18.85,0,.65.08,1c.15,1.28.33,2.7.54,4.21s.44,3.1.71,4.77c.2,1.23.4,2.45.62,3.67s.46,2.56.71,3.7a13,13,0,0,0,12.7,10.32,13.36,13.36,0,0,0,2.08-.17l4.29-.69a13,13,0,0,0,10.7-15.3l-.39-2.11c-.17-.89-.35-1.89-.55-3s-.38-2.23-.56-3.37-.36-2.26-.51-3.31-.2-1.64-.22-1.9a13.25,13.25,0,0,0-.33-2.08,10.22,10.22,0,0,0-.11-1.23c-.07-.5-.12-1-.16-1.44,0-.68-.1-1.3-.14-1.85a13,13,0,0,0-13-12.07Z"/><path class="cls-2" d="M259.79,55.39a9.22,9.22,0,0,1-4.56-1.2A12.39,12.39,0,0,1,252,51.58c-.57-.65-1.1-1.31-1.58-2a.86.86,0,0,1-.07-.1A41.19,41.19,0,0,1,248,45.8a44.52,44.52,0,0,1-2.13-4.26A42.4,42.4,0,0,1,244.22,37a6.5,6.5,0,0,1,4.29-8.1l4.36-1.36a6.41,6.41,0,0,1,4.58.27l.06-.06A6.47,6.47,0,0,1,262,26h.24l4.48.17a6.5,6.5,0,0,1,6.22,7.21c-.19,1.67-.38,3.17-.57,4.46s-.42,2.59-.67,3.67-.52,2.09-.81,3S270.27,46.2,270,47a21.74,21.74,0,0,1-1,2.21,13.12,13.12,0,0,1-2.29,3.26,9.49,9.49,0,0,1-5.38,2.79A10,10,0,0,1,259.79,55.39Z"/><path class="cls-2" d="M262,32.51l4.48.16q-.27,2.43-.54,4.23c-.18,1.2-.37,2.26-.58,3.17s-.43,1.74-.66,2.47-.5,1.46-.77,2.17c-.18.48-.41,1-.71,1.63A6.41,6.41,0,0,1,262,48a3,3,0,0,1-1.73.88,2.89,2.89,0,0,1-.5,0,2.67,2.67,0,0,1-1.35-.35,5.92,5.92,0,0,1-1.51-1.25c-.46-.52-.87-1-1.24-1.52-.67-1-1.34-2-2-3.18a40.09,40.09,0,0,1-1.83-3.65,35.69,35.69,0,0,1-1.42-3.83l4.36-1.36A39.8,39.8,0,0,0,256.11,38a27.32,27.32,0,0,0,1.57,3.44,15.08,15.08,0,0,0,1.57,2.38c.1.1.25.26.43.47a2.25,2.25,0,0,0,.31-.59,29.61,29.61,0,0,0,1.31-4.77,39.56,39.56,0,0,0,.65-6.4m0-13a13.08,13.08,0,0,0-5.72,1.32,13.55,13.55,0,0,0-1.43-.08,13.1,13.1,0,0,0-3.86.59l-4.37,1.36A13,13,0,0,0,238,38.92,48.92,48.92,0,0,0,240,44.15,52.48,52.48,0,0,0,242.39,49a46.73,46.73,0,0,0,2.7,4.27,1.33,1.33,0,0,0,.14.19c.58.8,1.23,1.6,1.92,2.39a18.67,18.67,0,0,0,4.89,4,15.66,15.66,0,0,0,7.75,2,17,17,0,0,0,2.56-.2,16,16,0,0,0,9-4.7,19.74,19.74,0,0,0,3.44-4.88,29.11,29.11,0,0,0,1.22-2.8c.36-.92.69-1.87,1-2.82s.66-2.23,1-3.53.53-2.6.76-4.16c.2-1.35.4-2.93.6-4.69a13,13,0,0,0-12.44-14.43l-4.48-.16Z"/><path class="cls-2" d="M273.85,52a6.47,6.47,0,0,1-3.37-1l-3.76-2.28a6.51,6.51,0,0,1-2.38-8.59c.39-.74.84-1.54,1.35-2.41.33-.57.67-1.13,1-1.7-.36-.31-.71-.61-1.05-.92-.69-.62-1.28-1.16-1.78-1.65a13,13,0,0,1-1.75-2,6.5,6.5,0,0,1,.89-8.34l3.19-3a6.49,6.49,0,0,1,8.94,0c.7.66,1.47,1.36,2.33,2.12s1.77,1.58,2.69,2.37,1.82,1.58,2.71,2.33l2.46,2.05a6.49,6.49,0,0,1,.92,9.15,32,32,0,0,0-2.14,3c-.8,1.25-1.58,2.52-2.31,3.79-.82,1.44-1.64,2.81-2.44,4.08A6.51,6.51,0,0,1,273.85,52Z"/><path class="cls-2" d="M270.69,24.8c.73.69,1.55,1.44,2.45,2.24s1.81,1.61,2.75,2.43,1.87,1.62,2.79,2.39L281.22,34a39,39,0,0,0-2.59,3.6q-1.28,2-2.46,4c-.79,1.38-1.56,2.66-2.32,3.87l-3.76-2.29c.35-.66.76-1.39,1.21-2.17s.93-1.56,1.42-2.35,1-1.52,1.41-2.2.83-1.25,1.15-1.71q-.64-.48-1.53-1.23l-1.88-1.6c-.66-.56-1.29-1.11-1.9-1.66s-1.13-1-1.57-1.45a7.94,7.94,0,0,1-.9-1l3.19-3m0-13a13,13,0,0,0-9,3.6l-3.18,3a13,13,0,0,0-1.79,16.67,17,17,0,0,0,1.78,2.19,13,13,0,0,0,4.83,17l3.76,2.29a13,13,0,0,0,17.77-4.21c.83-1.33,1.7-2.77,2.57-4.29.68-1.18,1.4-2.37,2.14-3.52a25.28,25.28,0,0,1,1.7-2.37,13,13,0,0,0-1.83-18.31c-.73-.59-1.53-1.26-2.39-2s-1.74-1.48-2.63-2.25-1.78-1.56-2.63-2.32-1.56-1.41-2.2-2a13,13,0,0,0-8.91-3.53Z"/><path class="cls-2" d="M322.19,84.39a15.74,15.74,0,0,1-3.36-.35,13.29,13.29,0,0,1-5.93-2.88,13.76,13.76,0,0,1-3.48-4.53A17.86,17.86,0,0,1,308,72.18a18.55,18.55,0,0,1-.27-2.55,6.49,6.49,0,0,1-3.45-4.49l-1.41-6.78A6.48,6.48,0,0,1,305,52.14a22.82,22.82,0,0,1-1.07-4,19.64,19.64,0,0,1,.22-8,16.26,16.26,0,0,1,4.07-7.49,16,16,0,0,1,8.41-4.5,6.49,6.49,0,0,1,7.79,5.32l1.12,6.93a6.49,6.49,0,0,1-1.57,5.37c.07.26.14.44.18.56a21.85,21.85,0,0,1,1.16,4.19,26.66,26.66,0,0,1,.38,4.73,11.91,11.91,0,0,1-.1,1.59,11.93,11.93,0,0,1,2.29,5.27,20.25,20.25,0,0,1,.3,2.74l.09.06a6.48,6.48,0,0,1,3,4.41l1.25,6.91a6.49,6.49,0,0,1-4.38,7.33,11,11,0,0,1-1.53.38L326,84A22.54,22.54,0,0,1,322.19,84.39Z"/><path class="cls-2" d="M318,34.49l1.11,6.93a3.68,3.68,0,0,0-.93.49,2.47,2.47,0,0,0-.89,1.15,3.8,3.8,0,0,0-.1,2.15,17.42,17.42,0,0,0,.9,3.47,16.11,16.11,0,0,1,.81,3,20.39,20.39,0,0,1,.28,3.58,6.23,6.23,0,0,1-1,3.5A8.63,8.63,0,0,1,320,60.35a5.38,5.38,0,0,1,1.41,2.86,10.66,10.66,0,0,1,.19,2.9,18,18,0,0,1-.31,2,5.27,5.27,0,0,0,0,2,.89.89,0,0,0,.59.78,1.87,1.87,0,0,0,.61.09,4,4,0,0,0,.66-.06,14.34,14.34,0,0,0,1.7-.44l1.25,6.91a4.15,4.15,0,0,1-.63.16l-.64.11a15.52,15.52,0,0,1-2.67.25,9.08,9.08,0,0,1-1.95-.19,7,7,0,0,1-3.09-1.46,7.11,7.11,0,0,1-1.85-2.4,11.14,11.14,0,0,1-.9-2.78,11.93,11.93,0,0,1-.16-2.64,15,15,0,0,1,.32-2.47,2.5,2.5,0,0,0,0-.72,1.45,1.45,0,0,0-1.18-1.16,9.57,9.57,0,0,0-2.44-.25h-.31L309.23,57a6.06,6.06,0,0,0,2.57-1.4,3,3,0,0,0,.26-2.4,13.5,13.5,0,0,0-.85-2.94A15.84,15.84,0,0,1,310.3,47a13,13,0,0,1,.13-5.36A9.31,9.31,0,0,1,318,34.49m0-13a12.78,12.78,0,0,0-2.74.3,22.34,22.34,0,0,0-11.74,6.37,22.61,22.61,0,0,0-5.7,10.46,26.11,26.11,0,0,0-.29,10.61c.09.54.2,1.07.32,1.6a12.91,12.91,0,0,0-1.3,8.85l1.41,6.79a13,13,0,0,0,3.65,6.66l0,.17a23.58,23.58,0,0,0,1.95,6.1,20.25,20.25,0,0,0,5.1,6.68,19.78,19.78,0,0,0,8.76,4.31,22.52,22.52,0,0,0,4.78.5,29.32,29.32,0,0,0,4.9-.44l.61-.11a17.55,17.55,0,0,0,2.45-.61,13,13,0,0,0,8.77-14.67l-1.25-6.91a13,13,0,0,0-3.34-6.61l-.09-.56a18.68,18.68,0,0,0-2.09-5.91,32.53,32.53,0,0,0-.48-5.67,26.77,26.77,0,0,0-.64-2.85,13,13,0,0,0,.89-7.2l-1.12-6.93A13,13,0,0,0,318,21.49Z"/><path class="cls-2" d="M342.09,81.66a6.5,6.5,0,0,1-6.42-5.5l-1.08-7a6.49,6.49,0,0,1,1.34-5L336,64a18.13,18.13,0,0,1-.62-2.56,12.48,12.48,0,0,1,.25-5.51,11.7,11.7,0,0,1-.7-1.42,21.34,21.34,0,0,1-1.4-4.73,18.34,18.34,0,0,1-.27-4.07l.06-1.24A6.48,6.48,0,0,1,330.13,40l-1.21-6.92a6.51,6.51,0,0,1,5.56-7.56,19.26,19.26,0,0,1,2.49-.16,15.64,15.64,0,0,1,6.66,1.42A16.5,16.5,0,0,1,350.06,32a16.81,16.81,0,0,1,3.11,7.21,17.32,17.32,0,0,1,.24,4.15l-.05.79a6.51,6.51,0,0,1,4.16,5.14l1,6.86a6.52,6.52,0,0,1-1.68,5.4,15.78,15.78,0,0,1,.58,2.3,17.42,17.42,0,0,1,.16,3.87,15,15,0,0,1-1.3,5.31,13.72,13.72,0,0,1-4.36,5.37,16.92,16.92,0,0,1-7.52,3l-.57.1a12.34,12.34,0,0,1-1.49.16Z"/><path class="cls-2" d="M337,31.84a9.33,9.33,0,0,1,3.93.81,10.07,10.07,0,0,1,3.93,3.18,10.43,10.43,0,0,1,1.94,4.47,11,11,0,0,1,.16,2.58c-.06.81-.12,1.63-.17,2.44a10.84,10.84,0,0,0,.16,2.62,2.26,2.26,0,0,0,1.39,2,7.88,7.88,0,0,0,2.27.29h.51l1,6.86a8.56,8.56,0,0,0-2.62,1.23,1.49,1.49,0,0,0-.63,1.47,3.61,3.61,0,0,0,.53,1.21c.29.47.6,1,.93,1.69a8.21,8.21,0,0,1,.71,2.26,10.6,10.6,0,0,1,.08,2.42,8.77,8.77,0,0,1-.76,3A7.3,7.3,0,0,1,348,73.2a10.9,10.9,0,0,1-4.7,1.8l-.57.1q-.32,0-.63.06l-1.08-7,.83-.08c.25,0,.48-.06.68-.1,1.3-.22,1.88-.72,1.74-1.48a4.93,4.93,0,0,0-.65-1.82c-.31-.47-.65-1-1-1.64a8.45,8.45,0,0,1-.84-2.69,6.12,6.12,0,0,1,.3-3.23,9.4,9.4,0,0,1,1.15-2.29A6.61,6.61,0,0,1,340.92,52a14.65,14.65,0,0,1-1-3.32,12.68,12.68,0,0,1-.17-2.69c0-.92.08-1.79.13-2.61a9,9,0,0,0-.07-2.08,2.73,2.73,0,0,0-1.26-1.91,3.21,3.21,0,0,0-1.72-.58l-.31,0L335.33,32a11.59,11.59,0,0,1,1.64-.11m0-13a25.31,25.31,0,0,0-3.34.22,13,13,0,0,0-11.11,15.12l1.21,6.92a12.87,12.87,0,0,0,3,6.34,25.47,25.47,0,0,0,.36,3.5,28.16,28.16,0,0,0,1.73,5.92,18.81,18.81,0,0,0,.13,5.75c0,.15,0,.3.08.45a13.07,13.07,0,0,0-.9,7.11l1.09,7a13,13,0,0,0,12.84,11h.51A16.56,16.56,0,0,0,345,87.9l.32-.05.25,0a23.46,23.46,0,0,0,10.35-4.26,20.07,20.07,0,0,0,6.37-7.92,21.82,21.82,0,0,0,1.84-7.57,23.43,23.43,0,0,0-.25-5.35h0A13,13,0,0,0,365,55.17l-1-6.86a13,13,0,0,0-4.06-7.66,25.55,25.55,0,0,0-.31-2.58,23.52,23.52,0,0,0-4.3-10,23,23,0,0,0-8.91-7.23,22.3,22.3,0,0,0-9.4-2Z"/><path class="cls-3" d="M182.55,161.07l-6.66-5.78a51,51,0,0,0,8.19-6.15,48,48,0,0,0,5.87-6.47,33.14,33.14,0,0,0,3.54-5.8,11.1,11.1,0,0,0,1.18-4.14,2.31,2.31,0,0,0-1.37-2.38,7.71,7.71,0,0,0-3.07-.58c-1.36,0-3.12.1-5.27.3a65,65,0,0,0-7.75,1.29,92.81,92.81,0,0,0-10.33,3l-2.73-7.72a88.69,88.69,0,0,1,17.29-4.12,61.74,61.74,0,0,1,8-.55,38,38,0,0,1,4.74.3,15.77,15.77,0,0,1,4.39,1.18,7.27,7.27,0,0,1,3.21,2.66,8.24,8.24,0,0,1,1.2,4.69,21.16,21.16,0,0,1-1,5.64,35.47,35.47,0,0,1-3.33,7.54,50.72,50.72,0,0,1-6.26,8.51A57.94,57.94,0,0,1,182.55,161.07Z"/><path class="cls-4" d="M155.17,201.48a7.59,7.59,0,0,1-4.15-1,6.37,6.37,0,0,1-2.36-2.68,12.48,12.48,0,0,1-1.06-3.71,31.1,31.1,0,0,1-.27-4.09c0-1.94.1-4,.3-6.28s.47-4.49.79-6.75.68-4.34,1.07-6.26l6.08,1c-.48,2.24-.89,4.46-1.22,6.68s-.59,4.34-.76,6.36-.25,3.85-.25,5.5a22.61,22.61,0,0,0,.12,2.27,4.37,4.37,0,0,0,.69,2,2,2,0,0,0,1.82.83,10.1,10.1,0,0,0,2.52-.53,30.53,30.53,0,0,0,4.12-1.65,45.38,45.38,0,0,0,5.16-2.94,47.85,47.85,0,0,0,5.62-4.32l2,6.38a40.31,40.31,0,0,1-10.7,6.78,33.6,33.6,0,0,1-5.18,1.78A18.11,18.11,0,0,1,155.17,201.48Z"/><path class="cls-5" d="M170.76,178.56l1.12-6.25a41.39,41.39,0,0,1,4.49.81c1.69.38,3.5.85,5.43,1.39s3.87,1.15,5.84,1.81,3.87,1.35,5.71,2.06,3.32,1.35,4.81,2,2.78,1.33,3.87,2L199.1,188a32.63,32.63,0,0,0-3.39-1.76c-1.33-.6-2.77-1.21-4.34-1.82-1.74-.68-3.56-1.33-5.47-2s-3.78-1.22-5.65-1.75-3.61-1-5.24-1.37S172,178.72,170.76,178.56Z"/><path class="cls-6" d="M222.06,199.16c-.52-1.12-1.17-2.33-1.93-3.63s-1.59-2.61-2.5-3.95-1.85-2.6-2.8-3.81-1.88-2.26-2.77-3.18l4.72-3A29.51,29.51,0,0,1,219,184c.8.93,1.61,1.93,2.44,3a25.51,25.51,0,0,0,4.06-1.76,29.55,29.55,0,0,0,3.41-2.13,19.22,19.22,0,0,0,2.45-2.06,4.58,4.58,0,0,0,1.12-1.51,1.56,1.56,0,0,0-.61-1.76,8.09,8.09,0,0,0-2.72-1.33,27.64,27.64,0,0,0-4-.91c-1.54-.25-3.18-.43-4.92-.56s-3.51-.2-5.29-.24-3.48,0-5.11,0l-.35-6.31a70.92,70.92,0,0,1,8,.06,66.1,66.1,0,0,1,7.65.93,57.28,57.28,0,0,1,6.85,1.67,33.11,33.11,0,0,1,3.34,1.27,11.89,11.89,0,0,1,2.91,1.79,5.63,5.63,0,0,1,1.75,2.51,5.49,5.49,0,0,1-.14,3.49,9.84,9.84,0,0,1-2,3.34,23.5,23.5,0,0,1-3.52,3.31,38.43,38.43,0,0,1-4.49,3,40.44,40.44,0,0,1-4.84,2.34c.52.82,1,1.62,1.46,2.42s.86,1.56,1.21,2.27Z"/><path class="cls-4" d="M248.57,187.94l-1.23-6.23a42.38,42.38,0,0,1,4.48-.88c1.72-.25,3.57-.47,5.57-.67s4-.33,6.1-.43,4.1-.14,6.06-.14,3.59,0,5.22.14,3.08.24,4.32.43l-.68,6.34a32.54,32.54,0,0,0-3.8-.41c-1.45-.09-3-.13-4.7-.13-1.87,0-3.81,0-5.81.14s-4,.24-5.9.42-3.73.39-5.39.63S249.74,187.65,248.57,187.94Z"/><path class="cls-7" d="M270.55,159l-.9-5.43c1.15-.29,2.45-.58,3.89-.87s3-.55,4.61-.79c.29-1.68.63-3.34,1-5q-3.42.54-6.16,1.23l-1-5.55a99.7,99.7,0,0,1,20.49-2.09l1.9,0,2,.06-.29,5.54L294,146c-.73,0-1.48,0-2.25,0-2,0-4.15.1-6.41.29-.19.74-.38,1.52-.56,2.34s-.35,1.65-.52,2.52q3.6-.41,7.13-.63t6.51-.24h.82c.27,0,.54,0,.8,0l-.28,5.51c-.51,0-1-.07-1.57-.07H296q-2.91,0-6.17.25c-2.17.17-4.34.38-6.5.65-.07.64-.13,1.26-.18,1.83s-.07,1.12-.07,1.62a6.07,6.07,0,0,0,.38,2.27,2.75,2.75,0,0,0,1.38,1.49,6.34,6.34,0,0,0,2.88.53,20,20,0,0,0,3.33-.27,19.15,19.15,0,0,0,3.46-1,41.73,41.73,0,0,0,4.3-1.91l1.33,6.09a20.84,20.84,0,0,1-3.94,1.62,32.43,32.43,0,0,1-4.34,1,27.1,27.1,0,0,1-4.21.34,19.56,19.56,0,0,1-3.73-.36,8.19,8.19,0,0,1-3.32-1.44,7.44,7.44,0,0,1-2.38-3.15,13.85,13.85,0,0,1-.9-5.45c0-.72,0-1.49.07-2.31C274.89,158,272.62,158.46,270.55,159Z"/><path class="cls-8" d="M311.31,168.56l-1.22-6.23a41.88,41.88,0,0,1,4.48-.88c1.71-.25,3.57-.47,5.56-.66s4-.34,6.1-.44,4.1-.14,6.07-.14,3.58,0,5.22.14,3.07.24,4.32.44l-.69,6.33a32.3,32.3,0,0,0-3.8-.41c-1.45-.09-3-.13-4.69-.13q-2.81,0-5.82.15t-5.9.41c-1.93.18-3.73.39-5.38.63S312.48,168.27,311.31,168.56Z"/><path class="cls-9" d="M309.54,193.3a26.56,26.56,0,0,0-2.93-1.36c-1.15-.46-2.29-.87-3.44-1.23a28.72,28.72,0,0,0-3-.79l1.69-5.54a33.08,33.08,0,0,1,3.32.88c1.17.37,2.34.78,3.49,1.24s2.21.92,3.17,1.4Zm21.49-2a30.93,30.93,0,0,1-3.69,4.59,43.14,43.14,0,0,1-4.61,4.12,39.15,39.15,0,0,1-5,3.33,27.79,27.79,0,0,1-5,2.21,14.74,14.74,0,0,1-4.53.8,7.44,7.44,0,0,1-4.95-1.77q-2.12-1.75-3-5.9l5.08-2.34a6.55,6.55,0,0,0,1.41,3.09,3.1,3.1,0,0,0,2.37.94,8.33,8.33,0,0,0,2.58-.59A24.6,24.6,0,0,0,315.3,198a33.84,33.84,0,0,0,8.24-6.73,29.51,29.51,0,0,0,3.53-4.83Zm-17.64-5.62a22.91,22.91,0,0,0-4.08-2.91,54,54,0,0,0-5.21-2.63l2-5.26a32.7,32.7,0,0,1,3.84,1.68c1.28.66,2.49,1.35,3.61,2.07a21.16,21.16,0,0,1,2.78,2Z"/><path class="cls-10" d="M355.46,168.18l.9-5.18,1.89.81c.65.27,1.33.53,2.05.79a53.7,53.7,0,0,0,5.33,1.61q2.73.67,5.59,1.12l.7-1.54a46,46,0,0,0-9.48-4.7c-1.2-.43-2.56-.85-4.1-1.25l2.42-4.94a41.06,41.06,0,0,1,4,1.22,47.49,47.49,0,0,1,4.78,2,41.85,41.85,0,0,1,4.42,2.5,9.93,9.93,0,0,0,.64-2.6,1.88,1.88,0,0,0-.69-1.62,9,9,0,0,0-2.7-1.35,24.32,24.32,0,0,0-3.42-.94c-1.27-.27-2.59-.5-3.95-.69s-2.67-.35-3.95-.48l.83-5.32a51.4,51.4,0,0,1,7,1.08,49,49,0,0,1,5.43,1.54,22.79,22.79,0,0,1,4.46,2.06,5.93,5.93,0,0,1,2.3,2.45,6,6,0,0,1,.36,3.4,24.5,24.5,0,0,1-1.31,4.88q-.79,2.25-2.18,5.34t-3.69,7.32l-5-2.81c.12-.21.25-.42.38-.63q-2.49-.44-5-1.08t-4.53-1.38A18.76,18.76,0,0,1,355.46,168.18Z"/><path class="cls-4" d="M404.45,168a19.41,19.41,0,0,1-4.57,1.8,15.38,15.38,0,0,1-3.28.43q-7,0-8.92-7.59l5.43-2.45a6.42,6.42,0,0,0,1.44,3,3.2,3.2,0,0,0,2.34.93,8.88,8.88,0,0,0,1.95-.36,18.24,18.24,0,0,0,3.25-1.27,23.84,23.84,0,0,0,4.05-2.58,28.27,28.27,0,0,0,4.33-4.21,32.39,32.39,0,0,0,4-6.23l4.57,4.21v0a24.44,24.44,0,0,1-2.36,3.71,40.24,40.24,0,0,1-3.42,3.94,38.67,38.67,0,0,1-4.17,3.67A33.33,33.33,0,0,1,404.45,168Zm-6.77-15.48a27,27,0,0,0-4-4.28,28.84,28.84,0,0,0-4.59-3.28l4.14-4.39a42.08,42.08,0,0,1,4.57,3.2,26.34,26.34,0,0,1,4.32,4.43Z"/><path class="cls-4" d="M206,60.52a30,30,0,0,1,6.31,30.08,28.74,28.74,0,0,1-24.37,18.49,27.58,27.58,0,0,1-26.26-15.37c-3.9-8.39-3.65-20.22.33-28.6,3.6-7.59,12.15-12.75,20.32-13.61a28.67,28.67,0,0,1,19.89,5.65A29.39,29.39,0,0,1,206,60.52Zm-15.73,16c-3.17-2.51-9.33-1.82-10.24,2.72a7.83,7.83,0,0,0,2.69,7.7,6.57,6.57,0,0,0,7.45.06,5.56,5.56,0,0,0,.65-.53A6.54,6.54,0,0,0,190.24,76.53Z"/><path class="cls-11" d="M141.49,83.84c-2.12,5.12.95,19.2,4.36,33.11"/><path class="cls-11" d="M101.26,88.17l-16.47,6,10,9.92Z"/><path class="cls-12" d="M70.66,80.26,40.81,84.81c1.47,8,3.18,15.87,5,23.65l39-14.27Z"/><path class="cls-13" d="M136.68,69.3,106.8,74.39q-2.76,6.89-5.54,13.78l36.16-13.24C137.15,73.05,136.9,71.18,136.68,69.3Z"/><path class="cls-14" d="M145.85,117l-23.48,24.47,5,23.54L155.51,159c-2.37-11.9-5.25-24.37-8.17-36.05Q146.59,120,145.85,117Z"/><path class="cls-4" d="M137.42,74.93,101.26,88.17l-6.42,15.94-10-9.92-39,14.27c5.17,22.21,11.26,43.77,15.69,66.41l29.41-5.42L78.48,120.88l20.59,17.48,6-1.68,11.49-22.93q2.92,13.85,5.86,27.67L145.85,117A421,421,0,0,1,137.42,74.93Z"/><path class="cls-15" d="M428.52,65.68l-18.24,6.43-5.86-16.64L422.66,49l35.81-12.62-10.78,22.5Z"/><path class="cls-16" d="M431.25,68.32l14.37-5.06-9.3,19.43Z"/><path class="cls-17" d="M419.92,46.4l-18.24,6.43-16,5.63L407.87,12.2l5.62,16Z"/><polygon class="cls-18" points="240.28 111.65 240.66 94.16 217.79 93 218.15 111.56 212.54 111.86 212.54 116.5 240.95 111.66 240.28 111.65"/><path class="cls-19" d="M253.24,150.05,224.65,161.3c5.4,5.33,14.55,7.89,29.84,7.2l-.29-18.37Z"/><path class="cls-20" d="M399.31,77.7c-4.48-1.22-10-.9-14.54.12V75.87l-25.44,1.6c.23,4.43.56,9.11.92,13.88l49.57-8.44A25.88,25.88,0,0,0,399.31,77.7Z"/><path class="cls-21" d="M361.57,107.39c.85,10,1.67,19.62,2,27.15l23.41,0c-.36-10.84-3.85-35.19,3.1-36.06,9.84-1.25,8.27,24.32,8.33,36.06l22.36,0c-.07-16.31,1.5-35.9-7.2-47.66Z"/><path class="cls-11" d="M320.94,128.77a6.55,6.55,0,0,0,7.45.07,8.34,8.34,0,0,0,.65-.53,6.48,6.48,0,0,0,.85-8.44l-11.61,4.57A7.21,7.21,0,0,0,320.94,128.77Z"/><path class="cls-22" d="M320.55,93.34a27.41,27.41,0,0,0-15.87,7.47l30.1-5.12A28,28,0,0,0,320.55,93.34Z"/><path class="cls-23" d="M329.89,119.87a6.48,6.48,0,0,1-.85,8.44,8.34,8.34,0,0,1-.65.53,6.55,6.55,0,0,1-7.45-.07,7.21,7.21,0,0,1-2.66-4.33l-19.67,7.74a26.1,26.1,0,0,0,1.29,3.37,27.58,27.58,0,0,0,26.26,15.37,28.73,28.73,0,0,0,24.36-18.49,29.54,29.54,0,0,0-.39-20.53Z"/><path class="cls-11" d="M328.49,118.35c-3.17-2.5-9.33-1.81-10.25,2.73a8.28,8.28,0,0,0,0,3.36l11.61-4.57A6.92,6.92,0,0,0,328.49,118.35Z"/><path class="cls-24" d="M288.39,83.44H262.91a184.75,184.75,0,0,0,.92,24.33l25.2-4.29A169.31,169.31,0,0,1,288.39,83.44Z"/><path class="cls-25" d="M286.85,73.49l-.19-4.85c0-3.48.39-9.87.57-13.45h-23.6c-.43,6.19-.43,12.09-.4,18.3Z"/><path class="cls-11" d="M304.68,100.81,289,103.48c.71,9.1,1.66,18.23,1.52,27.72l-25.55,0a223.45,223.45,0,0,0-1.17-23.39L241,111.66l10.16.16s-.06,10.94-.09,17.63l-11.69,0c.35,15.69-2,19.29,13.91,20.63l45.37-17.87A36.68,36.68,0,0,1,300.22,107,21.48,21.48,0,0,1,304.68,100.81Z"/><path class="cls-4" d="M265,131.16l25.55,0c.14-9.49-.81-18.62-1.52-27.72l-25.2,4.29A223.45,223.45,0,0,1,265,131.16Z"/><path class="cls-11" d="M344.21,102.35a29.11,29.11,0,0,1,5.92,9.55l11.44-4.51c-.45-5.3-.91-10.72-1.32-16l-25.47,4.34a29.15,29.15,0,0,1,5.66,3.3A28,28,0,0,1,344.21,102.35Z"/><path class="cls-4" d="M318.24,121.08c.92-4.54,7.08-5.23,10.25-2.73a6.92,6.92,0,0,1,1.4,1.52l20.24-8a29.11,29.11,0,0,0-5.92-9.55A28,28,0,0,0,340.44,99a29.15,29.15,0,0,0-5.66-3.3l-30.1,5.12a21.48,21.48,0,0,0-4.46,6.14,36.68,36.68,0,0,0-1.61,25.23l19.67-7.74A8.28,8.28,0,0,1,318.24,121.08Z"/><path class="cls-11" d="M413.58,86.91l20.78-8.18-24.54,4.18A23.67,23.67,0,0,1,413.58,86.91Z"/><path class="cls-4" d="M409.82,82.91l-49.57,8.44c.41,5.32.87,10.74,1.32,16l52-20.48A23.67,23.67,0,0,0,409.82,82.91Z"/><path class="cls-11" d="M217.44,129.48l-4.9,0v-13l-9.6,1.63,13.89,46.26,7.82-3.09C218,154.68,217,143.78,217.44,129.48Z"/><path class="cls-4" d="M239.33,129.42l11.69,0c0-6.69.09-17.63.09-17.63L241,111.66l-28.41,4.84v13l4.9,0c-.4,14.3.51,25.2,7.21,31.82l28.59-11.25C237.35,148.71,239.68,145.11,239.33,129.42Z"/><path class="cls-26" d="M25.41,67.11l-1.68-1.28-2.27-1.74c-.83-.64-1.68-1.28-2.56-1.93s-1.76-1.27-2.62-1.86-1.65-1.09-2.38-1.49c.41-.61.89-1.33,1.44-2.17S16.46,54.9,17.05,54s1.17-1.9,1.73-2.84,1.08-1.81,1.53-2.64.8-1.51,1.05-2.08l4,2c-.25.53-.57,1.14-.95,1.82s-.78,1.41-1.22,2.16-.88,1.49-1.32,2.2-.85,1.36-1.22,1.94-.68,1.05-.93,1.39l4.31,3c1.08.74,1.9,1.31,2.46,1.68l1.12.76.25.17-.11-.06s-.05,0-.05,0a2.73,2.73,0,0,0,.3.27Z"/><path class="cls-4" d="M30.9,67.37c-.06-.24-.14-.65-.25-1.21s-.23-1.24-.37-2-.29-1.64-.44-2.55l-.44-2.75c-.16-1-.31-2-.45-2.92s-.26-1.72-.36-2.4-.18-1.16-.22-1.46l4.15-.74c0,.47.11,1,.2,1.69A5.28,5.28,0,0,1,34,51.41a3.85,3.85,0,0,1,1.85-.81,3.14,3.14,0,0,1,2.28.42,5.87,5.87,0,0,1,1.72,1.78c.89-2,2.2-3.19,3.92-3.47a4.36,4.36,0,0,1,2.51.25A4.41,4.41,0,0,1,48,51a9.1,9.1,0,0,1,1.18,2.26A19.43,19.43,0,0,1,50,56q.3,1.4.51,2.7c.16,1,.3,2,.4,2.85s.23,1.68.37,2.45L47,64.66l-.24-1.49c-.1-.6-.19-1.21-.28-1.83s-.17-1.15-.25-1.61l-.13-.8c-.15-1-.33-1.91-.52-2.78a7.55,7.55,0,0,0-.71-2.06,1,1,0,0,0-1.09-.66,1.48,1.48,0,0,0-1,.8A6.29,6.29,0,0,0,42.12,56a16.81,16.81,0,0,0-.31,2.21c.13.63.26,1.27.38,1.9s.22,1.24.32,1.83.19,1.27.27,1.77.15,1,.24,1.62L38.88,66c-.22-1.34-.41-2.51-.59-3.53s-.38-2-.58-2.95a14.87,14.87,0,0,0-1.13-3.68c-.4-.75-.84-1.09-1.32-1A1.58,1.58,0,0,0,34.08,56a9.59,9.59,0,0,0-.52,2.45c.23,1.32.48,2.68.76,4.11s.57,2.79.87,4.11Z"/><path class="cls-4" d="M60.86,62.67a8.7,8.7,0,0,1-3.55-.09A6.64,6.64,0,0,1,54.6,61.2a7.37,7.37,0,0,1-1.85-2.35,9.92,9.92,0,0,1-1-3,7.94,7.94,0,0,1,.1-3.12,7.55,7.55,0,0,1,1.21-2.69,7.35,7.35,0,0,1,2.15-2A7.82,7.82,0,0,1,58.16,47a8.46,8.46,0,0,1,3.26.09,8,8,0,0,1,2.81,1.25,7.78,7.78,0,0,1,2.09,2.22,8.1,8.1,0,0,1,1.1,3,7.24,7.24,0,0,1-6.56,9.11Zm-.67-4a3.64,3.64,0,0,0,2.59-1.45,4.11,4.11,0,0,0,.48-3.07A3.6,3.6,0,0,0,58.9,51a3.39,3.39,0,0,0-1.76.83A4,4,0,0,0,56,53.43a3.93,3.93,0,0,0-.2,2,4.64,4.64,0,0,0,.68,1.76A3.28,3.28,0,0,0,58,58.46,3.89,3.89,0,0,0,60.19,58.67Z"/><path class="cls-4" d="M78,59.84a4,4,0,0,1-2.45-.25A3.61,3.61,0,0,1,74,58.05a9.85,9.85,0,0,1-.92-2.46c-.22-1-.42-1.94-.59-3s-.32-2.22-.42-3.4q-1.62.5-3.09,1.08l-1.39-3.75A29.3,29.3,0,0,1,71.85,45c0-.86,0-1.77-.06-2.72s0-2,0-3l4.3-.31c-.06.89-.1,1.77-.11,2.64s0,1.71,0,2.52c.92-.15,1.79-.27,2.62-.36s1.58-.14,2.29-.15L81,47.58c-.59,0-1.19.08-1.82.16s-1.24.16-1.86.26l-1.14.21c.1,1.21.2,2.25.31,3.11s.2,1.47.26,1.83a8.77,8.77,0,0,0,.47,1.93c.17.37.38.54.63.5a2,2,0,0,0,.89-.43,4.51,4.51,0,0,0,.9-.94,5.34,5.34,0,0,0,.68-1.2l2.54,3.67A7.6,7.6,0,0,1,78,59.84Z"/><path class="cls-4" d="M84.88,58.51c-.22-1-.43-2.1-.63-3.26s-.39-2.32-.58-3.49c-.25-1.53-.47-3-.67-4.47s-.37-2.78-.51-4l4.24-.71q.09,1.16.33,2.82c.16,1.12.34,2.28.53,3.5s.39,2.39.6,3.55.39,2.22.57,3.16.31,1.67.41,2.18ZM82.14,40.82c0-.15,0-.3-.09-.46S82,40,82,39.84c-.09-.53-.16-1.09-.22-1.69s-.11-1.11-.15-1.52L86,36c0,.56.09,1.21.14,1.92s.14,1.46.24,2.22Z"/><path class="cls-4" d="M98.94,56.55a8.49,8.49,0,0,1-3.54-.08,6.81,6.81,0,0,1-2.72-1.38,7.45,7.45,0,0,1-1.84-2.35,10,10,0,0,1-1-3A7.76,7.76,0,0,1,90,46.64,7.57,7.57,0,0,1,91.19,44a7.31,7.31,0,0,1,2.14-2,7.87,7.87,0,0,1,2.92-1.07,8.46,8.46,0,0,1,3.26.09,7.74,7.74,0,0,1,4.9,3.47,8.1,8.1,0,0,1,1.1,3,8,8,0,0,1-1.12,6.12A7.87,7.87,0,0,1,98.94,56.55Zm-.66-4a3.66,3.66,0,0,0,2.59-1.45,4.21,4.21,0,0,0,.48-3.07A3.61,3.61,0,0,0,97,44.87a3.38,3.38,0,0,0-1.76.82,4,4,0,0,0-1.12,1.63,3.82,3.82,0,0,0-.2,2,4.64,4.64,0,0,0,.68,1.76A3.28,3.28,0,0,0,96,52.35,3.89,3.89,0,0,0,98.28,52.56Z"/><path class="cls-4" d="M108.85,54.71c-.28-1.44-.53-2.77-.76-4s-.43-2.45-.62-3.65-.37-2.41-.54-3.62-.33-2.52-.49-3.91l4.17-.67c0,.75.12,1.51.19,2.27A7.51,7.51,0,0,1,112.52,39a5.24,5.24,0,0,1,2.62-1.14,5.67,5.67,0,0,1,2.64.11,4.06,4.06,0,0,1,1.81,1.18,6.53,6.53,0,0,1,1.17,2,15.42,15.42,0,0,1,.74,2.46c.2.89.36,1.79.51,2.7s.29,1.93.41,2.84.2,1.67.26,2.29.1,1,.1,1.1l-4.15.66c-.07-.68-.15-1.4-.24-2.17s-.18-1.54-.27-2.29-.18-1.44-.28-2q-.84-5.25-2.54-5a3.5,3.5,0,0,0-2.36,1.63,10.08,10.08,0,0,0-1.42,3.38l.08.5c.12.79.26,1.6.4,2.45s.29,1.65.44,2.41.28,1.42.38,2Z"/><path class="cls-27" d="M127.82,51.9a2.67,2.67,0,0,1-1.62-.18,2.54,2.54,0,0,1-1.09-.93,3.5,3.5,0,0,1-.52-1.34,2.61,2.61,0,0,1,.53-2.22,3.1,3.1,0,0,1,2-1.06,2.62,2.62,0,0,1,2.07.42,3.33,3.33,0,0,1,.54,4.28A3.09,3.09,0,0,1,127.82,51.9Z"/><path class="cls-28" d="M138.84,50.08a7.4,7.4,0,0,1-2.57,0,6.34,6.34,0,0,1-2.42-1,6.62,6.62,0,0,1-1.91-2.08,8.71,8.71,0,0,1-1.1-3.18,9.62,9.62,0,0,1,.07-3.77,7.23,7.23,0,0,1,1.33-2.82,7.5,7.5,0,0,1,2.18-1.88,7.74,7.74,0,0,1,2.59-.92,8.92,8.92,0,0,1,1.52-.13,8.65,8.65,0,0,1,1.38.09q-.21-1.81-.39-3.66c-.12-1.22-.23-2.44-.32-3.64l4.19-.4q.13,2.09.36,4.47c.15,1.58.34,3.19.56,4.83s.46,3.23.7,4.77.48,2.83.73,4.13.49,2.48.73,3.54l-4.22,1c-.06-.31-.12-.62-.17-.91a7,7,0,0,1-1.44,1A5.79,5.79,0,0,1,138.84,50.08Zm-4.06-7.18a3.63,3.63,0,0,0,.82,1.94,2.75,2.75,0,0,0,1.37.83,3.7,3.7,0,0,0,1.43.07,3.82,3.82,0,0,0,1.53-.6,3.91,3.91,0,0,0,1.28-1.45l-.09-.56c-.21-1.34-.41-2.7-.6-4.11a3.87,3.87,0,0,0-2.69-.61,5,5,0,0,0-1.18.37,3.38,3.38,0,0,0-1.1.8,3.27,3.27,0,0,0-.72,1.33A4.63,4.63,0,0,0,134.78,42.9Z"/><path class="cls-29" d="M148.71,48.26c-.22-1-.42-2.09-.63-3.25s-.39-2.32-.58-3.49c-.25-1.53-.47-3-.67-4.47s-.37-2.78-.51-4l4.24-.71q.09,1.16.33,2.82c.16,1.12.34,2.28.53,3.5s.4,2.38.6,3.55.39,2.22.57,3.16.31,1.67.41,2.18ZM146,30.58a4.14,4.14,0,0,0-.09-.46c0-.15-.06-.33-.09-.53-.09-.52-.16-1.09-.22-1.68s-.11-1.11-.15-1.53l4.41-.63c0,.57.09,1.21.14,1.93s.14,1.45.25,2.21Z"/><path class="cls-30" d="M162.51,46.25a2.73,2.73,0,0,1-1.85-.31,5.72,5.72,0,0,1-1.51-1.25c-.46-.52-.87-1-1.23-1.52q-1-1.44-2-3.18a37.61,37.61,0,0,1-1.82-3.65,35,35,0,0,1-1.43-3.83L157,31.16a36.07,36.07,0,0,0,1.31,4.22,27.36,27.36,0,0,0,1.56,3.44,14.39,14.39,0,0,0,1.58,2.38l.42.47a2.08,2.08,0,0,0,.32-.59,30.85,30.85,0,0,0,1.31-4.76,41,41,0,0,0,.64-6.41l4.48.17c-.18,1.61-.36,3-.54,4.22s-.37,2.26-.58,3.17-.43,1.74-.66,2.47-.49,1.46-.77,2.17a15.59,15.59,0,0,1-.71,1.63,6.41,6.41,0,0,1-1.15,1.63A3,3,0,0,1,162.51,46.25Z"/><path class="cls-31" d="M176.08,42.89l-3.76-2.29c.35-.66.75-1.38,1.21-2.17s.93-1.56,1.42-2.35,1-1.52,1.4-2.2.83-1.25,1.15-1.7c-.43-.32-.94-.74-1.53-1.24s-1.22-1-1.88-1.6-1.29-1.11-1.9-1.66-1.13-1-1.57-1.45a7,7,0,0,1-.89-1l3.18-3c.73.69,1.55,1.44,2.45,2.24s1.81,1.61,2.75,2.43l2.79,2.39c.92.77,1.77,1.48,2.55,2.11a37.2,37.2,0,0,0-2.59,3.6c-.85,1.32-1.68,2.67-2.47,4.05S176.83,41.69,176.08,42.89Z"/><path class="cls-32" d="M216.19,54.13c-.44-.34-1-.76-1.69-1.29l-2.26-1.73c-.83-.64-1.69-1.28-2.57-1.94s-1.75-1.27-2.61-1.85-1.66-1.09-2.38-1.5c.41-.6.89-1.33,1.44-2.16s1.11-1.74,1.7-2.7l1.74-2.83c.57-.94,1.07-1.82,1.52-2.64s.8-1.52,1-2.08l4,2c-.26.53-.57,1.14-.95,1.82s-.79,1.41-1.22,2.16-.88,1.49-1.32,2.2-.85,1.36-1.22,1.94-.68,1-.93,1.39q2.68,1.88,4.3,3l2.46,1.69,1.12.75.26.18-.11-.06s-.06,0-.05,0,.1.12.29.27Z"/><path class="cls-33" d="M223.67,55.13l-2.53-.3c.11-1.27.25-2.66.39-4.19s.3-3.1.47-4.73.34-3.25.51-4.83l.51-4.52c.16-1.42.31-2.68.45-3.79s.26-2,.36-2.65l2.59.34q-.21,1.2-.45,3c-.16,1.23-.33,2.58-.5,4.06s-.35,3-.53,4.62-.34,3.18-.5,4.76-.3,3.07-.43,4.48S223.76,54.05,223.67,55.13Z"/><path class="cls-34" d="M237.53,51.87a7.45,7.45,0,0,1-2.58,0,6.43,6.43,0,0,1-4.33-3.09,8.9,8.9,0,0,1-1.1-3.18,9.61,9.61,0,0,1,.07-3.77A7.37,7.37,0,0,1,230.92,39a7.53,7.53,0,0,1,2.18-1.89,8,8,0,0,1,2.59-.92,11.7,11.7,0,0,1,1.52-.13,8.61,8.61,0,0,1,1.38.1q-.21-1.82-.39-3.66c-.12-1.23-.23-2.45-.32-3.65l4.19-.39c.09,1.39.21,2.87.36,4.46s.34,3.2.56,4.84.46,3.22.7,4.77.48,2.82.73,4.12.49,2.49.73,3.55l-4.22,1c-.06-.31-.12-.61-.17-.91a7.18,7.18,0,0,1-1.44,1A5.8,5.8,0,0,1,237.53,51.87Zm-4.07-7.17a3.59,3.59,0,0,0,.82,1.93,2.75,2.75,0,0,0,1.37.83,3.71,3.71,0,0,0,1.43.08,4.14,4.14,0,0,0,1.53-.6,4,4,0,0,0,1.28-1.45l-.09-.57c-.21-1.33-.41-2.7-.6-4.1a3.8,3.8,0,0,0-2.68-.61,4.87,4.87,0,0,0-1.19.36,3.53,3.53,0,0,0-1.1.8,3.34,3.34,0,0,0-.72,1.33A4.68,4.68,0,0,0,233.46,44.7Z"/><path class="cls-35" d="M247.39,50.06c-.21-1-.42-2.1-.63-3.25s-.39-2.32-.58-3.49c-.25-1.53-.47-3-.67-4.48s-.37-2.78-.51-4l4.24-.71c.06.77.17,1.71.33,2.83s.34,2.28.54,3.49.39,2.39.59,3.55.39,2.22.57,3.17.32,1.66.41,2.17Zm-2.74-17.69c0-.15-.05-.3-.08-.45s-.07-.34-.1-.53c-.09-.53-.16-1.09-.22-1.69s-.11-1.1-.14-1.52l4.4-.63c0,.56.09,1.21.15,1.92s.13,1.46.24,2.22Z"/><path class="cls-36" d="M261.19,48.05a2.75,2.75,0,0,1-1.84-.31,6,6,0,0,1-1.52-1.25q-.69-.78-1.23-1.53a36.29,36.29,0,0,1-2-3.17,39,39,0,0,1-1.82-3.66,35.64,35.64,0,0,1-1.43-3.82L255.71,33A34.92,34.92,0,0,0,257,37.17a27.54,27.54,0,0,0,1.56,3.45A15.53,15.53,0,0,0,260.16,43c.1.1.24.25.42.46,0,0,.14-.2.32-.58a30.68,30.68,0,0,0,1.31-4.77,40.84,40.84,0,0,0,.64-6.41l4.48.17c-.18,1.62-.36,3-.53,4.23s-.38,2.25-.58,3.17-.43,1.73-.67,2.47-.49,1.46-.77,2.16a14,14,0,0,1-.71,1.63,6.24,6.24,0,0,1-1.15,1.63A3,3,0,0,1,261.19,48.05Z"/><path class="cls-37" d="M274.76,44.68,271,42.4c.35-.67.75-1.39,1.21-2.17s.93-1.57,1.42-2.36,1-1.52,1.4-2.2.83-1.24,1.15-1.7c-.43-.32-.93-.73-1.53-1.24l-1.88-1.59-1.9-1.66c-.61-.54-1.13-1-1.57-1.46a6.49,6.49,0,0,1-.89-1l3.18-3c.73.69,1.55,1.44,2.45,2.24s1.81,1.61,2.76,2.43,1.87,1.61,2.78,2.39l2.55,2.11a37,37,0,0,0-2.59,3.59q-1.28,2-2.47,4.05T274.76,44.68Z"/><path class="cls-38" d="M327,76.57a4.14,4.14,0,0,1-.63.15l-.64.11a12,12,0,0,1-4.62.06,6.85,6.85,0,0,1-3.09-1.46A7.24,7.24,0,0,1,316.2,73a10.53,10.53,0,0,1-.89-2.77,11.42,11.42,0,0,1-.17-2.65,16.21,16.21,0,0,1,.32-2.46,2.25,2.25,0,0,0,0-.73,1.42,1.42,0,0,0-1.18-1.15,10,10,0,0,0-2.74-.25l-1.41-6.79a6.25,6.25,0,0,0,2.57-1.4,3.07,3.07,0,0,0,.26-2.41,14.11,14.11,0,0,0-.86-2.94,15.66,15.66,0,0,1-.91-3.29,13.16,13.16,0,0,1,.13-5.35,9.27,9.27,0,0,1,7.54-7.15L320,40.62a4,4,0,0,0-.94.48,2.57,2.57,0,0,0-.89,1.16,3.89,3.89,0,0,0-.1,2.15,19.13,19.13,0,0,0,.9,3.47,14.66,14.66,0,0,1,.81,2.95,19.4,19.4,0,0,1,.28,3.58,6.24,6.24,0,0,1-1,3.49,9.11,9.11,0,0,1,1.92,1.64,5.56,5.56,0,0,1,1.41,2.87,10.94,10.94,0,0,1,.18,2.89,17.88,17.88,0,0,1-.31,2,5.22,5.22,0,0,0,0,2,.89.89,0,0,0,.59.78,2.63,2.63,0,0,0,1.27,0,13.66,13.66,0,0,0,1.7-.43Z"/><path class="cls-39" d="M343,74.36l-1.09-7,.83-.07.69-.1c1.29-.23,1.87-.72,1.74-1.48a4.87,4.87,0,0,0-.66-1.82c-.31-.47-.64-1-1-1.64a8.56,8.56,0,0,1-.83-2.69,6,6,0,0,1,.29-3.23,9.77,9.77,0,0,1,1.15-2.29,6.61,6.61,0,0,1-2.31-2.82,15.92,15.92,0,0,1-1-3.32,12.73,12.73,0,0,1-.17-2.7c0-.91.08-1.78.13-2.61a9.61,9.61,0,0,0-.06-2.07,2.79,2.79,0,0,0-1.27-1.92,3,3,0,0,0-2-.55l-1.21-6.92a10,10,0,0,1,5.57.71A10.14,10.14,0,0,1,345.73,35a10.35,10.35,0,0,1,1.94,4.48,11,11,0,0,1,.16,2.58c-.06.81-.11,1.62-.17,2.43a11,11,0,0,0,.17,2.63,2.23,2.23,0,0,0,1.38,2,8.21,8.21,0,0,0,2.78.29l1,6.86a8.33,8.33,0,0,0-2.62,1.23,1.52,1.52,0,0,0-.63,1.47,3.66,3.66,0,0,0,.53,1.2c.29.48.61,1,.93,1.7a7.79,7.79,0,0,1,.71,2.26,11,11,0,0,1,.09,2.41,8.68,8.68,0,0,1-.77,3,7.37,7.37,0,0,1-2.34,2.82,10.82,10.82,0,0,1-4.71,1.79l-.57.1A4.36,4.36,0,0,1,343,74.36Z"/></g></g></svg>