<svg width="52" height="52" viewBox="0 0 52 52" fill="none" xmlns="http://www.w3.org/2000/svg">
<g clip-path="url(#clip0_1069_358)">
<path d="M27.8782 32.814C26.9855 35.1103 27.09 32.1351 25.2303 33.2851C21.6077 35.5281 14.0235 44.1358 13.5801 39.2893C7.99482 39.4164 6.10676 35.2185 8.41185 31.5334C10.4326 28.3108 14.8244 26.5508 19.3319 25.8483C14.6271 25.4439 9.71609 23.88 7.54663 20.4392C5.27745 16.8372 7.57399 13.4868 12.4148 12.9882C12.2531 7.39126 16.4392 5.46807 20.1402 7.74994C23.4161 9.76894 25.2246 14.2681 25.944 18.8412C26.2993 14.0923 27.8859 9.03828 31.375 6.84419C34.9735 4.57913 38.3275 6.87278 38.8203 11.7139C44.4176 11.5598 46.3108 15.7243 44.0396 19.4278C41.9655 22.7917 37.2525 24.6253 32.5674 25.2792C37.43 25.6569 42.6789 27.3021 44.8722 30.9107C47.0655 34.5193 44.7495 37.8772 39.8859 38.3105C39.9775 43.894 35.759 45.7557 32.0955 43.4259C30.2469 42.2518 28.8861 40.2752 27.9339 37.9499C27.9339 37.9499 28.7137 34.1715 29.3357 34.1497C29.9577 34.1279 27.8782 32.814 27.8782 32.814Z" fill="#129D7A"/>
<path d="M23.8996 19.0252C24.7923 16.7289 24.6878 19.7042 26.5475 18.5541C30.1702 16.3112 37.7544 7.7034 38.1978 12.55C43.783 12.4229 45.6711 16.6207 43.366 20.3058C41.3452 23.5284 36.9534 25.2884 32.4459 25.9909C37.1507 26.3953 42.0617 27.9592 44.2312 31.4001C46.5004 35.0021 44.2038 38.3525 39.363 38.851C39.5247 44.448 35.3387 46.3712 31.6376 44.0893C28.3618 42.0703 26.5532 37.5711 25.8338 32.998C25.4785 37.7469 23.8919 42.801 20.4029 44.995C16.8044 47.2601 13.4503 44.9665 12.9575 40.1253C7.36022 40.2794 5.467 36.1149 7.73818 32.4114C9.81236 29.0475 14.5253 27.214 19.2104 26.56C14.3479 26.1823 9.09898 24.5371 6.90564 20.9285C4.7123 17.3199 7.02837 13.962 11.8919 13.5287C11.8003 7.94523 16.0188 6.08351 19.6823 8.41336C21.531 9.58748 22.8917 11.564 23.844 13.8893C23.844 13.8893 23.0641 17.6677 22.4421 17.6895C21.8201 17.7113 23.8996 19.0252 23.8996 19.0252Z" fill="#129D7A"/>
</g>
<rect x="1" y="1" width="50" height="50" rx="11" stroke="#3D9DD8" stroke-width="2"/>
<rect x="1" y="1" width="50" height="50" rx="11" stroke="url(#paint0_linear_1069_358)" stroke-width="2"/>
<defs>
<linearGradient id="paint0_linear_1069_358" x1="5.56866" y1="0.739415" x2="67.6269" y2="24.5488" gradientUnits="userSpaceOnUse">
<stop stop-color="#00A364"/>
<stop offset="0.5" stop-color="#518AC8"/>
<stop offset="1" stop-color="#00A364"/>
</linearGradient>
<clipPath id="clip0_1069_358">
<rect width="52" height="52" rx="12" fill="white"/>
</clipPath>
</defs>
</svg>
