<svg width="52" height="52" viewBox="0 0 52 52" fill="none" xmlns="http://www.w3.org/2000/svg">
<rect x="1" y="1" width="50" height="50" rx="11" stroke="#3D9DD8" stroke-width="2"/>
<rect x="1" y="1" width="50" height="50" rx="11" stroke="url(#paint0_linear_1069_358)" stroke-width="2"/>
<path d="M8.63485 16.2237C1.91384 20.4286 8.87003 27.1366 8.87003 27.1366C8.87003 27.1366 2.18744 34.1178 9.07009 38.0504C15.9527 41.9831 26.6653 26.7817 26.6653 26.7817C26.6653 26.7817 15.3556 12.0201 8.63485 16.2237Z" fill="#00A364"/>
<path d="M42.9638 37.3738C49.6845 33.1704 42.7286 26.4609 42.7286 26.4609C42.7286 26.4609 49.411 19.481 42.5282 15.5484C35.6457 11.6158 24.9318 26.8168 24.9318 26.8168C24.9318 26.8168 36.2429 41.5787 42.9638 37.3738Z" fill="#00A364"/>
<path d="M15.2235 43.9638C19.4284 50.6848 26.1365 43.7286 26.1365 43.7286C26.1365 43.7286 33.1178 50.4112 37.0503 43.5286C40.9829 36.6459 25.6115 26.7323 25.6115 26.7323C25.6115 26.7323 11.0199 37.243 15.2235 43.9638Z" fill="#0FAF71"/>
<path d="M36.3736 9.63488C32.17 2.91416 25.4606 9.87004 25.4606 9.87004C25.4606 9.87004 18.4807 3.18774 14.5481 10.0704C10.6141 16.9528 25.6114 26.7322 25.6114 26.7322C25.6114 26.7322 40.5785 16.3559 36.3736 9.63488Z" fill="#0FAF71"/>
<defs>
<linearGradient id="paint0_linear_1069_358" x1="5.56866" y1="0.739415" x2="67.6269" y2="24.5488" gradientUnits="userSpaceOnUse">
<stop stop-color="#00A364"/>
<stop offset="0.5" stop-color="#518AC8"/>
<stop offset="1" stop-color="#00A364"/>
</linearGradient>
</defs>
</svg>
