<svg width="52" height="52" viewBox="0 0 52 52" fill="none" xmlns="http://www.w3.org/2000/svg">
<rect x="1" y="1" width="50" height="50" rx="11" stroke="#FF9A00" stroke-width="2"/>
<path d="M26.1064 33.8994H15.9174L14.1667 39H10L18.7185 14H23.3403L32.0588 39H27.8571L26.1064 33.8994ZM24.986 30.5589L21.0294 18.9569L17.0378 30.5589H24.986Z" fill="#FF9A00"/>
<path d="M37.2211 19.932C36.5923 19.932 36.0649 19.7181 35.6389 19.2903C35.213 18.8625 35 18.3328 35 17.7013C35 17.0698 35.213 16.5401 35.6389 16.1123C36.0649 15.6845 36.5923 15.4706 37.2211 15.4706C37.8296 15.4706 38.3469 15.6845 38.7728 16.1123C39.1988 16.5401 39.4118 17.0698 39.4118 17.7013C39.4118 18.3328 39.1988 18.8625 38.7728 19.2903C38.3469 19.7181 37.8296 19.932 37.2211 19.932ZM38.9249 22.1627V39H35.4564V22.1627H38.9249Z" fill="#FF9A00"/>
</svg>
