<svg width="52" height="52" viewBox="0 0 52 52" fill="none" xmlns="http://www.w3.org/2000/svg">
<rect x="1" y="1" width="50" height="50" rx="11" stroke="#6CAC48" stroke-width="2"/>
<path d="M26.3441 8.05549L26.5026 8.35304L26.5127 8.37207L26.5244 8.39016C26.782 8.78722 27.0643 9.14351 27.3988 9.47662L27.4003 9.47811C28.2834 10.3502 29.1065 11.2809 29.8641 12.2639C31.6317 14.5852 32.8299 17.17 33.6894 19.9837C34.1998 21.6863 34.4763 23.4302 34.497 25.1917L34.497 25.194C34.5825 30.473 32.7786 34.9926 29.1302 38.7605C28.5982 39.2957 28.0277 39.7911 27.4232 40.2426C27.3769 40.1947 27.3291 40.1212 27.2552 39.9946C27.0085 39.5638 26.8443 39.0908 26.771 38.5997L26.7692 38.5874L26.7667 38.5751C26.6392 37.94 26.5615 37.3332 26.6002 36.7189L26.6012 36.7032V36.6875V36.382V36.2722L26.597 36.2631C26.5956 36.2067 26.594 36.1267 26.5922 36.024C26.5882 35.8013 26.5832 35.4758 26.5774 35.0619C26.5659 34.2341 26.5511 33.0547 26.5347 31.6403C26.5019 28.8116 26.4623 25.0445 26.4277 21.2745C26.3931 17.5044 26.3635 13.7322 26.3508 10.8931C26.3458 9.78633 26.3433 8.82211 26.3441 8.05549Z" stroke="#599636"/>
<path d="M25.8746 6.04308C25.8308 5.95542 25.7869 6.02179 25.7431 6.06437C25.7644 6.50265 25.6116 6.89334 25.3725 7.2665C25.1095 7.63716 24.7614 7.92141 24.412 8.22696C22.4711 9.90744 20.9433 11.9373 19.7199 14.2076C18.092 17.263 17.253 20.5376 17.0151 23.9849C16.9062 25.2284 17.4083 29.6162 17.8003 30.8822C18.8697 34.2431 20.7906 37.0594 23.2787 39.5037C23.8898 40.0923 24.5435 40.6382 25.2197 41.1629C25.4163 41.1629 25.4376 40.9876 25.4827 40.8574C25.5688 40.5787 25.6346 40.2941 25.6793 40.0059" stroke="#6CAC48"/>
<path d="M26.3572 45.2026L26.3731 45.3785C26.3501 45.3694 26.3284 45.3612 26.3081 45.3536C26.3082 45.3497 26.3082 45.3457 26.3082 45.3416C26.3082 45.3195 26.3083 45.2952 26.3083 45.2677V44.8294V44.8156L26.3075 44.8019C26.2426 43.6275 26.1369 42.4255 25.7478 41.2326C25.9405 40.8702 26.0001 40.4905 26.046 40.1977C26.0515 40.1626 26.0569 40.1288 26.0622 40.0965C26.0832 39.9928 26.1036 39.889 26.1232 39.7851C26.2113 40.0226 26.3192 40.2523 26.4456 40.472L26.4508 40.4809L26.4563 40.4897C26.5506 40.639 26.6693 40.7973 26.8192 40.9379C26.6668 41.2166 26.5308 41.531 26.4703 41.8877L26.4696 41.8885L26.4669 41.9082C26.4603 41.9494 26.4547 41.9911 26.4502 42.0334L26.4472 42.0559C26.4408 42.1038 26.4334 42.1552 26.4255 42.2093C26.3862 42.4806 26.3366 42.823 26.3551 43.1633V45.1575V45.1801L26.3572 45.2026Z" stroke="#C2BFBF"/>
</svg>
