<svg width="52" height="52" viewBox="0 0 52 52" fill="none" xmlns="http://www.w3.org/2000/svg">
<rect x="1" y="1" width="50" height="50" rx="11" stroke="#303030" stroke-width="2"/>
<path d="M45.2353 30.7544C44.9441 30.7544 44.7262 30.6891 44.5816 30.5585C44.4379 30.428 44.3623 30.2603 44.3547 30.0556H44.6182C44.6323 30.2096 44.6961 30.3237 44.8098 30.3979C44.9244 30.4712 45.0625 30.5078 45.224 30.5078C45.3771 30.5078 45.5001 30.4763 45.5931 30.4134C45.687 30.3505 45.734 30.265 45.734 30.157C45.734 30.0434 45.6856 29.9607 45.5889 29.909C45.4922 29.8574 45.3254 29.8067 45.0887 29.7569C44.853 29.7062 44.6835 29.6362 44.5802 29.547C44.4778 29.4577 44.4266 29.3389 44.4266 29.1905C44.4266 29.0233 44.4933 28.8862 44.6266 28.7791C44.761 28.6721 44.9389 28.6185 45.1606 28.6185C45.3935 28.6185 45.5814 28.6725 45.7241 28.7805C45.8669 28.8886 45.9425 29.0412 45.951 29.2384H45.6847C45.6575 28.9886 45.4865 28.8637 45.1719 28.8637C45.0197 28.8637 44.9018 28.8923 44.8182 28.9496C44.7347 29.0069 44.6929 29.083 44.6929 29.1778C44.6929 29.2643 44.7262 29.3291 44.7929 29.3723C44.8605 29.4155 44.9859 29.4573 45.1691 29.4977C45.3531 29.538 45.4992 29.578 45.6072 29.6174C45.7152 29.6569 45.8077 29.7184 45.8848 29.802C45.9618 29.8846 46.0003 29.9959 46.0003 30.1359C46.0003 30.3134 45.9294 30.4608 45.7875 30.5782C45.6467 30.6957 45.4626 30.7544 45.2353 30.7544Z" fill="black"/>
<path d="M43.994 30.0584C43.994 30.3111 43.9452 30.4905 43.8475 30.5966C43.7498 30.7018 43.6056 30.7544 43.415 30.7544C43.244 30.7544 43.1088 30.7023 43.0092 30.598C42.9096 30.4938 42.8599 30.3562 42.8599 30.1852V30.1303H43.1346C43.1346 30.382 43.228 30.5079 43.415 30.5079C43.5136 30.5079 43.5892 30.4802 43.6418 30.4247C43.6944 30.3693 43.7207 30.2519 43.7207 30.0725V28.6538H43.994V30.0584Z" fill="black"/>
<path d="M42.0406 20.5629H33.8484V21.1773H37.6031L37.6714 31.281H38.2858V21.1773H42.0406V20.5629Z" fill="black" stroke="black" stroke-width="0.4"/>
<path d="M8.2478 20.5629V31.281H9.06702L8.99875 21.5186L20.3313 37.2886L9.13529 20.5629H8.2478Z" fill="black" stroke="black" stroke-width="0.4"/>
<path d="M17.2593 31.2128V20.6312H24.3592V21.1774H17.8737V25.4783H24.0178V26.0244H17.8737V30.6666H24.4274V31.2128H17.2593Z" fill="black" stroke="black" stroke-width="0.4"/>
<path d="M28.7965 25.7513L24.8369 31.2128H25.6561L29.2061 26.3658L32.6878 31.2128H33.507L29.6157 25.7513L36.9204 14.965L29.2061 25.2735L25.8609 20.6312H25.0417L28.7965 25.7513Z" fill="black" stroke="black" stroke-width="0.4"/>
<circle cx="42.0406" cy="30.2571" r="0.273073" fill="black"/>
</svg>
