<svg width="52" height="52" viewBox="0 0 52 52" fill="none" xmlns="http://www.w3.org/2000/svg">
<rect x="1" y="1" width="50" height="50" rx="11" stroke="#8C91B8" stroke-width="2"/>
<path d="M10.0316 21.4492H15.7132C17.3808 21.4632 18.5892 21.944 19.3384 22.8908C20.0876 23.8376 20.3348 25.1308 20.0804 26.7704C19.9816 27.5196 19.7624 28.2544 19.4232 28.9752C19.098 29.696 18.646 30.346 18.0664 30.9256C17.3596 31.6604 16.6036 32.1268 15.798 32.3248C14.9924 32.5228 14.1584 32.6216 13.2964 32.6216H10.7524L9.9468 36.6496H7L10.0316 21.4492ZM12.512 23.866L11.24 30.226C11.3248 30.24 11.4096 30.2472 11.4944 30.2472C11.5932 30.2472 11.6924 30.2472 11.7912 30.2472C13.148 30.2612 14.2788 30.1272 15.1832 29.8444C16.0876 29.5476 16.6956 28.516 17.0064 26.7492C17.2608 25.2652 17.0064 24.41 16.2432 24.184C15.494 23.958 14.5544 23.852 13.4236 23.866C13.254 23.88 13.0916 23.8872 12.936 23.8872C12.7948 23.8872 12.6464 23.8872 12.4908 23.8872L12.512 23.866Z" fill="#8C91B8"/>
<path d="M23.4371 17.3999H26.3627L25.5359 21.4491H28.1647C29.6063 21.4775 30.6803 21.7743 31.3871 22.3395C32.1079 22.9047 32.3199 23.9791 32.0231 25.5619L30.6027 32.6215H27.6347L28.9915 25.8799C29.1327 25.1731 29.0903 24.6715 28.8643 24.3747C28.6383 24.0779 28.1507 23.9295 27.4015 23.9295L25.0483 23.9083L23.3099 32.6215H20.3843L23.4371 17.3999Z" fill="#8C91B8"/>
<path d="M35.1649 21.4492H40.8465C42.5141 21.4632 43.7225 21.944 44.4717 22.8908C45.2209 23.8376 45.4681 25.1308 45.2137 26.7704C45.1149 27.5196 44.8957 28.2544 44.5565 28.9752C44.2313 29.696 43.7793 30.346 43.1997 30.9256C42.4929 31.6604 41.7369 32.1268 40.9313 32.3248C40.1257 32.5228 39.2917 32.6216 38.4297 32.6216H35.8857L35.0801 36.6496H32.1333L35.1649 21.4492ZM37.6453 23.866L36.3733 30.226C36.4581 30.24 36.5429 30.2472 36.6277 30.2472C36.7265 30.2472 36.8257 30.2472 36.9245 30.2472C38.2813 30.2612 39.4121 30.1272 40.3165 29.8444C41.2209 29.5476 41.8289 28.516 42.1397 26.7492C42.3941 25.2652 42.1397 24.41 41.3765 24.184C40.6273 23.958 39.6877 23.852 38.5569 23.866C38.3873 23.88 38.2249 23.8872 38.0693 23.8872C37.9281 23.8872 37.7797 23.8872 37.6241 23.8872L37.6453 23.866Z" fill="#8C91B8"/>
</svg>
