<svg width="52" height="52" viewBox="0 0 52 52" fill="none" xmlns="http://www.w3.org/2000/svg">
<rect x="1" y="1" width="50" height="50" rx="11" stroke="#D91404" stroke-width="2"/>
<path d="M25.0613 9.67347L25.7096 10.4029L24.7918 10.9313L24.1426 10.1468L25.0613 9.67347ZM33.303 8.50016L33.3545 8.8347L32.0193 8.86729L31.9302 8.43632L33.303 8.50016ZM28.7908 43.6079H12.3292C12.3079 43.26 12.2915 42.7699 12.3024 42.1406C12.3274 40.7105 12.494 38.5598 13.0683 35.7223C14.2146 30.0586 15.8936 26.2885 18.8272 20.8307L18.8272 20.8307C21.7066 15.4733 26.2576 11.1726 32.7828 10.5852C35.9996 10.2958 38.9116 11.4372 41.0525 12.6902C42.1181 13.3139 42.9779 13.9567 43.5699 14.4424C43.6838 14.5359 43.7876 14.6234 43.8809 14.7037C43.6454 14.533 43.3618 14.3491 43.0312 14.1709C41.9357 13.5802 40.3258 13.0538 38.2618 13.2789L38.2617 13.2789C34.1919 13.723 27.2154 17.7945 26.1377 26.6297C25.6065 30.9856 26.3863 35.5004 27.2808 38.8958C27.7296 40.5996 28.2111 42.0354 28.5809 43.0467C28.6558 43.2515 28.7261 43.439 28.7908 43.6079ZM10.6987 36.121L10.3434 38.1738L8.4318 37.9397L8.66875 35.9647L10.6987 36.121ZM11.8875 24.6811L13.6458 25.3691L13.1758 26.6784L11.3789 26.1049L11.8875 24.6811ZM16.7663 16.6278L17.6745 15.6224L18.8325 16.3833L17.9567 17.4212L16.7663 16.6278Z" stroke="#D91404" stroke-width="1.5"/>
<path d="M35.3455 16.4392L35.38 16.4306L35.3526 16.4522L35.3455 16.4392ZM31.9032 20.1627L31.8224 20.3041L31.0304 19.4302L31.2702 19.2132L31.9032 20.1627ZM29.6664 26.182L28.7078 25.3644L28.9333 24.9135L29.8123 25.5802L29.6664 26.182ZM29.6287 32.4837L28.3475 31.9345L28.3881 31.2214L29.5906 31.8543L29.6287 32.4837ZM29.7945 40.2768L29.5161 39.2746H31.0802L31.6188 40.3801L29.7945 40.2768Z" stroke="#D91404" stroke-width="1.5"/>
</svg>
