<svg xmlns="http://www.w3.org/2000/svg" viewBox="0 0 444.66 231.48"><defs><style>.cls-1,.cls-3{fill:#ef3e55;}.cls-11,.cls-2{fill:#ef3c55;}.cls-11,.cls-3,.cls-5{font-size:36px;font-family:Ebrima-Bold, Ebrima;font-weight:700;}.cls-3{stroke:#ef3c55;stroke-width:16px;}.cls-3,.cls-5{stroke-linecap:round;stroke-linejoin:round;}.cls-4,.cls-5{fill:#fff;}.cls-5{stroke:#fff;stroke-width:12px;}.cls-6{fill:#7dc242;}.cls-7{fill:#dccd40;}.cls-8{fill:#f282b4;}.cls-9{fill:#4190cd;}.cls-10{fill:#fdef38;}</style></defs><g id="Layer_2" data-name="Layer 2"><g id="Layer_1-2" data-name="Layer 1"><g id="backshadow"><path class="cls-1" d="M173.27,123.73c-15,0-28.48-6.25-36-16.73-5.24-7.33-10.13-20.09-3.6-39.27,5-14.07,19.43-23.46,36-23.46a41.21,41.21,0,0,1,27.48,10.3,7.56,7.56,0,0,1,.77.73C206.1,64.13,210,79,207.2,90.64a8,8,0,0,1-6.21,6c-1.83.37-3.67.68-5.51,1,.25.56.5,1.12.76,1.68a104.07,104.07,0,0,1,4,9.72,8,8,0,0,1-4.26,9.83A55.11,55.11,0,0,1,173.27,123.73Z"/><path class="cls-2" d="M169.69,52.27a33.21,33.21,0,0,1,22.37,8.46h0c6.26,6.77,9.55,18.9,7.35,28-11,2.2-22.47,2.62-33.64,4.35-7.45.73,1,1.82,3.38,2a35.09,35.09,0,0,0,3.62.18,47.32,47.32,0,0,0,12.48-1.67c2,6,5.39,11.93,7.4,17.9a46.93,46.93,0,0,1-19.39,4.19c-22.06,0-42.11-15.75-32-45.42,4-11.39,16-18,28.42-18m-10,24.1,19.55-2.3c-.48-2.38-4.15-3.54-8.19-3.54-5.28,0-11.18,2-11.36,5.84m10-40.1c-19.95,0-37.43,11.54-43.51,28.71l-.06.17c-6,17.48-4.29,34,4.67,46.51s24.88,20.07,42.48,20.07a63.1,63.1,0,0,0,26-5.64,16,16,0,0,0,8.52-19.65q-.59-1.72-1.23-3.36A16,16,0,0,0,215,92.51c3.43-14.29-1.16-31.83-11.17-42.64a15.37,15.37,0,0,0-1.43-1.37,49.23,49.23,0,0,0-32.69-12.23Z"/><path class="cls-1" d="M209,185.62a8,8,0,0,1-5.33-2.05,8.05,8.05,0,0,1-5.34,2.05H176.44a8,8,0,0,1-5.65-2.34l0,0a8,8,0,0,1-5.66,2.36H143.23a8,8,0,0,1-8-7.63c-.31-6.82-1.06-15.55-1.85-24.8-.82-9.51-1.66-19.33-2.13-28.22a8,8,0,0,1,7.49-8.41l23.77-1.49.51,0a7.94,7.94,0,0,1,3.61.87,30.78,30.78,0,0,1,4-.25,32.25,32.25,0,0,1,16.78,4.74,38.58,38.58,0,0,1,4.64-2.33A29.9,29.9,0,0,1,203.42,116a32.94,32.94,0,0,1,8.43,1.06c26.52,6.72,26.26,34.25,26.07,54.36,0,2.11,0,4.2,0,6.23a8,8,0,0,1-8,8Z"/><path class="cls-2" d="M163,123.06v1.83a24.2,24.2,0,0,1,12.45-.71,24.49,24.49,0,0,1,11.66,6l0,0a36.92,36.92,0,0,1,8-4.76,21.92,21.92,0,0,1,8.31-1.5,25,25,0,0,1,6.41.8c22.75,5.73,20,32.16,20.06,52.88l-20.9,0c0-10.68,1.35-33.59-7.14-33.59-.21,0-.42,0-.64,0-6.51.82-3.23,23.47-2.9,33.55H176.44c-.13-2.9-.82-21.83-2-26.58-1-4.16-2.79-7-5.79-7-.2,0-.41,0-.63,0-6.51.82-3.24,23.47-2.92,33.55H143.23c-.64-14-3.06-35.65-4-53.07l23.78-1.5m0-16c-.34,0-.67,0-1,0l-23.77,1.49a16,16,0,0,0-15,16.81c.48,9,1.33,18.92,2.15,28.49.78,9.16,1.52,17.82,1.83,24.47a16,16,0,0,0,16,15.27h21.88a16.07,16.07,0,0,0,5.64-1,15.9,15.9,0,0,0,5.69,1h21.88a15.91,15.91,0,0,0,5.32-.92,16.21,16.21,0,0,0,5.33.92l20.89,0h0a16,16,0,0,0,16-16.06c0-2,0-4,0-6.12.1-10.51.21-22.42-2.93-33.24-5.57-19.19-18.88-26.33-29.12-28.94A41.1,41.1,0,0,0,203.42,108,38.06,38.06,0,0,0,189,110.69c-.53.22-1,.45-1.55.69a40,40,0,0,0-16.81-3.7c-1,0-1.9,0-2.85.1a16,16,0,0,0-4.73-.72Z"/><path class="cls-1" d="M239.5,171.77a8,8,0,0,1-8-7.35,234.57,234.57,0,0,0-3.61-24c-1.69-9.06-3.44-18.44-4-28.71a8,8,0,0,1,1.84-5.57,8,8,0,0,1-2.56-5.06c-.73-6.88-1.4-13.65-1.63-20.86a8,8,0,0,1,7.2-8.21l26.09-2.62c.26,0,.53,0,.8,0a8,8,0,0,1,8,7.6c.05,1,.1,2.07.16,3.29.17,3.73.37,8.35.66,11l.73,5.23a8,8,0,0,1-1,5.09,7.79,7.79,0,0,1,1.05.76,8,8,0,0,1,2.8,5.61c.53,8.8,2.1,17.34,3.77,26.39a262.08,262.08,0,0,1,3.89,26,8,8,0,0,1-7.19,8.63l-28.24,2.79A7.09,7.09,0,0,1,239.5,171.77Z"/><path class="cls-2" d="M255.66,77.32c.2,4,.44,11.09.86,14.92l.75,5.35-26.12,2.61c-.72-6.86-1.36-13.38-1.58-20.26l26.09-2.62m4.41,31.1c1.07,17.73,6.14,34.38,7.68,52.56l-28.25,2.79c-1.52-18.54-6.58-34.07-7.59-52.53l28.16-2.82m-4.41-47.1c-.53,0-1.07,0-1.6.08L228,64a16,16,0,0,0-14.4,16.42c.24,7.49.93,14.42,1.67,21.45a16.25,16.25,0,0,0,1.31,4.85,16,16,0,0,0-.62,5.38c.59,10.79,2.39,20.42,4.12,29.74a224,224,0,0,1,3.5,23.22,16,16,0,0,0,15.95,14.69c.52,0,1.05,0,1.57-.08l28.25-2.79a16,16,0,0,0,14.37-17.27c-.8-9.43-2.42-18.24-4-26.75-1.62-8.8-3.15-17.11-3.66-25.42a16.06,16.06,0,0,0-2.85-8.21,16.36,16.36,0,0,0-.07-3.89l-.72-5.08c-.25-2.47-.46-7-.61-10.41-.05-1.24-.11-2.39-.16-3.36a16,16,0,0,0-16-15.19Z"/><path class="cls-1" d="M298.11,174.23a8,8,0,0,1-5.95-2.65l-21-23.38a8,8,0,0,1,1.49-12l1.28-.86c4.4-3,9.17-6.15,13.56-9.46-4.69-3.23-9.59-6.45-14.12-9.42l-1.2-.79a8,8,0,0,1-1.73-11.83l19.7-23.42a8,8,0,0,1,11-1.15c6.81,5.31,14.6,11.34,22.25,17,7.2-5.07,14.25-10.94,20.89-16.63a8,8,0,0,1,11.2.78L375,102.49a8,8,0,0,1-1.11,11.63c-4,3-8.81,6.79-13.7,10.54,4,2.49,8.14,5,12,7.23l1.88,1.11a8,8,0,0,1,2.44,11.53L358.36,170a8,8,0,0,1-11.14,1.89l-23.33-16.52-20.7,17A8,8,0,0,1,298.11,174.23Z"/><path class="cls-2" d="M296.23,85.58c8.76,6.84,18,14,27,20.43,9.11-5.91,18-13.24,26.25-20.32L369,107.79c-7.19,5.53-15.37,11.82-22.56,17.29.36.25.71.51,1.07.75,6.76,4.86,15.29,9.81,22.49,14.06l-18.18,25.49-28.31-20-25.42,20.9-21-23.38c7.7-5.18,16.72-11.12,23.49-17.45-7.38-5.5-16.29-11.31-24-16.4l19.7-23.42m0-16A16,16,0,0,0,284,75.28L264.29,98.7a16,16,0,0,0,3.45,23.67l1.18.77,4.44,2.92q-2,1.35-3.92,2.64l-1.28.87a16,16,0,0,0-3,24l21,23.38a16,16,0,0,0,22.06,1.66l16-13.14,18.35,13a16,16,0,0,0,22.27-3.77l18.18-25.49a16,16,0,0,0-4.89-23.07l-1.9-1.12-1.91-1.12,4.43-3.41A16,16,0,0,0,381,97.19L361.49,75.1a16,16,0,0,0-22.4-1.56c-5,4.31-10.3,8.72-15.65,12.77-6-4.51-12-9.15-17.36-13.34a15.94,15.94,0,0,0-9.84-3.39Z"/><path class="cls-1" d="M34.86,197a8,8,0,0,1-7.9-6.78L24,171.34a8,8,0,0,1,6.68-9.13l34.42-5.32a17.61,17.61,0,0,1,2.77-.22A14.07,14.07,0,0,1,81,165c0,.05.21.47.21.47s.09.2.13.31l.21.59.18.54.19.64.17.69.1.5.07.42,1.89,12.21a8,8,0,0,1-6.68,9.13L36.09,197A8.48,8.48,0,0,1,34.86,197Zm69.7-10.79a8,8,0,0,1-7.91-6.79l-.29-2-.74-5.38-.23-1.54-.15-1-.3-1.8-.2-1.12-.22-1.18-.25-1.26-.42-2-.24-1.11-.25-1.17L93,158.22l-.3-1.31c-.09-.39-.17-.73-.26-1.06l-.19-.72c-1.81-6.6-3.78-6.68-6.07-6.78H85l-.64,0-.48,0-.48,0-.49.05-.52.06-.54.07-.6.09-51.43,8a8.48,8.48,0,0,1-1.23.09,8,8,0,0,1-7.9-6.77l-3.93-25.38a8,8,0,0,1,6.69-9.13l52.74-8.17c.75-.11,1.48-.24,2.18-.38l.67-.14.65-.14.94-.23.64-.17,1-.3.59-.2c5.14-1.77,5.83-3.65,5.15-8-.34-2.22-1-6.35-9.37-6.35a32.21,32.21,0,0,0-4.87.4L21.07,99.94a8.45,8.45,0,0,1-1.22.09,8,8,0,0,1-7.91-6.77L8.1,68.42a8,8,0,0,1,6.68-9.13l58.55-9.06a92.07,92.07,0,0,1,14-1.14c26.86,0,44.48,14.31,48.35,39.25,2.09,13.54-1.68,25.77-9.81,34.24,6.59,4.42,11.13,11.42,13.55,21,0,.05.64,2.73.64,2.73l.56,2.44.51,2.29.37,1.74.44,2.05.24,1.19.37,1.86.35,1.77.19,1,.3,1.63.33,1.88.16.91.43,2.6L145,172a8,8,0,0,1-6.68,9.13l-32.55,5A8.48,8.48,0,0,1,104.56,186.25Z"/><path class="cls-2" d="M87.36,57.09c23.65,0,37.28,12.08,40.44,32.48,2.76,17.82-6.48,31.15-21.09,35.4,13,.57,21.45,6.6,25,20.53l.6,2.57.55,2.41.5,2.25.37,1.7.42,2,.24,1.15.36,1.82.33,1.72.19,1,.29,1.58.32,1.82.15.88.42,2.55.42,2.67.25,1.59-32.55,5-.1-.66-.19-1.3L104.1,175l-.42-3.05-.14-1-.24-1.6-.16-1-.17-1.08-.15-.84-.21-1.17-.23-1.25-.26-1.32-.28-1.41-.16-.74-.24-1.15-.27-1.21-.39-1.71-.31-1.35c-.1-.42-.19-.83-.29-1.23l-.21-.78c-2.53-9.2-6.86-12.45-13.47-12.73l-.55,0H84.8l-.58,0h-.3l-.61,0-.61.05-.63.07-.63.07-.64.08-.65.1-51.52,8L24.7,123.38l52.74-8.16c.87-.14,1.7-.28,2.5-.44l.8-.16.77-.17.76-.18.37-.1.72-.19c.48-.13.94-.27,1.39-.42l.67-.22c8.32-2.86,11.9-8,10.54-16.84-1.29-8.34-7.12-13.13-17.28-13.13a39.59,39.59,0,0,0-6.09.5L19.85,92,16,67.2l58.55-9.06a83.31,83.31,0,0,1,12.81-1M67.9,164.67a6.06,6.06,0,0,1,5.86,3.7l.13.31L74,169l.09.24,0,.13.07.24.07.24,0,.11,0,.24,0,.11,0,.22,1.88,12.11L34.86,189l-2.93-18.92,34.42-5.33a10.83,10.83,0,0,1,1.55-.12M87.37,41.09v0a100.17,100.17,0,0,0-15.25,1.23L13.55,51.39A16,16,0,0,0,.19,69.65L4,94.48A16,16,0,0,0,19.85,108h.34a16,16,0,0,0-11.3,17.8l3.93,25.38a15.93,15.93,0,0,0,5.8,10,16,16,0,0,0-2.5,11.32l2.93,18.92a16,16,0,0,0,18.26,13.36l41.41-6.41a16,16,0,0,0,12.8-10.93,15.65,15.65,0,0,0,3.58,3.64,16,16,0,0,0,9.46,3.1,15.55,15.55,0,0,0,2.45-.19l32.55-5a16,16,0,0,0,13.36-18.26l-.24-1.59-.43-2.71,0-.11-.42-2.55v-.09l-.15-.88,0-.08-.32-1.82,0-.11-.29-1.59,0-.08-.18-1,0-.08-.33-1.72,0-.11-.37-1.82v-.08l-.24-1.14,0-.08-.42-2,0-.08-.37-1.7v-.08l-.5-2.25,0-.09-.55-2.4,0-.08-.6-2.57c0-.1-.05-.21-.07-.31a45.43,45.43,0,0,0-10.36-20c.17-.27.34-.53.5-.8,6-9.65,8.18-21.31,6.26-33.69-4.46-28.82-25.49-46-56.24-46Z"/><path class="cls-1" d="M207.77,76.74c-.82,0-1.66,0-2.49-.08a8,8,0,0,1-6.85-4.89L197.25,69a8,8,0,0,1,.62-7.39,7,7,0,0,1,.65-.87,8.1,8.1,0,0,1-2.45-3.24,8,8,0,0,1,0-6.12l6.64-15.92a8,8,0,0,1,10.47-4.3l4.65,1.94a8.06,8.06,0,0,1,4.1,3.85,8,8,0,0,1,6.29,0l4.65,1.94a8,8,0,0,1,4.3,10.46L232.1,61.47a25.55,25.55,0,0,1-4.55,7.26A23.67,23.67,0,0,1,220.67,74l-.16.08A26.18,26.18,0,0,1,212,76.5,37,37,0,0,1,207.77,76.74Z"/><path class="cls-2" d="M210.12,38.52l4.65,1.95-6.65,15.91-4.65-1.94,6.65-15.92m15,5.74,4.65,1.94-5.09,12.19a17.57,17.57,0,0,1-3.14,5,15.6,15.6,0,0,1-4.53,3.46,18.33,18.33,0,0,1-5.93,1.69,28.94,28.94,0,0,1-3.35.19c-.65,0-1.31,0-2-.07l-1.17-2.79a28.11,28.11,0,0,0,4.68-.58,17.29,17.29,0,0,0,4.92-2,14.43,14.43,0,0,0,3.54-3.05,18.05,18.05,0,0,0,2.34-3.94l5-12.09m-15-21.74a16,16,0,0,0-14.77,9.84l-6.64,15.91a16,16,0,0,0,0,12.25c.16.39.34.76.52,1.13a16,16,0,0,0,.69,10.44l1.17,2.79a16,16,0,0,0,13.71,9.76c1,.06,2,.1,3,.1a45.93,45.93,0,0,0,5.11-.29A34.15,34.15,0,0,0,224,81.29l.33-.17a31.41,31.41,0,0,0,9.14-7l.09-.1a33.67,33.67,0,0,0,6-9.49l5.09-12.2A16,16,0,0,0,236,31.44l-4.66-2a15.93,15.93,0,0,0-6.15-1.24h-.06a16,16,0,0,0-4.18-2.55l-4.65-1.94a16,16,0,0,0-6.16-1.24Z"/><path class="cls-1" d="M266.9,74.45a8,8,0,0,1-3.41-.77c-3.65-1.72-7.4-3.35-11.12-4.85q-5.09-2.08-10.19-3.67a8,8,0,0,1-4.89-11l1.8-3.89a8,8,0,0,1,1.24-1.91,8.13,8.13,0,0,1,.59-2.87l.54-1.32a8.25,8.25,0,0,1-.92-1.4,8,8,0,0,1-.33-6.64l1.55-3.89a8,8,0,0,1,7.43-5,8.43,8.43,0,0,1,1.57.15c4,.81,8.1,1.8,12.05,2.93,3.32.93,6.7,2,10,3.25a8,8,0,0,1,4.6,10.56l-2,4.79c0,.07-.06.15-.1.23a8,8,0,0,1-.61,4.16l-.8,1.83a8,8,0,0,1,2.58,10.4L274,70.22A8,8,0,0,1,266.9,74.45Z"/><path class="cls-2" d="M249.19,35.2Q255,36.35,260.6,38q4.75,1.34,9.4,3.06l-2,4.79q-5.19-2.24-10.55-4-4.86-1.59-9.83-2.77l1.55-3.89m.68,9.54a117.24,117.24,0,0,1,17.5,5.33l-2,4.6a117.19,117.19,0,0,0-17-6.15l1.54-3.78m-3.52,8.89c3.52.89,7,1.94,10.47,3.17q6.38,2.27,12.6,4.93l-2.52,4.72c-3.81-1.8-7.67-3.48-11.55-5q-5.34-2.2-10.8-3.89l1.8-3.89m2.83-34.43a16,16,0,0,0-14.85,10.08l-1.55,3.89a16,16,0,0,0,0,11.74c0,.15-.07.31-.1.47a13.94,13.94,0,0,0-.81,1.53L230,50.8a16,16,0,0,0,9.79,22c3.17,1,6.34,2.13,9.43,3.4l.14.06c3.58,1.43,7.18,3,10.69,4.66A16,16,0,0,0,281,74l2.52-4.72a16,16,0,0,0,1-12.84A16.15,16.15,0,0,0,283,53.32a16.79,16.79,0,0,0,.32-2.74l1.42-3.43A16,16,0,0,0,275.58,26c-3.48-1.3-7.05-2.46-10.62-3.46-4.14-1.19-8.39-2.22-12.63-3.07a16.09,16.09,0,0,0-3.15-.31Z"/><path class="cls-1" d="M302.09,51a29,29,0,0,1-4.46-.34,8,8,0,0,1-6.51-5.82l-.72-2.67a8,8,0,0,1,1.43-7,6.86,6.86,0,0,1,.56-.65,8,8,0,0,1-.68-4.38,26.22,26.22,0,0,0,.05-6.26,8,8,0,0,1,7.95-8.9l4.37.1a7.9,7.9,0,0,1,4.33,1.39l2.67.14a8,8,0,0,1,6.31,3.63,8,8,0,0,1,4.2,1.45l3.83,2.71a8,8,0,0,1,2.09,10.9,44.9,44.9,0,0,1-5.5,6.87l-.08.08a34.17,34.17,0,0,1-7.22,5.49,26.55,26.55,0,0,1-9.33,3.1l-.22,0A28.7,28.7,0,0,1,302.09,51Z"/><path class="cls-2" d="M299.7,23l4.2.09a41.61,41.61,0,0,1,0,8.2l-4.26-.12A34.35,34.35,0,0,0,299.7,23m6.8,1.41,4.18.21a40,40,0,0,1-.26,8.19l-4.32-.16a36,36,0,0,0,.4-8.24M317,28.21l3.83,2.7a37.4,37.4,0,0,1-4.53,5.65,25.65,25.65,0,0,1-5.52,4.2,18.32,18.32,0,0,1-6.44,2.13c-.74.07-1.48.11-2.23.11a20.93,20.93,0,0,1-3.25-.25l-.72-2.66h.49a22.41,22.41,0,0,0,4.07-.37,16.45,16.45,0,0,0,5.2-2,22.21,22.21,0,0,0,4.61-3.83A56.64,56.64,0,0,0,317,28.21M299.7,7a16,16,0,0,0-15.89,17.8,18.62,18.62,0,0,1,0,4.35,16.07,16.07,0,0,0,0,3.92,15.94,15.94,0,0,0-1.08,11.23l.72,2.67a16,16,0,0,0,13,11.64,37.36,37.36,0,0,0,5.68.43c1.3,0,2.61-.07,3.91-.2l.44,0a34.37,34.37,0,0,0,12.06-4l.16-.09a42.41,42.41,0,0,0,8.92-6.79l.16-.16a52.94,52.94,0,0,0,6.47-8.08A16,16,0,0,0,330,17.84l-3.83-2.7a15.85,15.85,0,0,0-4.58-2.24,15.92,15.92,0,0,0-10.13-4.3l-.82,0a16,16,0,0,0-6.4-1.49L300.08,7Z"/><path class="cls-1" d="M287.3,88.65a8,8,0,0,1-5.66-2.34l-2.05-2.06a8,8,0,0,1-2.16-7.37,7.76,7.76,0,0,1,.63-1.79,8.13,8.13,0,0,1-1.84-1.16l-2-1.65a8,8,0,0,1-.37-11.94,30.19,30.19,0,0,0,4.81-5.9,49.63,49.63,0,0,0,4.16-8,8,8,0,0,1,10-4.54l4.65,1.62a8,8,0,0,1,4.37,3.7H307a8,8,0,0,1,8,8v3.74c0,.32,0,.64-.05,1a41.79,41.79,0,0,1-2,8.7c0,.07-.05.15-.08.22a37.41,37.41,0,0,1-2.32,4.92l-.19.32a35.63,35.63,0,0,1-3,4.1c-.06.07-.12.15-.19.22a35.91,35.91,0,0,1-3.65,3.42l-.33.25A40.69,40.69,0,0,1,299,84.66l-.24.13a47.86,47.86,0,0,1-9.39,3.59A8,8,0,0,1,287.3,88.65Z"/><path class="cls-2" d="M290.25,49.44l4.64,1.62a44.63,44.63,0,0,1-1.8,4.14H307v3.74a33.75,33.75,0,0,1-1.62,7,27.15,27.15,0,0,1-1.8,3.82,26.31,26.31,0,0,1-2.34,3.16,25,25,0,0,1-2.81,2.63,29.65,29.65,0,0,1-3.27,2.09,39.71,39.71,0,0,1-7.81,3l-2.06-2.05a32,32,0,0,0,5.44-2.6,26.33,26.33,0,0,0,5.65-4.82A24.32,24.32,0,0,0,300,65.42a22.19,22.19,0,0,0,1.76-6.26H290.39a32.5,32.5,0,0,1-4.28,5.22,21.69,21.69,0,0,1-4.75,3.42l-2-1.66a38.45,38.45,0,0,0,6.08-7.45,57.44,57.44,0,0,0,4.79-9.25m0-16a16,16,0,0,0-14.82,10A41.66,41.66,0,0,1,272,50.07l-.08.13a22.17,22.17,0,0,1-3.54,4.33,16,16,0,0,0,.75,23.88l.13.12a16,16,0,0,0,4.69,11.38L276,92a16,16,0,0,0,15.42,4.15,55.19,55.19,0,0,0,11-4.2l.47-.24a46,46,0,0,0,5-3.16c.23-.16.44-.33.66-.5A43,43,0,0,0,313,83.79l.38-.43a43.35,43.35,0,0,0,3.72-5c.13-.21.26-.42.38-.64a43.37,43.37,0,0,0,2.84-6c.06-.15.11-.31.17-.46a50.41,50.41,0,0,0,2.39-10.36,17.47,17.47,0,0,0,.11-1.91V55.2a16,16,0,0,0-16-16h-1.32A15.87,15.87,0,0,0,300.16,36l-4.64-1.62a15.91,15.91,0,0,0-5.27-.9Z"/><path class="cls-1" d="M328.9,89.6a8,8,0,0,1-3.88-1l-2.3-1.27a8,8,0,0,1-2.64-11.64,64.6,64.6,0,0,0,5.45-9.17l-.87.29a7.89,7.89,0,0,1-2.58.43,8,8,0,0,1-7.57-5.42l-1.28-3.75a8,8,0,0,1,5-10.15l20.59-7A8,8,0,0,1,349,46l1.19,3.59a8.17,8.17,0,0,1,.4,2.46,35,35,0,0,1-.6,6.66,1.29,1.29,0,0,1,0,.19c-.1.51-.22,1-.34,1.52l.12.06c2.52,1.19,5.12,2.3,7.72,3.3A8,8,0,0,1,361.62,75l-1.33,2.47a8,8,0,0,1-7,4.21,9.28,9.28,0,0,1-1.06-.07,51,51,0,0,1-9.67-2.27l-.77-.27q-.51.8-1.05,1.56l-.11.15a39.15,39.15,0,0,1-6.59,7A8,8,0,0,1,328.9,89.6Z"/><path class="cls-2" d="M341.39,48.48l1.19,3.59a26.57,26.57,0,0,1-.46,5.14,50.23,50.23,0,0,1-1.47,5.41c-.16.56-.33,1.11-.5,1.65a52.84,52.84,0,0,0,6.15,3.42q4.06,1.92,8.27,3.54l-1.33,2.47a43.4,43.4,0,0,1-8.14-1.91,31.52,31.52,0,0,1-6.75-3.18,42.57,42.57,0,0,1-4.2,7.44,31.72,31.72,0,0,1-5.25,5.55l-2.3-1.27a72.6,72.6,0,0,0,7.58-13.49,57.88,57.88,0,0,0,2.39-7.28c.39-1.83.68-3.68.89-5.55l-15.38,5.23-1.27-3.75,20.58-7m0-16a16,16,0,0,0-5.15.86l-20.59,7a16,16,0,0,0-10,20.31l1.28,3.74a15.93,15.93,0,0,0,5.84,7.87,16,16,0,0,0,6.06,22.06l2.3,1.28a16,16,0,0,0,18-1.67,47.6,47.6,0,0,0,5.69-5.58,59.54,59.54,0,0,0,6.34,1.21,16.89,16.89,0,0,0,2.12.14,16,16,0,0,0,14.08-8.42l1.33-2.47a16,16,0,0,0-8.35-22.52l-1.86-.73c.09-1.19.13-2.38.13-3.58a15.85,15.85,0,0,0-.81-4.92l-1.18-3.59a16,16,0,0,0-15.2-11Z"/><path class="cls-1" d="M240.39,200.89a8,8,0,0,1-8-7.35c-.16-2-.45-4-.76-6.21a78.8,78.8,0,0,1-1-11.48,8,8,0,0,1,7.23-8l6-.58a6.74,6.74,0,0,1,.77,0,8,8,0,0,1,8,8c0,1.13.07,2.49.18,3.91a8,8,0,0,1,7.49,7.71l.18,5.33a8,8,0,0,1-7.72,8.27l-12.05.4Z"/><path class="cls-2" d="M244.59,175.26h0m0,0a93.53,93.53,0,0,0,1.1,12.41l6.58-.52.18,5.33-12,.41c-.47-5.74-1.79-11.21-1.79-17l6-.58m0-16h-.3a13.93,13.93,0,0,0-1.45.1l-5.78.56a16,16,0,0,0-14.45,15.93,86.94,86.94,0,0,0,1.13,12.61c.29,2,.56,3.95.71,5.73a16,16,0,0,0,15.94,14.7h.55l12.05-.41a16,16,0,0,0,15.45-16.53l-.18-5.33a16,16,0,0,0-5.33-11.39,16.33,16.33,0,0,0-2.44-1.8,16,16,0,0,0-15.71-14.16Zm0,32h0Z"/><path class="cls-1" d="M259.08,200.67a14.48,14.48,0,0,1-12.84-7.83,16.53,16.53,0,0,1-.35-13.53,14.09,14.09,0,0,1,12.87-8.24,15,15,0,0,1,8.43,2.65,14.36,14.36,0,0,1,2,1.66,15,15,0,0,1,3.7,15.19,14.82,14.82,0,0,1-12.38,10A13.5,13.5,0,0,1,259.08,200.67Z"/><path class="cls-2" d="M258.76,179.07a6.74,6.74,0,0,1,3.87,1.23,6.09,6.09,0,0,1,.92.76,7.06,7.06,0,0,1,1.72,7,6.75,6.75,0,0,1-5.59,4.55q-.3,0-.6,0a6.51,6.51,0,0,1-5.7-3.44,8.49,8.49,0,0,1-.15-6.74,6.12,6.12,0,0,1,4.68-3.37,6,6,0,0,1,.85-.05m.36,8.65a1.48,1.48,0,0,0,.91-.3.64.64,0,0,0,.15-.13A1.54,1.54,0,0,0,260,185a1.68,1.68,0,0,0-1-.3,1.32,1.32,0,0,0-1.4,1,1.86,1.86,0,0,0,.7,1.8,1.53,1.53,0,0,0,.84.25m-.36-24.65a22.37,22.37,0,0,0-3.06.21,22,22,0,0,0-17.15,12.85,24.53,24.53,0,0,0,.55,20.33,22.57,22.57,0,0,0,20,12.21c.74,0,1.49,0,2.23-.11a22.65,22.65,0,0,0,19.18-15.51,23.09,23.09,0,0,0-5.65-23.33,22.33,22.33,0,0,0-3.1-2.58,22.71,22.71,0,0,0-13-4.07Z"/><path class="cls-1" d="M273.64,200.24a8.22,8.22,0,0,1-1.58-.15c-.31,0-.63,0-.94,0-5.24,0-9.78-2.64-11.83-6.89a12.28,12.28,0,0,1,.18-10.6c.08-.17.16-.33.25-.5l0-.05a8,8,0,0,1,5.11-10,27.05,27.05,0,0,1,7-1.34h.1c.63,0,1.27-.07,1.92-.07A13,13,0,0,1,283,173.9c2.67,2.41,4,5.78,4.07,10.3l.1,7.43a8,8,0,0,1-7.26,8.07l-5.53.51Z"/><path class="cls-2" d="M273.86,178.64a5.22,5.22,0,0,1,3.71,1.14c.42.38,1.47,1.13,1.51,4.53,0,2.47.07,4.95.1,7.42l-5.53.51-.07-.52a8.15,8.15,0,0,1-2.46.4,5,5,0,0,1-4.62-2.38,4.43,4.43,0,0,1,.21-3.71c.66-1.55,3.13-2.82,5.74-2.82q.39,0,.78,0c0-.08-.06-.38-.06-.47a7.59,7.59,0,0,0-.92-.06,7.26,7.26,0,0,0-3.63,1c-.43-1.35-.86-2.7-1.3-4.06a19.32,19.32,0,0,1,4.95-.94c.52,0,1.06-.06,1.59-.06m-1.68,10.18a4.7,4.7,0,0,0,1-.12h0l-.08-2.35a4.63,4.63,0,0,0-.54,0c-.72,0-1.89.19-1.85,1.45,0,.86.79,1,1.46,1m1.68-26.18c-.93,0-1.76.05-2.36.08h-.1a35.27,35.27,0,0,0-9.1,1.73,16,16,0,0,0-10.9,16.77,20.16,20.16,0,0,0,.69,15.47c3.39,7.05,10.69,11.43,19,11.43h.45a15.61,15.61,0,0,0,2.06.14c.5,0,1,0,1.49-.07l5.53-.51a16,16,0,0,0,14.53-16.14l-.08-5.92,0-1.51c-.09-6.77-2.35-12.2-6.72-16.14a20.73,20.73,0,0,0-14.5-5.32Z"/><path class="cls-1" d="M287.92,199.69a17.54,17.54,0,0,1-8.36-1.64A14.24,14.24,0,0,1,272.12,184a15,15,0,0,1,7.75-12,8,8,0,0,1,7.44-6.15l5.18-.22h.34a8,8,0,0,1,8,8.43c-.18,3.42-.21,7.58-.23,11.61,0,2,0,4-.06,5.89a8,8,0,0,1-7,7.79A48.05,48.05,0,0,1,287.92,199.69Z"/><path class="cls-2" d="M292.83,173.62c-.28,5.39-.2,12.27-.3,17.79a42.22,42.22,0,0,1-4.61.28,11.08,11.08,0,0,1-4.6-.7c-5-2.67-4-10.62,1.35-12.37a8.65,8.65,0,0,1,3.08-.45c0-1.46,0-2.93-.09-4.33l5.17-.22m-6.18,13.6,1,0,0-4.23a3.51,3.51,0,0,0-.55-.05,2.3,2.3,0,0,0-2.19,3.39,1.82,1.82,0,0,0,1.81.91m6.18-29.6-.68,0-5.18.22a16,16,0,0,0-13.63,8.83,23,23,0,0,0-9.19,16.59,22.39,22.39,0,0,0,11.66,21.83c3.3,1.76,7.15,2.58,12.11,2.58a56.94,56.94,0,0,0,6.64-.41,16,16,0,0,0,14-15.59c0-1.92,0-4,.06-6,0-3.93.05-8,.22-11.21a16,16,0,0,0-16-16.86Z"/><path class="cls-1" d="M301.06,199.14a15.26,15.26,0,0,1-12.49-5.94c-2.8-3.78-3.49-8.67-1.94-13.78a14.19,14.19,0,0,1,13.8-9.71,15.07,15.07,0,0,1,9.72,3.52l.52.49a15.09,15.09,0,0,1,3.91,13.12,8,8,0,0,1-1.12,2.75,8,8,0,0,1-4.42,7.68A18,18,0,0,1,301.06,199.14Z"/><path class="cls-2" d="M300.43,177.71a7.07,7.07,0,0,1,4.56,1.63,7.15,7.15,0,0,1,1.75,5.9c-2.3.54-4.74.71-7.09,1.16-1.58.21.22.38.73.4l.49,0a10.11,10.11,0,0,0,2.91-.45c.47,1.25,1.23,2.49,1.69,3.74a9.94,9.94,0,0,1-4.41,1c-4.54,0-8.66-3.19-6.77-9.4a6.26,6.26,0,0,1,6.14-4m-2.2,5.18,4.12-.62c-.11-.48-.81-.7-1.61-.7-1.16,0-2.5.47-2.51,1.32m2.2-21.18h0A22.12,22.12,0,0,0,279,176.92a1.54,1.54,0,0,0,0,.17c-2.28,7.49-1.12,15.1,3.16,20.87a23.17,23.17,0,0,0,18.92,9.18,26.07,26.07,0,0,0,11.55-2.71,16,16,0,0,0,8.79-12.78,15.61,15.61,0,0,0,1-3.21,23.06,23.06,0,0,0-6.06-20.35c-.34-.34-.69-.66-1.05-1a23.08,23.08,0,0,0-14.88-5.41Zm1.35,40.54Z"/><path class="cls-1" d="M308.89,198.86a8,8,0,0,1-8-7.35c-.15-1.81-.41-3.59-.68-5.47a63.78,63.78,0,0,1-.85-8.46,8,8,0,0,1,7.31-8.07l1.1-.09c1.71-.16,3.47-.32,5.3-.39h.46a14.65,14.65,0,0,1,2.07-.16,13.11,13.11,0,0,1,8,2.82,8,8,0,0,1,2,10.55c-.26.43-.52,1-.83,1.57-.41.82-.87,1.75-1.49,2.76a8.75,8.75,0,0,1-.71,1c.09.75.17,1.46.22,2.06a8,8,0,0,1-7.23,8.67l-6,.56C309.39,198.85,309.14,198.86,308.89,198.86Z"/><path class="cls-2" d="M315.63,176.86a5.1,5.1,0,0,1,3.21,1.2c-.89,1.45-1.44,2.88-2.33,4.33a3.18,3.18,0,0,0-1.1-.25,2.37,2.37,0,0,0-1.47.66s.72,5,.94,7.51l-6,.55c-.39-4.83-1.45-9.2-1.5-13.38,2-.17,4-.37,6-.46,0,.08,0,.15,0,.23a7.51,7.51,0,0,1,2.19-.39m0-16h0A21.72,21.72,0,0,0,313,161h-.2c-2,.08-4,.25-5.7.41l-1.07.09a16,16,0,0,0-14.61,16.14,69.81,69.81,0,0,0,.93,9.52c.26,1.75.5,3.4.63,5a16,16,0,0,0,15.94,14.7c.49,0,1,0,1.48-.06l4-.38,2-.18a16,16,0,0,0,14.5-16.71c.46-.83.83-1.57,1.13-2.16.17-.34.41-.81.5-1a16,16,0,0,0-4-21.1,20.92,20.92,0,0,0-12.87-4.45Z"/><path class="cls-1" d="M320.77,198.46a8,8,0,0,1-8-7.41c-.13-1.76-1.11-10.79-1.75-16.43a8,8,0,0,1,3.79-7.72c1.28-.78,2.64-1.24,7.34-1.93a70.42,70.42,0,0,1,9-.54c.91,0,1.76,0,2.5,0a8,8,0,0,1,7.61,7.67l.22,5.38a8,8,0,0,1-1.23,4.59l0,1a8,8,0,0,1-5.6,7.87,8,8,0,0,1-7.7,7.29l-6,.2Z"/><path class="cls-2" d="M331.2,172.43c.77,0,1.5,0,2.12,0l.21,5.38c-1,0-1.95-.08-2.93-.08a28.78,28.78,0,0,0-5.12.4c0,.14.06.91.07,1.16a32.17,32.17,0,0,1,6.64-.59l.14,4.59a26.6,26.6,0,0,0-6.11.58c0,.32.54,6.34.54,6.34l-6,.21c-.19-2.55-1.78-16.73-1.78-16.73s.46-.28,4.34-.85a63.83,63.83,0,0,1,7.86-.45m0-16a78.09,78.09,0,0,0-10.19.62c-4.81.71-7.58,1.34-10.33,3a16,16,0,0,0-7.58,15.44c.77,6.82,1.62,14.72,1.72,16.13a16,16,0,0,0,15.95,14.82h.55l6-.2a16,16,0,0,0,14.22-9.82,16.07,16.07,0,0,0,6.8-12.46,16.16,16.16,0,0,0,1.2-6.76l-.21-5.37a16,16,0,0,0-15.23-15.35q-1.31-.06-2.88-.06Z"/><path class="cls-1" d="M341.14,197.89a13.76,13.76,0,0,1-10.11-4c-4.57-4.61-4.88-11.32-4.81-17.25a8,8,0,0,1,7.94-7.91l5.7,0a8,8,0,0,1,2.49.4l5.51-.4.6,0a8,8,0,0,1,7.94,7.11c.63,5.6.83,12.66-3.3,17.48-3.72,4.34-8.78,4.55-11.21,4.65Zm6.84-17Z"/><path class="cls-2" d="M348.45,176.64c1.4,12.4-2.51,13.06-6.89,13.24h-.42c-6.68,0-7-7-6.92-13.18l5.64,0c0,.05-.55,8.18,1.95,8.18h.09c1.36-.11.45-7.76.45-7.76l6.1-.45m0-16c-.39,0-.78,0-1.18.05l-4.21.3a16.25,16.25,0,0,0-3.21-.32h-.11l-5.64,0a16,16,0,0,0-15.89,15.82c-.06,5.45-.18,15.59,7.12,23a22,22,0,0,0,15.8,6.39c.35,0,.71,0,1.08,0,3-.12,11-.45,17-7.44,6.2-7.24,5.92-16.93,5.17-23.58a16,16,0,0,0-15.89-14.21Z"/><path class="cls-1" d="M351,197.44a8,8,0,0,1-8-7.37c-.12-1.6-.38-3.74-.65-6-.29-2.45-.59-5-.8-7.34a8,8,0,0,1,7.2-8.65l6-.57a6.74,6.74,0,0,1,.77,0,8.14,8.14,0,0,1,1.71.18h.44a13.71,13.71,0,0,1,3.05.33c11.3,2.5,11.58,14.22,11.7,19.23,0,.51,0,1,0,1.5a8,8,0,0,1-7.74,8.29l-5.27.17h-.25a7.64,7.64,0,0,1-1.08-.07,8.47,8.47,0,0,1-1.33.16l-5.52.19Z"/><path class="cls-2" d="M355.55,175.46l0,.46a8.63,8.63,0,0,1,2.13-.28,5.94,5.94,0,0,1,1.29.13c5.79,1.26,5.31,8,5.51,13.23l-5.27.16c-.1-2.68,0-8.44-2.05-8.44H357c-1.64.27-.62,6-.45,8.52l-5.51.19c-.28-3.54-1.08-9-1.46-13.4l6-.58m0-16c-.51,0-1,0-1.54.07l-6,.58a16,16,0,0,0-14.4,17.3c.22,2.48.53,5.09.83,7.61.26,2.18.5,4.25.62,5.69A16,16,0,0,0,351,205.44h.56l5.51-.19c.45,0,.89-.05,1.33-.1l.8,0h.52L365,205a16,16,0,0,0,15.49-16.59c0-.46,0-.92,0-1.4a40.35,40.35,0,0,0-1.61-11.8,21.92,21.92,0,0,0-16.33-15,21.57,21.57,0,0,0-4.58-.52,15.69,15.69,0,0,0-2.38-.18Z"/><path class="cls-1" d="M372.74,196.64a15.5,15.5,0,0,1-13.69-7.56,14.75,14.75,0,0,1-.08-14.7c2.67-4.61,7.54-7.26,13.37-7.26a24.08,24.08,0,0,1,8,1.49,8,8,0,0,1,5,10l-.29.92a7.86,7.86,0,0,1,.71,3.19l.08,4.82a8,8,0,0,1-5.22,7.63A22.62,22.62,0,0,1,372.74,196.64Z"/><path class="cls-2" d="M372.34,175.12a16.1,16.1,0,0,1,5.34,1l-1.45,4.57a11.86,11.86,0,0,0-3.39-.66,3.17,3.17,0,0,0-2,.55c-1.44,2.31.31,3,2.47,3a11.8,11.8,0,0,0,4.39-.85l.07,4.83a14.76,14.76,0,0,1-5.07,1c-9.86,0-10.49-13.52-.4-13.52m0-16a23.48,23.48,0,0,0-16.83,6.73,22.19,22.19,0,0,0-6.46,15.77c0,12.91,10.41,23,23.69,23a30.65,30.65,0,0,0,10.64-2,16,16,0,0,0,10.43-15.25l-.08-4.83a15.45,15.45,0,0,0-.37-3.19A16,16,0,0,0,383,161.06a32.33,32.33,0,0,0-10.67-1.94Z"/><path class="cls-1" d="M386.9,196.23c-8.53,0-13.52-4.11-14.87-12.23a8,8,0,0,1-1.53-4.43l-.14-4.15a8,8,0,0,1,1.1-4.32h0a8,8,0,0,1,8-8.43l5.53.1a8,8,0,0,1,7.59,5.94,8,8,0,0,1,2.87,5.91l.12,4.14a8.65,8.65,0,0,1-.06,1.25,8,8,0,0,1,1,3.44l.22,4.32a8,8,0,0,1-7.36,8.37C388.48,196.19,387.66,196.23,386.9,196.23Z"/><path class="cls-2" d="M379.45,170.66l5.39.1.05,4.12,2.55,0s.08,2.58.12,4.15l-2.75.09c.21,3.77-.34,4.59,3.66,4.76l.22,4.32c-.64,0-1.24.08-1.79.08-6.42,0-7.21-3.37-7.25-9l-1.15,0-.14-4.15,1.32-.12-.23-4.37m0-16a16,16,0,0,0-15.93,14.5,15.85,15.85,0,0,0-1.15,6.53l.14,4.15a15.9,15.9,0,0,0,1.8,6.85,22.34,22.34,0,0,0,3.17,7.89c2.35,3.6,8,9.65,19.42,9.65,1,0,2,0,3.05-.13a16,16,0,0,0,14.72-16.74l-.22-4.32a15.72,15.72,0,0,0-.9-4.57l-.11-4.08a15.94,15.94,0,0,0-4-10.09,16,16,0,0,0-14.37-9.54l-5.39-.09Z"/><path class="cls-1" d="M390.1,196.27a8,8,0,0,1-8-7.87,42.28,42.28,0,0,0-.38-4.49,54.17,54.17,0,0,1-.49-6.95,9.45,9.45,0,0,1,.09-1.07,6.11,6.11,0,0,1-.08-.87c-.07-1.58-.12-3.15-.06-4.9a8,8,0,0,1,7.73-7.72l5.56-.19h.26a8,8,0,0,1,8,8.12v.75c0,.51,0,1.45,0,1.86l.07,1c0,.09,0,.18,0,.28a8.06,8.06,0,0,1,.44,2.68,42,42,0,0,0,.39,4.86c.21,1.85.46,3.94.5,6.18a8,8,0,0,1-7.74,8.14l-6,.19Z"/><path class="cls-2" d="M394.74,170.21c0,.84-.07,2.35,0,3.17l.08,1.14-5.56.19c-.06-1.47-.1-2.85-.05-4.31l5.56-.19m.49,6.64c0,3.77.82,7.36.89,11.23l-6,.19c-.06-3.94-.91-7.3-.87-11.22l6-.2m-.49-22.64h-.54l-5.56.18a16,16,0,0,0-15.45,15.45c-.07,2,0,3.82.05,5.49l0,.56c0,.32,0,.65,0,1a58.41,58.41,0,0,0,.54,8c.16,1.42.31,2.64.33,3.68a16,16,0,0,0,16,15.74h.52l6-.2a16,16,0,0,0,15.48-16.28,68,68,0,0,0-.56-6.95,38.2,38.2,0,0,1-.33-3.9,16,16,0,0,0-.52-4.15v-.18c0-.35,0-1,0-1.36v-.79a16,16,0,0,0-16-16.25Zm.49,38.64h0Z"/><path class="cls-1" d="M403.22,195.82A14.5,14.5,0,0,1,390.37,188a16.59,16.59,0,0,1-.35-13.54,14.18,14.18,0,0,1,10.91-8.1,14.35,14.35,0,0,1,2-.14,15,15,0,0,1,8.44,2.66,14.36,14.36,0,0,1,2,1.66A15,15,0,0,1,417,185.72a14.78,14.78,0,0,1-12.38,10A13.33,13.33,0,0,1,403.22,195.82Z"/><path class="cls-2" d="M402.89,174.21a6.9,6.9,0,0,1,3.88,1.23,6.08,6.08,0,0,1,.91.77,7,7,0,0,1,1.73,7,6.78,6.78,0,0,1-5.59,4.55q-.3,0-.6,0a6.51,6.51,0,0,1-5.71-3.45,8.51,8.51,0,0,1-.15-6.73,6.14,6.14,0,0,1,4.68-3.37,6.07,6.07,0,0,1,.85-.06m.36,8.65a1.57,1.57,0,0,0,.92-.29l.15-.13a1.54,1.54,0,0,0-.21-2.34,1.69,1.69,0,0,0-1-.31,1.31,1.31,0,0,0-1.4,1,1.85,1.85,0,0,0,.69,1.79,1.5,1.5,0,0,0,.84.25m-.36-24.65a22.37,22.37,0,0,0-3.06.21,22.06,22.06,0,0,0-17.15,12.85,24.5,24.5,0,0,0,.56,20.33,22.55,22.55,0,0,0,20,12.22,20.83,20.83,0,0,0,2.23-.12,22.61,22.61,0,0,0,19.17-15.5A23.11,23.11,0,0,0,419,164.86a23,23,0,0,0-16.08-6.65Z"/><path class="cls-1" d="M411.71,195.4a8,8,0,0,1-8-7.37c-.13-1.6-.38-3.74-.65-6-.29-2.45-.6-5-.8-7.34a8,8,0,0,1,7.2-8.65l6-.58c.26,0,.51,0,.77,0a8.15,8.15,0,0,1,1.71.19h.44a13.2,13.2,0,0,1,3.05.34c11.29,2.49,11.58,14.21,11.7,19.22,0,.51,0,1,0,1.5a8,8,0,0,1-7.75,8.3l-5.26.16h-.25a9.81,9.81,0,0,1-1.09-.07,8.33,8.33,0,0,1-1.33.15l-5.51.19Z"/><path class="cls-2" d="M416.24,173.41v.46a8.77,8.77,0,0,1,2.14-.28,5.49,5.49,0,0,1,1.29.14c5.78,1.26,5.31,8,5.5,13.22l-5.26.17c-.1-2.69.05-8.44-2.05-8.45l-.2,0c-1.63.26-.61,6-.44,8.52l-5.51.19c-.29-3.54-1.08-9-1.46-13.41l6-.58m0-16c-.51,0-1,0-1.54.08l-6,.58a16,16,0,0,0-14.4,17.29c.21,2.49.52,5.09.82,7.61.27,2.19.51,4.25.63,5.69a16,16,0,0,0,15.94,14.74h.56l5.51-.19c.44,0,.89,0,1.33-.1l.8,0h.51l5.27-.17a16,16,0,0,0,15.48-16.59c0-.45,0-.92,0-1.39a39.93,39.93,0,0,0-1.6-11.8,22.17,22.17,0,0,0-20.91-15.57,15.69,15.69,0,0,0-2.38-.18Z"/><path class="cls-1" d="M51.9,57.68a8,8,0,0,1-7.83-6.39,118.81,118.81,0,0,1-2.51-25.84l0-1.6A8,8,0,0,1,49.48,16l8.67-.11a8,8,0,0,1,8,8.26,98.15,98.15,0,0,0,2,23,8,8,0,0,1-7,9.59l-8.41.88A8.13,8.13,0,0,1,51.9,57.68Z"/><path class="cls-2" d="M58.15,23.87A106.89,106.89,0,0,0,60.32,48.8l-8.42.88A110.66,110.66,0,0,1,49.56,25.6l0-1.63,8.57-.1m0-16H58L49.38,8a16,16,0,0,0-15.8,15.76l0,1.62a126.48,126.48,0,0,0,2.67,27.53A16,16,0,0,0,53.57,65.6L62,64.72A16,16,0,0,0,76,45.53,90.56,90.56,0,0,1,74.14,24.4a16,16,0,0,0-16-16.53Zm0,32h0Z"/><path class="cls-1" d="M70,56.24A17.28,17.28,0,0,1,55,47.58,20,20,0,0,1,54,31.27a16.68,16.68,0,0,1,12.47-10,16.51,16.51,0,0,1,3-.26,17.65,17.65,0,0,1,9.49,2.78,17.13,17.13,0,0,1,2.45,1.88,17.94,17.94,0,0,1,5.13,17.93A17.59,17.59,0,0,1,72.27,56.08,16.35,16.35,0,0,1,70,56.24Z"/><path class="cls-2" d="M69.42,29a9.71,9.71,0,0,1,5.2,1.53,9.75,9.75,0,0,1,4.17,10.88,9.59,9.59,0,0,1-7.65,6.75,8,8,0,0,1-1.19.08A9.23,9.23,0,0,1,62,43.69a12.06,12.06,0,0,1-.59-9.53,8.7,8.7,0,0,1,6.43-5A9.12,9.12,0,0,1,69.42,29M70,41.23a2.19,2.19,0,0,0,1.37-.47l.2-.2a2.18,2.18,0,0,0-.42-3.29,2.34,2.34,0,0,0-1.32-.38,1.89,1.89,0,0,0-2,1.53,2.62,2.62,0,0,0,1.09,2.5,2.07,2.07,0,0,0,1.11.31M69.42,13h0a24.8,24.8,0,0,0-4.39.39,24.48,24.48,0,0,0-18.52,15,27.86,27.86,0,0,0,1.54,23.09A25.37,25.37,0,0,0,70,64.24,24.9,24.9,0,0,0,73.4,64,25.71,25.71,0,0,0,94.19,45.76a26,26,0,0,0-7.4-26A27.11,27.11,0,0,0,83.2,17a25.68,25.68,0,0,0-13.78-4Z"/><path class="cls-1" d="M90.87,54.82a8.37,8.37,0,0,1-1.67-.18,20.06,20.06,0,0,1-2.32.14C81.07,54.78,76,52,73.55,47.44a14.06,14.06,0,0,1-.22-12.13,11.39,11.39,0,0,1,.91-1.77l-.54-1.47a8,8,0,0,1,4.71-10.22,34.9,34.9,0,0,1,9-2.09h.14a35,35,0,0,1,3.53-.21,14.74,14.74,0,0,1,9.84,3.32c3.25,2.7,4.89,6.5,5.18,12l.56,10.51a8,8,0,0,1-6.94,8.35l-7.79,1A9.77,9.77,0,0,1,90.87,54.82Z"/><path class="cls-2" d="M91.09,27.54A6.87,6.87,0,0,1,95.73,29c.61.52,2.14,1.52,2.39,6.33.19,3.5.37,7,.56,10.5l-7.8,1-.13-.73a11.46,11.46,0,0,1-3.87.7c-2.87,0-5.26-1.21-6.26-3.1-1.22-2.28-.09-4.87.09-5.27.89-2.32,4.55-4.33,8.41-4.33l.66,0c0-.12-.1-.54-.11-.67-.26,0-.56,0-.9,0a10.36,10.36,0,0,0-2.37.28A10.12,10.12,0,0,0,83.28,35l-2.06-5.67a26.78,26.78,0,0,1,7-1.61c.94-.09,1.93-.19,2.92-.19M88.41,42.06A6.24,6.24,0,0,0,90,41.82h0l-.24-3.31a4.42,4.42,0,0,0-.54,0c-1,0-2.91.24-2.77,2.17.08,1.13,1,1.41,1.93,1.41m2.68-30.52c-1.69,0-3.19.14-4.29.24l-.14,0A42.61,42.61,0,0,0,75.6,14.36,16,16,0,0,0,65.64,33a22,22,0,0,0,.85,18.22c3.81,7.14,11.62,11.58,20.39,11.58.69,0,1.38,0,2.08-.08a15,15,0,0,0,1.91.12A17,17,0,0,0,93,62.68l7.79-1a16,16,0,0,0,13.88-16.71l-.56-10.5c-.41-7.76-3-13.56-8-17.71a22.47,22.47,0,0,0-15-5.18Z"/><path class="cls-1" d="M109.61,53.26A19.38,19.38,0,0,1,101,51.7a16.89,16.89,0,0,1-9.46-16.35,17.79,17.79,0,0,1,10.1-15.42A8,8,0,0,1,109,12l7.31-.6.66,0a8,8,0,0,1,8,8.11c-.07,4.92.13,10.85.32,16.57.1,2.89.19,5.72.25,8.33a8,8,0,0,1-6.66,8.06A61.3,61.3,0,0,1,109.61,53.26Z"/><path class="cls-2" d="M117,19.38c-.1,7.64.4,17.38.57,25.19a55.89,55.89,0,0,1-7.94.69,12.85,12.85,0,0,1-5.11-.77c-7.24-3.49-6.29-14.8,1.2-17.58A12.15,12.15,0,0,1,110,26.1c0-2.07-.21-4.14-.37-6.12l7.31-.6M108.68,39c.48,0,1,0,1.68-.09l-.29-6a4.46,4.46,0,0,0-.63,0c-2.47,0-4.49,2.37-3,4.92a2.45,2.45,0,0,0,2.29,1.2M117,3.38c-.44,0-.88,0-1.32.05L108.35,4A16,16,0,0,0,94.5,14.86,26,26,0,0,0,83.58,35a25.09,25.09,0,0,0,14,23.93,27.13,27.13,0,0,0,12.06,2.35,70.47,70.47,0,0,0,10.61-.92,16,16,0,0,0,13.33-16.13c-.06-2.67-.15-5.46-.25-8.42-.19-5.63-.39-11.46-.32-16.19A16,16,0,0,0,117,3.38Z"/><path class="cls-1" d="M129.07,51.72A18.16,18.16,0,0,1,114.44,45c-3.33-4.31-4.29-10.07-2.69-16.21,2-7.13,8.77-12,16.63-12a17.8,17.8,0,0,1,11,3.76l.54.46a17.93,17.93,0,0,1,5.26,15.38,8.06,8.06,0,0,1-1.66,3.73,8,8,0,0,1-3.91,9,22.06,22.06,0,0,1-10.58,2.71Z"/><path class="cls-2" d="M128.38,24.72a9.94,9.94,0,0,1,6.12,2.07A10.06,10.06,0,0,1,137.32,35c-3.23.9-6.67,1.28-10,2-2.21.39.34.53,1.06.53h.3a14,14,0,0,0,4.49-.81c.73,1.74,1.88,3.46,2.61,5.2a14.07,14.07,0,0,1-6.73,1.72c-6.22,0-11.83-4.29-9.57-12.94,1-3.74,4.86-6.06,8.88-6.06m-3.24,7.47,5.8-1.12c-.17-.61-1.06-.89-2.09-.89-1.68,0-3.75.75-3.71,2m3.24-23.47h0c-11.45,0-21.46,7.35-24.32,17.86,0,.05,0,.11,0,.17-2.24,8.59-.78,16.81,4.1,23.12a26.13,26.13,0,0,0,21,9.85A30,30,0,0,0,143.5,56a16,16,0,0,0,8.3-14.18,15.89,15.89,0,0,0,1.31-4.23,25.88,25.88,0,0,0-7.7-22.52,13.76,13.76,0,0,0-1.08-.92,26.07,26.07,0,0,0-16-5.45Z"/><path class="cls-1" d="M140.68,50.87a8,8,0,0,1-7.94-7c-.32-2.67-.82-5.33-1.31-7.91a86.37,86.37,0,0,1-1.62-11.49,8,8,0,0,1,7-8.35l1.53-.2c2.38-.31,4.84-.63,7.34-.83q.33,0,.66,0h.08a15.93,15.93,0,0,1,3.31-.35,15.16,15.16,0,0,1,8.9,2.95A8,8,0,0,1,161,28.09c-.42.75-.79,1.57-1.22,2.51-.5,1.13-1.08,2.4-1.83,3.75a7.89,7.89,0,0,1-1.57,2c.26,1.58.5,3.16.66,4.39a8,8,0,0,1-6.88,9l-8.44,1.12A7.55,7.55,0,0,1,140.68,50.87Z"/><path class="cls-2" d="M149.71,22.68A7.27,7.27,0,0,1,154,24.19c-1.17,2.1-1.87,4.16-3,6.26a4.82,4.82,0,0,0-1.48-.29,3.24,3.24,0,0,0-2.14,1s1.3,7,1.76,10.57l-8.45,1.12c-.83-6.82-2.58-12.95-2.88-18.85,2.82-.36,5.68-.76,8.51-1l0,.32a10.1,10.1,0,0,1,3.36-.67m0-16h0a23.67,23.67,0,0,0-4.17.37l-.52,0c-2.69.22-5.25.55-7.72.88l-1.53.19a16,16,0,0,0-14,16.71,92.42,92.42,0,0,0,1.75,12.54c.48,2.57.93,5,1.23,7.41a16,16,0,0,0,15.88,14.06,15,15,0,0,0,2.11-.14l4.46-.59,4-.53A16,16,0,0,0,165,39.71c-.05-.39-.11-.8-.17-1.23l.12-.23c.93-1.65,1.6-3.15,2.15-4.36.35-.78.65-1.45.9-1.9a16,16,0,0,0-4.81-20.92,23.28,23.28,0,0,0-13.48-4.39Z"/><path class="cls-1" d="M382.59,157.5a14,14,0,0,1-6.61-1.6,12.8,12.8,0,0,1-5.17-5,13.64,13.64,0,0,1-1.72-6.63c0-1.4-.06-2.61-.09-3.59a11,11,0,0,1-1.59-1.52,9.8,9.8,0,0,1-2.26-6.5,10.12,10.12,0,0,1,3.87-8.09c0-.85,0-2.06.07-3.62a13.1,13.1,0,0,1,13.5-13.18c6.13,0,10.58,4.25,10.58,10.09a10.24,10.24,0,0,1-2.15,6.46,9.41,9.41,0,0,1-1.54,1.55,29.58,29.58,0,0,1-.34,3.77,15.31,15.31,0,0,1-.81,3,15.32,15.32,0,0,1,.76,2.7,26.26,26.26,0,0,1,.41,4.09A10,10,0,0,1,391,141a10.31,10.31,0,0,1,2.13,6.4C393.17,153.24,388.72,157.5,382.59,157.5Z"/><path class="cls-2" d="M382.59,115.73c1.72,0,2.58.7,2.58,2.09a2.35,2.35,0,0,1-.43,1.5,1.66,1.66,0,0,1-1.12.63,3.52,3.52,0,0,0-1.42.42,1.58,1.58,0,0,0-.53,1.09,30.41,30.41,0,0,0-.16,3.13,25.69,25.69,0,0,1-.27,3.72,6.12,6.12,0,0,1-.93,2.47,6.57,6.57,0,0,1-2,1.84,7,7,0,0,1,1.95,1.74,5.77,5.77,0,0,1,1,2.44,20.91,20.91,0,0,1,.28,3.81c0,1.16,0,2,.08,2.56a3.47,3.47,0,0,0,.32,1.26,1.18,1.18,0,0,0,.57.56,6.38,6.38,0,0,0,1.14.26,1.58,1.58,0,0,1,1.11.65,2.32,2.32,0,0,1,.44,1.47q0,2.13-2.58,2.13a6,6,0,0,1-2.86-.67,4.65,4.65,0,0,1-1.94-1.89,5.7,5.7,0,0,1-.7-2.8c0-1.78-.08-3.21-.11-4.29a15.29,15.29,0,0,0-.16-2.09A3.93,3.93,0,0,0,376,136a5.89,5.89,0,0,0-1.35-1.11,5,5,0,0,1-1.19-.94,2,2,0,0,1-.35-1.31,2.17,2.17,0,0,1,1-2,9.87,9.87,0,0,0,1.8-1.34,3,3,0,0,0,.75-1.42A8.71,8.71,0,0,0,377,126c0-.69.06-2.34.11-5a5.33,5.33,0,0,1,1.53-3.88,5.46,5.46,0,0,1,4-1.45m0-16a21.1,21.1,0,0,0-21.5,21v.52a18.29,18.29,0,0,0-3.93,11.39,17.71,17.71,0,0,0,3.93,11.4c0,.13,0,.26,0,.39a21.48,21.48,0,0,0,2.75,10.36,20.77,20.77,0,0,0,8.38,8.19,21.8,21.8,0,0,0,10.37,2.54c10.59,0,18.58-7.79,18.58-18.13a18.15,18.15,0,0,0-3.83-11.32l-.06-.09c-.09-.74-.2-1.45-.33-2.14-.07-.41-.16-.82-.26-1.22.13-.56.25-1.13.34-1.71s.16-1,.22-1.6l0,0a18.19,18.19,0,0,0,3.88-11.42c0-10.31-8-18.09-18.58-18.09Z"/><path class="cls-1" d="M401.33,157.5a10.7,10.7,0,0,1-7-2.38,9.84,9.84,0,0,1-3.56-7.75,10.49,10.49,0,0,1,.88-4.26,9.72,9.72,0,0,1,2.78-3.71,29.26,29.26,0,0,1,.38-4,14.42,14.42,0,0,1,.8-2.81,16.36,16.36,0,0,1-1-4c-.1-.86-.17-1.78-.2-2.79a10,10,0,0,1-1.38-1.38,10.14,10.14,0,0,1-2.27-6.58c0-5.84,4.43-10.09,10.55-10.09a14,14,0,0,1,6.63,1.6,13,13,0,0,1,5.1,4.91,13.54,13.54,0,0,1,1.82,6.73c0,1.62.06,2.76.08,3.58a11.18,11.18,0,0,1,1.63,1.59,9.94,9.94,0,0,1,2.21,6.48A10.06,10.06,0,0,1,415,140.7c0,1,0,2.21-.08,3.6a13.17,13.17,0,0,1-13.55,13.2Z"/><path class="cls-2" d="M401.33,115.73a6,6,0,0,1,2.87.66,4.83,4.83,0,0,1,1.95,1.88,5.52,5.52,0,0,1,.73,2.79q.11,5.84.25,6.41a4,4,0,0,0,.82,1.77,5.83,5.83,0,0,0,1.32,1.07,4.28,4.28,0,0,1,1.15.93,2.49,2.49,0,0,1-.62,3.32,9.05,9.05,0,0,0-1.79,1.33,3.11,3.11,0,0,0-.77,1.42,12.18,12.18,0,0,0-.26,2.56c0,1.13-.06,2.56-.1,4.27a5.35,5.35,0,0,1-1.56,3.89,5.45,5.45,0,0,1-4,1.47,2.86,2.86,0,0,1-1.89-.55,1.93,1.93,0,0,1-.66-1.58,2.64,2.64,0,0,1,.21-1.06,1.88,1.88,0,0,1,.55-.75,1.57,1.57,0,0,1,.78-.31,4.82,4.82,0,0,0,1.18-.27,1.06,1.06,0,0,0,.59-.6,4,4,0,0,0,.26-1.29c0-.57.07-1.39.07-2.48a23.57,23.57,0,0,1,.28-3.8,5.79,5.79,0,0,1,.93-2.36,7.14,7.14,0,0,1,2-1.83,7.52,7.52,0,0,1-1.55-1.24,5.35,5.35,0,0,1-1-1.59,8.52,8.52,0,0,1-.55-2.2,26.06,26.06,0,0,1-.15-3c0-1.11,0-2-.08-2.56a3.44,3.44,0,0,0-.28-1.29,1.09,1.09,0,0,0-.59-.55,4.77,4.77,0,0,0-1.15-.24,1.71,1.71,0,0,1-1.1-.63,2.35,2.35,0,0,1-.44-1.5c0-1.39.85-2.09,2.55-2.09m0-16c-10.58,0-18.55,7.78-18.55,18.09a18.19,18.19,0,0,0,3.87,11.4c0,.11,0,.23.05.34a24.25,24.25,0,0,0,.55,3q-.18.69-.3,1.41c-.12.64-.21,1.3-.29,2a18.38,18.38,0,0,0-3.88,11.39,18,18,0,0,0,6.46,13.92,18.67,18.67,0,0,0,12.09,4.21,21.17,21.17,0,0,0,21.55-21c0-.16,0-.32,0-.47a18.34,18.34,0,0,0,3.91-11.4,18,18,0,0,0-3.91-11.42v-.4A21.64,21.64,0,0,0,420,110.22a20.78,20.78,0,0,0-8.26-8,21.75,21.75,0,0,0-10.38-2.54Z"/><path class="cls-1" d="M167.38,48.19a13.27,13.27,0,0,1-10.32-4.29,11.19,11.19,0,0,1-2.87-7.54,11.61,11.61,0,0,1,1.14-5.09,11.15,11.15,0,0,1-1.14-5,11.4,11.4,0,0,1,4.53-9.22,14,14,0,0,1,8.54-2.77h.12a14,14,0,0,1,8.47,2.57,11.33,11.33,0,0,1,4.71,9.24,11.62,11.62,0,0,1-1.13,5.06A11.62,11.62,0,0,1,176,45.4,13.93,13.93,0,0,1,167.38,48.19Z"/><path class="cls-2" d="M167.38,22.32a6.25,6.25,0,0,1,3.76,1,3.26,3.26,0,0,1,1.42,2.78A3.49,3.49,0,0,1,171.12,29a5.9,5.9,0,0,1-3.74,1.12A5.5,5.5,0,0,1,163,28.52a3.19,3.19,0,0,1-.85-2.21,3.45,3.45,0,0,1,1.41-2.88,6.2,6.2,0,0,1,3.78-1.11m0,10a6.25,6.25,0,0,1,3.76,1,3.25,3.25,0,0,1,1.42,2.77,3.51,3.51,0,0,1-1.44,2.9,6,6,0,0,1-3.74,1.11A5.53,5.53,0,0,1,163,38.58a3.23,3.23,0,0,1-.85-2.22,3.44,3.44,0,0,1,1.41-2.87,6.2,6.2,0,0,1,3.78-1.12m0-26h-.24a22,22,0,0,0-13.29,4.43,19.47,19.47,0,0,0-7.66,15.56,18.92,18.92,0,0,0,.66,5,19.86,19.86,0,0,0-.66,5.07,19.3,19.3,0,0,0,4.89,12.84,21.39,21.39,0,0,0,16.3,7,21.87,21.87,0,0,0,13.54-4.46,19.55,19.55,0,0,0,7.64-15.55,19.91,19.91,0,0,0-.64-5,20,20,0,0,0,.64-5,19.22,19.22,0,0,0-8-15.71,22.14,22.14,0,0,0-13.18-4.1Z"/><text class="cls-3" transform="translate(79.14 211.99)">&lt;/&gt;</text></g><path class="cls-4" d="M206.1,91.08l13.62-25,22.46-13.41s9.14,4.64,9.85,6.36,32,4.08,32,4.08,27.62-11.46,38.17-10.49S340.39,63.57,341,66.12s7.05,22.32,11.13,26.7,42.21,11.53,42.21,11.53,7.33,21.79,7.92,29.62-6.55,23.05-7.92,22.42-16.6,5-32.3,3.36-70-8.08-70-8.08S225.6,143.5,224.7,138.4,202,96,202,96Z"/><path class="cls-4" d="M86.61,185.29s28.94,14.21,29.45,14S149,193,149,193l2-14.13-5.28-7.12s-14.47.2-18.38.88-21.62-.17-21.62-.17l-5.1-4.51Z"/><g id="backshadow-2" data-name="backshadow"><path class="cls-4" d="M180.75,114.35c-14.39,0-27.23-5.94-34.35-15.89-5-6.95-9.59-19.09-3.33-37.46,4.68-13.25,18.38-22.11,34.1-22.11a39.2,39.2,0,0,1,26.18,9.82,5.34,5.34,0,0,1,.6.57c7.75,8.37,11.44,22.47,8.79,33.52a6,6,0,0,1-4.66,4.48c-2.65.53-5.33,1-8,1.33.57,1.34,1.19,2.7,1.83,4.11a101.8,101.8,0,0,1,3.93,9.53,6,6,0,0,1-3.19,7.37A53.22,53.22,0,0,1,180.75,114.35ZM172.38,91.9Z"/><path class="cls-4" d="M177.17,44.89a33.21,33.21,0,0,1,22.37,8.46h0c6.26,6.77,9.55,18.9,7.35,28-11,2.2-22.47,2.62-33.64,4.35-7.45.73,1,1.82,3.39,2a34.75,34.75,0,0,0,3.61.18,47.32,47.32,0,0,0,12.48-1.67c2,6,5.39,11.93,7.4,17.9a46.93,46.93,0,0,1-19.39,4.19c-22.06,0-42.11-15.75-32-45.42,4-11.39,16-18,28.42-18m-10,24.1,19.55-2.3c-.48-2.38-4.15-3.54-8.19-3.54-5.28,0-11.18,2-11.36,5.84m10-36.1c-18.26,0-34.23,10.46-39.74,26,0,0,0,.09,0,.13-7.08,20.79-1.66,34.8,4.13,42.89,8.25,11.52,22.91,18.4,39.23,18.4a59.12,59.12,0,0,0,24.38-5.27,12,12,0,0,0,6.39-14.75c-.83-2.45-1.8-4.79-2.8-7.06l.54-.11a12,12,0,0,0,9.31-9c3.09-12.86-1.21-29.26-10.21-39a12.21,12.21,0,0,0-1.11-1.05,45.2,45.2,0,0,0-30.08-11.26Z"/><path class="cls-4" d="M216.46,176.24a6,6,0,0,1-5.33-3.27,6,6,0,0,1-5.34,3.27H183.93a6,6,0,0,1-5.68-4.06,6.23,6.23,0,0,1-1.36,2.22,6,6,0,0,1-4.31,1.83H150.71a6,6,0,0,1-6-5.72c-.32-6.86-1.07-15.61-1.86-24.88-.81-9.49-1.65-19.3-2.12-28.16a6,6,0,0,1,5.61-6.3l23.78-1.49.38,0a6,6,0,0,1,3.21.94,30.06,30.06,0,0,1,21.12,4.77,39.77,39.77,0,0,1,5.44-2.84,27.91,27.91,0,0,1,10.62-2,30.74,30.74,0,0,1,7.92,1c25,6.33,24.77,33,24.58,52.4,0,2.13,0,4.22,0,6.26a6,6,0,0,1-6,6Z"/><path class="cls-4" d="M170.51,115.68v1.83a24.24,24.24,0,0,1,7.58-1.21,24,24,0,0,1,4.87.5,24.49,24.49,0,0,1,11.66,6l0,0a36.92,36.92,0,0,1,8-4.76,21.92,21.92,0,0,1,8.31-1.5,25,25,0,0,1,6.41.8c22.75,5.73,20,32.16,20.06,52.88l-20.9,0c0-10.68,1.35-33.59-7.14-33.59-.21,0-.42,0-.64,0-6.5.83-3.23,23.47-2.9,33.55H183.92c-.13-2.9-.82-21.83-2-26.58-1-4.16-2.79-7-5.78-7-.21,0-.42,0-.64,0-6.51.83-3.24,23.47-2.92,33.55H150.71c-.64-14-3.06-35.65-4-53.07l23.78-1.5m0-12-.76,0L146,105.2a12,12,0,0,0-11.23,12.61c.47,9,1.31,18.82,2.13,28.35.79,9.21,1.54,17.9,1.84,24.64a12,12,0,0,0,12,11.45h21.87a12,12,0,0,0,5.66-1.42,12,12,0,0,0,5.68,1.43H205.8a11.91,11.91,0,0,0,5.33-1.26,12,12,0,0,0,5.33,1.26l20.89,0h0a12,12,0,0,0,12-12.05c0-2,0-4,0-6.17.1-10.23.21-21.83-2.77-32.09-5-17.38-17.06-23.83-26.29-26.18a37.22,37.22,0,0,0-9.44-1.19A33.81,33.81,0,0,0,198,107c-1.08.44-2.11.94-3.09,1.45a36.25,36.25,0,0,0-9.51-3.41,35.82,35.82,0,0,0-7.3-.75c-1.12,0-2.24,0-3.35.16a11.92,11.92,0,0,0-4.23-.78Z"/><path class="cls-4" d="M247,162.39a6,6,0,0,1-6-5.51,237.59,237.59,0,0,0-3.63-24.23c-1.68-9-3.42-18.32-4-28.46a6,6,0,0,1,3.29-5.69,6,6,0,0,1-4-5c-.72-6.84-1.39-13.57-1.62-20.71a6,6,0,0,1,5.4-6.16L262.54,64l.6,0a6,6,0,0,1,6,5.7c.05,1,.1,2.1.15,3.33.17,3.75.38,8.41.68,11.15l.73,5.26a6,6,0,0,1-1.22,4.54,6.33,6.33,0,0,1-1.21,1.16,6.05,6.05,0,0,1,3.18,1.39,6,6,0,0,1,2.1,4.21c.54,8.92,2.13,17.52,3.81,26.63,1.52,8.28,3.1,16.84,3.86,25.78a6,6,0,0,1-5.39,6.48l-28.25,2.79A5.83,5.83,0,0,1,247,162.39Z"/><path class="cls-4" d="M263.14,69.94c.2,4,.44,11.09.86,14.92l.75,5.35-26.11,2.61c-.73-6.86-1.37-13.38-1.59-20.26l26.09-2.62m4.41,31.1c1.07,17.73,6.14,34.38,7.68,52.56L247,156.39c-1.52-18.54-6.58-34.07-7.59-52.53L267.55,101m-4.41-43.1q-.6,0-1.2.06l-26.09,2.62a12,12,0,0,0-10.8,12.32c.24,7.35.92,14.2,1.65,21.15a12.17,12.17,0,0,0,1.68,5,12,12,0,0,0-1,5.45c.57,10.53,2.34,20,4.06,29.22A230.91,230.91,0,0,1,235,157.37a12,12,0,0,0,12,11,11.66,11.66,0,0,0,1.18-.06l28.25-2.79a12,12,0,0,0,10.78-12.95c-.78-9.24-2.39-18-3.94-26.37-1.65-8.92-3.2-17.34-3.72-25.9a12,12,0,0,0-3.1-7.35,12,12,0,0,0,.21-4.43l-.73-5.16c-.27-2.57-.48-7.27-.63-10.71-.06-1.23-.11-2.37-.16-3.34a12,12,0,0,0-12-11.39Z"/><path class="cls-4" d="M305.59,164.85a6,6,0,0,1-4.46-2l-21-23.38a6,6,0,0,1,1.12-9l1.27-.86c5.17-3.46,10.82-7.26,15.84-11.21-5.37-3.75-11.13-7.53-16.4-11l-1.21-.8a6,6,0,0,1-1.3-8.88l19.7-23.41a6,6,0,0,1,8.28-.87c7.17,5.6,15.41,12,23.45,17.85a276.52,276.52,0,0,0,22.22-17.57,6,6,0,0,1,8.4.59L381,96.43a6,6,0,0,1-.83,8.73c-4.82,3.71-10.47,8.06-16,12.27,4.69,3,9.8,6,14.47,8.8l1.89,1.11a6,6,0,0,1,1.84,8.65l-18.18,25.49a6,6,0,0,1-4.89,2.52,5.93,5.93,0,0,1-3.46-1.11l-24.58-17.4-21.88,18A6,6,0,0,1,305.59,164.85Z"/><path class="cls-4" d="M303.71,78.2c8.76,6.84,18,14,27,20.43,9.11-5.91,18-13.24,26.26-20.32l19.52,22.1c-7.19,5.53-15.37,11.82-22.56,17.29.36.25.71.51,1.07.75,6.76,4.86,15.29,9.81,22.49,14.06L359.32,158,331,138l-25.42,20.9-21-23.38c7.71-5.18,16.72-11.12,23.49-17.45-7.38-5.5-16.29-11.31-24-16.4l19.7-23.42m0-12a12,12,0,0,0-9.19,4.28l-19.7,23.41a12,12,0,0,0,2.59,17.76l1.18.77c3,2,6.2,4.07,9.38,6.2-3,2.08-6,4.11-8.83,6l-1.28.86a12,12,0,0,0-2.23,18l21,23.38a12,12,0,0,0,16.54,1.25L331.55,153l20.84,14.75a12,12,0,0,0,16.7-2.82l18.18-25.49a12,12,0,0,0-3.66-17.3l-1.9-1.12c-2.26-1.33-4.62-2.73-7-4.15l9.1-7a12,12,0,0,0,1.67-17.45L366,70.36a12,12,0,0,0-16.8-1.16c-5.84,5-12,10.13-18.26,14.71-6.84-5.08-13.72-10.41-19.81-15.17a12,12,0,0,0-7.38-2.54Z"/><path class="cls-4" d="M42.34,187.66a6,6,0,0,1-3.54-1.16,6,6,0,0,1-2.39-3.92l-2.92-18.92a6,6,0,0,1,5-6.85l34.41-5.33a16.19,16.19,0,0,1,2.47-.19,12,12,0,0,1,11.32,7.2s.18.43.18.43.22.55.22.55l.24.7.16.55.14.6s.11.56.12.6l0,.22,1.89,12.19a6,6,0,0,1-5,6.85l-41.42,6.41A5.62,5.62,0,0,1,42.34,187.66ZM112,176.87a6,6,0,0,1-5.93-5.1l-.29-2-.6-4.38-.14-1-.23-1.56-.16-1-.16-1-.14-.8-.2-1.13-.23-1.2-.25-1.27-.42-2.07-.24-1.12-.26-1.18-.38-1.67-.3-1.33c-.09-.39-.18-.75-.27-1.1l-.19-.73c-2-7.43-4.68-8.13-7.93-8.27H92.44l-.69,0-.51,0-.56,0-.53.06-.53.06-.57.07-.57.09-51.45,8a5.82,5.82,0,0,1-.93.07,6,6,0,0,1-5.92-5.08l-3.93-25.38a6,6,0,0,1,5-6.85L84,101.91c.77-.12,1.53-.25,2.25-.4l.75-.15.68-.15.94-.23.66-.18c.35-.09.74-.21,1.11-.33l.61-.2c5.72-2,7.38-4.56,6.5-10.23C96.93,86.29,95.12,82,86.16,82a33.64,33.64,0,0,0-5.17.43L28.25,90.58a6,6,0,0,1-6.85-5L17.55,60.74a6,6,0,0,1,5-6.85l58.56-9.06a89.21,89.21,0,0,1,13.72-1.12c25.78,0,42.68,13.69,46.37,37.56,2.15,13.85-2.16,26.27-11.14,34.31,7.39,4,12.38,11.07,14.93,21.06l.62,2.69.56,2.44.51,2.28.37,1.73.43,2,.24,1.17.37,1.85.35,1.76.19,1,.3,1.61.32,1.86.16.91.42,2.59.68,4.31a6,6,0,0,1-5,6.85l-32.55,5A5.62,5.62,0,0,1,112,176.87Z"/><path class="cls-4" d="M94.84,49.71c23.65,0,37.29,12.08,40.44,32.48,2.76,17.82-6.48,31.15-21.09,35.4,13,.57,21.45,6.6,25,20.53l.6,2.57.55,2.41.5,2.25.37,1.7.42,2,.24,1.15.36,1.82.34,1.72.18,1,.29,1.58.32,1.82.15.88.42,2.55.43,2.67.24,1.59-32.55,5-.1-.66-.19-1.3-.17-1.26-.42-3.05-.14-1-.24-1.6-.16-1-.17-1.08-.15-.84-.21-1.17-.23-1.25-.26-1.32-.28-1.41-.16-.74-.24-1.15-.27-1.21-.39-1.71-.31-1.35c-.09-.42-.19-.83-.29-1.23l-.21-.78c-2.52-9.2-6.86-12.45-13.47-12.73l-.55,0H92.28l-.58,0h-.3l-.61,0-.61.06-.63.06-.63.07-.64.08-.65.1-51.52,8L32.18,116l52.74-8.16c.87-.14,1.7-.28,2.5-.44l.8-.16.77-.17.76-.18.37-.1.72-.19c.48-.13.94-.27,1.39-.41l.67-.23c8.32-2.86,11.9-8,10.54-16.84C102.15,80.78,96.32,76,86.16,76a39.59,39.59,0,0,0-6.09.5L27.33,84.65,23.48,59.82,82,50.76a83.19,83.19,0,0,1,12.8-1M75.38,157.29a6.06,6.06,0,0,1,5.86,3.7l.13.31.12.31.09.24,0,.13.08.24.06.24,0,.11,0,.24,0,.11,0,.22,1.88,12.11-41.42,6.41-2.92-18.92,34.41-5.33a10.83,10.83,0,0,1,1.55-.12M94.85,37.71v0A96.07,96.07,0,0,0,80.2,38.9L21.65,48a12,12,0,0,0-10,13.7l3.85,24.83A12,12,0,0,0,27.33,96.65a11.28,11.28,0,0,0,1.83-.14l52.75-8.16A28,28,0,0,1,86.16,88c5,0,5.16,1.31,5.42,3a7.51,7.51,0,0,1,.09,2.35,8.34,8.34,0,0,1-2.62,1.29l-.53.17-.83.25-.59.16-.21,0-.58.14-.59.13-.66.14c-.62.12-1.29.23-2,.34l-52.75,8.16a12,12,0,0,0-10,13.7l3.93,25.38a12,12,0,0,0,8.35,9.64,12.25,12.25,0,0,0-2.87,2.79,12,12,0,0,0-2.17,8.93l2.93,18.92a12,12,0,0,0,11.84,10.16,11.61,11.61,0,0,0,1.85-.14l41.41-6.41a12,12,0,0,0,10-13.7l-1.88-12.1,0-.17,0-.22c0-.09,0-.17-.05-.25l0-.11c0-.09,0-.17,0-.26l0-.23a2,2,0,0,1-.05-.24l0-.12a2.5,2.5,0,0,0-.07-.26l-.06-.24-.09-.34-.07-.24c0-.09,0-.18-.08-.26l0-.12-.09-.27-.08-.25-.15-.41-.12-.31c-.06-.15-.12-.31-.19-.47l-.13-.31c0-.08-.07-.16-.11-.23A17.87,17.87,0,0,0,82,146.43l7.44-1.15.5-.08.49-.06.45,0,.44-.05.42,0,.42,0h.1l.44,0h.87a5.6,5.6,0,0,1,.8.09,12.19,12.19,0,0,1,1.53,3.78l.18.66q.1.42.21.87v.06l.31,1.32.37,1.65.25,1.13.23,1.09.14.68.27,1.33.24,1.23.22,1.15.19,1.08.13.76.16,1,.15.93.22,1.52.14,1,.41,3,.18,1.3v.07l.19,1.3V172l.1.67A12,12,0,0,0,112,182.87a12.67,12.67,0,0,0,1.84-.14l32.55-5a12,12,0,0,0,10-13.7l-.25-1.59-.42-2.7v-.08l-.43-2.55V157l-.15-.88v-.06l-.32-1.82v-.08l-.29-1.59,0-.06-.18-1v-.06l-.34-1.72v-.08l-.37-1.82v-.06l-.24-1.15v0l-.42-2,0-.06-.36-1.7,0-.06-.5-2.25v-.07l-.55-2.4V138l-.6-2.57-.06-.24c-2.21-8.7-6.14-15.57-11.65-20.49,7-9.06,10-21.13,8-34.32S139.31,56.41,130.38,49c-9.12-7.52-21.08-11.33-35.53-11.33Z"/><path class="cls-4" d="M215.26,67.36c-.79,0-1.58,0-2.37-.08a6,6,0,0,1-5.14-3.66l-1.17-2.79A6,6,0,0,1,209.66,53l-1-.43a6,6,0,0,1-3.22-7.84l6.64-15.92a6,6,0,0,1,5.54-3.69,5.93,5.93,0,0,1,2.31.47l4.65,1.94a6,6,0,0,1,3.68,5.25,6,6,0,0,1,4.4-1.92,6,6,0,0,1,2.31.46l4.65,1.94a6,6,0,0,1,3.23,7.85l-5.09,12.19a23.77,23.77,0,0,1-4.21,6.7,21.69,21.69,0,0,1-6.28,4.81l-.12.06a24.39,24.39,0,0,1-7.88,2.25A38.1,38.1,0,0,1,215.26,67.36Z"/><path class="cls-4" d="M217.6,31.14l4.65,2L215.61,49,211,47.06l6.65-15.92m15,5.74,4.65,1.94L232.2,51a17.57,17.57,0,0,1-3.14,5,15.6,15.6,0,0,1-4.53,3.46,18.33,18.33,0,0,1-5.93,1.69,28.94,28.94,0,0,1-3.35.19c-.65,0-1.31,0-2-.07l-1.17-2.79a28.36,28.36,0,0,0,4.69-.58,17.34,17.34,0,0,0,4.91-2,14.25,14.25,0,0,0,3.54-3.05A18.05,18.05,0,0,0,227.59,49l5-12.09m-15-17.74a12,12,0,0,0-11.08,7.38l-6.64,15.91a12,12,0,0,0,1.17,11.4,12,12,0,0,0,0,9.32l1.17,2.8a12,12,0,0,0,10.28,7.32c.91.06,1.84.09,2.75.09a43,43,0,0,0,4.67-.26,30.33,30.33,0,0,0,9.8-2.8l.24-.12a27.49,27.49,0,0,0,8-6.1L238,64a29.76,29.76,0,0,0,5.27-8.37l5.09-12.2a12,12,0,0,0-6.45-15.69l-4.66-1.95a12.09,12.09,0,0,0-4.62-.92,11.38,11.38,0,0,0-1.54.1,12.15,12.15,0,0,0-4.23-3l-4.65-1.94a12,12,0,0,0-4.62-.93Z"/><path class="cls-4" d="M274.38,65.07a6,6,0,0,1-2.56-.58c-3.69-1.74-7.46-3.38-11.23-4.89-3.42-1.41-6.88-2.66-10.34-3.73a6,6,0,0,1-3.67-8.25l1.8-3.89a6,6,0,0,1,1.46-2,6,6,0,0,1,.41-2.9l1-2.54a6,6,0,0,1-1.74-6.84l1.55-3.89a6,6,0,0,1,6.75-3.66c4,.79,8,1.77,11.89,2.88,3.28.92,6.6,2,9.83,3.21A6,6,0,0,1,283,35.94l-2,4.79a4.27,4.27,0,0,1-.33.68,6,6,0,0,1-.36,3.68l-1.55,3.55.46.19a6,6,0,0,1,2.94,8.35l-2.52,4.72A6,6,0,0,1,274.38,65.07Z"/><path class="cls-4" d="M256.67,27.82q5.76,1.16,11.41,2.77,4.76,1.34,9.4,3.06l-2,4.79q-5.19-2.23-10.55-4-4.86-1.59-9.83-2.77l1.55-3.89m.69,9.54a117.48,117.48,0,0,1,17.49,5.33l-2,4.6a117.73,117.73,0,0,0-17-6.15l1.55-3.78m-3.53,8.89q5.29,1.34,10.47,3.17,6.38,2.27,12.6,4.93l-2.52,4.72q-5.72-2.7-11.55-5c-3.55-1.47-7.16-2.76-10.8-3.89l1.8-3.89m2.84-30.43a12,12,0,0,0-11.15,7.56L244,27.27a12,12,0,0,0,.5,10,11.91,11.91,0,0,0-.55,2.25,12.34,12.34,0,0,0-1,1.74l-1.8,3.89a12,12,0,0,0,7.34,16.5c3.29,1,6.57,2.2,9.78,3.52l.1,0c3.65,1.47,7.32,3.07,10.9,4.76A12,12,0,0,0,285,64.72L287.49,60a12.05,12.05,0,0,0,.74-9.64,12.25,12.25,0,0,0-2.07-3.66,12.21,12.21,0,0,0,.69-4.31l1.72-4.16a12,12,0,0,0-6.91-15.84c-3.37-1.25-6.84-2.38-10.31-3.36-4-1.15-8.18-2.16-12.32-3a11.87,11.87,0,0,0-2.36-.23Z"/><path class="cls-4" d="M309.57,41.62a26.49,26.49,0,0,1-4.16-.32,6,6,0,0,1-4.88-4.36l-.72-2.67A6,6,0,0,1,300.88,29a5.87,5.87,0,0,1,1.63-1.44A6,6,0,0,1,301.18,23a28.14,28.14,0,0,0,0-6.74,6,6,0,0,1,6-6.67l4.33.1A6,6,0,0,1,315.19,11l3.27.16a6,6,0,0,1,5.24,3.68,4.85,4.85,0,0,1,.76-.05,6,6,0,0,1,3.46,1.1l3.83,2.7a6,6,0,0,1,1.57,8.18,43.59,43.59,0,0,1-5.26,6.56,31.89,31.89,0,0,1-6.86,5.23,24.31,24.31,0,0,1-8.6,2.85l-.17,0A27.4,27.4,0,0,1,309.57,41.62Z"/><path class="cls-4" d="M307.19,15.58l4.19.09a41.61,41.61,0,0,1,0,8.2l-4.26-.12a34.35,34.35,0,0,0,.06-8.17M314,17l4.18.21a40,40,0,0,1-.26,8.19l-4.32-.16A35.47,35.47,0,0,0,314,17m10.48,3.84,3.83,2.7a37.4,37.4,0,0,1-4.53,5.65,25.65,25.65,0,0,1-5.52,4.2,18.32,18.32,0,0,1-6.44,2.13c-.74.07-1.48.11-2.23.11a21,21,0,0,1-3.25-.25l-.72-2.66h.49a22.41,22.41,0,0,0,4.07-.37,16.45,16.45,0,0,0,5.2-2A22.21,22.21,0,0,0,320,26.49a56.64,56.64,0,0,0,4.49-5.66M307.19,3.58a12,12,0,0,0-11.93,13.35,22.37,22.37,0,0,1,0,5.3,11.92,11.92,0,0,0,.19,4.13,12,12,0,0,0-1.4,9.48l.72,2.66a12,12,0,0,0,9.76,8.73,33.3,33.3,0,0,0,5.07.39,34,34,0,0,0,3.49-.18l.33,0A30.18,30.18,0,0,0,324,43.89l.12-.07a38.06,38.06,0,0,0,8.08-6.14l.12-.12a49.34,49.34,0,0,0,6-7.47,12,12,0,0,0-3.13-16.36L331.38,11A12,12,0,0,0,327,9.11a12,12,0,0,0-8.26-3.9l-1.67-.08a11.79,11.79,0,0,0-5.44-1.45l-4.19-.1Z"/><path class="cls-4" d="M294.78,79.27a6,6,0,0,1-4.25-1.76l-2-2.05a6,6,0,0,1,.65-9h-.29A6,6,0,0,1,285,65l-2-1.66A6,6,0,0,1,280.86,59a6,6,0,0,1,1.87-4.54,32.16,32.16,0,0,0,5.12-6.29,51.41,51.41,0,0,0,4.32-8.33,6,6,0,0,1,7.54-3.4L304.35,38a6,6,0,0,1,3.45,3.12,5.24,5.24,0,0,1,.28.69h6.35a6,6,0,0,1,6,6v3.74a5.79,5.79,0,0,1,0,.72,39.86,39.86,0,0,1-1.91,8.27l-.06.17a34.47,34.47,0,0,1-2.19,4.64l-.14.24a33.59,33.59,0,0,1-2.86,3.87l-.15.16a33,33,0,0,1-3.44,3.23l-.25.18a35.69,35.69,0,0,1-3.9,2.49l-.18.1a45.94,45.94,0,0,1-9,3.44A6.26,6.26,0,0,1,294.78,79.27Zm5.63-20.85a35.26,35.26,0,0,1-2.61,2.85l-.08.08c-.5.48-1,.94-1.56,1.38a21.2,21.2,0,0,0,3.16-2.9C299.7,59.38,300.07,58.91,300.41,58.42Z"/><path class="cls-4" d="M297.73,42.06l4.64,1.62a44.63,44.63,0,0,1-1.8,4.14h13.86v3.74a33.75,33.75,0,0,1-1.62,7A27.15,27.15,0,0,1,311,62.4a21.51,21.51,0,0,1-5.15,5.79,29.65,29.65,0,0,1-3.27,2.09,39.71,39.71,0,0,1-7.81,3l-2.06-2a32.68,32.68,0,0,0,5.44-2.59,26.66,26.66,0,0,0,5.65-4.83A24.32,24.32,0,0,0,307.52,58a22.19,22.19,0,0,0,1.76-6.26H297.87A32.5,32.5,0,0,1,293.59,57a21.69,21.69,0,0,1-4.75,3.42l-2-1.66a38.45,38.45,0,0,0,6.08-7.45,57.44,57.44,0,0,0,4.79-9.25m0-12a12,12,0,0,0-11.11,7.48,45.58,45.58,0,0,1-3.79,7.31l-.06.1a26.52,26.52,0,0,1-4.17,5.12,12,12,0,0,0,.56,17.9l1.7,1.43a12,12,0,0,0,3.38,10.31l2.05,2a12,12,0,0,0,11.56,3.12A52.14,52.14,0,0,0,308,81l.35-.19a41.65,41.65,0,0,0,4.53-2.88c.17-.12.33-.25.49-.38a39,39,0,0,0,4.09-3.82l.28-.32a38.62,38.62,0,0,0,3.38-4.58c.1-.15.19-.31.29-.47A39.5,39.5,0,0,0,324,62.86c.05-.11.09-.23.13-.34a45.78,45.78,0,0,0,2.2-9.53,13.55,13.55,0,0,0,.08-1.43V47.82a12,12,0,0,0-12-12h-3a12,12,0,0,0-5.11-3.47l-4.65-1.62a11.85,11.85,0,0,0-3.95-.68Z"/><path class="cls-4" d="M336.38,80.22a6,6,0,0,1-2.91-.75l-2.3-1.27a6,6,0,0,1-2-8.73,66.82,66.82,0,0,0,6.93-12.32c.18-.45.36-.91.52-1.36l-5.14,1.75a6.12,6.12,0,0,1-1.94.32,6,6,0,0,1-2.64-.62,6,6,0,0,1-3-3.45L322.61,50a6,6,0,0,1,3.75-7.61l20.58-7a6,6,0,0,1,4.61.31,6,6,0,0,1,3,3.5l1.19,3.59a6.33,6.33,0,0,1,.3,1.84,33.5,33.5,0,0,1-.56,6.28l0,.14c-.22,1-.46,2-.73,3,.53.28,1.07.55,1.61.8,2.56,1.21,5.21,2.34,7.85,3.36a6,6,0,0,1,3.14,8.44L366,69.16a6,6,0,0,1-5.28,3.16,5.39,5.39,0,0,1-.8-.06,48.82,48.82,0,0,1-9.29-2.17c-.75-.25-1.49-.53-2.23-.83-.59,1-1.21,1.93-1.87,2.86a.76.76,0,0,1-.08.11,37.33,37.33,0,0,1-6.26,6.61A6,6,0,0,1,336.38,80.22Z"/><path class="cls-4" d="M348.87,41.1l1.19,3.59a26.57,26.57,0,0,1-.46,5.14,50.23,50.23,0,0,1-1.47,5.41c-.16.56-.33,1.11-.5,1.65a52.84,52.84,0,0,0,6.15,3.42q4.07,1.92,8.27,3.54l-1.33,2.47a43.4,43.4,0,0,1-8.14-1.91,31.22,31.22,0,0,1-6.74-3.18,43.89,43.89,0,0,1-4.2,7.44,32.16,32.16,0,0,1-5.26,5.55L334.08,73a72.6,72.6,0,0,0,7.58-13.49,57.35,57.35,0,0,0,2.39-7.28c.39-1.83.68-3.68.89-5.55l-15.37,5.23-1.28-3.75,20.58-7m0-12a12.16,12.16,0,0,0-3.86.64l-20.59,7A12,12,0,0,0,316.93,52l1.28,3.75a12,12,0,0,0,6.06,6.9,11.14,11.14,0,0,0,1.81.71c-.57.9-1.16,1.78-1.77,2.65a12,12,0,0,0,3.95,17.45l2.3,1.28A12,12,0,0,0,344,83.47a43.86,43.86,0,0,0,6.78-7,53.44,53.44,0,0,0,8.33,1.78,12.14,12.14,0,0,0,1.59.11A12,12,0,0,0,371.29,72l1.33-2.46a12,12,0,0,0-6.27-16.9q-2.37-.9-4.73-1.94a39.66,39.66,0,0,0,.44-6.08,11.83,11.83,0,0,0-.61-3.68l-1.18-3.59a12,12,0,0,0-11.4-8.25Z"/><path class="cls-4" d="M247.87,191.51a6,6,0,0,1-6-5.51c-.17-2.08-.47-4.14-.78-6.33a78.94,78.94,0,0,1-1-11.2,6,6,0,0,1,5.42-6l6-.58.58,0a6,6,0,0,1,6,6c0,1.69.14,3.84.35,6l.86-.07.47,0a6,6,0,0,1,6,5.8l.18,5.33a6,6,0,0,1-5.8,6.2l-12,.41Z"/><path class="cls-4" d="M252.07,167.88h0m0,0a93.53,93.53,0,0,0,1.1,12.41l6.58-.52.18,5.33-12.05.41c-.47-5.74-1.79-11.21-1.79-17l6-.58m0-12h-.22c-.37,0-.73,0-1.09.07l-5.83.57a12,12,0,0,0-10.84,11.95,84.06,84.06,0,0,0,1.09,12.05c.3,2.09.58,4.07.74,6a12,12,0,0,0,12,11h.41l12-.4a12,12,0,0,0,11.59-12.4l-.18-5.33a12,12,0,0,0-7.66-10.79v-.7a12,12,0,0,0-11.89-12Zm0,24h0Z"/><path class="cls-4" d="M266.56,191.29a12.46,12.46,0,0,1-11.05-6.73,14.45,14.45,0,0,1-.3-11.84,12.12,12.12,0,0,1,9.35-6.92,11.75,11.75,0,0,1,1.68-.11,12.94,12.94,0,0,1,7.29,2.29,13.18,13.18,0,0,1,1.72,1.43,13,13,0,0,1,3.21,13.16,12.79,12.79,0,0,1-10.69,8.66A12.1,12.1,0,0,1,266.56,191.29Z"/><path class="cls-4" d="M266.24,171.69a6.87,6.87,0,0,1,3.88,1.23,6.55,6.55,0,0,1,.91.76,7.06,7.06,0,0,1,1.72,7,6.75,6.75,0,0,1-5.59,4.55q-.3,0-.6,0a6.51,6.51,0,0,1-5.7-3.44,8.49,8.49,0,0,1-.15-6.74,6.14,6.14,0,0,1,4.68-3.37,6.06,6.06,0,0,1,.85-.05m.36,8.65a1.48,1.48,0,0,0,.91-.3.64.64,0,0,0,.15-.13,1.54,1.54,0,0,0-.21-2.34,1.68,1.68,0,0,0-1-.3,1.32,1.32,0,0,0-1.4,1,1.86,1.86,0,0,0,.7,1.8,1.53,1.53,0,0,0,.84.25m-.36-20.65a17.54,17.54,0,0,0-2.51.17,18,18,0,0,0-14,10.48,20.42,20.42,0,0,0,.45,16.93,18.53,18.53,0,0,0,16.41,10q.92,0,1.83-.09a18.76,18.76,0,0,0,11.11-32,19.78,19.78,0,0,0-2.55-2.12,19,19,0,0,0-10.71-3.36Z"/><path class="cls-4" d="M281.13,190.86a6.3,6.3,0,0,1-1.44-.17c-.36,0-.73,0-1.09.05-4.47,0-8.31-2.21-10-5.77a10.32,10.32,0,0,1,.18-8.86,8.23,8.23,0,0,1,.63-1.12l-.29-.9a6,6,0,0,1,3.83-7.52,24.81,24.81,0,0,1,6.51-1.24h.1c.59,0,1.2-.06,1.81-.06a11.17,11.17,0,0,1,7.79,2.73c2.29,2.06,3.38,4.87,3.43,8.86l.1,7.43a6,6,0,0,1-5.45,6.05l-5.53.51A5.06,5.06,0,0,1,281.13,190.86Z"/><path class="cls-4" d="M281.35,171.26a5.21,5.21,0,0,1,3.7,1.14c.42.38,1.47,1.13,1.51,4.53,0,2.47.07,4.95.1,7.42l-5.53.51-.07-.52a8.15,8.15,0,0,1-2.46.4,5,5,0,0,1-4.62-2.38,4.47,4.47,0,0,1,.21-3.71c.66-1.55,3.13-2.82,5.74-2.82q.39,0,.78,0c0-.08-.06-.38-.06-.47a7.59,7.59,0,0,0-.92-.06,7.26,7.26,0,0,0-3.63,1l-1.29-4.06a19.18,19.18,0,0,1,4.94-.94c.52,0,1.06-.06,1.6-.06m-1.69,10.18a4.7,4.7,0,0,0,1-.12h0l-.08-2.34a3.49,3.49,0,0,0-.54,0c-.72,0-1.89.19-1.85,1.45,0,.86.79,1.05,1.46,1.05m1.69-22.18c-.83,0-1.56,0-2.15.07h-.1a31.12,31.12,0,0,0-8.06,1.53A12,12,0,0,0,263,174.32a16.24,16.24,0,0,0,.19,13.26c2.72,5.65,8.64,9.16,15.43,9.16l.68,0a11.23,11.23,0,0,0,1.84.15,10.65,10.65,0,0,0,1.12-.06l5.53-.51a12,12,0,0,0,10.89-12.1l-.08-6.1,0-1.33c-.07-5.69-1.84-10-5.41-13.23a16.84,16.84,0,0,0-11.8-4.28Z"/><path class="cls-4" d="M295.4,190.31a15.7,15.7,0,0,1-7.42-1.4,12.27,12.27,0,0,1-6.39-12.14A12.94,12.94,0,0,1,289.16,166a6,6,0,0,1,5.72-5.49l5.18-.22h.25a6,6,0,0,1,6,6.32c-.19,3.46-.22,7.64-.24,11.67,0,2.05,0,4.05-.06,5.9a6,6,0,0,1-5.24,5.85A48,48,0,0,1,295.4,190.31Z"/><path class="cls-4" d="M300.31,166.24c-.28,5.39-.2,12.27-.3,17.79a42.22,42.22,0,0,1-4.61.28,11,11,0,0,1-4.59-.7c-5-2.67-4-10.62,1.34-12.37a8.69,8.69,0,0,1,3.08-.45c0-1.46,0-2.93-.09-4.33l5.17-.22m-6.18,13.6,1,0,0-4.23a3.51,3.51,0,0,0-.55-.05,2.3,2.3,0,0,0-2.19,3.39,1.82,1.82,0,0,0,1.81.91m6.19-25.6h-.52l-5.18.23A12,12,0,0,0,284,162a19.06,19.06,0,0,0-8.4,14.29,18.4,18.4,0,0,0,9.56,17.95c2.7,1.44,6,2.11,10.23,2.11a53.66,53.66,0,0,0,6.14-.38A12,12,0,0,0,312,184.24c0-1.89.05-3.87.06-6,0-4,.05-8.07.23-11.39a12,12,0,0,0-12-12.65Z"/><path class="cls-4" d="M308.54,189.76a13.28,13.28,0,0,1-10.88-5.13c-2.42-3.26-3-7.52-1.63-12a12.18,12.18,0,0,1,11.88-8.29,13.07,13.07,0,0,1,8.43,3l.39.36a13,13,0,0,1,3.37,11.32,6,6,0,0,1-1.24,2.61,6,6,0,0,1-3.23,6.43,15.91,15.91,0,0,1-7.08,1.66Z"/><path class="cls-4" d="M307.91,170.33a7.07,7.07,0,0,1,4.56,1.63,7.16,7.16,0,0,1,1.76,5.9c-2.31.54-4.75.71-7.1,1.16-1.58.21.22.38.73.4l.49,0a10,10,0,0,0,2.91-.45c.47,1.25,1.23,2.49,1.7,3.74a10,10,0,0,1-4.42,1c-4.54,0-8.66-3.19-6.77-9.4a6.26,6.26,0,0,1,6.14-4m-2.2,5.18,4.12-.62c-.11-.48-.81-.7-1.61-.7-1.15,0-2.5.47-2.51,1.32m2.2-17.18h0a18.14,18.14,0,0,0-17.58,12.42.56.56,0,0,0,0,.12c-1.93,6.36-1,12.51,2.55,17.33a19.19,19.19,0,0,0,15.7,7.56,22,22,0,0,0,9.77-2.29A12,12,0,0,0,325,183.25a12,12,0,0,0,1-3,19,19,0,0,0-5-16.74c-.26-.25-.52-.49-.79-.72a19,19,0,0,0-12.3-4.47Z"/><path class="cls-4" d="M316.37,189.48a6,6,0,0,1-6-5.51c-.15-1.88-.43-3.77-.69-5.6a61.07,61.07,0,0,1-.83-8.19,6,6,0,0,1,5.48-6.05l1.09-.1c1.69-.15,3.44-.31,5.22-.38h.51a11.93,11.93,0,0,1,1.94-.17,11,11,0,0,1,6.83,2.42,6,6,0,0,1,1.5,7.91c-.31.5-.59,1.06-.92,1.71s-.83,1.68-1.41,2.62a6.39,6.39,0,0,1-1.09,1.32c.13,1.06.25,2.11.32,2.94a6,6,0,0,1-5.42,6.5l-6,.56A5.24,5.24,0,0,1,316.37,189.48Z"/><path class="cls-4" d="M323.11,169.48a5.1,5.1,0,0,1,3.21,1.2c-.89,1.45-1.44,2.88-2.33,4.33a3.18,3.18,0,0,0-1.1-.25,2.37,2.37,0,0,0-1.47.66s.72,5,.94,7.51l-6,.55c-.39-4.83-1.45-9.2-1.5-13.38,2-.17,4-.37,6-.46,0,.08,0,.15,0,.23a7.51,7.51,0,0,1,2.19-.39m0-12h0a18.68,18.68,0,0,0-2.35.16h-.35c-1.92.08-3.74.25-5.5.4l-1.08.1a12,12,0,0,0-11,12.1,66.28,66.28,0,0,0,.89,9c.27,1.81.52,3.53.65,5.22a12,12,0,0,0,12,11,10.31,10.31,0,0,0,1.11,0l3.65-.34,2.34-.21a12,12,0,0,0,10.85-13c0-.2,0-.42-.06-.64.69-1.15,1.21-2.19,1.63-3,.26-.52.49-1,.66-1.26a12,12,0,0,0-3-15.82,17,17,0,0,0-10.46-3.64Z"/><path class="cls-4" d="M328.26,189.08a6,6,0,0,1-6-5.56c-.15-2-1.32-12.59-1.76-16.5a6,6,0,0,1,2.84-5.79c.88-.54,1.87-1,6.59-1.67a69,69,0,0,1,8.73-.51c.88,0,1.7,0,2.4,0a6,6,0,0,1,5.72,5.75l.21,5.38a6,6,0,0,1-1.25,3.91l.05,1.63a6,6,0,0,1-5.63,6.17c0,.26,0,.42,0,.42a6,6,0,0,1-5.78,6.51l-6,.2Z"/><path class="cls-4" d="M338.68,165.05c.78,0,1.5,0,2.12,0l.21,5.38c-1-.05-1.95-.08-2.93-.08a28.59,28.59,0,0,0-5.11.4c0,.14,0,.91.06,1.16a32.17,32.17,0,0,1,6.64-.59l.14,4.59a26.6,26.6,0,0,0-6.11.58c0,.32.54,6.34.54,6.34l-6,.21c-.19-2.55-1.77-16.73-1.77-16.73s.45-.28,4.33-.85a63.83,63.83,0,0,1,7.86-.45m0-12a75.18,75.18,0,0,0-9.61.58c-4.88.72-6.86,1.27-8.83,2.48a12,12,0,0,0-5.68,11.57c.6,5.4,1.61,14.59,1.73,16.28a12,12,0,0,0,12,11.12h.41l6-.2a12,12,0,0,0,11.07-8.47,11.81,11.81,0,0,0,2.73-2.11,12,12,0,0,0,3.37-8.58A12,12,0,0,0,353,170l-.21-5.37a12,12,0,0,0-11.42-11.52c-.8,0-1.7,0-2.69,0Z"/><path class="cls-4" d="M348.62,188.51a11.86,11.86,0,0,1-8.69-3.42c-4-4.07-4.29-10.3-4.23-15.83a6,6,0,0,1,6-5.93l5.68,0a6.09,6.09,0,0,1,2.22.42l5.93-.43.44,0a6,6,0,0,1,6,5.33c.87,7.73,0,12.65-2.82,15.95-3.16,3.69-7.63,3.87-9.79,4Z"/><path class="cls-4" d="M355.93,169.26c1.4,12.4-2.51,13.06-6.89,13.24h-.42c-6.68,0-7-7-6.92-13.18l5.64,0c0,.05-.55,8.18,2,8.18h.09c1.36-.11.45-7.76.45-7.76l6.1-.45m0-12c-.29,0-.59,0-.89,0l-4.8.35a11.72,11.72,0,0,0-2.91-.36h-.08l-5.64,0A12,12,0,0,0,329.7,169.2c-.06,4.86-.16,13.92,6,20.11a17.75,17.75,0,0,0,13,5.2c.3,0,.6,0,.91,0,2.53-.1,9.24-.38,14.09-6,5.13-6,5-14.12,4.23-20.53a12,12,0,0,0-11.91-10.66Z"/><path class="cls-4" d="M358.51,188.06a6,6,0,0,1-6-5.52c-.13-1.64-.39-3.79-.66-6.07-.29-2.45-.59-5-.79-7.3a6,6,0,0,1,5.4-6.48l6-.58.58,0a5.9,5.9,0,0,1,1.51.19h.64a11.6,11.6,0,0,1,2.61.28c9.78,2.16,10,12,10.14,17.32,0,.52,0,1,0,1.53a6,6,0,0,1-5.8,6.22l-5.46.17a6.23,6.23,0,0,1-1.15-.11,5.94,5.94,0,0,1-1.33.2l-5.51.19Z"/><path class="cls-4" d="M363,168.08l0,.46a8.63,8.63,0,0,1,2.13-.28,5.94,5.94,0,0,1,1.29.13c5.79,1.26,5.31,8,5.51,13.23l-5.27.16c-.1-2.68.05-8.44-2-8.44h-.19c-1.63.27-.62,6-.45,8.52l-5.51.19c-.28-3.54-1.08-9-1.45-13.4l6-.58m0-12c-.38,0-.77,0-1.15,0l-6,.58a12,12,0,0,0-10.8,13c.21,2.41.51,5,.81,7.47.27,2.23.52,4.33.64,5.85a12,12,0,0,0,11.95,11.05h.42l5.51-.2a9.67,9.67,0,0,0,1.33-.12c.32,0,.63,0,.95,0h.38l5.26-.17A12,12,0,0,0,384,181.17c0-.47,0-1,0-1.45a36.45,36.45,0,0,0-1.41-10.66,18,18,0,0,0-13.4-12.37,17.56,17.56,0,0,0-3.94-.43h-.09a11.77,11.77,0,0,0-2.06-.18Z"/><path class="cls-4" d="M380.22,187.26a13.35,13.35,0,0,1-12-6.56,12.74,12.74,0,0,1-.07-12.7c2.29-4,6.53-6.26,11.63-6.26a22.11,22.11,0,0,1,7.34,1.37,6,6,0,0,1,3.72,7.48l-.53,1.68a6.21,6.21,0,0,1,.87,3.06l.07,4.83a6,6,0,0,1-3.91,5.71A20.68,20.68,0,0,1,380.22,187.26Z"/><path class="cls-4" d="M379.82,167.74a16.2,16.2,0,0,1,5.35,1l-1.45,4.57a12,12,0,0,0-3.4-.66,3.17,3.17,0,0,0-2,.55c-1.43,2.31.31,3,2.47,3a11.75,11.75,0,0,0,4.39-.85l.07,4.83a14.76,14.76,0,0,1-5.07,1c-9.86,0-10.49-13.52-.4-13.52m0-12a19.49,19.49,0,0,0-14,5.55,18.2,18.2,0,0,0-5.3,13c0,10.66,8.65,19,19.69,19a26.59,26.59,0,0,0,9.25-1.76,12,12,0,0,0,7.82-11.44l-.08-4.82a11.59,11.59,0,0,0-.49-3.23,12,12,0,0,0-7.56-14.55,28.07,28.07,0,0,0-9.34-1.72Z"/><path class="cls-4" d="M394.38,186.85c-9.91,0-12.4-6.38-13-11.11a6,6,0,0,1-1.37-3.62l-.14-4.15a6,6,0,0,1,1.13-3.71l0-.66a6,6,0,0,1,6-6.32l5.49.1a6,6,0,0,1,5.83,5.08,6,6,0,0,1,2.67,4.83l.12,4.14a6,6,0,0,1-.17,1.59,6,6,0,0,1,1.08,3.13l.21,4.33a6,6,0,0,1-5.52,6.27C395.85,186.82,395.09,186.85,394.38,186.85Z"/><path class="cls-4" d="M386.93,163.28l5.39.1.05,4.12,2.55-.05s.08,2.58.12,4.15l-2.75.09c.21,3.77-.34,4.59,3.66,4.76l.22,4.32c-.64,0-1.24.08-1.79.08-6.42,0-7.21-3.37-7.25-9l-1.15,0-.14-4.15,1.32-.12-.23-4.37m0-12a12,12,0,0,0-12,11.47,11.86,11.86,0,0,0-1.09,5.42l.14,4.15a11.87,11.87,0,0,0,1.6,5.6,18.57,18.57,0,0,0,2.72,7.1c2.33,3.57,7,7.83,16.07,7.83.87,0,1.79,0,2.74-.11a12,12,0,0,0,11-12.56l-.21-4.32a11.85,11.85,0,0,0-.9-4v-.59l-.12-4.14a12,12,0,0,0-3.38-8,12,12,0,0,0-11-7.72l-5.39-.09Z"/><path class="cls-4" d="M397.58,186.9a6,6,0,0,1-6-5.91c0-1.55-.21-3.08-.4-4.69a49,49,0,0,1-.47-6.7,5.6,5.6,0,0,1,.11-1.09,5.88,5.88,0,0,1-.11-.94c-.06-1.49-.12-3.08-.06-4.76a6,6,0,0,1,5.8-5.79l5.55-.19h.21a6,6,0,0,1,4.2,1.72,6,6,0,0,1,1.8,4.38l0,.7c0,.59,0,1.57,0,2l.08,1c0,.17,0,.33,0,.5a6,6,0,0,1,.44,2.3,43,43,0,0,0,.4,5.11c.22,1.89.45,3.84.49,6a6,6,0,0,1-5.8,6.11l-6,.19Z"/><path class="cls-4" d="M402.22,162.83c0,.84-.07,2.35,0,3.17l.08,1.14-5.56.19c-.06-1.47-.1-2.85,0-4.31l5.56-.19m.49,6.64c0,3.77.82,7.36.89,11.23l-6,.19c-.06-3.94-.91-7.3-.87-11.22l6-.2m-.49-18.64h-.41l-5.56.18a12,12,0,0,0-11.58,11.58c-.07,1.89,0,3.61.05,5.2,0,.24,0,.48,0,.72s0,.67,0,1a53.63,53.63,0,0,0,.51,7.46c.18,1.52.34,2.84.36,4.08a12,12,0,0,0,12,11.81H398l6-.2a12,12,0,0,0,11.61-12.21c-.05-2.43-.3-4.62-.53-6.56a41.77,41.77,0,0,1-.36-4.38,12.08,12.08,0,0,0-.48-3.45l-.05-.71c0-.36,0-1.18,0-1.6V163a12,12,0,0,0-12-12.18Zm.49,30.64h0Z"/><path class="cls-4" d="M410.7,186.44a12.48,12.48,0,0,1-11.06-6.73,14.46,14.46,0,0,1-.3-11.84,12.1,12.1,0,0,1,9.35-6.92,11.9,11.9,0,0,1,1.69-.12,13,13,0,0,1,7.29,2.3,13.13,13.13,0,0,1,1.72,1.44,13,13,0,0,1,3.2,13.15,12.76,12.76,0,0,1-10.68,8.65A9.82,9.82,0,0,1,410.7,186.44Z"/><path class="cls-4" d="M410.37,166.83a6.9,6.9,0,0,1,3.88,1.23,7.51,7.51,0,0,1,.92.77,7.05,7.05,0,0,1,1.72,7,6.78,6.78,0,0,1-5.59,4.55q-.3,0-.6,0A6.51,6.51,0,0,1,405,177a8.51,8.51,0,0,1-.15-6.73,6.14,6.14,0,0,1,4.68-3.37,6.07,6.07,0,0,1,.85-.06m.36,8.65a1.57,1.57,0,0,0,.92-.29l.15-.13a1.54,1.54,0,0,0-.21-2.34,1.69,1.69,0,0,0-1-.31,1.31,1.31,0,0,0-1.4,1,1.85,1.85,0,0,0,.69,1.79,1.5,1.5,0,0,0,.84.25m-.36-20.65a17.41,17.41,0,0,0-2.5.18,18,18,0,0,0-14,10.47,20.44,20.44,0,0,0,.46,16.94,18.52,18.52,0,0,0,16.41,10c.6,0,1.22,0,1.82-.1a18.85,18.85,0,0,0,15.78-12.76,18.91,18.91,0,0,0-17.93-24.75Z"/><path class="cls-4" d="M419.19,186a6,6,0,0,1-6-5.53c-.13-1.64-.38-3.8-.66-6.09s-.59-5-.79-7.27a6,6,0,0,1,5.4-6.49l6-.58a5.72,5.72,0,0,1,.58,0,5.9,5.9,0,0,1,1.51.19l.64,0a11.6,11.6,0,0,1,2.61.29c9.77,2.15,10,12,10.14,17.32,0,.52,0,1,0,1.53a6,6,0,0,1-5.81,6.22l-5.45.17a6.23,6.23,0,0,1-1.15-.11,6.57,6.57,0,0,1-1.33.2l-5.52.19Z"/><path class="cls-4" d="M423.72,166v.45a8.77,8.77,0,0,1,2.14-.28,5.49,5.49,0,0,1,1.29.14c5.78,1.26,5.31,8,5.5,13.22l-5.26.17c-.1-2.68.05-8.44-2-8.45l-.2,0c-1.63.26-.61,6-.44,8.52l-5.51.19c-.28-3.54-1.08-9-1.46-13.41l6-.57m0-12a11.37,11.37,0,0,0-1.16.05l-6,.58a12,12,0,0,0-10.8,13c.2,2.42.51,5,.81,7.48.26,2.23.51,4.33.63,5.85a12,12,0,0,0,12,11.05h.42l5.51-.19a9.81,9.81,0,0,0,1.33-.12c.31,0,.63,0,.94,0h.39l5.26-.16a12,12,0,0,0,11.62-12.45c0-.47,0-1,0-1.44A36.79,36.79,0,0,0,443.21,167a18.14,18.14,0,0,0-17.34-12.81h-.09a11.85,11.85,0,0,0-2.06-.17Z"/><path class="cls-4" d="M59.38,48.3a6,6,0,0,1-5.87-4.79A116.09,116.09,0,0,1,51,18.11l0-1.6A6,6,0,0,1,57,10.6l8.64-.11a6,6,0,0,1,6,6.2,100.59,100.59,0,0,0,2,23.51,6,6,0,0,1-5.24,7.19L60,48.27Z"/><path class="cls-4" d="M65.63,16.49A106.89,106.89,0,0,0,67.8,41.42l-8.42.88A111.28,111.28,0,0,1,57,18.22l0-1.63,8.57-.1m0-12h-.15l-8.57.11A12,12,0,0,0,45.06,16.42L45,18a122.94,122.94,0,0,0,2.59,26.67,12,12,0,0,0,11.74,9.6c.42,0,.84,0,1.26-.07l8.42-.88A12,12,0,0,0,79.55,39a93.83,93.83,0,0,1-1.92-22.08,12,12,0,0,0-12-12.4Zm0,24h0Z"/><path class="cls-4" d="M77.43,46.86a15.23,15.23,0,0,1-13.17-7.63,17.92,17.92,0,0,1-1-14.62,14.71,14.71,0,0,1,13.59-9,15.65,15.65,0,0,1,10.59,4.13,15.92,15.92,0,0,1,4.56,15.91A15.56,15.56,0,0,1,79.47,46.72,13.89,13.89,0,0,1,77.43,46.86Z"/><path class="cls-4" d="M76.9,21.62a9.71,9.71,0,0,1,5.2,1.53A9.75,9.75,0,0,1,86.27,34a9.57,9.57,0,0,1-7.65,6.75,7.93,7.93,0,0,1-1.19.08,9.23,9.23,0,0,1-7.93-4.55,12.06,12.06,0,0,1-.59-9.53,8.7,8.7,0,0,1,6.43-5,9.12,9.12,0,0,1,1.56-.13m.55,12.23a2.19,2.19,0,0,0,1.37-.47l.2-.19a2.18,2.18,0,0,0-.42-3.3,2.32,2.32,0,0,0-1.32-.38,1.89,1.89,0,0,0-2,1.53,2.62,2.62,0,0,0,1.09,2.5,2.07,2.07,0,0,0,1.11.31M76.91,9.62h0a21.51,21.51,0,0,0-3.68.32,20.74,20.74,0,0,0-15.5,12.51A24.14,24.14,0,0,0,59,42.15,21.31,21.31,0,0,0,77.43,52.86a19.82,19.82,0,0,0,2.88-.2A21.65,21.65,0,0,0,97.82,37.3a22,22,0,0,0-6.26-22,21.16,21.16,0,0,0-3-2.32,21.6,21.6,0,0,0-11.62-3.4Z"/><path class="cls-4" d="M98.36,45.44a6.26,6.26,0,0,1-1.57-.21,18,18,0,0,1-2.43.17c-5.07,0-9.5-2.41-11.56-6.29-2.35-4.4-.8-8.9-.15-10.39A9.72,9.72,0,0,1,84,26.45L83.06,24a6,6,0,0,1,3.53-7.66,33.23,33.23,0,0,1,8.49-2h.15a32.8,32.8,0,0,1,3.34-.2A12.56,12.56,0,0,1,107.11,17c1.93,1.59,4.15,4.21,4.48,10.57l.56,10.5a6,6,0,0,1-5.2,6.27l-7.8,1A5.25,5.25,0,0,1,98.36,45.44Z"/><path class="cls-4" d="M98.57,20.16a6.87,6.87,0,0,1,4.64,1.41c.61.52,2.14,1.52,2.39,6.33.19,3.5.37,7,.56,10.5l-7.8,1-.13-.73a11.46,11.46,0,0,1-3.87.7c-2.87,0-5.25-1.21-6.26-3.1C86.88,34,88,31.43,88.19,31c.89-2.32,4.55-4.33,8.41-4.33l.66,0c0-.12-.1-.54-.11-.67-.26,0-.56,0-.9,0a10.42,10.42,0,0,0-2.37.28,10.12,10.12,0,0,0-3.12,1.34L88.7,22a26.78,26.78,0,0,1,7-1.61c.94-.09,1.93-.19,2.92-.19M95.89,34.68a6.24,6.24,0,0,0,1.62-.24h0l-.24-3.31a4.42,4.42,0,0,0-.54,0c-1,0-2.91.24-2.77,2.17.08,1.13,1,1.41,1.93,1.41M98.57,8.16a37.64,37.64,0,0,0-3.91.23h-.14a39.13,39.13,0,0,0-10,2.32,12,12,0,0,0-7.13,15.14c-.08.17-.15.33-.22.51a18.08,18.08,0,0,0,.37,15.57c3.11,5.84,9.57,9.46,16.86,9.46.73,0,1.45,0,2.18-.1a11.66,11.66,0,0,0,3.4,0l7.8-1a12,12,0,0,0,10.4-12.53l-.55-10.51c-.35-6.59-2.52-11.44-6.61-14.84l0,0A18.57,18.57,0,0,0,98.57,8.16Z"/><path class="cls-4" d="M117.09,43.88a17.61,17.61,0,0,1-7.71-1.36,14.9,14.9,0,0,1-8.33-14.45A15.75,15.75,0,0,1,110.91,14l.32-.13-.06-.75a6,6,0,0,1,5.48-6.46L124,6l.49,0a6,6,0,0,1,6,6.08c-.07,5,.13,10.92.32,16.67.1,2.88.2,5.7.25,8.3a6,6,0,0,1-5,6.05A61.5,61.5,0,0,1,117.09,43.88Z"/><path class="cls-4" d="M124.46,12c-.1,7.64.4,17.38.57,25.19a55.89,55.89,0,0,1-7.94.69,12.88,12.88,0,0,1-5.11-.77c-7.24-3.49-6.28-14.8,1.2-17.58a11.92,11.92,0,0,1,4.34-.8c0-2.08-.21-4.15-.37-6.13l7.31-.6m-8.3,19.6c.48,0,1-.05,1.68-.09l-.29-6a4.46,4.46,0,0,0-.63-.05c-2.47,0-4.49,2.37-3,4.92a2.45,2.45,0,0,0,2.29,1.2M124.46,0c-.33,0-.66,0-1,0l-7.31.61A12,12,0,0,0,105.43,10,21.88,21.88,0,0,0,95.06,27.78a20.82,20.82,0,0,0,11.71,20.14,23.17,23.17,0,0,0,10.32,2A66.81,66.81,0,0,0,127,49a12,12,0,0,0,10-12.1c-.06-2.65-.15-5.43-.25-8.38-.19-5.67-.39-11.55-.32-16.37A12,12,0,0,0,124.46,0Zm0,24h0Z"/><path class="cls-4" d="M136.55,42.34a16.18,16.18,0,0,1-13-6c-3-3.81-3.78-9-2.34-14.49,1.7-6.24,7.73-10.55,14.69-10.55a15.83,15.83,0,0,1,9.81,3.34,4.36,4.36,0,0,1,.4.35,16,16,0,0,1,4.65,13.59,6,6,0,0,1-2,3.55l.05.12a6,6,0,0,1-2.64,7.59,20.06,20.06,0,0,1-9.62,2.46Z"/><path class="cls-4" d="M135.86,17.34A9.94,9.94,0,0,1,142,19.41a10.06,10.06,0,0,1,2.82,8.24c-3.23.9-6.67,1.28-10,2-2.21.39.34.53,1.06.53h.3a14,14,0,0,0,4.49-.81c.73,1.74,1.88,3.46,2.61,5.2a14.07,14.07,0,0,1-6.73,1.72c-6.22,0-11.83-4.29-9.57-12.94,1-3.74,4.86-6.06,8.88-6.06m-3.24,7.48,5.8-1.13c-.17-.61-1.06-.89-2.09-.89-1.68,0-3.75.75-3.71,2m3.24-19.48h0c-9.65,0-18.07,6.13-20.46,14.91a.65.65,0,0,1,0,.13c-1.92,7.37-.71,14.35,3.4,19.67a22.14,22.14,0,0,0,17.79,8.29,26.12,26.12,0,0,0,12.51-3.2,12,12,0,0,0,6.18-11.56,12.09,12.09,0,0,0,1.41-4,22.08,22.08,0,0,0-6.48-18.95,10.69,10.69,0,0,0-.82-.69,22,22,0,0,0-13.49-4.61Z"/><path class="cls-4" d="M148.16,41.49a6,6,0,0,1-5.95-5.27c-.34-2.73-.84-5.43-1.33-8A84,84,0,0,1,139.29,17a6,6,0,0,1,5.23-6.27l1.54-.2c2.35-.3,4.79-.62,7.25-.82l.49,0h.27a14.31,14.31,0,0,1,3.12-.36A13.3,13.3,0,0,1,165,11.89a6,6,0,0,1,1.8,7.85c-.46.82-.86,1.71-1.29,2.66s-1,2.32-1.76,3.59a5.91,5.91,0,0,1-2,2.13c.32,1.92.65,4,.85,5.49a6,6,0,0,1-5.16,6.71L149,41.44A5.16,5.16,0,0,1,148.16,41.49Z"/><path class="cls-4" d="M157.19,15.3a7.27,7.27,0,0,1,4.32,1.51c-1.17,2.1-1.87,4.16-3,6.26a4.77,4.77,0,0,0-1.48-.29,3.24,3.24,0,0,0-2.14,1s1.3,7,1.76,10.57l-8.45,1.12c-.83-6.81-2.57-13-2.88-18.85,2.82-.36,5.68-.76,8.51-1l0,.32a10.1,10.1,0,0,1,3.36-.67m0-12h0a19.85,19.85,0,0,0-3.72.36c-.22,0-.43,0-.65,0-2.59.21-5.1.54-7.53.85l-1.53.2a12,12,0,0,0-10.47,12.53,91.32,91.32,0,0,0,1.69,12c.49,2.63,1,5.12,1.27,7.65a12,12,0,0,0,13.49,10.45l8.45-1.12a12,12,0,0,0,10.32-13.43c-.1-.78-.24-1.69-.38-2.65a12.49,12.49,0,0,0,.81-1.27c.84-1.5,1.45-2.86,2-4.05.39-.87.73-1.61,1.06-2.21A12,12,0,0,0,168.38,7,19.3,19.3,0,0,0,157.19,3.3Z"/><path class="cls-4" d="M390.07,148.12a11.91,11.91,0,0,1-5.67-1.37A10.57,10.57,0,0,1,380,142.5a11.62,11.62,0,0,1-1.47-5.67c0-1.7-.07-3.11-.11-4.17,0-.16,0-.31,0-.44a9.8,9.8,0,0,1-2-1.78,7.82,7.82,0,0,1-1.78-5.2,8.16,8.16,0,0,1,3.79-7l.05,0c0-.77,0-2.31.1-4.63a11.11,11.11,0,0,1,11.5-11.22c5.05,0,8.58,3.33,8.58,8.09a8.32,8.32,0,0,1-1.72,5.22A7.63,7.63,0,0,1,395,117.4a30.61,30.61,0,0,1-.35,4.5,12.41,12.41,0,0,1-1,3.33,12.69,12.69,0,0,1,1,3.07,26.68,26.68,0,0,1,.39,4.75,7.75,7.75,0,0,1,1.94,1.77,8.31,8.31,0,0,1,1.71,5.17C398.65,144.78,395.12,148.12,390.07,148.12Z"/><path class="cls-4" d="M390.07,108.35c1.72,0,2.58.7,2.58,2.09a2.33,2.33,0,0,1-.43,1.5,1.66,1.66,0,0,1-1.12.63,3.58,3.58,0,0,0-1.42.42,1.58,1.58,0,0,0-.53,1.09,28.5,28.5,0,0,0-.15,3.13,27,27,0,0,1-.28,3.72,6.12,6.12,0,0,1-.93,2.47,6.57,6.57,0,0,1-2,1.84,7,7,0,0,1,2,1.74,5.82,5.82,0,0,1,1,2.44,20.79,20.79,0,0,1,.29,3.81c0,1.16,0,2,.07,2.56a3.47,3.47,0,0,0,.32,1.26,1.18,1.18,0,0,0,.57.56,6.6,6.6,0,0,0,1.14.26,1.58,1.58,0,0,1,1.11.65,2.26,2.26,0,0,1,.44,1.47q0,2.13-2.58,2.13a6,6,0,0,1-2.86-.67,4.65,4.65,0,0,1-1.94-1.89,5.7,5.7,0,0,1-.7-2.8c0-1.78-.07-3.21-.11-4.29a13.75,13.75,0,0,0-.16-2.09,3.93,3.93,0,0,0-.78-1.78,5.89,5.89,0,0,0-1.35-1.11,5,5,0,0,1-1.19-.94,2,2,0,0,1-.35-1.31,2.17,2.17,0,0,1,1-1.95,9.87,9.87,0,0,0,1.8-1.34,3.09,3.09,0,0,0,.76-1.42,9.29,9.29,0,0,0,.25-1.9c0-.69.06-2.34.11-4.95a5.33,5.33,0,0,1,1.53-3.88,5.48,5.48,0,0,1,4-1.45m0-12a17.11,17.11,0,0,0-17.5,17.07c0,.76,0,1.4,0,2a14.3,14.3,0,0,0-3.9,9.87,13.78,13.78,0,0,0,3.21,9.09q.33.39.69.75c0,.57,0,1.2,0,1.87a17.58,17.58,0,0,0,2.23,8.48,16.81,16.81,0,0,0,6.78,6.62,18,18,0,0,0,8.49,2.07c8.31,0,14.58-6.07,14.58-14.13a14.24,14.24,0,0,0-3-8.86c-.25-.32-.51-.62-.78-.91a26,26,0,0,0-.39-3,17.68,17.68,0,0,0-.47-2,21.75,21.75,0,0,0,.54-2.35c.13-.8.23-1.67.3-2.6.27-.28.52-.58.77-.89a14.27,14.27,0,0,0,3-8.94c0-8-6.27-14.09-14.58-14.09Z"/><path class="cls-4" d="M408.81,148.12a8.74,8.74,0,0,1-5.72-1.92,7.88,7.88,0,0,1-2.83-6.21,8.64,8.64,0,0,1,.71-3.46,7.76,7.76,0,0,1,2.39-3.1c.18-.14.36-.26.54-.38a29.2,29.2,0,0,1,.37-4.68,12,12,0,0,1,1-3.16c-.08-.16-.15-.33-.22-.5a14.09,14.09,0,0,1-1-3.76,29.4,29.4,0,0,1-.2-3.58,7.81,7.81,0,0,1-1.83-1.62,8.18,8.18,0,0,1-1.81-5.31c0-4.76,3.51-8.09,8.55-8.09a12,12,0,0,1,5.69,1.36,10.78,10.78,0,0,1,4.31,4.16,11.39,11.39,0,0,1,1.55,5.74c0,2.4.09,3.79.12,4.59a9.65,9.65,0,0,1,2,1.83,8.47,8.47,0,0,1-2.06,12.23c0,.11,0,.24,0,.38,0,1.13-.07,2.54-.1,4.24a11.17,11.17,0,0,1-11.55,11.24Z"/><path class="cls-4" d="M408.81,108.35a6,6,0,0,1,2.87.66,4.83,4.83,0,0,1,1.95,1.88,5.52,5.52,0,0,1,.73,2.79q.11,5.83.25,6.41a4,4,0,0,0,.82,1.77,5.83,5.83,0,0,0,1.32,1.07,4.28,4.28,0,0,1,1.15.93,2.49,2.49,0,0,1-.62,3.32,9.05,9.05,0,0,0-1.79,1.33,3.21,3.21,0,0,0-.77,1.42,12.18,12.18,0,0,0-.26,2.56c0,1.13-.06,2.56-.1,4.27a5.34,5.34,0,0,1-1.55,3.89,5.49,5.49,0,0,1-4,1.47,2.92,2.92,0,0,1-1.89-.54,2,2,0,0,1-.66-1.59,2.64,2.64,0,0,1,.21-1.06,1.88,1.88,0,0,1,.55-.75,1.57,1.57,0,0,1,.78-.31,4.82,4.82,0,0,0,1.18-.27,1.06,1.06,0,0,0,.59-.6,3.71,3.71,0,0,0,.26-1.29c.05-.57.07-1.39.07-2.48a23.57,23.57,0,0,1,.28-3.8,5.79,5.79,0,0,1,.93-2.36,7.14,7.14,0,0,1,2-1.83,7.52,7.52,0,0,1-1.55-1.24,5.56,5.56,0,0,1-1-1.59,8.52,8.52,0,0,1-.55-2.2,26.06,26.06,0,0,1-.15-3c0-1.11,0-2-.07-2.56a3.41,3.41,0,0,0-.29-1.29,1.11,1.11,0,0,0-.58-.55,5,5,0,0,0-1.16-.24,1.66,1.66,0,0,1-1.09-.63,2.28,2.28,0,0,1-.45-1.5c0-1.39.85-2.09,2.55-2.09m0-12c-8.3,0-14.55,6.06-14.55,14.09a14.16,14.16,0,0,0,3.18,9.12c.18.22.37.44.56.64,0,.51.09,1,.15,1.49a21.48,21.48,0,0,0,.72,3.5,18.18,18.18,0,0,0-.5,2.12,27.86,27.86,0,0,0-.36,2.91,14,14,0,0,0-2.54,3.91,14.64,14.64,0,0,0-1.21,5.86,13.94,13.94,0,0,0,5,10.83,14.66,14.66,0,0,0,9.54,3.3A17.16,17.16,0,0,0,426.36,137c0-.69,0-1.32,0-1.91a14.28,14.28,0,0,0,3.88-9.87,13.92,13.92,0,0,0-3.13-9q-.36-.43-.75-.84c0-.54,0-1.16,0-1.88a17.41,17.41,0,0,0-2.36-8.64,16.93,16.93,0,0,0-6.68-6.43,17.94,17.94,0,0,0-8.51-2.07Z"/><path class="cls-4" d="M174.86,38.81A11.31,11.31,0,0,1,166,35.19,9.21,9.21,0,0,1,163.67,29a9.55,9.55,0,0,1,1.43-5.09,9.17,9.17,0,0,1-1.43-5,9.4,9.4,0,0,1,3.75-7.63,12,12,0,0,1,7.35-2.36h0a12.18,12.18,0,0,1,7.38,2.18A9.23,9.23,0,0,1,186,18.75a9.53,9.53,0,0,1-1.41,5.05,9.31,9.31,0,0,1,1.41,5,9.47,9.47,0,0,1-3.76,7.64A11.85,11.85,0,0,1,174.86,38.81Z"/><path class="cls-4" d="M174.86,14.94a6.25,6.25,0,0,1,3.76,1A3.26,3.26,0,0,1,180,18.75a3.49,3.49,0,0,1-1.44,2.89,5.9,5.9,0,0,1-3.74,1.12,5.5,5.5,0,0,1-4.34-1.62,3.19,3.19,0,0,1-.85-2.21,3.45,3.45,0,0,1,1.41-2.88,6.2,6.2,0,0,1,3.78-1.11m0,10a6.25,6.25,0,0,1,3.76,1A3.25,3.25,0,0,1,180,28.8a3.51,3.51,0,0,1-1.44,2.9,6,6,0,0,1-3.74,1.11,5.53,5.53,0,0,1-4.34-1.61,3.23,3.23,0,0,1-.85-2.22,3.44,3.44,0,0,1,1.41-2.87A6.2,6.2,0,0,1,174.86,25m0-22h-.18a18,18,0,0,0-10.91,3.6,15.56,15.56,0,0,0-5.27,17.37,15.89,15.89,0,0,0-.83,5.07,15.32,15.32,0,0,0,3.88,10.19,17.49,17.49,0,0,0,13.31,5.64A17.87,17.87,0,0,0,186,41.18a15.67,15.67,0,0,0,5.27-17.4,15.64,15.64,0,0,0,.82-5,15.29,15.29,0,0,0-6.35-12.48,18.17,18.17,0,0,0-10.83-3.33Z"/><text class="cls-5" transform="translate(86.62 204.61)">&lt;/&gt;</text></g><path class="cls-6" d="M199.55,53.4c6.26,6.77,9.55,18.9,7.35,28-11,2.2-22.47,2.62-33.64,4.35-7.45.73,1,1.82,3.39,2a46.65,46.65,0,0,0,16.09-1.49c2,6,5.39,11.93,7.4,17.9-26.94,12.3-64.49-2.78-51.39-41.23,6.57-18.6,34.23-24.56,50.79-9.58ZM186.68,66.74c-1.1-5.49-19.23-4.51-19.55,2.3Z"/><path class="cls-7" d="M237.37,170.32l-20.9,0c-.05-10.93,1.42-34.7-7.78-33.54-6.5.82-3.23,23.47-2.9,33.54l-21.87,0v0c-.13-2.89-.82-21.83-2-26.57-1.1-4.45-3-7.39-6.42-7-6.51.82-3.24,23.47-2.92,33.54l-21.86,0c-.64-14-3.06-35.65-4-53.07l23.78-1.5v1.82a24.28,24.28,0,0,1,24.11,5.33l0,0a36.47,36.47,0,0,1,8-4.76,24.46,24.46,0,0,1,14.72-.7C240.06,123.17,237.29,149.6,237.37,170.32Z"/><path class="cls-8" d="M275.23,153.65,247,156.44c-1.52-18.54-6.58-34.07-7.59-52.53l28.16-2.82C268.62,118.82,273.69,135.47,275.23,153.65ZM238.64,92.87c-.73-6.86-1.37-13.38-1.59-20.27L263.14,70c.2,4,.44,11.09.86,14.92l.75,5.35Z"/><path class="cls-2" d="M377.5,132.56l-18.18,25.49L331,138l-25.42,20.9-21-23.38c7.71-5.18,16.72-11.12,23.49-17.45-7.38-5.5-16.29-11.31-24-16.41l19.7-23.41c8.76,6.84,18,14,27,20.43,9.11-5.91,18-13.24,26.26-20.32l19.52,22.09c-7.19,5.54-15.37,11.83-22.56,17.3.36.25.71.51,1.07.75C361.77,123.35,370.3,128.3,377.5,132.56Z"/><path class="cls-9" d="M82,50.8c31.56-4.88,49.55,7.61,53.24,31.44,2.76,17.82-6.48,31.15-21.09,35.4,13,.57,21.45,6.6,25,20.53l.6,2.57.55,2.41.5,2.25.37,1.7.42,2,.24,1.15.36,1.82.34,1.72.18,1,.29,1.59.32,1.82.15.88.42,2.55.43,2.67.24,1.59-32.55,5-.1-.67h0l-.19-1.29h0l-.17-1.26-.42-3.06-.14-1-.24-1.6h0l-.16-1-.17-1.07-.15-.84-.21-1.18-.23-1.24-.26-1.32-.28-1.41-.16-.74-.24-1.15-.27-1.21-.39-1.71-.31-1.35c-.09-.42-.19-.83-.29-1.23l-.21-.78c-2.52-9.2-6.86-12.45-13.47-12.73l-.55,0H92.28l-.58,0h-.3l-.61,0h0l-.61,0h0l-.63.07h0l-.63.07-.64.08-.65.1h0l-51.52,8-3.93-25.38,52.74-8.16c.87-.14,1.7-.28,2.5-.44l.8-.16h0l.77-.18h0l.76-.18.37-.09.72-.19c.48-.13.94-.27,1.39-.42l.67-.22c8.32-2.86,11.9-8,10.54-16.84C101.91,79.29,94,74.38,80.07,76.54L27.33,84.7,23.48,59.87ZM73.83,157.46c4.27-.66,6.42,1.42,7.41,3.57l.13.31h0l.12.31.09.25,0,.12.08.25.06.24,0,.11,0,.23,0,.12,0,.22,1.88,12.11-41.42,6.41-2.92-18.92Z"/><path class="cls-9" d="M222.25,33.13l-6.64,15.92L211,47.11l6.65-15.92ZM216.8,58a17.37,17.37,0,0,0,4.91-2,14.21,14.21,0,0,0,3.54-3A18.05,18.05,0,0,0,227.59,49l5-12.09,4.65,1.94L232.2,51.06a17.57,17.57,0,0,1-3.14,5,15.57,15.57,0,0,1-4.53,3.45,18.1,18.1,0,0,1-5.93,1.7,29.56,29.56,0,0,1-5.32.12l-1.17-2.79A29.47,29.47,0,0,0,216.8,58Z"/><path class="cls-8" d="M253.83,46.3q5.29,1.34,10.47,3.17,6.38,2.27,12.6,4.93l-2.52,4.71q-5.72-2.69-11.55-5c-3.55-1.46-7.16-2.75-10.8-3.88Zm2.84-18.43q5.76,1.15,11.41,2.77,4.76,1.34,9.4,3.06l-2,4.79q-5.19-2.24-10.55-4-4.86-1.59-9.83-2.78Zm.69,9.54a117.48,117.48,0,0,1,17.49,5.33l-2,4.6a116.56,116.56,0,0,0-17-6.15Z"/><path class="cls-10" d="M311.38,15.72a41.61,41.61,0,0,1,0,8.2l-4.26-.13a34.35,34.35,0,0,0,.06-8.17Zm-1.22,16.67a16.69,16.69,0,0,0,5.2-2A22.21,22.21,0,0,0,320,26.54a56.64,56.64,0,0,0,4.49-5.66l3.83,2.7a37.4,37.4,0,0,1-4.53,5.65,25.65,25.65,0,0,1-5.52,4.2,18.11,18.11,0,0,1-6.44,2.12,21,21,0,0,1-5.48-.13l-.72-2.66A22.64,22.64,0,0,0,310.16,32.39Zm8-15.15a40.08,40.08,0,0,1-.26,8.2l-4.32-.16A35.53,35.53,0,0,0,314,17Z"/><path class="cls-6" d="M292.94,51.36a57.54,57.54,0,0,0,4.79-9.26l4.64,1.62a42.41,42.41,0,0,1-1.8,4.14h13.86v3.75a33.75,33.75,0,0,1-1.62,7,26.52,26.52,0,0,1-1.8,3.81,25.38,25.38,0,0,1-2.34,3.17,25,25,0,0,1-2.81,2.63,29.65,29.65,0,0,1-3.27,2.09,39.71,39.71,0,0,1-7.81,3l-2.06-2.06a31.17,31.17,0,0,0,5.44-2.59,26.33,26.33,0,0,0,5.65-4.82,24.32,24.32,0,0,0,3.71-5.76,22.16,22.16,0,0,0,1.76-6.27H297.87a32.14,32.14,0,0,1-4.28,5.23,22,22,0,0,1-4.75,3.42l-2-1.66A38.45,38.45,0,0,0,292.94,51.36Z"/><path class="cls-2" d="M341.66,59.5a57.21,57.21,0,0,0,2.39-7.27c.39-1.84.68-3.69.89-5.55l-15.37,5.23-1.28-3.75,20.58-7,1.19,3.59a26.57,26.57,0,0,1-.46,5.14,50.06,50.06,0,0,1-1.47,5.4c-.16.57-.33,1.12-.5,1.66a52.84,52.84,0,0,0,6.15,3.42q4.07,1.92,8.27,3.54l-1.33,2.46a42.61,42.61,0,0,1-8.14-1.9,31.22,31.22,0,0,1-6.74-3.18,43.42,43.42,0,0,1-4.2,7.43,31.86,31.86,0,0,1-5.26,5.56L334.08,73A72.68,72.68,0,0,0,341.66,59.5Z"/><path class="cls-8" d="M259.75,179.82l.18,5.33-12.05.41c-.47-5.74-1.79-11.21-1.79-17.05l6-.58a93.53,93.53,0,0,0,1.1,12.41Z"/><path class="cls-8" d="M271,173.73a7.05,7.05,0,0,1,1.72,7,6.77,6.77,0,0,1-5.59,4.55,6.5,6.5,0,0,1-6.3-3.41,8.49,8.49,0,0,1-.15-6.74,6.14,6.14,0,0,1,4.68-3.37,6.82,6.82,0,0,1,4.73,1.17A7.41,7.41,0,0,1,271,173.73Zm-3.58,3.89c-.76-.56-2.21-.35-2.39.72a1.83,1.83,0,0,0,.7,1.79,1.52,1.52,0,0,0,1.75,0,.64.64,0,0,0,.15-.13A1.54,1.54,0,0,0,267.45,177.62Z"/><path class="cls-8" d="M286.66,184.4l-5.53.51-.07-.52c-3.19,1-6.14,0-7.08-2a4.47,4.47,0,0,1,.21-3.71c.73-1.71,3.64-3.08,6.52-2.79,0-.09-.06-.38-.06-.47a7.16,7.16,0,0,0-2.31.08,7,7,0,0,0-2.24.85l-1.29-4.06a19.18,19.18,0,0,1,4.94-.94c1.8-.1,3.88-.24,5.3,1.07.42.39,1.47,1.14,1.51,4.54C286.6,179.45,286.63,181.93,286.66,184.4Zm-6-3-.08-2.35s-2.45-.4-2.39,1.42C278.25,182,280.67,181.37,280.67,181.37Z"/><path class="cls-8" d="M292.15,171.28a8.46,8.46,0,0,1,3.08-.44c0-1.46,0-2.93-.09-4.33l5.17-.22c-.28,5.39-.2,12.27-.3,17.79,0,0-6.79.87-9.2-.42C285.8,181,286.79,173,292.15,171.28Zm.17,7.7c.71,1.09,1.42.91,2.78.89l0-4.23A2.35,2.35,0,0,0,292.32,179Z"/><path class="cls-8" d="M314.23,177.91c-2.31.54-4.75.71-7.1,1.15-1.58.21.22.39.73.41a10.22,10.22,0,0,0,3.4-.43c.47,1.25,1.23,2.49,1.7,3.74-5.63,2.8-13.69-.13-11.19-8.37,1.26-4,7.08-5.45,10.7-2.4A7.15,7.15,0,0,1,314.23,177.91Zm-4.4-3c-.27-1.15-4.1-.82-4.12.63Z"/><path class="cls-8" d="M326.32,170.73c-.89,1.44-1.44,2.88-2.33,4.32a2.15,2.15,0,0,0-2.57.42s.72,5,.94,7.51l-6,.55c-.39-4.83-1.45-9.21-1.5-13.38,2-.17,4-.38,6-.46,0,.08,0,.15,0,.22A5.3,5.3,0,0,1,326.32,170.73Z"/><path class="cls-8" d="M328.26,183.12c-.19-2.54-1.77-16.72-1.77-16.72s.45-.28,4.33-.85a65,65,0,0,1,10-.41l.21,5.37a35.89,35.89,0,0,0-8,.33c0,.14,0,.91.06,1.16a32.18,32.18,0,0,1,6.64-.6l.14,4.6a26.6,26.6,0,0,0-6.11.58c0,.32.54,6.34.54,6.34Z"/><path class="cls-8" d="M349,182.55c-7.08.3-7.41-6.84-7.34-13.17l5.64,0s-.57,8.37,2,8.18c1.36-.11.45-7.76.45-7.76l6.1-.45C357.33,181.71,353.42,182.37,349,182.55Z"/><path class="cls-8" d="M372,181.66l-5.27.17c-.1-2.77.06-8.8-2.24-8.43-1.63.26-.62,6-.45,8.52l-5.51.19c-.28-3.54-1.08-9-1.45-13.4l6-.58,0,.46a7.48,7.48,0,0,1,3.42-.15C372.26,169.7,371.78,176.42,372,181.66Z"/><path class="cls-8" d="M385.22,175.47l.07,4.83c-16.41,6.09-17.56-17.64-.12-11.48l-1.45,4.57c-1.55-.49-4-1.15-5.36-.11C375.86,177.31,383,176.52,385.22,175.47Z"/><path class="cls-8" d="M396,176.5l.22,4.32c-8.06.64-9-2.81-9-8.89L386,172l-.14-4.15,1.32-.12-.23-4.37,5.39.09.05,4.13,2.55-.05s.08,2.58.12,4.15l-2.75.09C392.5,175.5,392,176.33,396,176.5Z"/><path class="cls-8" d="M403.6,180.75l-6,.19c-.06-3.94-.91-7.3-.87-11.22l6-.2C402.69,173.29,403.53,176.88,403.6,180.75Zm-6.89-13.37c-.06-1.47-.1-2.86,0-4.32l5.56-.18c0,.84-.07,2.35,0,3.17l.08,1.14Z"/><path class="cls-8" d="M415.17,168.87a7.07,7.07,0,0,1,1.72,7,6.75,6.75,0,0,1-5.59,4.54A6.49,6.49,0,0,1,405,177a8.51,8.51,0,0,1-.15-6.73,6.14,6.14,0,0,1,4.68-3.37,6.75,6.75,0,0,1,4.73,1.17A7.43,7.43,0,0,1,415.17,168.87Zm-3.58,3.9c-.77-.57-2.21-.36-2.39.72a1.85,1.85,0,0,0,.69,1.79,1.57,1.57,0,0,0,1.76,0l.15-.13A1.54,1.54,0,0,0,411.59,172.77Z"/><path class="cls-8" d="M432.66,179.62l-5.26.17c-.11-2.77.06-8.8-2.25-8.43-1.63.26-.61,6-.44,8.52l-5.51.19c-.28-3.54-1.08-9-1.46-13.41l6-.58v.46a7.52,7.52,0,0,1,3.43-.14C432.94,167.66,432.47,174.37,432.66,179.62Z"/><path class="cls-2" d="M57.06,16.64l8.57-.1A106.94,106.94,0,0,0,67.8,41.47l-8.42.88A111.31,111.31,0,0,1,57,18.26Z"/><path class="cls-2" d="M83.44,24.22a10,10,0,0,1,2.83,9.86,9.57,9.57,0,0,1-7.65,6.75,9.2,9.2,0,0,1-9.12-4.47,12.06,12.06,0,0,1-.59-9.53,8.68,8.68,0,0,1,6.43-5,9.55,9.55,0,0,1,6.76,1.4A10.08,10.08,0,0,1,83.44,24.22ZM78.6,29.93c-1.12-.75-3.15-.37-3.35,1.16a2.62,2.62,0,0,0,1.09,2.5,2.19,2.19,0,0,0,2.48-.17,1.19,1.19,0,0,0,.2-.19A2.18,2.18,0,0,0,78.6,29.93Z"/><path class="cls-2" d="M106.16,38.45l-7.8,1-.13-.73c-4.46,1.61-8.69.3-10.13-2.41-1.22-2.27-.09-4.86.09-5.26.94-2.45,5-4.56,9.07-4.31,0-.13-.1-.54-.11-.67a10.09,10.09,0,0,0-6.39,1.58L88.7,22a27.29,27.29,0,0,1,7-1.62c2.54-.24,5.48-.55,7.56,1.23.61.51,2.14,1.52,2.39,6.33C105.79,31.45,106,35,106.16,38.45Zm-8.65-4-.24-3.31s-3.5-.43-3.31,2.14C94.12,35.5,97.51,34.49,97.51,34.49Z"/><path class="cls-2" d="M113.18,19.58a12.15,12.15,0,0,1,4.34-.81c0-2.07-.21-4.14-.37-6.12l7.31-.6c-.1,7.64.4,17.37.57,25.18,0,0-9.55,1.62-13-.07C104.74,33.67,105.7,22.36,113.18,19.58Zm.69,10.87c1.06,1.5,2,1.21,4,1.11l-.29-6C114.81,25.13,112.31,27.69,113.87,30.45Z"/><path class="cls-2" d="M144.8,27.7c-3.23.9-6.67,1.28-10,2-2.21.39.34.53,1.06.53a14,14,0,0,0,4.79-.8c.73,1.74,1.88,3.45,2.61,5.2-7.8,4.28-19.38.59-16.3-11.22,1.56-5.71,9.71-8.11,15-4A10,10,0,0,1,144.8,27.7Zm-6.38-4c-.45-1.62-5.86-.93-5.8,1.12Z"/><path class="cls-2" d="M161.51,16.86c-1.17,2.1-1.87,4.16-3,6.26a3,3,0,0,0-3.62.73s1.3,7,1.76,10.57l-8.45,1.12c-.83-6.82-2.57-12.95-2.88-18.85,2.82-.36,5.68-.76,8.51-1l0,.31C156.89,14.93,159,15.13,161.51,16.86Z"/><path class="cls-9" d="M385.78,125.29a7.09,7.09,0,0,1,2,1.73,5.87,5.87,0,0,1,1,2.45,20.74,20.74,0,0,1,.29,3.8c0,1.16,0,2,.07,2.57a3.47,3.47,0,0,0,.32,1.26,1.22,1.22,0,0,0,.57.56,5.93,5.93,0,0,0,1.14.25,1.65,1.65,0,0,1,1.11.65,2.31,2.31,0,0,1,.44,1.48q0,2.13-2.58,2.13a6,6,0,0,1-2.86-.67,4.77,4.77,0,0,1-1.94-1.89,5.7,5.7,0,0,1-.7-2.8c0-1.78-.07-3.21-.11-4.29a13.75,13.75,0,0,0-.16-2.09,3.93,3.93,0,0,0-.78-1.78,6.19,6.19,0,0,0-1.35-1.12,4.8,4.8,0,0,1-1.19-.93,2,2,0,0,1-.35-1.31,2.17,2.17,0,0,1,1-2,10.36,10.36,0,0,0,1.8-1.34,3.13,3.13,0,0,0,.76-1.43,9.19,9.19,0,0,0,.25-1.9c0-.68.06-2.33.11-4.94a5.33,5.33,0,0,1,1.53-3.88,5.44,5.44,0,0,1,4-1.45c1.72,0,2.58.7,2.58,2.09a2.37,2.37,0,0,1-.43,1.5,1.66,1.66,0,0,1-1.12.63,3.42,3.42,0,0,0-1.42.42,1.58,1.58,0,0,0-.53,1.09,28.5,28.5,0,0,0-.15,3.13,27,27,0,0,1-.28,3.72,6.18,6.18,0,0,1-.93,2.47A6.57,6.57,0,0,1,385.78,125.29Z"/><path class="cls-9" d="M413.13,125.29a7.54,7.54,0,0,1-1.55-1.25,5.5,5.5,0,0,1-1-1.58,8.52,8.52,0,0,1-.55-2.2,26.06,26.06,0,0,1-.15-3c0-1.11,0-2-.07-2.56a3.41,3.41,0,0,0-.29-1.29,1.11,1.11,0,0,0-.58-.55,5,5,0,0,0-1.16-.24,1.66,1.66,0,0,1-1.09-.63,2.31,2.31,0,0,1-.45-1.5c0-1.39.85-2.09,2.55-2.09a6,6,0,0,1,2.87.66,4.83,4.83,0,0,1,1.95,1.88,5.47,5.47,0,0,1,.73,2.79q.11,5.83.25,6.41a4,4,0,0,0,.82,1.77,6.11,6.11,0,0,0,1.32,1.07,4.47,4.47,0,0,1,1.15.92,2.17,2.17,0,0,1,.38,1.39,2.11,2.11,0,0,1-1,1.94,9.5,9.5,0,0,0-1.79,1.32,3.25,3.25,0,0,0-.77,1.43,12.18,12.18,0,0,0-.26,2.56c0,1.13-.06,2.56-.1,4.27a5.36,5.36,0,0,1-1.55,3.89,5.49,5.49,0,0,1-4,1.47,2.86,2.86,0,0,1-1.89-.55,1.93,1.93,0,0,1-.66-1.58,2.61,2.61,0,0,1,.21-1.06,1.88,1.88,0,0,1,.55-.75,1.58,1.58,0,0,1,.78-.32,4.9,4.9,0,0,0,1.18-.26,1.09,1.09,0,0,0,.59-.6,3.71,3.71,0,0,0,.26-1.29c.05-.57.07-1.4.07-2.49a23.53,23.53,0,0,1,.28-3.79,5.79,5.79,0,0,1,.93-2.36A7,7,0,0,1,413.13,125.29Z"/><path class="cls-6" d="M174.86,15a6.25,6.25,0,0,1,3.76,1A3.26,3.26,0,0,1,180,18.8a3.49,3.49,0,0,1-1.44,2.89,6,6,0,0,1-3.74,1.12,5.5,5.5,0,0,1-4.34-1.62,3.2,3.2,0,0,1-.85-2.22,3.44,3.44,0,0,1,1.41-2.87A6.26,6.26,0,0,1,174.86,15Zm0,10.06a6.18,6.18,0,0,1,3.76,1A3.25,3.25,0,0,1,180,28.85a3.48,3.48,0,0,1-1.44,2.89,5.9,5.9,0,0,1-3.74,1.12,5.5,5.5,0,0,1-4.34-1.62,3.19,3.19,0,0,1-.85-2.21,3.46,3.46,0,0,1,1.41-2.88A6.2,6.2,0,0,1,174.86,25Z"/><text class="cls-11" transform="translate(86.62 204.66)">&lt;/&gt;</text><path class="cls-4" d="M70.1,145C69.42,145,97.16,143,97.16,143l7.66,32.35s-10.38-3.23-12.59,1.19C92.23,176.52,89.33,146.91,70.1,145Z"/><path class="cls-4" d="M125,47.29c1.75.21,13.39,14.11,13.39,14.11L149,46.25Z"/><path class="cls-4" d="M23.48,94.23s2.87,11.66,2.19,14.63L96.06,95.67s-6-10-6-10.21S23.48,94.23,23.48,94.23Z"/></g></g></svg>