<svg xmlns="http://www.w3.org/2000/svg" viewBox="0 0 452.66 237.48"><defs><style>.cls-1,.cls-3{fill:#ef3e55;}.cls-10,.cls-2{fill:#ef3c55;}.cls-10,.cls-3,.cls-5{font-size:36px;font-family:Ebrima-Bold, Ebrima;font-weight:700;}.cls-3{stroke:#ef3c55;stroke-width:20px;}.cls-3,.cls-5{stroke-linecap:round;stroke-linejoin:round;}.cls-4,.cls-5{fill:#fff;}.cls-5{stroke:#fff;stroke-width:16px;}.cls-6{fill:#7dc242;}.cls-7{fill:#dccd40;}.cls-8{fill:#f282b4;}.cls-9{fill:#4190cd;}</style></defs><g id="Layer_2" data-name="Layer 2"><g id="Layer_1-2" data-name="Layer 1"><g id="backshadow"><path class="cls-1" d="M177.26,129.73c-15.67,0-29.72-6.56-37.6-17.56-5.52-7.71-10.67-21.1-3.86-41.08a.49.49,0,0,1,0-.11c5.22-14.78,20.43-24.71,37.85-24.71a43.19,43.19,0,0,1,28.78,10.78,9.78,9.78,0,0,1,.93.89c8.59,9.28,12.69,24.91,9.74,37.17a10,10,0,0,1-7.76,7.47c-1,.2-2,.39-3,.56,1.33,3,2.69,6,3.77,9.21a10,10,0,0,1-5.33,12.29,57.08,57.08,0,0,1-23.54,5.09Zm-7.54-22.53Z"/><path class="cls-2" d="M173.68,56.27a33.17,33.17,0,0,1,22.37,8.46h0c6.27,6.77,9.56,18.9,7.36,28-11,2.2-22.47,2.62-33.64,4.35-7.45.73,1,1.82,3.38,2a35.09,35.09,0,0,0,3.62.18,47.24,47.24,0,0,0,12.47-1.67c2,6,5.4,11.93,7.41,17.9a47,47,0,0,1-19.4,4.19c-22,0-42.1-15.75-32-45.42,4-11.39,16-18,28.41-18m-10,24.1,19.54-2.3c-.47-2.38-4.15-3.54-8.19-3.54-5.27,0-11.17,2-11.35,5.84m10-44.1c-21.64,0-40.63,12.61-47.27,31.38l-.08.21c-6.38,18.73-4.53,36.53,5.2,50.12s26.85,21.75,45.73,21.75a67.12,67.12,0,0,0,27.71-6,20,20,0,0,0,10.64-24.57c0-.14-.09-.28-.14-.42a20,20,0,0,0,7.4-11.3c3.72-15.51-1.26-34.55-12.12-46.29A19.89,19.89,0,0,0,209,49.47a53.18,53.18,0,0,0-35.31-13.2Z"/><path class="cls-1" d="M213,191.62a10,10,0,0,1-5.33-1.55,10,10,0,0,1-5.34,1.55H180.44a10,10,0,0,1-5.68-1.77,10.07,10.07,0,0,1-5.66,1.76H147.23a10,10,0,0,1-10-9.54c-.31-6.78-1.06-15.49-1.85-24.72-.81-9.52-1.66-19.36-2.13-28.29a10,10,0,0,1,9.36-10.5l23.78-1.5.62,0a10,10,0,0,1,3.95.81c1.2-.12,2.41-.19,3.63-.19a34.25,34.25,0,0,1,16.81,4.43,39.16,39.16,0,0,1,3.84-1.87A32,32,0,0,1,207.41,118a35.54,35.54,0,0,1,8.94,1.12c12.66,3.22,21,11.56,24.88,24.81,2.89,10,2.78,21.42,2.69,31.51,0,2.11,0,4.18,0,6.2a10,10,0,0,1-10,10ZM168.2,155.86Z"/><path class="cls-2" d="M167,127.06v1.83a24.36,24.36,0,0,1,7.58-1.21,24.06,24.06,0,0,1,4.88.5,24.49,24.49,0,0,1,11.66,6l0,0a37,37,0,0,1,7.94-4.76,21.92,21.92,0,0,1,8.31-1.5,25,25,0,0,1,6.42.8c22.75,5.73,20,32.16,20.06,52.88l-20.9,0c-.05-10.68,1.34-33.59-7.14-33.59-.21,0-.42,0-.64,0-6.51.82-3.23,23.47-2.9,33.55H180.44c-.13-2.9-.83-21.83-2-26.58-1-4.16-2.79-7-5.79-7-.2,0-.42,0-.63,0-6.51.82-3.25,23.47-2.92,33.55H147.23c-.64-14-3.06-35.65-4-53.07l23.77-1.5m0-20c-.41,0-.83,0-1.25,0L142,108.6a20,20,0,0,0-18.71,21c.47,9.09,1.33,19,2.15,28.62.78,9.12,1.52,17.74,1.82,24.31a20,20,0,0,0,20,19.09h21.88a20.07,20.07,0,0,0,5.63-.82,19.85,19.85,0,0,0,5.7.83h21.88a19.8,19.8,0,0,0,5.32-.73,20.27,20.27,0,0,0,5.32.73l20.89,0h0a20,20,0,0,0,20-20.08c0-1.93,0-3.94,0-6.06.1-10.79.22-23-3.09-34.4-6.09-21-20.71-28.82-32-31.69A45.32,45.32,0,0,0,207.41,108a42.11,42.11,0,0,0-16,3h0a44,44,0,0,0-7.88-2.42,44.58,44.58,0,0,0-8.93-.91c-.8,0-1.6,0-2.39.07a20,20,0,0,0-5.19-.69Z"/><path class="cls-1" d="M243.5,177.77a10,10,0,0,1-10-9.18A230,230,0,0,0,230,144.76c-1.7-9.13-3.46-18.57-4-29a10,10,0,0,1,1.29-5.5,10,10,0,0,1-2-5c-.73-6.92-1.41-13.73-1.64-21a10,10,0,0,1,9-10.26l26.09-2.62c.33,0,.66-.05,1-.05a10,10,0,0,1,10,9.5c.05,1,.1,2.08.15,3.3.16,3.49.37,8.25.65,10.89l.73,5.19a10,10,0,0,1-.47,4.73,10,10,0,0,1,3.35,6.89c.53,8.68,2.09,17.16,3.75,26.14,1.54,8.38,3.14,17,3.91,26.18a10,10,0,0,1-9,10.79l-28.25,2.79C244.15,177.75,243.82,177.77,243.5,177.77Z"/><path class="cls-2" d="M259.65,81.32c.21,4,.45,11.09.87,14.92l.75,5.35-26.12,2.61c-.72-6.86-1.37-13.38-1.59-20.26l26.09-2.62m4.42,31.1c1.07,17.73,6.14,34.38,7.68,52.56l-28.25,2.79c-1.53-18.54-6.58-34.07-7.6-52.53l28.17-2.82m-4.42-51.1c-.66,0-1.32,0-2,.1L231.57,64a20,20,0,0,0-18,20.53c.25,7.62.94,14.63,1.69,21.74a20.29,20.29,0,0,0,1.09,4.72,19.87,19.87,0,0,0-.42,5.31c.61,11,2.43,20.81,4.19,30.25a223,223,0,0,1,3.44,22.82,20,20,0,0,0,19.94,18.36,18.38,18.38,0,0,0,2-.1l28.25-2.79a20,20,0,0,0,18-21.58,272.51,272.51,0,0,0-4-27.15c-1.6-8.67-3.11-16.86-3.6-24.93a19.85,19.85,0,0,0-2.77-9,20.28,20.28,0,0,0-.18-3.39l-.71-5c-.24-2.36-.44-6.81-.58-10.1-.06-1.25-.11-2.41-.16-3.38a20,20,0,0,0-20-19Z"/><path class="cls-1" d="M302.11,180.23a10,10,0,0,1-7.44-3.31l-21-23.38a10,10,0,0,1,1.86-15l1.27-.85c3.64-2.45,7.53-5,11.23-7.75-4-2.68-8-5.34-11.79-7.82l-1.17-.78a10,10,0,0,1-2.17-14.79l19.7-23.42a10,10,0,0,1,7.66-3.56,9.92,9.92,0,0,1,6.15,2.12c6.45,5,13.78,10.71,21,16.07,6.73-4.83,13.33-10.33,19.57-15.68a10,10,0,0,1,14,1l19.52,22.1a10,10,0,0,1-1.4,14.54l-11.4,8.77c3.19,2,6.45,3.88,9.52,5.69l1.88,1.11a10,10,0,0,1,3.05,14.42L364,175.18a10,10,0,0,1-13.92,2.36L328,161.9l-19.52,16A10,10,0,0,1,302.11,180.23Z"/><path class="cls-2" d="M300.23,89.58c8.76,6.84,18,14,27,20.43,9.1-5.91,18-13.24,26.25-20.32L373,111.79c-7.19,5.53-15.36,11.82-22.55,17.29.36.25.71.51,1.07.75,6.76,4.86,15.29,9.81,22.49,14.06l-18.18,25.49-28.32-20-25.41,20.9-21-23.38c7.7-5.18,16.71-11.12,23.48-17.45-7.38-5.5-16.28-11.31-24-16.4l19.7-23.42m0-20a20,20,0,0,0-15.32,7.13l-19.7,23.41a20,20,0,0,0,4.33,29.59l.59.39-.22.15a20,20,0,0,0-3.71,30l21,23.38a20,20,0,0,0,27.57,2.08l13.62-11.2,15.85,11.22A20,20,0,0,0,372.12,181L390.3,155.5a20,20,0,0,0-4.87-28A20,20,0,0,0,388,98.54L368.48,76.45a20,20,0,0,0-28-2c-4.22,3.62-8.62,7.31-13.07,10.78-5.17-3.9-10.24-7.85-14.87-11.46a19.93,19.93,0,0,0-12.3-4.24Z"/><path class="cls-1" d="M38.85,203A10,10,0,0,1,29,194.57l-2.93-18.92a10,10,0,0,1,8.35-11.41l34.42-5.33a20.27,20.27,0,0,1,3.08-.24,16,16,0,0,1,14.95,9.54l.22.5c.06.13.11.26.16.4l.12.31.21.59.18.56s.12.42.14.51l.14.57c0,.08.16.74.16.74s.1.55.1.6l1.88,12.11a10,10,0,0,1-8.36,11.41l-41.41,6.41A10.08,10.08,0,0,1,38.85,203Zm69.71-10.79a10,10,0,0,1-9.89-8.5l-.3-2-.74-5.39-.22-1.54-.15-.94-.3-1.78-.19-1.1-.22-1.16-.25-1.25-.41-2-.49-2.26L95,162.66l-.3-1.3c-.09-.38-.17-.71-.25-1l-.18-.69c-1.41-5.12-2.45-5.22-4.17-5.3h-1l-.63,0-.41,0-.45,0-.48,0-.48.06-.51.06-.53.08-51.46,8a10.21,10.21,0,0,1-1.55.12,10,10,0,0,1-9.87-8.47l-3.93-25.38a10,10,0,0,1,8.36-11.41l52.74-8.16c.72-.12,1.42-.24,2.09-.37l.65-.13.62-.14.86-.21.6-.16,1-.29.51-.17c4.35-1.5,4.39-2.46,3.86-5.84-.32-2.08-.72-4.66-7.39-4.66a30.76,30.76,0,0,0-4.56.38l-52.75,8.17a11.25,11.25,0,0,1-1.53.11A10,10,0,0,1,14,97.56L10.12,72.73a10,10,0,0,1,8.35-11.41L77,52.25a94.73,94.73,0,0,1,14.34-1.16c28,0,46.29,14.92,50.32,41,2.07,13.35-1.31,25.5-8.84,34.29,6,4.74,10.25,11.68,12.55,20.71,0,.06.65,2.76.65,2.76l.56,2.46.51,2.3.38,1.75.43,2.06.25,1.19.37,1.88.35,1.78.2,1,.3,1.64.33,1.89.16.93.43,2.61.68,4.35a10,10,0,0,1-8.35,11.41l-32.55,5A9.86,9.86,0,0,1,108.56,192.25Z"/><path class="cls-2" d="M91.36,61.09c23.65,0,37.28,12.08,40.44,32.48,2.76,17.82-6.48,31.15-21.09,35.4,13,.57,21.44,6.6,25,20.53l.6,2.57.55,2.41.5,2.25.36,1.7.43,2,.23,1.15.37,1.82.33,1.72.19,1,.29,1.58.32,1.82.15.88.42,2.55.42,2.67.25,1.59-32.55,5-.1-.66-.19-1.3L108.1,179l-.42-3.05-.14-1-.24-1.6-.16-1-.18-1.08-.14-.84-.21-1.17-.23-1.25-.26-1.32-.29-1.41-.15-.74-.25-1.15-.26-1.21-.39-1.71-.31-1.35q-.15-.63-.3-1.23l-.2-.78c-2.53-9.2-6.86-12.45-13.47-12.73l-.56,0H88.8l-.59,0h-.29l-.61,0-.61.05-.63.07-.63.07-.64.08-.65.1-51.52,8L28.7,127.38l52.74-8.16c.86-.14,1.7-.28,2.5-.44l.79-.16.78-.17.75-.18.37-.1.73-.19c.48-.13.94-.27,1.39-.41l.67-.23c8.32-2.86,11.9-8,10.54-16.84-1.29-8.34-7.12-13.13-17.28-13.13a39.59,39.59,0,0,0-6.09.5L23.84,96,20,71.2l58.55-9.06a83.31,83.31,0,0,1,12.81-1M71.89,168.67a6.07,6.07,0,0,1,5.87,3.7l.13.31L78,173l.08.24,0,.13.07.24.06.24,0,.11,0,.24,0,.11,0,.22,1.87,12.11L38.86,193l-2.93-18.92,34.42-5.33a10.7,10.7,0,0,1,1.54-.12M91.36,41.09v0a104.47,104.47,0,0,0-15.87,1.28L16.94,51.44A20,20,0,0,0,.24,74.26L4.08,99.09a20,20,0,0,0,8,13.08,19,19,0,0,0,2.2,1.4,18.82,18.82,0,0,0-1.67,2,20,20,0,0,0-3.63,14.87l3.93,25.38A19.93,19.93,0,0,0,17.65,166a20,20,0,0,0-1.48,11.16L19.1,196.1A20,20,0,0,0,38.84,213a20.24,20.24,0,0,0,3.08-.23l41.41-6.42a20,20,0,0,0,13.08-7.95l.14-.19.18.13a20,20,0,0,0,11.83,3.87,21,21,0,0,0,3.06-.23l32.55-5a20,20,0,0,0,16.7-22.83l-.24-1.6v-.05l-.42-2.67a.51.51,0,0,1,0-.13l-.42-2.55,0-.12-.15-.88,0-.1-.32-1.82,0-.13-.29-1.59,0-.1-.18-1,0-.1-.34-1.73s0-.08,0-.12l-.37-1.83,0-.09-.23-1.15,0-.1-.43-2,0-.11-.37-1.7,0-.1-.5-2.25,0-.1-.55-2.41,0-.1-.6-2.57c0-.13-.07-.26-.1-.39a50.94,50.94,0,0,0-9.28-19.42c5.72-10.11,7.71-22,5.76-34.64-2.33-15.09-9.1-27.63-19.57-36.26S107.73,41.09,91.36,41.09Z"/><path class="cls-1" d="M211.77,82.74c-.87,0-1.75,0-2.62-.09a10,10,0,0,1-8.57-6.1l-1.17-2.79a10,10,0,0,1,.5-8.78,10,10,0,0,1-1.67-10.4l6.65-15.91a10,10,0,0,1,9.23-6.15,9.89,9.89,0,0,1,3.85.78l4.65,1.94a9.86,9.86,0,0,1,4.2,3.3,9.73,9.73,0,0,1,2.34-.28A10.06,10.06,0,0,1,233,39L237.66,41A10,10,0,0,1,243,54.05L238,66.24A28,28,0,0,1,233,74.06a25.86,25.86,0,0,1-7.46,5.71l-.21.11a28.53,28.53,0,0,1-9.16,2.61A41.15,41.15,0,0,1,211.77,82.74Z"/><path class="cls-2" d="M214.11,42.52l4.66,1.95-6.65,15.91-4.65-1.94,6.64-15.92m15,5.74,4.65,1.94-5.09,12.19a17.8,17.8,0,0,1-3.14,5,15.6,15.6,0,0,1-4.53,3.46,18.33,18.33,0,0,1-5.93,1.69,28.94,28.94,0,0,1-3.35.19c-.66,0-1.31,0-2-.07l-1.18-2.79a28.23,28.23,0,0,0,4.69-.58,17.29,17.29,0,0,0,4.92-2,14.2,14.2,0,0,0,3.53-3,18.09,18.09,0,0,0,2.35-3.94l5-12.09m-15-25.74a20,20,0,0,0-18.46,12.3L189,50.73A20,20,0,0,0,189,66l0,0a20,20,0,0,0,1.2,11.56l1.17,2.79a20,20,0,0,0,17.14,12.2c1.09.07,2.19.11,3.27.11a51.62,51.62,0,0,0,5.55-.31,38.07,38.07,0,0,0,12.37-3.54l.41-.2a35.5,35.5,0,0,0,10.29-7.85l.11-.12a38,38,0,0,0,6.68-10.62l5.09-12.19a20,20,0,0,0-10.76-26.17l-4.65-1.94a20.15,20.15,0,0,0-6.32-1.5A20,20,0,0,0,226.47,26l-4.65-1.94a20,20,0,0,0-7.7-1.55Z"/><path class="cls-1" d="M270.89,80.45a10,10,0,0,1-4.26-1c-3.61-1.71-7.32-3.32-11-4.8q-5-2.07-10-3.62a10,10,0,0,1-6.12-13.75l1.8-3.89a9.87,9.87,0,0,1,1.1-1.83,10,10,0,0,1,.7-2.87l.12-.3c-.15-.24-.29-.48-.43-.74a10,10,0,0,1-.41-8.3l1.55-3.89a10,10,0,0,1,9.28-6.3,10.19,10.19,0,0,1,2,.19c4.1.82,8.2,1.82,12.21,3,3.36.94,6.79,2.06,10.12,3.3a10,10,0,0,1,5.76,13.19l-1.89,4.57a10,10,0,0,1-.82,4.65l-.19.44a10,10,0,0,1,1.9,11.93l-2.52,4.72A10,10,0,0,1,270.89,80.45Z"/><path class="cls-2" d="M253.19,39.2q5.76,1.15,11.41,2.77,4.75,1.34,9.4,3.06l-2,4.79q-5.19-2.24-10.55-4-4.86-1.59-9.83-2.77l1.55-3.89m.68,9.54a117.6,117.6,0,0,1,17.5,5.33l-2,4.6a116.88,116.88,0,0,0-17-6.15l1.55-3.78m-3.53,8.89q5.29,1.34,10.48,3.17,6.38,2.27,12.6,4.93l-2.52,4.72q-5.73-2.7-11.56-5-5.32-2.2-10.8-3.89l1.8-3.89m2.84-38.43a20,20,0,0,0-18.57,12.6l-1.55,3.89a19.94,19.94,0,0,0-.61,13c-.09.17-.17.34-.25.52l-1.81,3.89a20,20,0,0,0,12.25,27.51c3.05.94,6.11,2,9.08,3.27l.17.07c3.52,1.41,7,2.94,10.48,4.57a20,20,0,0,0,26.17-8.67l2.52-4.71a20,20,0,0,0,.15-18.57c.05-.37.08-.74.11-1.11l1.16-2.8A20,20,0,0,0,281,26.29c-3.57-1.33-7.25-2.53-10.92-3.56-4.24-1.22-8.59-2.27-12.94-3.14a19.47,19.47,0,0,0-3.93-.39Z"/><path class="cls-1" d="M306.09,57a31.82,31.82,0,0,1-4.77-.36,10,10,0,0,1-8.13-7.28l-.72-2.66a10,10,0,0,1,1.63-8.59,10,10,0,0,1-.37-4.25,24.83,24.83,0,0,0,0-5.78A10,10,0,0,1,303.7,17l4.43.1A9.9,9.9,0,0,1,313,18.48l2.14.11a10,10,0,0,1,7.3,3.73A10,10,0,0,1,326.74,24l3.83,2.7a10,10,0,0,1,2.61,13.63,46.64,46.64,0,0,1-5.74,7.17.47.47,0,0,1-.1.1,35.89,35.89,0,0,1-7.65,5.82.31.31,0,0,1-.1,0,28,28,0,0,1-9.95,3.29l-.27,0A30,30,0,0,1,306.09,57Z"/><path class="cls-2" d="M303.7,27l4.19.09a40.86,40.86,0,0,1,0,8.2l-4.25-.12A34.35,34.35,0,0,0,303.7,27m6.8,1.41,4.18.21a40.72,40.72,0,0,1-.26,8.19l-4.33-.16a35.48,35.48,0,0,0,.41-8.24M321,32.21l3.83,2.7a37.4,37.4,0,0,1-4.53,5.65,25.65,25.65,0,0,1-5.52,4.2,18.39,18.39,0,0,1-6.44,2.13c-.74.07-1.49.11-2.23.11a20.93,20.93,0,0,1-3.25-.25l-.72-2.66h.49a22.49,22.49,0,0,0,4.07-.37,16.45,16.45,0,0,0,5.2-2,21.9,21.9,0,0,0,4.6-3.83,56.73,56.73,0,0,0,4.5-5.66M303.7,7a20,20,0,0,0-19.87,22.25,14.24,14.24,0,0,1,0,3.39,19.87,19.87,0,0,0-.12,3.77,20,20,0,0,0-.88,12.93l.72,2.67A20,20,0,0,0,299.8,66.52a41.88,41.88,0,0,0,10.61.26l.55-.07a38.2,38.2,0,0,0,13.47-4.44l.2-.12a45.9,45.9,0,0,0,9.77-7.42l.2-.21a57,57,0,0,0,7-8.69,20,20,0,0,0-5.22-27.26l-3.83-2.7a19.61,19.61,0,0,0-4.85-2.51,19.94,19.94,0,0,0-12-4.76h-.09a19.86,19.86,0,0,0-7.24-1.54L304.17,7Z"/><path class="cls-1" d="M291.29,94.65a10,10,0,0,1-7.07-2.93l-2.05-2a10,10,0,0,1-2.69-9.22c0-.16.07-.32.11-.48l-.65-.5-2-1.66a10,10,0,0,1-.47-14.92A28.17,28.17,0,0,0,281,57.38a47.58,47.58,0,0,0,4-7.72A10,10,0,0,1,297.54,44l4.64,1.62A10,10,0,0,1,307,49.2h4a10,10,0,0,1,10,10v3.74a9.39,9.39,0,0,1-.07,1.19,43.65,43.65,0,0,1-2.1,9.11l-.11.29a37.23,37.23,0,0,1-2.45,5.19c-.07.13-.15.26-.23.39a36.84,36.84,0,0,1-3.21,4.34l-.24.27a36,36,0,0,1-3.87,3.63l-.41.31a39.34,39.34,0,0,1-4.32,2.75l-.29.16a49.17,49.17,0,0,1-9.79,3.74A9.81,9.81,0,0,1,291.29,94.65Z"/><path class="cls-2" d="M294.25,53.44l4.64,1.62a44.63,44.63,0,0,1-1.8,4.14H311v3.74a33.75,33.75,0,0,1-1.62,7,27.15,27.15,0,0,1-1.8,3.82,27.43,27.43,0,0,1-2.34,3.16,25,25,0,0,1-2.81,2.63,31.66,31.66,0,0,1-3.27,2.09,39.56,39.56,0,0,1-7.82,3l-2.05-2.05a32,32,0,0,0,5.44-2.6,26.57,26.57,0,0,0,5.65-4.82A24.32,24.32,0,0,0,304,69.42a22.53,22.53,0,0,0,1.76-6.26H294.39a33,33,0,0,1-4.28,5.22,21.52,21.52,0,0,1-4.76,3.42l-2-1.66a38.13,38.13,0,0,0,6.09-7.45,57.44,57.44,0,0,0,4.79-9.25m0-20a20,20,0,0,0-18.53,12.46,36.85,36.85,0,0,1-3.11,6l-.1.16a18,18,0,0,1-2.9,3.56,20,20,0,0,0-.29,28.74,20,20,0,0,0,5.78,12.37l2,2.05A20,20,0,0,0,296.42,104a59.43,59.43,0,0,0,11.77-4.5l.59-.31a53.43,53.43,0,0,0,5.37-3.42c.27-.21.55-.41.81-.63a46,46,0,0,0,4.93-4.62c.17-.18.33-.35.48-.54a46.33,46.33,0,0,0,4.07-5.51c.17-.26.33-.52.48-.79a49.25,49.25,0,0,0,3.1-6.57c.07-.19.14-.38.2-.57a53.73,53.73,0,0,0,2.59-11.2,21,21,0,0,0,.14-2.38V59.2a20,20,0,0,0-19.88-20,19.9,19.9,0,0,0-5.59-3l-4.65-1.62a19.91,19.91,0,0,0-6.58-1.12Z"/><path class="cls-1" d="M332.89,95.6a10,10,0,0,1-4.84-1.25l-2.3-1.27a10,10,0,0,1-3.3-14.55c1.21-1.7,2.34-3.47,3.38-5.29a10,10,0,0,1-9.21-6.78l-1.28-3.75A10,10,0,0,1,321.58,50l20.59-7a9.94,9.94,0,0,1,3.22-.54,10,10,0,0,1,9.5,6.87l1.18,3.59a10.09,10.09,0,0,1,.51,3.08,37.4,37.4,0,0,1-.63,7c0,.07,0,.14-.05.21,2.05.93,4.15,1.81,6.25,2.62A10,10,0,0,1,367.37,80l-1.32,2.47a10,10,0,0,1-10.13,5.17,53.44,53.44,0,0,1-9.37-2.13l-.35.51a41.36,41.36,0,0,1-6.93,7.31A10,10,0,0,1,332.89,95.6Z"/><path class="cls-2" d="M345.39,52.48l1.18,3.59a26.56,26.56,0,0,1-.45,5.14,50.23,50.23,0,0,1-1.47,5.41c-.17.56-.33,1.11-.5,1.65a53.54,53.54,0,0,0,6.14,3.42q4.08,1.92,8.28,3.54l-1.33,2.47a43.21,43.21,0,0,1-8.14-1.91,31.52,31.52,0,0,1-6.75-3.18,43.89,43.89,0,0,1-4.2,7.44,31.41,31.41,0,0,1-5.26,5.55l-2.29-1.27a72.55,72.55,0,0,0,7.57-13.49,56.35,56.35,0,0,0,2.4-7.28,54.31,54.31,0,0,0,.88-5.55l-15.37,5.23-1.27-3.75,20.58-7m0-20A20,20,0,0,0,339,33.55l-20.59,7a20,20,0,0,0-12.49,25.37l1.28,3.75a19.9,19.9,0,0,0,4.72,7.63,20,20,0,0,0,9,24.51l2.3,1.27A20,20,0,0,0,345.65,101a51.88,51.88,0,0,0,4.53-4.24c1.47.3,2.94.55,4.43.75a19.52,19.52,0,0,0,2.64.18,20,20,0,0,0,17.6-10.52l1.33-2.47a20,20,0,0,0-9.61-27.81c0-.32,0-.63,0-.94a20.1,20.1,0,0,0-1-6.15l-1.18-3.59a20,20,0,0,0-19-13.74Z"/><path class="cls-1" d="M244.39,206.89a10,10,0,0,1-10-9.19c-.16-2-.45-4-.75-6.09a80.36,80.36,0,0,1-1.07-11.76,10,10,0,0,1,9-10l6-.58c.32,0,.64-.05,1-.05a10,10,0,0,1,10,10c0,.65,0,1.39.07,2.17a10,10,0,0,1,7.6,9.37l.18,5.34a10,10,0,0,1-9.65,10.33l-12.06.4Z"/><path class="cls-2" d="M248.59,179.26h0m0,0a93.53,93.53,0,0,0,1.1,12.41l6.58-.52.18,5.33-12.06.41c-.47-5.74-1.78-11.21-1.78-17l6-.58m0-20h-.41c-.6,0-1.19.05-1.78.12l-5.73.55a20,20,0,0,0-18.06,19.93A90.12,90.12,0,0,0,223.78,193c.28,2,.55,3.83.68,5.49a20,20,0,0,0,19.92,18.37h.69l12.05-.41a20,20,0,0,0,19.32-20.66l-.18-5.33a20,20,0,0,0-6.67-14.24,18.06,18.06,0,0,0-1.44-1.18,20,20,0,0,0-19.27-15.8Zm0,40h0Z"/><path class="cls-1" d="M263.08,206.67a16.5,16.5,0,0,1-14.63-8.93,18.36,18.36,0,0,1-.4-15.23,16.19,16.19,0,0,1,12.47-9.29,16.74,16.74,0,0,1,2.24-.15,17,17,0,0,1,9.57,3,16.34,16.34,0,0,1,2.26,1.88,17.06,17.06,0,0,1,4.19,17.23,16.85,16.85,0,0,1-14.08,11.4C264.16,206.64,263.62,206.67,263.08,206.67Z"/><path class="cls-2" d="M262.76,183.07a6.74,6.74,0,0,1,3.87,1.23,6.09,6.09,0,0,1,.92.76,7.06,7.06,0,0,1,1.72,7,6.76,6.76,0,0,1-5.59,4.55q-.3,0-.6,0a6.51,6.51,0,0,1-5.7-3.44,8.49,8.49,0,0,1-.15-6.74,6.12,6.12,0,0,1,4.67-3.37,6.2,6.2,0,0,1,.86-.05m.36,8.65a1.51,1.51,0,0,0,.91-.3l.15-.13A1.54,1.54,0,0,0,264,189a1.68,1.68,0,0,0-1-.3,1.32,1.32,0,0,0-1.4,1,1.86,1.86,0,0,0,.7,1.8,1.53,1.53,0,0,0,.84.25m-.36-28.65a27.14,27.14,0,0,0-3.61.24,26.06,26.06,0,0,0-20.27,15.22,28.57,28.57,0,0,0,.65,23.73,26.59,26.59,0,0,0,23.55,14.41c.88,0,1.76,0,2.63-.13a26.64,26.64,0,0,0,22.58-18.24,27.15,27.15,0,0,0-6.63-27.42,27,27,0,0,0-18.9-7.81Z"/><path class="cls-1" d="M277.64,206.24a10.89,10.89,0,0,1-1.72-.14l-.8,0c-6,0-11.24-3.08-13.63-8a14.08,14.08,0,0,1,.09-12.17,10,10,0,0,1,6.6-11.77,28.87,28.87,0,0,1,7.55-1.43h.1c.66,0,1.34-.07,2-.07a14.94,14.94,0,0,1,10.5,3.79c3.1,2.79,4.65,6.64,4.72,11.75l.1,7.43a10,10,0,0,1-9.08,10.08l-5.53.51C278.26,206.23,278,206.24,277.64,206.24Z"/><path class="cls-2" d="M277.86,182.64a5.22,5.22,0,0,1,3.71,1.14c.42.38,1.47,1.13,1.51,4.53,0,2.47.07,4.95.1,7.42l-5.53.51-.07-.52a8.15,8.15,0,0,1-2.46.4,5,5,0,0,1-4.63-2.38,4.51,4.51,0,0,1,.21-3.71c.67-1.55,3.14-2.82,5.75-2.82q.39,0,.78,0c0-.08-.06-.38-.06-.47a7.73,7.73,0,0,0-.92-.06,7.26,7.26,0,0,0-3.63,1c-.44-1.35-.87-2.7-1.3-4.06a19.32,19.32,0,0,1,4.95-.94c.51,0,1.05-.06,1.59-.06m-1.69,10.18a4.73,4.73,0,0,0,1-.12l-.08-2.35a4.71,4.71,0,0,0-.55,0c-.71,0-1.89.19-1.84,1.45,0,.86.78,1,1.45,1m1.69-30.18c-1.05,0-1.93.05-2.58.09h-.1a39.17,39.17,0,0,0-10.13,1.92,20,20,0,0,0-13.7,20.06,24.1,24.1,0,0,0,1.13,17.72c4.07,8.44,12.74,13.69,22.64,13.69h.22a19.29,19.29,0,0,0,2.29.14c.61,0,1.24,0,1.86-.09l5.53-.51a20,20,0,0,0,18.16-20.17l-.08-6.06,0-1.38c-.11-7.92-2.81-14.33-8-19a24.83,24.83,0,0,0-17.19-6.36Z"/><path class="cls-1" d="M291.92,205.69c-3.94,0-6.89-.59-9.3-1.87a16.43,16.43,0,0,1-8.5-16,17,17,0,0,1,8.05-13.14,10,10,0,0,1,9.06-6.81l5.18-.22h.42a10,10,0,0,1,10,10.54c-.18,3.36-.21,7.49-.23,11.48,0,2.06,0,4.08-.06,5.94a10,10,0,0,1-8.73,9.75A54,54,0,0,1,291.92,205.69Z"/><path class="cls-2" d="M296.83,177.62c-.29,5.39-.2,12.27-.3,17.79a42.22,42.22,0,0,1-4.61.28,11.08,11.08,0,0,1-4.6-.7c-5-2.67-4-10.62,1.34-12.37a8.72,8.72,0,0,1,3.08-.45c.05-1.46,0-2.93-.09-4.33l5.18-.22m-6.18,13.6,1,0,0-4.23a3.29,3.29,0,0,0-.54-.05,2.3,2.3,0,0,0-2.19,3.39,1.82,1.82,0,0,0,1.81.91m6.18-33.6-.85,0-5.18.22A20,20,0,0,0,274.22,168a27.09,27.09,0,0,0-10.06,18.89,26.37,26.37,0,0,0,13.77,25.71c3.9,2.08,8.35,3.05,14,3.05a59.57,59.57,0,0,0,7.15-.45,20,20,0,0,0,17.46-19.48c0-1.94,0-4,.06-6,0-3.87.05-7.88.21-11a20,20,0,0,0-20-21.07Z"/><path class="cls-1" d="M305.06,205.14a17.25,17.25,0,0,1-14.1-6.75c-3.19-4.3-4-9.82-2.24-15.55l0-.11a16.14,16.14,0,0,1,15.68-11,17.07,17.07,0,0,1,11,4c.22.19.44.39.65.6a17.17,17.17,0,0,1,4.45,14.93,9.71,9.71,0,0,1-1.07,2.87,10,10,0,0,1-5.54,8.95A20,20,0,0,1,305.06,205.14Z"/><path class="cls-2" d="M304.43,181.71a7,7,0,0,1,4.55,1.63,7.12,7.12,0,0,1,1.76,5.9c-2.31.54-4.74.71-7.1,1.16-1.57.21.23.38.73.4l.5,0a10,10,0,0,0,2.9-.45c.47,1.25,1.23,2.49,1.7,3.74a9.94,9.94,0,0,1-4.41,1c-4.55,0-8.66-3.19-6.77-9.4a6.26,6.26,0,0,1,6.14-4m-2.21,5.18,4.13-.62c-.11-.48-.82-.7-1.61-.7-1.16,0-2.5.47-2.52,1.32m2.21-25.18h0a26.12,26.12,0,0,0-25.22,18l-.06.21c-2.65,8.71-1.27,17.61,3.78,24.42a27.13,27.13,0,0,0,22.13,10.79A30,30,0,0,0,318.39,212a20,20,0,0,0,10.92-15.34,20.33,20.33,0,0,0,1-3.43,27.19,27.19,0,0,0-7.14-24c-.42-.43-.86-.83-1.31-1.21a27.1,27.1,0,0,0-17.46-6.36Z"/><path class="cls-1" d="M312.89,204.86a10,10,0,0,1-10-9.18c-.14-1.76-.39-3.5-.66-5.35a65,65,0,0,1-.87-8.72,10,10,0,0,1,9.13-10.09l1.07-.09c1.74-.16,3.54-.32,5.42-.4h.41a16.55,16.55,0,0,1,2.21-.16,15.09,15.09,0,0,1,9.25,3.23,10,10,0,0,1,2.48,13.19c-.21.36-.46.84-.74,1.41-.41.81-.91,1.83-1.58,2.92l-.33.5c.05.47.1.92.13,1.32a10,10,0,0,1-9,10.83l-6,.56C313.51,204.85,313.2,204.86,312.89,204.86Z"/><path class="cls-2" d="M319.63,180.86a5.05,5.05,0,0,1,3.2,1.2c-.88,1.45-1.43,2.88-2.32,4.33a3.18,3.18,0,0,0-1.11-.25,2.35,2.35,0,0,0-1.46.66s.72,5,.94,7.51l-6,.55c-.39-4.83-1.45-9.2-1.5-13.38,2-.17,4-.37,6-.46,0,.08,0,.15,0,.23a7.51,7.51,0,0,1,2.19-.39m0-20a24.66,24.66,0,0,0-3,.18h-.06c-2.12.09-4.12.27-5.89.43l-1.06.09a20,20,0,0,0-18.26,20.17,73.71,73.71,0,0,0,1,10.05c.25,1.68.48,3.27.6,4.7a20,20,0,0,0,19.93,18.38c.62,0,1.23,0,1.85-.08l5.57-.52.42,0a20,20,0,0,0,18.15-19.72l.69-1.34.36-.73a20,20,0,0,0-5-26.31,25.17,25.17,0,0,0-15.29-5.26Z"/><path class="cls-1" d="M324.77,204.46a10,10,0,0,1-10-9.26c-.12-1.72-1.13-10.95-1.74-16.36a10,10,0,0,1,4.73-9.65c1.71-1,3.52-1.53,8.09-2.2a71.92,71.92,0,0,1,9.32-.56c.95,0,1.83,0,2.59,0a10,10,0,0,1,9.52,9.59l.21,5.38a9.88,9.88,0,0,1-1.21,5.18v.4a10,10,0,0,1-5.8,9.38,10,10,0,0,1-9.43,7.84l-6,.2Z"/><path class="cls-2" d="M335.2,176.43c.77,0,1.49,0,2.12,0l.21,5.38c-1,0-1.95-.08-2.94-.08a28.74,28.74,0,0,0-5.11.4c0,.14.06.91.07,1.16a32.17,32.17,0,0,1,6.64-.59l.14,4.59a26.6,26.6,0,0,0-6.11.58c0,.32.54,6.34.54,6.34l-6,.21c-.19-2.55-1.78-16.73-1.78-16.73s.46-.28,4.34-.85a63.83,63.83,0,0,1,7.86-.45m0-20a82.64,82.64,0,0,0-10.78.66c-5.24.78-8.51,1.54-11.83,3.56a20,20,0,0,0-9.46,19.3c.74,6.61,1.6,14.6,1.7,16a20,20,0,0,0,19.94,18.52l.68,0,6-.2A19.94,19.94,0,0,0,348.73,203a19.54,19.54,0,0,0,2-1.78,20,20,0,0,0,5.57-12.41,20.06,20.06,0,0,0,1.25-7.78l-.22-5.37a20,20,0,0,0-19-19.19c-.92,0-1.95-.06-3.06-.06Z"/><path class="cls-1" d="M345.14,203.89a15.77,15.77,0,0,1-11.54-4.61c-5.53-5.6-5.44-13.79-5.39-18.68a10,10,0,0,1,9.94-9.89l5.71,0a9.87,9.87,0,0,1,2.72.38l5.13-.38.75,0a10,10,0,0,1,9.92,8.88c.68,6,.87,13.6-3.76,19-4.29,5-10.15,5.24-12.65,5.35Z"/><path class="cls-2" d="M352.45,180.64c1.4,12.4-2.51,13.06-6.9,13.24h-.41c-6.68,0-7-7-6.93-13.18l5.65,0c0,.05-.56,8.18,1.94,8.18h.09c1.37-.11.46-7.76.46-7.76l6.1-.45m0-20q-.73,0-1.47.06l-3.69.27a19.64,19.64,0,0,0-3.44-.3h-.13l-5.65,0a20,20,0,0,0-19.87,19.78c-.06,5.6-.19,17.26,8.28,25.82a26,26,0,0,0,18.65,7.58c.4,0,.82,0,1.24,0,3.15-.13,12.72-.53,19.83-8.84s7-19.23,6.11-26.63a20,20,0,0,0-19.86-17.76Z"/><path class="cls-1" d="M355,203.44a10,10,0,0,1-10-9.21c-.13-1.56-.38-3.68-.65-5.92-.29-2.47-.6-5-.8-7.42a10,10,0,0,1,9-10.81l6-.58c.32,0,.64,0,1,0a9.92,9.92,0,0,1,1.89.18h.25a15.24,15.24,0,0,1,3.49.38c12.83,2.84,13.15,16.12,13.27,21.13,0,.5,0,1,0,1.47A10,10,0,0,1,368.81,203l-5.27.17h-.32c-.34,0-.67,0-1,0a11.51,11.51,0,0,1-1.33.14l-5.51.19Z"/><path class="cls-2" d="M359.55,179.46v.46a8.77,8.77,0,0,1,2.14-.28,6.07,6.07,0,0,1,1.29.13c5.78,1.26,5.31,8,5.5,13.23l-5.26.16c-.1-2.68,0-8.44-2.05-8.44H361c-1.63.27-.61,6-.44,8.52l-5.51.19c-.28-3.54-1.08-9-1.46-13.4l6-.58m0-20c-.64,0-1.28,0-1.93.09l-6,.58a20,20,0,0,0-18,21.62c.22,2.55.53,5.19.83,7.74.26,2.14.5,4.17.61,5.53A20,20,0,0,0,355,213.44h.71l5.51-.19,1.32-.09h1.31l5.26-.16a20,20,0,0,0,19.36-20.74c0-.44,0-.89,0-1.34a43.61,43.61,0,0,0-1.8-12.95,25.83,25.83,0,0,0-19.25-17.7,26.37,26.37,0,0,0-5.14-.62,20.18,20.18,0,0,0-2.7-.18Z"/><path class="cls-1" d="M376.73,202.64a17.45,17.45,0,0,1-15.41-8.56,16.74,16.74,0,0,1-.08-16.7,17.06,17.06,0,0,1,15.1-8.26,26.14,26.14,0,0,1,8.67,1.6,10,10,0,0,1,6.2,12.46l-.07.23a10,10,0,0,1,.59,3.24l.08,4.82a10,10,0,0,1-6.52,9.53,24.5,24.5,0,0,1-8.55,1.64Z"/><path class="cls-2" d="M376.34,179.12a16.1,16.1,0,0,1,5.34,1l-1.45,4.57a11.86,11.86,0,0,0-3.39-.66,3.17,3.17,0,0,0-2,.55c-1.44,2.31.3,3,2.47,3a11.7,11.7,0,0,0,4.38-.85l.08,4.83a14.76,14.76,0,0,1-5.07,1c-9.86,0-10.5-13.52-.4-13.52m0-20A27.42,27.42,0,0,0,356.68,167a26.15,26.15,0,0,0-7.63,18.59c0,15.15,12.16,27,27.69,27a34.56,34.56,0,0,0,12-2.26,20,20,0,0,0,13-19.06l-.08-4.83a20.75,20.75,0,0,0-.3-3.16,20,20,0,0,0-13.09-22,36.11,36.11,0,0,0-12-2.17Z"/><path class="cls-1" d="M390.9,202.23c-8.17,0-12.34-3.77-14.4-6.92a17,17,0,0,1-2.48-6.7,10,10,0,0,1-1.52-5l-.14-4.15a9.92,9.92,0,0,1,1.09-4.88,10,10,0,0,1,10-10l5.56.1a10,10,0,0,1,9.32,6.82,10,10,0,0,1,3.11,7l.11,4.14c0,.31,0,.62,0,.92a10.09,10.09,0,0,1,.92,3.73l.21,4.32a10,10,0,0,1-9.2,10.46C392.58,202.19,391.71,202.23,390.9,202.23Z"/><path class="cls-2" d="M383.45,174.66l5.39.1.05,4.12,2.55,0s.07,2.58.12,4.15l-2.75.09c.21,3.77-.34,4.59,3.66,4.76l.21,4.32c-.63,0-1.23.08-1.78.08-6.42,0-7.22-3.37-7.25-9l-1.15,0-.14-4.15,1.32-.12-.23-4.37m0-20a20,20,0,0,0-19.84,17.55,19.85,19.85,0,0,0-1.23,7.61l.14,4.15a20,20,0,0,0,2,8.08,26.78,26.78,0,0,0,3.62,8.72c2.79,4.28,9.46,11.46,22.77,11.46,1.08,0,2.21,0,3.37-.14a20,20,0,0,0,18.39-20.92l-.21-4.33a19.83,19.83,0,0,0-.92-5.08l-.1-3.49a19.88,19.88,0,0,0-4.54-12.14,20,20,0,0,0-17.71-11.37l-5.4-.09Z"/><path class="cls-1" d="M394.1,202.27a10,10,0,0,1-10-9.84,41.26,41.26,0,0,0-.37-4.29,53.73,53.73,0,0,1-.5-7.2c0-.35,0-.7.07-1.05s-.05-.52-.06-.78c-.07-1.56-.12-3.24-.06-5.06a10,10,0,0,1,9.66-9.65l5.56-.19h.33a10,10,0,0,1,10,10.16v.72c0,.46,0,1.36,0,1.76l.07,1a9.93,9.93,0,0,1,.46,3.07,40,40,0,0,0,.37,4.62c.22,1.9.47,4,.52,6.37a10,10,0,0,1-9.68,10.17l-6,.2Z"/><path class="cls-2" d="M398.73,174.21c0,.84-.06,2.35,0,3.17l.08,1.14-5.56.19c-.06-1.47-.1-2.85-.05-4.31l5.55-.19m.5,6.64c0,3.77.82,7.36.89,11.23l-6,.19c-.06-3.94-.91-7.3-.87-11.22l6-.2m-.5-26.64h-.67l-5.56.19a20,20,0,0,0-19.31,19.3c-.08,2.16,0,4,.05,5.79,0,.14,0,.27,0,.41l0,.92a62.76,62.76,0,0,0,.57,8.49c.16,1.31.29,2.43.3,3.27a20,20,0,0,0,20,19.68h.65l6-.19a20,20,0,0,0,19.34-20.35c-.05-2.83-.34-5.33-.57-7.34-.16-1.37-.31-2.66-.31-3.41a20,20,0,0,0-.53-4.71c0-.31,0-.68,0-.93s0-.58,0-.81a20,20,0,0,0-20-20.31Zm.5,46.64h0Z"/><path class="cls-1" d="M407.21,201.82a16.5,16.5,0,0,1-14.62-8.93,18.36,18.36,0,0,1-.4-15.23,16.19,16.19,0,0,1,12.46-9.29,15.34,15.34,0,0,1,2.24-.16,16.81,16.81,0,0,1,1.94,33.52A14.52,14.52,0,0,1,407.21,201.82Z"/><path class="cls-2" d="M406.89,178.21a6.92,6.92,0,0,1,3.88,1.23,6.62,6.62,0,0,1,.91.77,7.08,7.08,0,0,1,1.73,7,6.79,6.79,0,0,1-5.59,4.55,6.08,6.08,0,0,1-.61,0,6.51,6.51,0,0,1-5.7-3.45,8.47,8.47,0,0,1-.15-6.73,6.14,6.14,0,0,1,4.68-3.37,6.07,6.07,0,0,1,.85-.06m.36,8.65a1.59,1.59,0,0,0,.92-.29l.14-.13a1.54,1.54,0,0,0-.2-2.34,1.73,1.73,0,0,0-1-.31,1.31,1.31,0,0,0-1.4,1,1.83,1.83,0,0,0,.69,1.79,1.48,1.48,0,0,0,.84.25m-.36-28.65a27.26,27.26,0,0,0-3.61.25A26.07,26.07,0,0,0,383,173.68a28.61,28.61,0,0,0,.66,23.73,26.58,26.58,0,0,0,23.54,14.41,25.79,25.79,0,0,0,2.64-.14,26.64,26.64,0,0,0,22.57-18.24A27.14,27.14,0,0,0,425.79,166a26.94,26.94,0,0,0-18.9-7.82Z"/><path class="cls-1" d="M415.71,201.4a10,10,0,0,1-10-9.21c-.12-1.56-.37-3.69-.64-5.93-.29-2.47-.6-5-.8-7.41a10,10,0,0,1,9-10.81l6-.58c.33,0,.65-.05,1-.05a10.78,10.78,0,0,1,1.88.18h.26a15.88,15.88,0,0,1,3.49.38c12.83,2.84,13.14,16.13,13.26,21.14,0,.5,0,1,0,1.47A10,10,0,0,1,429.5,201l-5.27.16h-.32c-.34,0-.68,0-1-.05a9.82,9.82,0,0,1-1.33.13l-5.51.19Z"/><path class="cls-2" d="M420.24,177.41v.46a8.75,8.75,0,0,1,2.13-.28,5.51,5.51,0,0,1,1.3.14c5.78,1.26,5.31,8,5.5,13.22l-5.26.17c-.11-2.69.05-8.44-2.05-8.45l-.2,0c-1.63.26-.61,6-.44,8.52l-5.52.19c-.28-3.54-1.07-9-1.45-13.41l6-.58m0-20c-.64,0-1.29,0-1.93.1l-6,.58a20,20,0,0,0-18,21.62c.22,2.54.54,5.18.84,7.74.26,2.14.5,4.17.61,5.53A20,20,0,0,0,415.7,211.4h.7l5.52-.19q.66,0,1.32-.09h1.31l5.26-.17a20,20,0,0,0,19.36-20.74c0-.43,0-.88,0-1.34a43.51,43.51,0,0,0-1.8-12.94,25.81,25.81,0,0,0-19.25-17.7,25,25,0,0,0-5.14-.62,20.3,20.3,0,0,0-2.7-.19Z"/><path class="cls-1" d="M55.89,63.68a10,10,0,0,1-9.79-8,120.87,120.87,0,0,1-2.54-26.27l0-1.6A10,10,0,0,1,53.45,18l8.7-.11a10,10,0,0,1,10,10.33,96.8,96.8,0,0,0,2,22.56,10,10,0,0,1-8.75,12l-8.42.88A9.23,9.23,0,0,1,55.89,63.68Z"/><path class="cls-2" d="M62.15,27.87A106.89,106.89,0,0,0,64.32,52.8l-8.42.88A111.29,111.29,0,0,1,53.55,29.6l0-1.63,8.57-.1m0-20H61.9L53.33,8a20,20,0,0,0-19.75,19.7l0,1.59a130.61,130.61,0,0,0,2.75,28.42,20,20,0,0,0,19.57,16c.7,0,1.4,0,2.1-.11l8.42-.88a20,20,0,0,0,17.5-24,85.69,85.69,0,0,1-1.76-20.18,20,20,0,0,0-20-20.66Zm0,40Z"/><path class="cls-1" d="M73.94,62.24a19.29,19.29,0,0,1-16.66-9.68,22.1,22.1,0,0,1-1.18-18,18.74,18.74,0,0,1,14-11.26A19.54,19.54,0,0,1,84,26.09a19.16,19.16,0,0,1,2.73,2.09,19.93,19.93,0,0,1,5.7,20A19.62,19.62,0,0,1,76.55,62.06,18.86,18.86,0,0,1,73.94,62.24Z"/><path class="cls-2" d="M73.42,33a9.71,9.71,0,0,1,5.2,1.53,9.75,9.75,0,0,1,4.17,10.88,9.59,9.59,0,0,1-7.65,6.75,8.06,8.06,0,0,1-1.2.08A9.21,9.21,0,0,1,66,47.69a12.06,12.06,0,0,1-.59-9.53,8.7,8.7,0,0,1,6.43-5A9.12,9.12,0,0,1,73.42,33M74,45.23a2.19,2.19,0,0,0,1.37-.47l.2-.2a2.18,2.18,0,0,0-.43-3.29,2.29,2.29,0,0,0-1.31-.38,1.89,1.89,0,0,0-2,1.53,2.6,2.6,0,0,0,1.09,2.5,2.07,2.07,0,0,0,1.11.31M73.42,13h0a29,29,0,0,0-5.1.45A28.51,28.51,0,0,0,46.78,30.94a32,32,0,0,0,1.77,26.49A29,29,0,0,0,73.94,72.24,28.28,28.28,0,0,0,78,72,29.56,29.56,0,0,0,93.49,20.83a30.06,30.06,0,0,0-4.15-3.18A29.55,29.55,0,0,0,73.42,13Z"/><path class="cls-1" d="M94.87,60.82a10.08,10.08,0,0,1-1.75-.16,21.15,21.15,0,0,1-2.24.12c-6.55,0-12.33-3.22-15.09-8.41a16,16,0,0,1-.3-13.84A12.47,12.47,0,0,1,76,37.36l-.22-.61A10,10,0,0,1,81.7,24a36.86,36.86,0,0,1,9.53-2.21h.14c1-.1,2.31-.22,3.71-.22a16.63,16.63,0,0,1,11.14,3.8c3.69,3.06,5.56,7.32,5.88,13.41l.56,10.5A10,10,0,0,1,104,59.69l-7.79,1A10,10,0,0,1,94.87,60.82Z"/><path class="cls-2" d="M95.09,31.54A6.88,6.88,0,0,1,99.73,33c.61.52,2.13,1.52,2.39,6.33.19,3.5.37,7,.56,10.5l-7.8,1-.13-.73a11.5,11.5,0,0,1-3.87.7c-2.87,0-5.26-1.21-6.27-3.1-1.21-2.28-.08-4.87.09-5.27.89-2.32,4.56-4.33,8.41-4.33l.67,0c0-.12-.1-.54-.12-.67-.25,0-.56,0-.89,0a10.36,10.36,0,0,0-2.37.28A10.12,10.12,0,0,0,87.28,39q-1-2.84-2.06-5.67a26.72,26.72,0,0,1,6.94-1.61c.94-.09,1.94-.19,2.93-.19M92.41,46.06A6.34,6.34,0,0,0,94,45.82h0l-.24-3.31a4.5,4.5,0,0,0-.55,0c-1,0-2.9.24-2.76,2.17.08,1.13,1,1.41,1.93,1.41m2.68-34.52c-1.88,0-3.49.15-4.66.26h-.15a47.18,47.18,0,0,0-12.09,2.8,20,20,0,0,0-12.7,22.07A26,26,0,0,0,67,57.08c4.5,8.45,13.67,13.7,23.92,13.7.66,0,1.33,0,2-.06s1.32.1,2,.1a19.78,19.78,0,0,0,2.65-.18l7.8-1a20,20,0,0,0,17.34-20.89l-.56-10.5c-.47-8.81-3.65-15.73-9.46-20.56a26.59,26.59,0,0,0-17.54-6.12Z"/><path class="cls-1" d="M113.61,59.26a21.42,21.42,0,0,1-9.46-1.76A18.86,18.86,0,0,1,93.57,39.26a19.83,19.83,0,0,1,10.18-16.6A10,10,0,0,1,112.84,14l7.31-.61.83,0a10,10,0,0,1,10,10.14c-.07,4.87.13,10.76.32,16.46.1,2.9.19,5.74.25,8.36a10,10,0,0,1-8.33,10.09A65.92,65.92,0,0,1,113.61,59.26Z"/><path class="cls-2" d="M121,23.38c-.11,7.64.4,17.38.57,25.19a55.89,55.89,0,0,1-7.94.69,12.85,12.85,0,0,1-5.11-.77c-7.24-3.49-6.29-14.8,1.2-17.58A12.15,12.15,0,0,1,114,30.1c0-2.07-.22-4.14-.38-6.12l7.32-.6M112.68,43c.48,0,1,0,1.68-.09l-.3-6a4.32,4.32,0,0,0-.62,0c-2.48,0-4.49,2.37-3,4.92a2.45,2.45,0,0,0,2.29,1.2M121,3.38c-.55,0-1.1,0-1.65.07l-7.31.6A20,20,0,0,0,95.18,16.34a30,30,0,0,0-11.6,22.45A29.09,29.09,0,0,0,99.81,66.51a30.83,30.83,0,0,0,13.8,2.75,74.85,74.85,0,0,0,11.27-1,20,20,0,0,0,16.67-20.17c-.06-2.69-.16-5.5-.26-8.46-.18-5.59-.38-11.37-.31-16A20,20,0,0,0,121,3.38Z"/><path class="cls-1" d="M133.07,57.72a20.18,20.18,0,0,1-16.21-7.51c-3.72-4.82-4.8-11.19-3-18l0-.11c2.15-7.9,9.77-13.43,18.53-13.43a19.79,19.79,0,0,1,12.26,4.18c.24.19.46.38.68.58a20,20,0,0,1,5.87,17.16,10,10,0,0,1-1.5,3.87,10,10,0,0,1-5.08,10.25,24,24,0,0,1-11.54,3Z"/><path class="cls-2" d="M132.38,28.72a9.94,9.94,0,0,1,6.12,2.07A10.06,10.06,0,0,1,141.32,39c-3.23.9-6.67,1.28-10,2-2.21.39.34.53,1.06.53h.3a13.91,13.91,0,0,0,4.48-.81c.74,1.74,1.88,3.46,2.62,5.2a14.07,14.07,0,0,1-6.73,1.72c-6.22,0-11.83-4.29-9.58-12.94,1-3.74,4.87-6.06,8.89-6.06m-3.25,7.47,5.81-1.12c-.17-.61-1.06-.89-2.09-.89-1.68,0-3.75.75-3.72,2m3.25-27.47h0c-13.26,0-24.84,8.56-28.18,20.8l-.06.22c-2.56,9.82-.85,19.26,4.81,26.58a30.05,30.05,0,0,0,24.12,11.4,34.05,34.05,0,0,0,16.35-4.19,20,20,0,0,0,10.37-16.82,20.13,20.13,0,0,0,1.27-4.45,30,30,0,0,0-8.92-26.09c-.43-.41-.89-.79-1.35-1.16a30.14,30.14,0,0,0-18.41-6.29Z"/><path class="cls-1" d="M144.68,56.87a10,10,0,0,1-9.93-8.79c-.31-2.6-.81-5.23-1.29-7.78a88.8,88.8,0,0,1-1.65-11.76,10,10,0,0,1,8.72-10.44l1.55-.2c2.4-.31,4.88-.63,7.42-.84l.7,0a17.7,17.7,0,0,1,3.51-.35,17.11,17.11,0,0,1,10,3.31,10,10,0,0,1,3,13.08c-.37.67-.73,1.45-1.13,2.36-.53,1.16-1.12,2.47-1.92,3.9A10.11,10.11,0,0,1,162.53,41c.2,1.26.38,2.47.51,3.46a10,10,0,0,1-8.6,11.19L146,56.79A9.74,9.74,0,0,1,144.68,56.87Z"/><path class="cls-2" d="M153.71,26.68A7.32,7.32,0,0,1,158,28.19c-1.17,2.1-1.88,4.16-3.05,6.26a4.72,4.72,0,0,0-1.47-.29,3.29,3.29,0,0,0-2.15,1s1.31,7,1.76,10.57l-8.44,1.12c-.83-6.82-2.58-12.95-2.88-18.85,2.81-.36,5.68-.76,8.51-1l0,.32a10.05,10.05,0,0,1,3.36-.67m0-20h0a27.91,27.91,0,0,0-4.63.39l-.38,0c-2.8.22-5.4.56-7.92.89l-1.51.19a20,20,0,0,0-17.45,20.88,95.92,95.92,0,0,0,1.82,13.08c.46,2.5.91,4.87,1.19,7.15a20,20,0,0,0,19.85,17.58,19.5,19.5,0,0,0,2.64-.17l4.52-.6,3.92-.52A20,20,0,0,0,173,43.24c.74-1.41,1.3-2.66,1.77-3.71.29-.63.59-1.29.75-1.59a20,20,0,0,0-6-26.15,27.14,27.14,0,0,0-15.76-5.11Z"/><path class="cls-1" d="M386.58,163.5a15.87,15.87,0,0,1-7.54-1.84,14.74,14.74,0,0,1-6-5.82,15.64,15.64,0,0,1-2-7.59c0-1,0-1.88-.06-2.66a14,14,0,0,1-1.14-1.18,11.72,11.72,0,0,1-2.73-7.79,12.1,12.1,0,0,1,3.88-9c0-.74,0-1.64.05-2.71a15.11,15.11,0,0,1,15.5-15.15c7.3,0,12.59,5.09,12.59,12.09a12.21,12.21,0,0,1-2.59,7.7,11.27,11.27,0,0,1-1.14,1.25c-.07,1.17-.18,2.21-.33,3.15a16.4,16.4,0,0,1-.66,2.68,19.09,19.09,0,0,1,.61,2.34,26.9,26.9,0,0,1,.4,3.53,11.66,11.66,0,0,1,1.15,1.27,12.27,12.27,0,0,1,2.56,7.63C399.17,158.4,393.88,163.5,386.58,163.5Z"/><path class="cls-2" d="M386.59,119.73c1.72,0,2.58.7,2.58,2.09a2.35,2.35,0,0,1-.43,1.5,1.66,1.66,0,0,1-1.12.63,3.52,3.52,0,0,0-1.42.42,1.54,1.54,0,0,0-.53,1.09,30.41,30.41,0,0,0-.16,3.13,25.69,25.69,0,0,1-.27,3.72,6.12,6.12,0,0,1-.93,2.47,6.69,6.69,0,0,1-2,1.84,7,7,0,0,1,1.95,1.74,5.9,5.9,0,0,1,1,2.44,20.91,20.91,0,0,1,.28,3.81c0,1.16,0,2,.08,2.56a3.28,3.28,0,0,0,.32,1.26,1.18,1.18,0,0,0,.57.56,6.16,6.16,0,0,0,1.14.26,1.58,1.58,0,0,1,1.11.65,2.32,2.32,0,0,1,.44,1.47q0,2.13-2.58,2.13a6,6,0,0,1-2.86-.67,4.59,4.59,0,0,1-1.94-1.89,5.7,5.7,0,0,1-.71-2.8c0-1.78-.07-3.21-.1-4.29a15.29,15.29,0,0,0-.16-2.09A4.16,4.16,0,0,0,380,140a5.75,5.75,0,0,0-1.36-1.11,5.16,5.16,0,0,1-1.18-.94,2,2,0,0,1-.35-1.31,2.17,2.17,0,0,1,1-2,9.87,9.87,0,0,0,1.8-1.34,3.08,3.08,0,0,0,.75-1.42A9.27,9.27,0,0,0,381,130c0-.69.06-2.34.1-4.95a5.37,5.37,0,0,1,1.54-3.88,5.46,5.46,0,0,1,4-1.45m0-20a25.08,25.08,0,0,0-25.47,24.12,22.3,22.3,0,0,0-4,12.77,21.79,21.79,0,0,0,4,12.8,25.54,25.54,0,0,0,3.22,11.31,24.79,24.79,0,0,0,10,9.76,25.8,25.8,0,0,0,12.25,3,22.66,22.66,0,0,0,14.64-5.09,22.42,22.42,0,0,0,3.87-30c-.06-.45-.14-.9-.22-1.33l-.09-.49c.07-.35.13-.7.19-1.05s.07-.46.1-.69a22.23,22.23,0,0,0,4.09-13,21.89,21.89,0,0,0-8.06-17.11,22.74,22.74,0,0,0-14.52-5Z"/><path class="cls-1" d="M405.32,163.5a12.69,12.69,0,0,1-8.26-2.84,12,12,0,0,1-4.29-9.29,12.63,12.63,0,0,1,1.05-5.06,12.07,12.07,0,0,1,2.66-3.84,27.52,27.52,0,0,1,.37-3.43,16.43,16.43,0,0,1,.64-2.46,18.43,18.43,0,0,1-.84-3.76c-.09-.67-.15-1.37-.19-2.11a10.56,10.56,0,0,1-1-1,12.21,12.21,0,0,1-2.73-7.85c0-7,5.28-12.09,12.55-12.09a16,16,0,0,1,7.57,1.83,14.92,14.92,0,0,1,5.9,5.68,15.49,15.49,0,0,1,2.09,7.71c0,1.09,0,2,.05,2.66a11.77,11.77,0,0,1,1.2,1.25,12,12,0,0,1,2.67,7.76,12.19,12.19,0,0,1-3.87,9c0,.81,0,1.71-.05,2.71a15.17,15.17,0,0,1-15.56,15.16Z"/><path class="cls-2" d="M405.32,119.73a6.06,6.06,0,0,1,2.88.66,5,5,0,0,1,1.95,1.88,5.63,5.63,0,0,1,.73,2.79q.11,5.83.24,6.41a4.06,4.06,0,0,0,.83,1.77,5.42,5.42,0,0,0,1.32,1.07,4.44,4.44,0,0,1,1.15.93,2.49,2.49,0,0,1-.62,3.32,9.05,9.05,0,0,0-1.79,1.33,3,3,0,0,0-.77,1.42,12,12,0,0,0-.27,2.56c0,1.13-.06,2.56-.09,4.27a5.39,5.39,0,0,1-1.56,3.89,5.46,5.46,0,0,1-4,1.47,2.86,2.86,0,0,1-1.89-.55,1.93,1.93,0,0,1-.66-1.58,2.48,2.48,0,0,1,.22-1.06,1.88,1.88,0,0,1,.55-.75,1.57,1.57,0,0,1,.78-.31,4.82,4.82,0,0,0,1.18-.27,1.09,1.09,0,0,0,.59-.6,4,4,0,0,0,.26-1.29c0-.57.06-1.39.06-2.48a26.15,26.15,0,0,1,.28-3.8,5.94,5.94,0,0,1,.94-2.36,7,7,0,0,1,2-1.83,7.26,7.26,0,0,1-1.55-1.24,5.15,5.15,0,0,1-1-1.59,8.52,8.52,0,0,1-.55-2.2,25.85,25.85,0,0,1-.16-3c0-1.11,0-2-.07-2.56a3.44,3.44,0,0,0-.28-1.29,1.12,1.12,0,0,0-.59-.55,4.77,4.77,0,0,0-1.15-.24,1.71,1.71,0,0,1-1.1-.63,2.29,2.29,0,0,1-.45-1.5c0-1.39.85-2.09,2.55-2.09m0-20a22.72,22.72,0,0,0-14.6,5.06,22.42,22.42,0,0,0-3.9,30c.09.61.2,1.21.32,1.81,0,.23-.09.46-.13.7s-.13.77-.19,1.17a22.36,22.36,0,0,0-4.05,12.92,22,22,0,0,0,7.92,17,22.63,22.63,0,0,0,14.63,5.13,25.13,25.13,0,0,0,25.52-24.11,22.25,22.25,0,0,0,4-12.77,22,22,0,0,0-3.95-12.8,25.69,25.69,0,0,0-3.42-11.62,25,25,0,0,0-9.84-9.47,25.87,25.87,0,0,0-12.27-3Z"/><path class="cls-1" d="M171.38,54.19a15.21,15.21,0,0,1-11.81-5,13.12,13.12,0,0,1-3.38-8.87,13.63,13.63,0,0,1,1-5.06,13.27,13.27,0,0,1-1-5A13.56,13.56,0,0,1,161.5,19.5a16,16,0,0,1,9.73-3.18h.15A16,16,0,0,1,181,19.27a13.3,13.3,0,0,1,5.54,10.86,13.51,13.51,0,0,1-.95,5.06A13.61,13.61,0,0,1,181.24,51,15.9,15.9,0,0,1,171.38,54.19Z"/><path class="cls-2" d="M171.38,26.32a6.27,6.27,0,0,1,3.76,1,3.26,3.26,0,0,1,1.42,2.78A3.49,3.49,0,0,1,175.12,33a5.9,5.9,0,0,1-3.74,1.12A5.52,5.52,0,0,1,167,32.52a3.23,3.23,0,0,1-.84-2.21,3.45,3.45,0,0,1,1.41-2.88,6.15,6.15,0,0,1,3.78-1.11m0,10a6.27,6.27,0,0,1,3.76,1,3.25,3.25,0,0,1,1.42,2.77,3.51,3.51,0,0,1-1.44,2.9,6,6,0,0,1-3.74,1.11A5.55,5.55,0,0,1,167,42.58a3.27,3.27,0,0,1-.84-2.22,3.44,3.44,0,0,1,1.41-2.87,6.16,6.16,0,0,1,3.78-1.12m0-30h-.3a26.05,26.05,0,0,0-15.67,5.26,23.44,23.44,0,0,0-9.22,18.73,23,23,0,0,0,.54,5,23.72,23.72,0,0,0-.54,5.07,23.26,23.26,0,0,0,5.9,15.5,25.35,25.35,0,0,0,19.29,8.33,25.84,25.84,0,0,0,16-5.3,23.52,23.52,0,0,0,9.19-18.71,24,24,0,0,0-.53-5,23.89,23.89,0,0,0,.53-5,23.2,23.2,0,0,0-9.65-18.94,26.1,26.1,0,0,0-15.53-4.87Z"/><text class="cls-3" transform="translate(83.14 215.99)">&lt;/&gt;</text></g><path class="cls-4" d="M210.1,95.08l13.61-25,22.47-13.41s9.14,4.64,9.84,6.36,32,4.08,32,4.08,27.62-11.46,38.17-10.49S344.39,67.57,345,70.12s7,22.32,11.13,26.7,42.21,11.53,42.21,11.53,7.33,21.79,7.92,29.62-6.56,23.05-7.92,22.42-16.6,5-32.3,3.36-70-8.08-70-8.08S229.6,147.5,228.7,142.4,206,100,206,100Z"/><path class="cls-4" d="M90.61,189.29s28.93,14.21,29.44,14S153,197,153,197l2-14.13-5.28-7.12s-14.47.2-18.38.88-21.62-.17-21.62-.17l-5.11-4.51Z"/><g id="backshadow-2" data-name="backshadow"><path class="cls-4" d="M184.74,120.35c-15,0-28.47-6.25-36-16.73-5.25-7.33-10.13-20.09-3.6-39.27,5-14.07,19.43-23.46,36-23.46a41.21,41.21,0,0,1,27.48,10.3,7.56,7.56,0,0,1,.77.73c8.16,8.83,12.06,23.69,9.26,35.34a8,8,0,0,1-6.21,6q-2.75.56-5.51,1l.76,1.69a102.76,102.76,0,0,1,4,9.71,8,8,0,0,1-4.26,9.83,55.11,55.11,0,0,1-22.71,4.91Zm-7.93-22.5Z"/><path class="cls-4" d="M181.17,48.89a33.21,33.21,0,0,1,22.37,8.46h0c6.27,6.77,9.56,18.9,7.36,28-11,2.2-22.47,2.62-33.64,4.35-7.45.73,1,1.82,3.38,2a35.09,35.09,0,0,0,3.62.18,47.24,47.24,0,0,0,12.47-1.67c2,6,5.4,11.93,7.41,17.9a46.94,46.94,0,0,1-19.4,4.19c-22.05,0-42.1-15.75-32-45.42,4-11.39,16-18,28.42-18m-10,24.1,19.54-2.3c-.47-2.38-4.15-3.54-8.18-3.54-5.28,0-11.18,2-11.36,5.84m10-40.1c-19.95,0-37.44,11.54-43.51,28.71l-.06.17c-5.95,17.48-4.29,34,4.67,46.51s24.87,20.07,42.47,20.07a63.11,63.11,0,0,0,26-5.64,16,16,0,0,0,8.51-19.65c-.38-1.15-.8-2.27-1.23-3.36a16,16,0,0,0,8.39-10.57c3.43-14.29-1.16-31.83-11.17-42.64a15.37,15.37,0,0,0-1.43-1.37,49.23,49.23,0,0,0-32.69-12.23Z"/><path class="cls-4" d="M220.46,182.24a8,8,0,0,1-5.33-2.05,8,8,0,0,1-5.34,2.05H187.92a8,8,0,0,1-5.65-2.34l0,0a8,8,0,0,1-5.66,2.36H154.71a8,8,0,0,1-8-7.63c-.31-6.82-1.06-15.55-1.85-24.79-.82-9.51-1.66-19.34-2.13-28.23a8,8,0,0,1,7.49-8.41L174,111.7l.5,0a7.88,7.88,0,0,1,3.61.87,31,31,0,0,1,4-.25A32.25,32.25,0,0,1,198.87,117a38.58,38.58,0,0,1,4.64-2.33,29.88,29.88,0,0,1,11.38-2.12,33,33,0,0,1,8.44,1.06c26.52,6.72,26.26,34.26,26.07,54.36,0,2.12,0,4.2,0,6.23a8,8,0,0,1-8,8Z"/><path class="cls-4" d="M174.5,119.68v1.83a24.36,24.36,0,0,1,7.58-1.21,24.06,24.06,0,0,1,4.88.5,24.49,24.49,0,0,1,11.66,6l0,0a36.92,36.92,0,0,1,8-4.76,21.83,21.83,0,0,1,8.3-1.5,25,25,0,0,1,6.42.8c22.75,5.73,20,32.16,20.06,52.88l-20.9,0c-.05-10.67,1.34-33.59-7.14-33.59-.21,0-.42,0-.64,0-6.51.83-3.23,23.47-2.9,33.55H187.92c-.13-2.9-.83-21.83-2-26.58-1-4.16-2.79-7-5.79-7-.2,0-.42,0-.63,0-6.51.83-3.25,23.47-2.92,33.55H154.71c-.64-14-3.06-35.65-4-53.07l23.77-1.5m0-16c-.34,0-.67,0-1,0l-23.77,1.49a16,16,0,0,0-15,16.81c.48,9,1.32,18.92,2.14,28.48.79,9.17,1.53,17.83,1.84,24.48a16,16,0,0,0,16,15.27h21.87a15.9,15.9,0,0,0,5.65-1,15.9,15.9,0,0,0,5.69,1.05H209.8a15.91,15.91,0,0,0,5.32-.92,16.21,16.21,0,0,0,5.33.92l20.89,0h0a16,16,0,0,0,16-16.06c0-2,0-4,0-6.12.1-10.51.21-22.42-2.93-33.24-5.57-19.19-18.89-26.33-29.13-28.94a41,41,0,0,0-10.44-1.32,38.06,38.06,0,0,0-14.45,2.72c-.53.22-1,.45-1.55.69a40,40,0,0,0-16.82-3.7c-1,0-1.89,0-2.84.1a16,16,0,0,0-4.73-.72Z"/><path class="cls-4" d="M251,168.39a8,8,0,0,1-8-7.35,231.83,231.83,0,0,0-3.6-24c-1.69-9.06-3.44-18.44-4-28.71a8,8,0,0,1,1.84-5.56,8,8,0,0,1-2.56-5.07c-.73-6.88-1.4-13.64-1.63-20.86a8,8,0,0,1,7.2-8.21L266.34,66c.26,0,.53,0,.79,0a8,8,0,0,1,8,7.6c.05,1,.1,2.1.16,3.34.17,3.71.37,8.32.66,11l.73,5.23a8,8,0,0,1-1,5.09,7.79,7.79,0,0,1,1.05.76,8,8,0,0,1,2.8,5.61c.53,8.8,2.1,17.34,3.77,26.39,1.54,8.32,3.12,16.93,3.89,26a8,8,0,0,1-7.19,8.63l-28.25,2.79A6.79,6.79,0,0,1,251,168.39Z"/><path class="cls-4" d="M267.13,73.94c.21,4,.45,11.09.87,14.92l.75,5.35-26.12,2.61c-.72-6.86-1.37-13.38-1.58-20.26l26.08-2.62m4.42,31.1c1.07,17.73,6.14,34.38,7.68,52.56L251,160.39c-1.52-18.54-6.58-34.07-7.59-52.53L271.55,105m-4.42-47.1c-.53,0-1.06,0-1.59.08l-26.09,2.62a16,16,0,0,0-14.4,16.42c.24,7.49.93,14.42,1.67,21.45a15.68,15.68,0,0,0,1.31,4.85,16,16,0,0,0-.62,5.38c.59,10.79,2.39,20.42,4.12,29.74A224,224,0,0,1,235,161.7,16,16,0,0,0,251,176.39c.52,0,1.05,0,1.57-.08l28.25-2.79a16,16,0,0,0,14.37-17.27c-.8-9.43-2.42-18.24-4-26.75-1.62-8.8-3.16-17.11-3.66-25.42a16,16,0,0,0-2.86-8.21A15.84,15.84,0,0,0,284.6,92l-.72-5.08c-.25-2.47-.46-7-.61-10.41-.06-1.24-.11-2.39-.16-3.36a16,16,0,0,0-16-15.19Z"/><path class="cls-4" d="M309.59,170.85a8,8,0,0,1-5.95-2.65l-21-23.38a8,8,0,0,1,1.49-12l1.29-.87c4.4-3,9.16-6.14,13.55-9.45-4.7-3.23-9.6-6.45-14.14-9.43l-1.19-.78a8,8,0,0,1-1.73-11.83l19.7-23.42a8,8,0,0,1,11.05-1.15c6.81,5.31,14.59,11.34,22.25,17,7.2-5.07,14.25-10.94,20.89-16.63A8,8,0,0,1,367,77l19.52,22.1a8,8,0,0,1-1.12,11.63c-4.14,3.2-8.91,6.87-13.7,10.54,4,2.49,8.13,4.94,12,7.22l1.91,1.12A8,8,0,0,1,388,141.15l-18.17,25.49a8,8,0,0,1-11.14,1.89L335.37,152l-20.7,17A8,8,0,0,1,309.59,170.85Z"/><path class="cls-4" d="M307.71,82.2c8.76,6.84,18,14,27,20.43,9.11-5.91,18-13.24,26.25-20.32l19.52,22.1c-7.19,5.53-15.36,11.82-22.55,17.29.36.25.71.51,1.07.75,6.76,4.86,15.29,9.81,22.49,14.06L363.32,162,335,142l-25.42,20.9-21-23.38c7.7-5.18,16.71-11.12,23.49-17.45-7.39-5.5-16.29-11.31-24-16.4l19.7-23.42m0-16a16,16,0,0,0-12.26,5.7l-19.7,23.42A16,16,0,0,0,279.22,119l1.18.77,4.44,2.92c-1.32.9-2.64,1.78-3.92,2.64l-1.28.87a16,16,0,0,0-3,24l21,23.38a16,16,0,0,0,22.06,1.66l16-13.14,18.35,13a16,16,0,0,0,22.27-3.77l18.18-25.49a16,16,0,0,0-4.89-23.07l-1.9-1.11-1.91-1.13,4.43-3.41a16,16,0,0,0,2.22-23.27L373,71.72a16,16,0,0,0-22.4-1.56c-5,4.31-10.3,8.72-15.65,12.77-6-4.51-12-9.15-17.35-13.34a15.94,15.94,0,0,0-9.84-3.39Z"/><path class="cls-4" d="M46.33,193.66a8,8,0,0,1-7.89-6.78L35.51,168a8,8,0,0,1,6.68-9.12l34.42-5.33a17.52,17.52,0,0,1,2.77-.22,14.07,14.07,0,0,1,13.13,8.37c0,.05.21.48.21.48l.12.3.22.57.18.56.19.65.13.51c0,.06.14.7.14.7s.08.45.09.49L95.66,178A8,8,0,0,1,89,187.16l-41.41,6.41A8.73,8.73,0,0,1,46.33,193.66ZM116,182.87a8,8,0,0,1-7.91-6.79l-.3-2-.6-4.38-.14-1-.22-1.55-.15-1-.17-1-.34-1.91-.22-1.18-.24-1.26-.42-2-.24-1.12-.26-1.16-.37-1.66-.3-1.31c-.09-.39-.17-.73-.26-1.06l-.19-.72c-1.8-6.55-3.76-6.68-6-6.78H96.5l-.67,0-.43,0-.49,0-.5.05-.51.06-.58.08-.56.08-51.43,8a8.59,8.59,0,0,1-1.23.09,8,8,0,0,1-7.9-6.77l-3.93-25.38A8,8,0,0,1,35,112.1l52.75-8.17c.75-.11,1.47-.24,2.17-.38l.68-.14.65-.14.91-.22.67-.18,1-.3.58-.2c5.15-1.77,5.84-3.65,5.16-8-.34-2.22-1-6.35-9.37-6.35a31,31,0,0,0-4.87.41L32.55,96.56a8.45,8.45,0,0,1-1.22.09,8,8,0,0,1-7.91-6.77L19.58,65a8,8,0,0,1,6.68-9.13l58.55-9.06a92,92,0,0,1,14-1.14C125.7,45.71,143.32,60,147.19,85c2.09,13.53-1.68,25.77-9.82,34.23,6.6,4.42,11.14,11.42,13.56,21,0,0,.64,2.73.64,2.73l.56,2.44.51,2.29.37,1.74.44,2.05.24,1.19.37,1.86.35,1.77.19,1,.3,1.63.33,1.88.16.92.43,2.59.68,4.34a8,8,0,0,1-6.69,9.13l-32.54,5A8.48,8.48,0,0,1,116,182.87Z"/><path class="cls-4" d="M98.84,53.71c23.65,0,37.28,12.08,40.44,32.48,2.76,17.82-6.48,31.15-21.09,35.4,13,.57,21.44,6.6,25,20.53l.6,2.57.55,2.41.5,2.25.36,1.7.43,2,.23,1.15.37,1.82.33,1.72.19,1,.29,1.58.32,1.82.15.88.42,2.55.42,2.67.25,1.59-32.55,5-.1-.66-.19-1.3-.17-1.26-.42-3.05-.14-1-.24-1.6-.16-1-.18-1.08-.14-.84-.21-1.17-.23-1.25-.26-1.32-.29-1.41-.15-.74-.25-1.15-.26-1.21-.39-1.71-.31-1.35c-.1-.42-.19-.83-.3-1.23l-.2-.78c-2.53-9.2-6.86-12.45-13.47-12.73l-.55,0H96.28l-.59,0H95.4l-.61,0-.61.06-.63.06-.63.07-.64.08-.65.1-51.52,8L36.18,120l52.74-8.16c.86-.14,1.7-.28,2.5-.44l.79-.16.78-.17.75-.18.37-.1.73-.19c.48-.13.94-.27,1.39-.41l.67-.23c8.32-2.86,11.9-8,10.54-16.84C106.15,84.79,100.32,80,90.16,80a39.59,39.59,0,0,0-6.09.5L31.33,88.65,27.48,63.82,86,54.76a83.31,83.31,0,0,1,12.81-1M79.38,161.29a6.07,6.07,0,0,1,5.86,3.7l.13.31.12.31.08.24,0,.13.07.24.06.24,0,.11,0,.24,0,.11,0,.22,1.88,12.11-41.42,6.41-2.93-18.92,34.42-5.33a10.73,10.73,0,0,1,1.55-.12M98.84,37.71v0a100.07,100.07,0,0,0-15.25,1.23L25,48A16,16,0,0,0,11.67,66.27L15.51,91.1a16,16,0,0,0,15.8,13.56h.35a16,16,0,0,0-11.29,17.8l3.92,25.38a16,16,0,0,0,5.81,10,16,16,0,0,0-2.5,11.32l2.93,18.92a16,16,0,0,0,18.26,13.36l41.41-6.41A16,16,0,0,0,103,184.13a15.65,15.65,0,0,0,3.58,3.64,16,16,0,0,0,9.46,3.1,15.55,15.55,0,0,0,2.45-.19l32.55-5a16,16,0,0,0,13.36-18.26l-.25-1.59-.42-2.71,0-.11-.42-2.55,0-.09-.15-.88v-.08l-.32-1.82,0-.11-.29-1.59,0-.08-.18-1,0-.08-.33-1.72,0-.11-.37-1.82V151l-.24-1.14,0-.08-.42-2,0-.08-.37-1.7v-.08l-.5-2.25,0-.08-.55-2.41,0-.08-.6-2.57c0-.1,0-.21-.07-.31a45.43,45.43,0,0,0-10.36-20l.5-.79c6-9.66,8.18-21.32,6.26-33.7-4.46-28.82-25.49-46-56.25-46Z"/><path class="cls-4" d="M219.25,73.36c-.83,0-1.66,0-2.49-.08a8,8,0,0,1-6.85-4.89l-1.18-2.79a8,8,0,0,1,.62-7.39,7,7,0,0,1,.65-.87,8.1,8.1,0,0,1-2.45-3.24,8,8,0,0,1,0-6.12l6.64-15.92a8,8,0,0,1,10.47-4.3l4.65,1.94a8,8,0,0,1,4.09,3.85,8.08,8.08,0,0,1,3.22-.67,8,8,0,0,1,3.08.62l4.65,1.94a8,8,0,0,1,4.3,10.46l-5.09,12.2A25.67,25.67,0,0,1,239,65.35a23.8,23.8,0,0,1-6.87,5.26l-.16.08a26.25,26.25,0,0,1-8.52,2.43A37.18,37.18,0,0,1,219.25,73.36Z"/><path class="cls-4" d="M221.6,35.14l4.65,2L219.6,53,215,51.06l6.65-15.92m15,5.74,4.65,1.94L236.2,55a17.8,17.8,0,0,1-3.14,5,15.6,15.6,0,0,1-4.53,3.46,18.33,18.33,0,0,1-5.93,1.69,28.94,28.94,0,0,1-3.35.19c-.66,0-1.31,0-2-.07L216.1,62.5a28.1,28.1,0,0,0,4.69-.58,17.29,17.29,0,0,0,4.92-2,14.43,14.43,0,0,0,3.54-3.05A18.05,18.05,0,0,0,231.59,53l5-12.09m-15-21.74A16,16,0,0,0,206.83,29l-6.64,15.91a16,16,0,0,0,.48,13.39,16,16,0,0,0,.69,10.43l1.17,2.79a16,16,0,0,0,13.71,9.76c1,.06,2,.1,3,.1a45.93,45.93,0,0,0,5.11-.29,34.15,34.15,0,0,0,11.08-3.16l.33-.17a31.54,31.54,0,0,0,9.14-7,.39.39,0,0,0,.08-.1,33.7,33.7,0,0,0,6-9.49L256.06,49a16,16,0,0,0-8.61-20.92l-4.65-1.95a15.93,15.93,0,0,0-6.15-1.24h-.06a16,16,0,0,0-4.18-2.55l-4.65-1.94a16.06,16.06,0,0,0-6.16-1.24Z"/><path class="cls-4" d="M278.38,71.07A8,8,0,0,1,275,70.3c-3.65-1.72-7.39-3.35-11.13-4.85-3.37-1.39-6.78-2.62-10.18-3.67a8,8,0,0,1-4.89-11l1.8-3.89A7.47,7.47,0,0,1,251.81,45a7.91,7.91,0,0,1,.59-2.87l.54-1.32a8.25,8.25,0,0,1-.92-1.4,8,8,0,0,1-.33-6.64l1.55-3.89a8,8,0,0,1,7.42-5,8.45,8.45,0,0,1,1.58.15c4.05.81,8.1,1.8,12.05,2.93,3.32.93,6.7,2,10,3.25a8,8,0,0,1,4.6,10.56l-2,4.79a2.14,2.14,0,0,1-.1.22,8,8,0,0,1-.61,4.17l-.8,1.83A8,8,0,0,1,288,62.12l-2.52,4.72A8,8,0,0,1,278.38,71.07Z"/><path class="cls-4" d="M260.67,31.82q5.76,1.16,11.41,2.77,4.76,1.33,9.4,3.06l-2,4.79q-5.19-2.23-10.55-4-4.86-1.59-9.83-2.77l1.55-3.89m.68,9.54a117.6,117.6,0,0,1,17.5,5.33l-2,4.6a117.19,117.19,0,0,0-17-6.15l1.54-3.78m-3.52,8.89c3.52.89,7,1.94,10.47,3.17q6.38,2.27,12.6,4.93l-2.52,4.72q-5.73-2.7-11.55-5-5.34-2.2-10.81-3.89l1.81-3.89m2.83-34.43A16,16,0,0,0,245.8,25.9l-1.54,3.89a16,16,0,0,0,0,11.74c0,.15-.07.31-.1.47a13.94,13.94,0,0,0-.81,1.53l-1.8,3.89a16,16,0,0,0,9.79,22c3.17,1,6.34,2.12,9.43,3.39l.13.06c3.59,1.43,7.19,3,10.7,4.66a16,16,0,0,0,20.93-6.93L295,65.89a16,16,0,0,0,1-12.84,16.19,16.19,0,0,0-1.49-3.11,15.78,15.78,0,0,0,.33-2.74l1.42-3.43a16,16,0,0,0-9.2-21.11c-3.48-1.3-7.05-2.46-10.62-3.46C272.3,18,268.05,17,263.81,16.13a16.09,16.09,0,0,0-3.15-.31Z"/><path class="cls-4" d="M313.57,47.62a29.25,29.25,0,0,1-4.47-.34,8,8,0,0,1-6.5-5.82l-.72-2.67a8,8,0,0,1,1.42-7c.18-.23.37-.44.57-.65a8,8,0,0,1-.68-4.38,25.71,25.71,0,0,0,0-6.26,8,8,0,0,1,7.95-8.9l4.38.1a7.9,7.9,0,0,1,4.33,1.39l2.67.14a8,8,0,0,1,6.31,3.63,8,8,0,0,1,4.2,1.45L336.9,21A8,8,0,0,1,339,31.9a45.32,45.32,0,0,1-5.5,6.86l-.08.09a34.17,34.17,0,0,1-7.22,5.49,26.55,26.55,0,0,1-9.33,3.1l-.22,0A28.7,28.7,0,0,1,313.57,47.62Z"/><path class="cls-4" d="M311.18,19.58l4.2.09a40.85,40.85,0,0,1,0,8.2l-4.25-.12a34.35,34.35,0,0,0,.05-8.17M318,21l4.18.21a40.72,40.72,0,0,1-.26,8.19l-4.33-.16A35.48,35.48,0,0,0,318,21m10.48,3.84,3.83,2.7a37.4,37.4,0,0,1-4.53,5.65,25.65,25.65,0,0,1-5.52,4.2,18.39,18.39,0,0,1-6.44,2.13c-.74.07-1.48.11-2.23.11a20.93,20.93,0,0,1-3.25-.25l-.72-2.66h.49a22.49,22.49,0,0,0,4.07-.37,16.45,16.45,0,0,0,5.2-2,21.9,21.9,0,0,0,4.6-3.83,56.73,56.73,0,0,0,4.5-5.66M311.18,3.58a16,16,0,0,0-15.9,17.8,18.09,18.09,0,0,1,0,4.35,16.07,16.07,0,0,0,0,3.92,16,16,0,0,0-1.09,11.23l.72,2.67a16,16,0,0,0,13,11.64,37.36,37.36,0,0,0,5.68.43c1.3,0,2.61-.07,3.91-.2l.44-.05a34.37,34.37,0,0,0,12.06-4l.16-.09a42.41,42.41,0,0,0,8.92-6.79l.16-.16a52.94,52.94,0,0,0,6.47-8.08,16,16,0,0,0-4.18-21.81l-3.83-2.7a15.85,15.85,0,0,0-4.58-2.24A15.92,15.92,0,0,0,323,5.22l-.82,0a16,16,0,0,0-6.4-1.49l-4.19-.1Z"/><path class="cls-4" d="M298.77,85.27a8,8,0,0,1-5.65-2.34l-2.05-2.06a8,8,0,0,1-2.16-7.37,8.23,8.23,0,0,1,.62-1.79,8.07,8.07,0,0,1-1.83-1.16l-2-1.65A8,8,0,0,1,285.35,57a30.19,30.19,0,0,0,4.81-5.9,49.63,49.63,0,0,0,4.16-8,8,8,0,0,1,10-4.54L309,40.12a8,8,0,0,1,4.37,3.7h5.05a8,8,0,0,1,8,8v3.74a7.46,7.46,0,0,1-.06.95,41.76,41.76,0,0,1-2,8.7,2,2,0,0,0-.08.22A36.82,36.82,0,0,1,322,70.35l-.19.32a35.63,35.63,0,0,1-3,4.1,2,2,0,0,1-.19.22,35,35,0,0,1-3.66,3.42,3.92,3.92,0,0,1-.32.25,38.13,38.13,0,0,1-4.12,2.62,1.71,1.71,0,0,1-.23.13A47.86,47.86,0,0,1,300.83,85,8,8,0,0,1,298.77,85.27Z"/><path class="cls-4" d="M301.73,46.06l4.64,1.62a44.63,44.63,0,0,1-1.8,4.14h13.86v3.74a33.75,33.75,0,0,1-1.62,7A27.15,27.15,0,0,1,315,66.4a27.43,27.43,0,0,1-2.34,3.16,25,25,0,0,1-2.81,2.63,30.63,30.63,0,0,1-3.27,2.09,39.56,39.56,0,0,1-7.82,3l-2-2a32.68,32.68,0,0,0,5.44-2.59,26.91,26.91,0,0,0,5.65-4.83A24.32,24.32,0,0,0,311.52,62a22.53,22.53,0,0,0,1.76-6.26H301.87A33,33,0,0,1,297.59,61a21.52,21.52,0,0,1-4.76,3.42l-2-1.66a38.13,38.13,0,0,0,6.09-7.45,57.44,57.44,0,0,0,4.79-9.25m0-16a16,16,0,0,0-14.82,10,41.66,41.66,0,0,1-3.45,6.67.57.57,0,0,0-.08.13,22.17,22.17,0,0,1-3.54,4.33A16,16,0,0,0,280.59,75l.13.12a16,16,0,0,0,4.69,11.38l2,2a16,16,0,0,0,15.42,4.15,55.78,55.78,0,0,0,11-4.19l.47-.25a46,46,0,0,0,4.95-3.16c.23-.16.44-.33.66-.5a42.86,42.86,0,0,0,4.5-4.22l.39-.43a43.35,43.35,0,0,0,3.72-5c.13-.21.26-.42.38-.64a43.37,43.37,0,0,0,2.84-6c.06-.15.11-.31.16-.46a49.79,49.79,0,0,0,2.4-10.36,17.47,17.47,0,0,0,.11-1.91V51.82a16,16,0,0,0-16-16h-1.32a15.87,15.87,0,0,0-5.47-3.25L307,31a15.91,15.91,0,0,0-5.27-.9Z"/><path class="cls-4" d="M340.37,86.22a8,8,0,0,1-3.87-1L334.2,84a8,8,0,0,1-2.64-11.64A64,64,0,0,0,337,63.14l-.86.29a8,8,0,0,1-10.15-5l-1.28-3.75a8,8,0,0,1,5-10.15l20.58-7a8,8,0,0,1,6.15.41,8,8,0,0,1,4,4.66l1.18,3.59a8.18,8.18,0,0,1,.41,2.46,35.26,35.26,0,0,1-.6,6.66,1.29,1.29,0,0,1,0,.19c-.11.51-.22,1-.34,1.52l.12.06c2.52,1.19,5.12,2.3,7.72,3.3a8,8,0,0,1,4.17,11.26l-1.33,2.47a8,8,0,0,1-7,4.21,9.26,9.26,0,0,1-1.05-.07A51,51,0,0,1,354,76l-.77-.27q-.51.8-1.05,1.56l-.11.15a39.88,39.88,0,0,1-6.59,7A8,8,0,0,1,340.37,86.22Z"/><path class="cls-4" d="M352.87,45.1l1.19,3.59a27.38,27.38,0,0,1-.46,5.14,50.23,50.23,0,0,1-1.47,5.41c-.16.56-.33,1.11-.5,1.65a53.54,53.54,0,0,0,6.14,3.42q4.08,1.92,8.28,3.54l-1.33,2.47a43.21,43.21,0,0,1-8.14-1.91,31.52,31.52,0,0,1-6.75-3.18,43.89,43.89,0,0,1-4.2,7.44,31.72,31.72,0,0,1-5.25,5.55L338.08,77a72.6,72.6,0,0,0,7.58-13.49,57.35,57.35,0,0,0,2.39-7.28,54.31,54.31,0,0,0,.88-5.55l-15.37,5.23-1.27-3.75,20.58-7m0-16a16,16,0,0,0-5.15.86l-20.59,7a16,16,0,0,0-10,20.31L318.42,61a16,16,0,0,0,5.84,7.87,16,16,0,0,0,6.06,22.06l2.3,1.28a16,16,0,0,0,18-1.67A47.52,47.52,0,0,0,356.26,85a59.72,59.72,0,0,0,6.35,1.21,16.89,16.89,0,0,0,2.12.14,16,16,0,0,0,14.08-8.42l1.33-2.47a16,16,0,0,0-8.36-22.52l-1.85-.73c.09-1.19.13-2.38.13-3.58a16.15,16.15,0,0,0-.81-4.92l-1.18-3.59a16,16,0,0,0-15.2-11Z"/><path class="cls-4" d="M251.87,197.51a8,8,0,0,1-8-7.35c-.16-2-.45-4-.76-6.21a78.8,78.8,0,0,1-1-11.48,8,8,0,0,1,7.22-8l6-.58a6.74,6.74,0,0,1,.77,0,8,8,0,0,1,8,8c0,1.13.07,2.49.17,3.9a8.08,8.08,0,0,1,4.84,2,8,8,0,0,1,2.66,5.7l.18,5.33a8,8,0,0,1-7.72,8.27l-12.06.4Z"/><path class="cls-4" d="M256.07,171.88h0m0,0a93.53,93.53,0,0,0,1.1,12.41l6.58-.52.18,5.33-12.05.41c-.47-5.74-1.79-11.21-1.79-17l6-.58m0-16h-.29a13.94,13.94,0,0,0-1.46.1l-5.78.56a16,16,0,0,0-14.45,15.93,86.94,86.94,0,0,0,1.13,12.61c.29,2,.56,3.95.71,5.73a16,16,0,0,0,15.94,14.7h.54l12.06-.41a16,16,0,0,0,15.45-16.53l-.18-5.33a16,16,0,0,0-5.33-11.39A16.33,16.33,0,0,0,272,170a16,16,0,0,0-15.72-14.16Zm0,32h0Z"/><path class="cls-4" d="M270.56,197.29a14.48,14.48,0,0,1-12.84-7.83,16.51,16.51,0,0,1-.35-13.54,14.1,14.1,0,0,1,12.87-8.23,15,15,0,0,1,8.43,2.65,15.87,15.87,0,0,1,2,1.66,15.06,15.06,0,0,1,3.69,15.19,14.83,14.83,0,0,1-12.39,10C271.51,197.26,271,197.29,270.56,197.29Z"/><path class="cls-4" d="M270.24,175.69a6.81,6.81,0,0,1,3.87,1.23,6.09,6.09,0,0,1,.92.76,7.06,7.06,0,0,1,1.72,7,6.76,6.76,0,0,1-5.59,4.55q-.3,0-.6,0a6.51,6.51,0,0,1-5.7-3.44,8.49,8.49,0,0,1-.15-6.74,6.12,6.12,0,0,1,4.67-3.37,6.2,6.2,0,0,1,.86-.05m.36,8.65a1.51,1.51,0,0,0,.91-.3l.15-.13a1.54,1.54,0,0,0-.21-2.34,1.68,1.68,0,0,0-1-.3,1.32,1.32,0,0,0-1.4,1,1.86,1.86,0,0,0,.7,1.8,1.53,1.53,0,0,0,.84.25m-.36-24.65a22.37,22.37,0,0,0-3.06.21A22,22,0,0,0,250,172.75a24.5,24.5,0,0,0,.55,20.33,22.57,22.57,0,0,0,20,12.21c.74,0,1.49,0,2.23-.11A22.63,22.63,0,0,0,292,189.67a22.91,22.91,0,0,0-8.74-25.91,22.73,22.73,0,0,0-13-4.07Z"/><path class="cls-4" d="M285.12,196.87a8.22,8.22,0,0,1-1.58-.16c-.31,0-.63,0-.94,0-5.25,0-9.78-2.65-11.83-6.9a12.27,12.27,0,0,1,.17-10.58c.08-.18.17-.35.26-.52l0-.05a8,8,0,0,1,5.11-10,27.05,27.05,0,0,1,7-1.34h.1c.62,0,1.27-.07,1.92-.07a13,13,0,0,1,9.15,3.26c2.67,2.41,4,5.78,4.07,10.3l.1,7.43a8,8,0,0,1-7.27,8.07l-5.52.51C285.62,196.85,285.37,196.87,285.12,196.87Z"/><path class="cls-4" d="M285.34,175.26a5.22,5.22,0,0,1,3.71,1.14c.42.38,1.47,1.13,1.51,4.53,0,2.47.07,4.95.1,7.42l-5.53.51-.07-.52a8.15,8.15,0,0,1-2.46.4,5,5,0,0,1-4.63-2.38,4.46,4.46,0,0,1,.22-3.71c.66-1.55,3.13-2.82,5.74-2.82q.39,0,.78,0c0-.08-.06-.38-.06-.47a7.59,7.59,0,0,0-.92-.06,7.26,7.26,0,0,0-3.63,1c-.43-1.35-.87-2.7-1.3-4.06a19.32,19.32,0,0,1,4.95-.94c.51,0,1.05-.06,1.59-.06m-1.69,10.18a4.73,4.73,0,0,0,1-.12h0l-.08-2.34a3.49,3.49,0,0,0-.54,0c-.72,0-1.9.19-1.85,1.45,0,.86.78,1.05,1.45,1.05m1.69-26.18c-.94,0-1.76.05-2.36.08h-.1a34.84,34.84,0,0,0-9.1,1.72,16,16,0,0,0-10.9,16.77,20.21,20.21,0,0,0,.68,15.47c3.4,7.05,10.69,11.43,19,11.43H283a15.76,15.76,0,0,0,2.07.14c.5,0,1,0,1.49-.07l5.53-.51a16,16,0,0,0,14.53-16.14l-.08-5.92,0-1.51c-.09-6.77-2.35-12.2-6.71-16.14a20.78,20.78,0,0,0-14.51-5.32Z"/><path class="cls-4" d="M299.4,196.31a17.51,17.51,0,0,1-8.36-1.64,14.25,14.25,0,0,1-7.45-14.08,15,15,0,0,1,7.76-12,8,8,0,0,1,7.44-6.15l5.18-.22h.34a8,8,0,0,1,8,8.43c-.18,3.41-.21,7.56-.23,11.57,0,2.06,0,4.07-.06,5.93a8,8,0,0,1-7,7.79A48.05,48.05,0,0,1,299.4,196.31Z"/><path class="cls-4" d="M304.31,170.24c-.29,5.39-.2,12.27-.3,17.79a42.22,42.22,0,0,1-4.61.28,11.08,11.08,0,0,1-4.6-.7c-5-2.67-4-10.62,1.34-12.37a8.72,8.72,0,0,1,3.08-.45c0-1.46,0-2.93-.09-4.33l5.18-.22m-6.18,13.6,1,0,0-4.23a3.29,3.29,0,0,0-.54-.05,2.3,2.3,0,0,0-2.19,3.39,1.81,1.81,0,0,0,1.81.91m6.18-29.6-.68,0-5.18.22a16,16,0,0,0-13.63,8.83,23.07,23.07,0,0,0-9.2,16.59,22.41,22.41,0,0,0,11.67,21.83c3.3,1.76,7.15,2.58,12.11,2.58a56.94,56.94,0,0,0,6.64-.41,16,16,0,0,0,14-15.59c0-1.92,0-4,.06-6,0-3.93.05-8,.22-11.21a16,16,0,0,0-16-16.86Z"/><path class="cls-4" d="M312.54,195.76a15.25,15.25,0,0,1-12.49-5.94c-2.8-3.78-3.49-8.67-1.94-13.78a14.19,14.19,0,0,1,13.8-9.71,15.11,15.11,0,0,1,9.72,3.52l.52.49a15.08,15.08,0,0,1,3.91,13.12,8,8,0,0,1-1.12,2.75,8,8,0,0,1-4.42,7.68A18.06,18.06,0,0,1,312.54,195.76Z"/><path class="cls-4" d="M311.91,174.33a7,7,0,0,1,4.55,1.63,7.12,7.12,0,0,1,1.76,5.9c-2.3.54-4.74.71-7.1,1.16-1.57.21.23.38.74.4l.49,0a10.11,10.11,0,0,0,2.91-.45c.46,1.25,1.22,2.49,1.69,3.74a9.94,9.94,0,0,1-4.41,1c-4.55,0-8.66-3.19-6.77-9.4a6.26,6.26,0,0,1,6.14-4m-2.2,5.18,4.12-.62c-.11-.48-.81-.7-1.61-.7-1.16,0-2.5.47-2.51,1.32m2.2-21.18h0a22.12,22.12,0,0,0-21.4,15.21,1.54,1.54,0,0,0-.05.17c-2.28,7.49-1.12,15.1,3.16,20.87a23.17,23.17,0,0,0,18.92,9.18,26.07,26.07,0,0,0,11.55-2.71,16,16,0,0,0,8.79-12.78,15.61,15.61,0,0,0,1-3.21,23.12,23.12,0,0,0-6.06-20.35c-.34-.34-.69-.66-1-1a23.1,23.1,0,0,0-14.88-5.41Z"/><path class="cls-4" d="M320.37,195.48a8,8,0,0,1-8-7.35c-.15-1.81-.41-3.59-.68-5.47a62.15,62.15,0,0,1-.85-8.46,8,8,0,0,1,7.3-8.07l1.08-.09c1.72-.16,3.49-.32,5.32-.39H325a14.65,14.65,0,0,1,2.07-.16,13.06,13.06,0,0,1,8,2.83,8,8,0,0,1,2,10.55c-.26.42-.53.95-.83,1.56-.41.82-.87,1.75-1.5,2.76a6.94,6.94,0,0,1-.7,1c.09.75.17,1.46.22,2.06a8,8,0,0,1-7.23,8.67l-6,.56C320.86,195.47,320.62,195.48,320.37,195.48Z"/><path class="cls-4" d="M327.11,173.48a5.1,5.1,0,0,1,3.21,1.2c-.89,1.45-1.44,2.88-2.33,4.33a3.18,3.18,0,0,0-1.11-.25,2.35,2.35,0,0,0-1.46.66s.72,5,.94,7.51l-6,.55c-.39-4.83-1.45-9.2-1.5-13.38,2-.17,4-.37,6-.46,0,.08,0,.15,0,.23a7.51,7.51,0,0,1,2.19-.39m0-16h0a21.72,21.72,0,0,0-2.66.17h-.2c-2,.08-4,.25-5.7.41l-1.07.09a16,16,0,0,0-14.61,16.14,69.81,69.81,0,0,0,.93,9.52c.26,1.75.5,3.4.62,5a16,16,0,0,0,15.95,14.7c.49,0,1,0,1.48-.06l4.38-.41,1.61-.15a16,16,0,0,0,14.5-16.71c.46-.83.83-1.57,1.13-2.16.17-.34.4-.81.49-1a16,16,0,0,0-4-21.1,20.92,20.92,0,0,0-12.87-4.45Z"/><path class="cls-4" d="M332.25,195.08a8,8,0,0,1-8-7.41c-.13-1.76-1.12-10.79-1.75-16.43a8,8,0,0,1,3.79-7.72c1.27-.78,2.64-1.24,7.33-1.93a70.68,70.68,0,0,1,9-.54c.91,0,1.76,0,2.5,0a8,8,0,0,1,7.61,7.68l.22,5.37a8.11,8.11,0,0,1-1.23,4.59l0,1a8,8,0,0,1-5.59,7.87,8,8,0,0,1-7.7,7.29l-6,.2Z"/><path class="cls-4" d="M342.68,169.05c.77,0,1.49,0,2.12,0l.21,5.38c-1-.05-1.95-.08-2.94-.08a28.74,28.74,0,0,0-5.11.4c0,.14.06.91.07,1.16a32.17,32.17,0,0,1,6.64-.59l.14,4.59a26.6,26.6,0,0,0-6.11.58c0,.32.54,6.34.54,6.34l-6,.21c-.19-2.55-1.78-16.73-1.78-16.73s.46-.28,4.34-.85a63.83,63.83,0,0,1,7.86-.45m0-16a78.35,78.35,0,0,0-10.2.62c-4.8.71-7.58,1.34-10.33,3a16,16,0,0,0-7.57,15.44c.77,6.83,1.62,14.72,1.72,16.13a16,16,0,0,0,15.95,14.82h.55l6-.2A16.06,16.06,0,0,0,353,193.05a16.07,16.07,0,0,0,6.8-12.46,16.16,16.16,0,0,0,1.2-6.76l-.21-5.37a16,16,0,0,0-15.24-15.35c-.86,0-1.83-.06-2.87-.06Z"/><path class="cls-4" d="M352.62,194.51a13.76,13.76,0,0,1-10.11-4c-4.57-4.61-4.88-11.32-4.81-17.25a8,8,0,0,1,7.94-7.91l5.7,0a8,8,0,0,1,2.49.4l5.51-.4.59,0a8,8,0,0,1,7.94,7.11c.64,5.6.84,12.66-3.29,17.48-3.72,4.34-8.78,4.55-11.22,4.65Zm6.84-17Z"/><path class="cls-4" d="M359.93,173.26c1.4,12.4-2.51,13.06-6.9,13.24h-.41c-6.68,0-7-7-6.93-13.18l5.65,0c0,.05-.56,8.18,1.94,8.18h.09c1.37-.11.46-7.76.46-7.76l6.1-.45m0-16c-.39,0-.79,0-1.18.05l-4.21.31a15.54,15.54,0,0,0-3.21-.33h-.11l-5.64,0a16,16,0,0,0-15.89,15.82c-.06,5.45-.18,15.59,7.12,23a22,22,0,0,0,15.8,6.39c.35,0,.71,0,1.08,0,3-.12,11-.45,17-7.44,6.2-7.24,5.92-16.93,5.16-23.58a16,16,0,0,0-15.88-14.21Z"/><path class="cls-4" d="M362.5,194.06a8,8,0,0,1-8-7.36c-.12-1.6-.38-3.74-.65-6-.29-2.45-.59-5-.8-7.35a8,8,0,0,1,7.2-8.65l6-.57a6.62,6.62,0,0,1,.77,0,8.14,8.14,0,0,1,1.71.18h.44a13.77,13.77,0,0,1,3.05.33c11.3,2.5,11.58,14.21,11.7,19.22,0,.51,0,1,0,1.5a8,8,0,0,1-7.74,8.3l-5.27.17h-.25a7.64,7.64,0,0,1-1.08-.07,8.46,8.46,0,0,1-1.34.16l-5.51.19Z"/><path class="cls-4" d="M367,172.08l0,.46a8.63,8.63,0,0,1,2.13-.28,6.07,6.07,0,0,1,1.29.13c5.79,1.26,5.31,8,5.51,13.23l-5.27.16c-.1-2.68.05-8.44-2-8.44h-.2c-1.63.27-.61,6-.44,8.52l-5.51.19c-.28-3.54-1.08-9-1.46-13.4l6-.58m0-16c-.51,0-1,0-1.54.07l-6,.58a16,16,0,0,0-14.4,17.3c.22,2.48.53,5.09.83,7.61.26,2.18.5,4.25.62,5.69a16,16,0,0,0,15.94,14.73h.56l5.51-.19c.45,0,.89-.05,1.33-.1l.8,0h.51l5.27-.16A16,16,0,0,0,392,185c0-.46,0-.92,0-1.4a40,40,0,0,0-1.6-11.8,21.94,21.94,0,0,0-16.33-15,21.57,21.57,0,0,0-4.58-.52,15.69,15.69,0,0,0-2.38-.18Z"/><path class="cls-4" d="M384.21,193.26a15.49,15.49,0,0,1-13.68-7.56,14.75,14.75,0,0,1-.08-14.7c2.66-4.61,7.54-7.26,13.37-7.26a24.08,24.08,0,0,1,8,1.49,8,8,0,0,1,5,10l-.29.92a7.86,7.86,0,0,1,.71,3.19l.08,4.82a8,8,0,0,1-5.22,7.63,22.66,22.66,0,0,1-7.85,1.51Z"/><path class="cls-4" d="M383.82,171.74a16.1,16.1,0,0,1,5.34,1l-1.45,4.57a11.86,11.86,0,0,0-3.39-.66,3.17,3.17,0,0,0-2,.55c-1.44,2.31.3,3,2.47,3a11.7,11.7,0,0,0,4.38-.85l.08,4.83a14.76,14.76,0,0,1-5.07,1c-9.86,0-10.5-13.52-.4-13.52m0-16A23.48,23.48,0,0,0,367,162.47a22.15,22.15,0,0,0-6.46,15.77c0,12.91,10.4,23,23.69,23a30.73,30.73,0,0,0,10.64-2A16,16,0,0,0,405.29,184l-.08-4.83a15.45,15.45,0,0,0-.37-3.19,16,16,0,0,0-10.35-18.3,32.33,32.33,0,0,0-10.67-1.94Z"/><path class="cls-4" d="M398.38,192.85c-8.54,0-13.52-4.11-14.87-12.23a8,8,0,0,1-1.53-4.43l-.14-4.15a8,8,0,0,1,1.1-4.32h0a8,8,0,0,1,8-8.43l5.53.1a8,8,0,0,1,7.59,5.94,8,8,0,0,1,2.87,5.91l.12,4.15a8.51,8.51,0,0,1-.06,1.24,8,8,0,0,1,1,3.44l.22,4.32a8,8,0,0,1-7.36,8.37C400,192.81,399.14,192.85,398.38,192.85Z"/><path class="cls-4" d="M390.93,167.29l5.39.09.05,4.12,2.55-.05s.07,2.58.12,4.15l-2.75.09c.21,3.77-.34,4.59,3.66,4.76l.22,4.32c-.64,0-1.24.08-1.79.08-6.42,0-7.21-3.37-7.25-9l-1.15,0-.14-4.15,1.32-.12-.23-4.36m0-16A16,16,0,0,0,375,165.78a15.85,15.85,0,0,0-1.15,6.53l.14,4.15a16,16,0,0,0,1.79,6.85A22.55,22.55,0,0,0,379,191.2c2.35,3.6,8,9.65,19.42,9.65,1,0,2,0,3.05-.13A16,16,0,0,0,416.15,184l-.22-4.32a16.05,16.05,0,0,0-.9-4.57l-.11-4.08a15.94,15.94,0,0,0-4-10.09,16,16,0,0,0-14.37-9.54l-5.39-.09Z"/><path class="cls-4" d="M401.58,192.89a8,8,0,0,1-8-7.87c0-1.45-.2-2.92-.38-4.49a52.42,52.42,0,0,1-.49-6.95,9.45,9.45,0,0,1,.09-1.07,6.11,6.11,0,0,1-.08-.86c-.07-1.52-.12-3.16-.06-4.91a8,8,0,0,1,7.73-7.72l5.55-.19h.27a8,8,0,0,1,8,8.12v.76c0,.51,0,1.44,0,1.85l.07,1a2.44,2.44,0,0,1,0,.27,7.82,7.82,0,0,1,.45,2.68,40.19,40.19,0,0,0,.39,4.87c.21,1.84.46,3.93.5,6.16a8,8,0,0,1-7.74,8.15l-6,.19Z"/><path class="cls-4" d="M406.21,166.83c0,.84-.06,2.35,0,3.17l.08,1.14-5.56.19c-.06-1.47-.1-2.85,0-4.31l5.55-.19m.5,6.64c0,3.77.82,7.36.89,11.23l-6,.19c-.06-3.94-.91-7.3-.87-11.22l6-.2m-.5-22.64h-.53l-5.56.19a16,16,0,0,0-15.45,15.44c-.07,2,0,3.82.05,5.49l0,.56c0,.32,0,.65,0,1a59.88,59.88,0,0,0,.55,8c.16,1.42.31,2.64.32,3.68a16,16,0,0,0,16,15.74h.52l6-.2a16,16,0,0,0,15.48-16.28,68,68,0,0,0-.56-6.95,38.27,38.27,0,0,1-.33-3.89,16,16,0,0,0-.52-4.16l0-.18c0-.35,0-1,0-1.36v-.8a16,16,0,0,0-16-16.24Zm.5,38.64h0Z"/><path class="cls-4" d="M414.7,192.44a14.5,14.5,0,0,1-12.85-7.83,16.59,16.59,0,0,1-.35-13.54,14.18,14.18,0,0,1,10.91-8.1,14.35,14.35,0,0,1,2-.14,14.88,14.88,0,0,1,8.43,2.66,14.14,14.14,0,0,1,2,1.67,15,15,0,0,1,3.68,15.18,14.79,14.79,0,0,1-12.38,10A13.33,13.33,0,0,1,414.7,192.44Z"/><path class="cls-4" d="M414.37,170.83a6.9,6.9,0,0,1,3.88,1.23,7.41,7.41,0,0,1,.91.77,7.05,7.05,0,0,1,1.73,7,6.79,6.79,0,0,1-5.59,4.55q-.3,0-.6,0A6.51,6.51,0,0,1,409,181a8.51,8.51,0,0,1-.15-6.73,6.14,6.14,0,0,1,4.68-3.37,6.07,6.07,0,0,1,.85-.06m.36,8.65a1.57,1.57,0,0,0,.92-.29l.15-.13a1.55,1.55,0,0,0-.21-2.34,1.73,1.73,0,0,0-1-.31,1.31,1.31,0,0,0-1.4,1,1.83,1.83,0,0,0,.69,1.79,1.48,1.48,0,0,0,.84.25m-.36-24.65a22.37,22.37,0,0,0-3.06.21,22.06,22.06,0,0,0-17.15,12.85,24.5,24.5,0,0,0,.56,20.33,22.55,22.55,0,0,0,20,12.22,20.5,20.5,0,0,0,2.22-.12,22.61,22.61,0,0,0,19.18-15.5,23.11,23.11,0,0,0-5.65-23.34,23.5,23.5,0,0,0-3.08-2.56,22.69,22.69,0,0,0-13-4.09Z"/><path class="cls-4" d="M423.19,192a8,8,0,0,1-8-7.37c-.13-1.59-.38-3.73-.65-6-.29-2.46-.6-5-.8-7.36a8,8,0,0,1,7.2-8.65l6-.58c.25,0,.51,0,.77,0a8.05,8.05,0,0,1,1.7.19h.44a13.29,13.29,0,0,1,3.06.34c11.29,2.49,11.57,14.21,11.7,19.22,0,.51,0,1,0,1.5a8,8,0,0,1-7.75,8.3l-5.26.16h-.26a7.85,7.85,0,0,1-1.08-.08,7.33,7.33,0,0,1-1.33.16l-5.51.19Z"/><path class="cls-4" d="M427.72,170v.45a8.75,8.75,0,0,1,2.13-.28,5.51,5.51,0,0,1,1.3.14c5.78,1.26,5.31,8,5.5,13.22l-5.26.17c-.11-2.68.05-8.44-2-8.45l-.2,0c-1.63.26-.61,6-.44,8.52l-5.52.19c-.28-3.54-1.07-9-1.45-13.41l6-.57m0-16c-.51,0-1,0-1.54.07l-6,.58A16,16,0,0,0,405.8,172c.21,2.49.52,5.09.82,7.61.26,2.19.51,4.25.62,5.69A16,16,0,0,0,423.18,200h.57l5.51-.19c.44,0,.89,0,1.32-.1l.81,0h.51l5.27-.17A16,16,0,0,0,452.65,183c0-.45,0-.92,0-1.39a40.26,40.26,0,0,0-1.6-11.8,22.17,22.17,0,0,0-20.91-15.57,17.1,17.1,0,0,0-2.38-.17Z"/><path class="cls-4" d="M63.38,54.31a8,8,0,0,1-7.84-6.4A118.76,118.76,0,0,1,53,22.08l0-1.6A8,8,0,0,1,61,12.6l8.67-.11a8,8,0,0,1,8,8.26,98.7,98.7,0,0,0,2,23,8,8,0,0,1-7,9.59l-8.42.88A7.86,7.86,0,0,1,63.38,54.31Z"/><path class="cls-4" d="M69.63,20.49A106.89,106.89,0,0,0,71.8,45.42l-8.42.88A110.66,110.66,0,0,1,61,22.22l0-1.63,8.57-.1m0-16h-.2l-8.57.11a16,16,0,0,0-15.8,15.76L45,22a126.48,126.48,0,0,0,2.67,27.53A16,16,0,0,0,65.05,62.22l8.41-.88a16,16,0,0,0,14-19.19A90.56,90.56,0,0,1,85.62,21a16,16,0,0,0-16-16.53Zm0,32Z"/><path class="cls-4" d="M81.42,52.86A17.27,17.27,0,0,1,66.51,44.2a20,20,0,0,1-1.06-16.31A16.69,16.69,0,0,1,80.9,17.62a17.65,17.65,0,0,1,9.49,2.78,17.22,17.22,0,0,1,2.46,1.88A18,18,0,0,1,98,40.21,17.59,17.59,0,0,1,83.75,52.7,16.49,16.49,0,0,1,81.42,52.86Z"/><path class="cls-4" d="M80.9,25.62a9.71,9.71,0,0,1,5.2,1.53A9.75,9.75,0,0,1,90.27,38a9.59,9.59,0,0,1-7.65,6.75,8.06,8.06,0,0,1-1.2.08,9.22,9.22,0,0,1-7.92-4.55,12.06,12.06,0,0,1-.59-9.53,8.7,8.7,0,0,1,6.43-5,9.12,9.12,0,0,1,1.56-.13m.55,12.23a2.19,2.19,0,0,0,1.37-.47l.2-.19a2.19,2.19,0,0,0-.43-3.3,2.29,2.29,0,0,0-1.31-.38,1.89,1.89,0,0,0-2,1.53,2.62,2.62,0,0,0,1.09,2.5,2.07,2.07,0,0,0,1.11.31M80.9,9.62h0a24.8,24.8,0,0,0-4.39.39A24.48,24.48,0,0,0,58,25,27.89,27.89,0,0,0,59.52,48.1a25.39,25.39,0,0,0,21.9,12.76,24.69,24.69,0,0,0,3.45-.24,25.71,25.71,0,0,0,20.8-18.24,26,26,0,0,0-7.41-26,27,27,0,0,0-3.58-2.75,25.68,25.68,0,0,0-13.78-4Z"/><path class="cls-4" d="M102.35,51.44a8.37,8.37,0,0,1-1.67-.18,20.06,20.06,0,0,1-2.32.14c-5.81,0-10.92-2.81-13.33-7.34a14.06,14.06,0,0,1-.22-12.13,12.27,12.27,0,0,1,.9-1.77l-.53-1.47a8,8,0,0,1,4.71-10.22,34.92,34.92,0,0,1,9-2.09H99a34.76,34.76,0,0,1,3.53-.21,14.69,14.69,0,0,1,9.83,3.32c3.26,2.7,4.9,6.51,5.19,12L118.15,42a8,8,0,0,1-6.94,8.35l-7.8,1A9.43,9.43,0,0,1,102.35,51.44Z"/><path class="cls-4" d="M102.57,24.16a6.87,6.87,0,0,1,4.64,1.41c.61.52,2.14,1.52,2.39,6.33.19,3.5.37,7,.56,10.5l-7.8,1-.13-.73a11.5,11.5,0,0,1-3.87.7c-2.87,0-5.26-1.21-6.27-3.1C90.88,38,92,35.43,92.18,35c.89-2.32,4.56-4.33,8.41-4.33l.67,0c0-.12-.1-.54-.12-.67-.25,0-.55,0-.89,0a10.36,10.36,0,0,0-2.37.28,10.12,10.12,0,0,0-3.12,1.34q-1-2.84-2.06-5.67a26.81,26.81,0,0,1,6.94-1.61c1-.09,1.94-.19,2.93-.19M99.89,38.68a6.34,6.34,0,0,0,1.62-.24h0l-.24-3.31a4.5,4.5,0,0,0-.55,0c-1,0-2.9.24-2.76,2.17.08,1.13,1,1.41,1.93,1.41m2.68-30.52c-1.69,0-3.19.14-4.29.24l-.14,0A42.61,42.61,0,0,0,87.08,11a16,16,0,0,0-10,18.62A22,22,0,0,0,78,47.82C81.78,55,89.59,59.4,98.36,59.4c.69,0,1.38,0,2.07-.08a15.19,15.19,0,0,0,1.91.12,17.05,17.05,0,0,0,2.13-.14l7.79-1a16,16,0,0,0,13.87-16.71l-.55-10.5c-.41-7.76-3-13.56-8-17.71a22.45,22.45,0,0,0-15-5.18Z"/><path class="cls-4" d="M121.09,49.88a19.46,19.46,0,0,1-8.59-1.56A16.9,16.9,0,0,1,103.05,32a17.8,17.8,0,0,1,10.09-15.42,8,8,0,0,1,7.35-7.92L127.8,8l.66,0a8,8,0,0,1,8,8.11c-.07,4.92.13,10.84.32,16.57.1,2.89.19,5.72.25,8.33a8,8,0,0,1-6.66,8.06A61.46,61.46,0,0,1,121.09,49.88Z"/><path class="cls-4" d="M128.46,16c-.11,7.64.4,17.38.57,25.19a55.89,55.89,0,0,1-7.94.69,12.85,12.85,0,0,1-5.11-.77c-7.24-3.49-6.29-14.8,1.2-17.58a11.92,11.92,0,0,1,4.34-.8c0-2.08-.22-4.15-.38-6.13l7.32-.6m-8.3,19.6c.48,0,1-.05,1.68-.09l-.29-6a4.46,4.46,0,0,0-.63-.05c-2.47,0-4.49,2.37-3,4.92a2.45,2.45,0,0,0,2.29,1.2M128.46,0c-.44,0-.88,0-1.32.05l-7.31.61A16,16,0,0,0,106,11.48,26,26,0,0,0,95.06,31.6a25.09,25.09,0,0,0,14,23.93,27.13,27.13,0,0,0,12.06,2.35A70.47,70.47,0,0,0,131.7,57,16,16,0,0,0,145,40.83c-.06-2.67-.15-5.46-.25-8.42-.19-5.63-.39-11.46-.32-16.19A16,16,0,0,0,128.46,0Z"/><path class="cls-4" d="M140.55,48.34a18.16,18.16,0,0,1-14.63-6.74c-3.33-4.31-4.29-10.07-2.69-16.21,2-7.13,8.77-12,16.63-12a17.75,17.75,0,0,1,11,3.76l.55.46a18,18,0,0,1,5.26,15.38A8.06,8.06,0,0,1,155,36.67a8,8,0,0,1-3.91,9,22.08,22.08,0,0,1-10.58,2.71Z"/><path class="cls-4" d="M139.86,21.34A9.94,9.94,0,0,1,146,23.41a10.06,10.06,0,0,1,2.82,8.24c-3.23.9-6.67,1.28-10,2-2.21.39.34.53,1.06.53h.3a13.91,13.91,0,0,0,4.48-.81c.74,1.74,1.88,3.46,2.62,5.2a14.07,14.07,0,0,1-6.73,1.72c-6.22,0-11.83-4.29-9.58-12.94,1-3.74,4.87-6.06,8.89-6.06m-3.25,7.48,5.81-1.13c-.17-.61-1.06-.89-2.09-.89-1.68,0-3.75.75-3.72,2m3.25-23.48h0c-11.46,0-21.46,7.35-24.32,17.86,0,.05,0,.11-.05.17-2.24,8.59-.78,16.81,4.1,23.12a26.13,26.13,0,0,0,21,9.85A30,30,0,0,0,155,52.64a16,16,0,0,0,8.3-14.18,15.89,15.89,0,0,0,1.31-4.23,25.88,25.88,0,0,0-7.7-22.52c-.34-.32-.71-.63-1.08-.92a26.07,26.07,0,0,0-15.95-5.45Z"/><path class="cls-4" d="M152.16,47.49a8,8,0,0,1-7.94-7c-.33-2.67-.83-5.33-1.31-7.91a86.37,86.37,0,0,1-1.62-11.49,8,8,0,0,1,7-8.35l1.55-.2c2.37-.31,4.83-.63,7.32-.83l.66,0h.08a15.93,15.93,0,0,1,3.31-.35,15.16,15.16,0,0,1,8.9,2.95,8,8,0,0,1,2.41,10.46c-.42.75-.79,1.57-1.22,2.51-.5,1.13-1.08,2.4-1.83,3.75a7.93,7.93,0,0,1-1.58,2c.27,1.58.51,3.16.67,4.39a8,8,0,0,1-6.88,8.95l-8.45,1.13A9.24,9.24,0,0,1,152.16,47.49Z"/><path class="cls-4" d="M161.19,19.3a7.32,7.32,0,0,1,4.32,1.51c-1.17,2.1-1.87,4.16-3,6.26a4.82,4.82,0,0,0-1.48-.29,3.24,3.24,0,0,0-2.14,1s1.3,7,1.76,10.57l-8.45,1.12c-.83-6.81-2.58-13-2.88-18.85,2.81-.36,5.68-.76,8.51-1l0,.32a10.05,10.05,0,0,1,3.36-.67m0-16h0a23.67,23.67,0,0,0-4.17.37l-.52,0c-2.7.22-5.25.55-7.72.88l-1.53.19A16,16,0,0,0,133.3,21.48,92.42,92.42,0,0,0,135.05,34c.48,2.57.93,5,1.23,7.41a16,16,0,0,0,15.88,14.06,16.6,16.6,0,0,0,2.11-.13l4.52-.61,3.93-.52a16,16,0,0,0,13.75-17.9c-.05-.39-.1-.8-.17-1.23l.13-.23c.93-1.65,1.6-3.15,2.15-4.36.35-.78.65-1.45.9-1.9a16,16,0,0,0-4.82-20.92A23.23,23.23,0,0,0,161.19,3.3Z"/><path class="cls-4" d="M394.07,154.12a14,14,0,0,1-6.62-1.6,12.84,12.84,0,0,1-5.16-5,13.76,13.76,0,0,1-1.73-6.63c0-1.4-.05-2.61-.08-3.59a11.62,11.62,0,0,1-1.6-1.52,9.8,9.8,0,0,1-2.25-6.5,10.11,10.11,0,0,1,3.86-8.09c0-.85.05-2.06.07-3.62a13.12,13.12,0,0,1,13.51-13.18c6.13,0,10.58,4.25,10.58,10.09a10.24,10.24,0,0,1-2.15,6.46,9.82,9.82,0,0,1-1.54,1.55,31.53,31.53,0,0,1-.34,3.77,15.32,15.32,0,0,1-.82,3,14.53,14.53,0,0,1,.77,2.7A26.26,26.26,0,0,1,401,136a9.48,9.48,0,0,1,1.53,1.57,10.26,10.26,0,0,1,2.14,6.4C404.65,149.86,400.2,154.12,394.07,154.12Z"/><path class="cls-4" d="M394.07,112.35c1.72,0,2.58.7,2.58,2.09a2.33,2.33,0,0,1-.43,1.5,1.66,1.66,0,0,1-1.12.63,3.52,3.52,0,0,0-1.42.42,1.54,1.54,0,0,0-.53,1.09,30.41,30.41,0,0,0-.16,3.13,25.69,25.69,0,0,1-.27,3.72,6.12,6.12,0,0,1-.93,2.47,6.57,6.57,0,0,1-2,1.84,7,7,0,0,1,2,1.74,6,6,0,0,1,1,2.44,20.91,20.91,0,0,1,.28,3.81c0,1.16,0,2,.08,2.56a3.47,3.47,0,0,0,.32,1.26,1.18,1.18,0,0,0,.57.56,6.16,6.16,0,0,0,1.14.26,1.58,1.58,0,0,1,1.11.65,2.32,2.32,0,0,1,.44,1.47q0,2.13-2.58,2.13a6,6,0,0,1-2.86-.67,4.59,4.59,0,0,1-1.94-1.89,5.81,5.81,0,0,1-.71-2.8c0-1.78-.07-3.21-.1-4.29a15.29,15.29,0,0,0-.16-2.09,4.16,4.16,0,0,0-.78-1.78,5.75,5.75,0,0,0-1.36-1.11,5.16,5.16,0,0,1-1.18-.94,2,2,0,0,1-.35-1.31,2.17,2.17,0,0,1,1-2,9.87,9.87,0,0,0,1.8-1.34,3.08,3.08,0,0,0,.75-1.42,9.27,9.27,0,0,0,.26-1.9c0-.69.06-2.34.1-4.95a5.37,5.37,0,0,1,1.54-3.88,5.46,5.46,0,0,1,4-1.45m0-16a21.09,21.09,0,0,0-21.5,21v.52a18.29,18.29,0,0,0-3.93,11.39,17.71,17.71,0,0,0,3.93,11.4c0,.13,0,.26,0,.39a21.59,21.59,0,0,0,2.74,10.36,20.86,20.86,0,0,0,8.39,8.19,21.8,21.8,0,0,0,10.37,2.54c10.59,0,18.58-7.79,18.58-18.13a18.15,18.15,0,0,0-3.83-11.32l-.07-.09c-.08-.74-.19-1.45-.32-2.14-.08-.41-.16-.82-.26-1.22.13-.56.25-1.13.34-1.71s.16-1,.22-1.6l0,0a18.19,18.19,0,0,0,3.88-11.42c0-10.31-8-18.09-18.58-18.09Z"/><path class="cls-4" d="M412.8,154.12a10.69,10.69,0,0,1-7-2.38,9.85,9.85,0,0,1-3.57-7.75,10.65,10.65,0,0,1,.88-4.26,9.84,9.84,0,0,1,2.79-3.71,29.26,29.26,0,0,1,.38-4,14.42,14.42,0,0,1,.8-2.81,16.36,16.36,0,0,1-1-4c-.1-.86-.17-1.78-.2-2.79a10.07,10.07,0,0,1-1.39-1.38,10.2,10.2,0,0,1-2.27-6.58c0-5.84,4.44-10.09,10.55-10.09a13.94,13.94,0,0,1,6.63,1.6,12.91,12.91,0,0,1,5.11,4.91,13.54,13.54,0,0,1,1.82,6.73c0,1.62.06,2.77.08,3.58a11.7,11.7,0,0,1,1.63,1.59,10.5,10.5,0,0,1-1.63,14.56c0,1-.05,2.21-.08,3.6a13.17,13.17,0,0,1-13.56,13.2Z"/><path class="cls-4" d="M412.8,112.35a6.06,6.06,0,0,1,2.88.66,5,5,0,0,1,1.95,1.88,5.63,5.63,0,0,1,.73,2.79q.11,5.83.24,6.41a4.06,4.06,0,0,0,.83,1.77,5.42,5.42,0,0,0,1.32,1.07,4.44,4.44,0,0,1,1.15.93,2.49,2.49,0,0,1-.62,3.32,9.05,9.05,0,0,0-1.79,1.33,3.11,3.11,0,0,0-.77,1.42,11.54,11.54,0,0,0-.26,2.56c0,1.13-.07,2.56-.1,4.27a5.39,5.39,0,0,1-1.56,3.89,5.46,5.46,0,0,1-4,1.47,2.92,2.92,0,0,1-1.89-.54,2,2,0,0,1-.65-1.59,2.64,2.64,0,0,1,.21-1.06,1.88,1.88,0,0,1,.55-.75,1.57,1.57,0,0,1,.78-.31,4.82,4.82,0,0,0,1.18-.27,1.09,1.09,0,0,0,.59-.6,4,4,0,0,0,.26-1.29c0-.57.06-1.39.06-2.48a24.57,24.57,0,0,1,.29-3.8,5.79,5.79,0,0,1,.93-2.36,7,7,0,0,1,2-1.83,7.52,7.52,0,0,1-1.55-1.24,5.15,5.15,0,0,1-1-1.59,8.52,8.52,0,0,1-.55-2.2,25.85,25.85,0,0,1-.16-3c0-1.11,0-2-.07-2.56a3.44,3.44,0,0,0-.28-1.29,1.09,1.09,0,0,0-.59-.55,4.77,4.77,0,0,0-1.15-.24,1.71,1.71,0,0,1-1.1-.63,2.27,2.27,0,0,1-.44-1.5c0-1.39.84-2.09,2.54-2.09m0-16c-10.57,0-18.54,7.78-18.54,18.09a18.13,18.13,0,0,0,3.87,11.4c0,.11,0,.23,0,.34a28.61,28.61,0,0,0,.55,3c-.11.46-.21.93-.29,1.41-.12.64-.21,1.3-.29,2A18.38,18.38,0,0,0,394.26,144a18,18,0,0,0,6.46,13.92,18.66,18.66,0,0,0,12.08,4.21,21.15,21.15,0,0,0,21.55-21c0-.16,0-.32,0-.47a18.29,18.29,0,0,0,3.92-11.4,17.9,17.9,0,0,0-3.92-11.42v-.4a21.64,21.64,0,0,0-2.91-10.58,20.84,20.84,0,0,0-8.26-8,21.76,21.76,0,0,0-10.39-2.54Z"/><path class="cls-4" d="M178.86,44.81a13.27,13.27,0,0,1-10.32-4.29A11.19,11.19,0,0,1,165.67,33a11.61,11.61,0,0,1,1.14-5.09,11.15,11.15,0,0,1-1.14-5,11.4,11.4,0,0,1,4.53-9.22,14,14,0,0,1,8.54-2.77h.12a14,14,0,0,1,8.47,2.57A11.33,11.33,0,0,1,192,22.75a11.62,11.62,0,0,1-1.13,5.06A11.62,11.62,0,0,1,187.5,42,13.93,13.93,0,0,1,178.86,44.81Z"/><path class="cls-4" d="M178.86,18.94a6.27,6.27,0,0,1,3.76,1A3.26,3.26,0,0,1,184,22.75a3.49,3.49,0,0,1-1.44,2.89,5.9,5.9,0,0,1-3.74,1.12,5.54,5.54,0,0,1-4.35-1.62,3.23,3.23,0,0,1-.84-2.21,3.45,3.45,0,0,1,1.41-2.88,6.15,6.15,0,0,1,3.78-1.11m0,10a6.27,6.27,0,0,1,3.76,1A3.25,3.25,0,0,1,184,32.8a3.51,3.51,0,0,1-1.44,2.9,6,6,0,0,1-3.74,1.11,5.57,5.57,0,0,1-4.35-1.61,3.27,3.27,0,0,1-.84-2.22,3.44,3.44,0,0,1,1.41-2.87A6.16,6.16,0,0,1,178.86,29m0-26h-.24a22,22,0,0,0-13.29,4.43,19.59,19.59,0,0,0-7,20.54,19.85,19.85,0,0,0-.65,5.07,19.34,19.34,0,0,0,4.89,12.85,21.41,21.41,0,0,0,16.3,7,21.89,21.89,0,0,0,13.54-4.46,19.66,19.66,0,0,0,7-20.57,19.6,19.6,0,0,0,.65-5A19.25,19.25,0,0,0,192,7a22.23,22.23,0,0,0-13.18-4.1Z"/><text class="cls-5" transform="translate(90.62 208.61)">&lt;/&gt;</text></g><path class="cls-6" d="M203.54,57.4c6.27,6.77,9.56,18.9,7.36,28-11,2.2-22.47,2.62-33.64,4.35-7.45.73,1,1.82,3.38,2a46.62,46.62,0,0,0,16.09-1.49c2,6,5.4,11.93,7.41,17.9-26.94,12.3-64.49-2.78-51.39-41.23,6.57-18.6,34.23-24.56,50.79-9.58ZM190.67,70.74c-1.09-5.49-19.22-4.51-19.54,2.3Z"/><path class="cls-7" d="M241.37,174.32l-20.9,0c-.05-10.93,1.41-34.7-7.78-33.54-6.51.82-3.23,23.47-2.9,33.54l-21.87,0v0c-.13-2.89-.83-21.83-2-26.57-1.1-4.45-3-7.39-6.42-7-6.51.82-3.25,23.47-2.92,33.54l-21.86,0c-.64-14-3.06-35.65-4-53.07l23.77-1.5v1.82a24.29,24.29,0,0,1,24.12,5.33l0,0a36.47,36.47,0,0,1,8-4.76,24.46,24.46,0,0,1,14.72-.7C244.06,127.17,241.28,153.6,241.37,174.32Z"/><path class="cls-8" d="M279.23,157.65,251,160.44c-1.52-18.54-6.58-34.07-7.59-52.53l28.16-2.82C272.62,122.82,277.69,139.47,279.23,157.65Zm-36.6-60.78c-.72-6.86-1.37-13.38-1.58-20.27L267.13,74c.21,4,.45,11.09.87,14.92l.75,5.35Z"/><path class="cls-2" d="M381.5,136.56l-18.18,25.49L335,142l-25.42,20.9-21-23.38c7.7-5.18,16.71-11.12,23.49-17.45-7.39-5.5-16.29-11.31-24-16.41l19.7-23.41c8.76,6.84,18,14,27,20.43,9.11-5.91,18-13.24,26.25-20.32l19.52,22.09c-7.19,5.54-15.36,11.83-22.55,17.3.36.25.71.51,1.07.75C365.77,127.35,374.3,132.3,381.5,136.56Z"/><path class="cls-9" d="M86,54.8c31.57-4.88,49.56,7.61,53.25,31.44,2.76,17.82-6.48,31.15-21.09,35.4,13,.57,21.44,6.6,25,20.53l.6,2.57.55,2.41.5,2.25.36,1.7.43,2,.23,1.15.37,1.82.33,1.72.19,1,.29,1.59.32,1.82.15.88.42,2.55.42,2.67.25,1.59-32.55,5-.1-.67h0l-.19-1.29h0l-.17-1.26-.42-3.06-.14-1-.24-1.6h0l-.16-1-.18-1.07-.14-.84-.21-1.18-.23-1.24-.26-1.32-.29-1.41-.15-.74-.25-1.15-.26-1.21-.39-1.71-.31-1.35c-.1-.42-.19-.83-.3-1.23l-.2-.78c-2.53-9.2-6.86-12.45-13.47-12.73l-.55,0H96.28l-.59,0H95.4l-.61,0h0l-.61,0h0l-.63.07h0l-.63.07-.64.08-.65.1h0l-51.52,8-3.93-25.38,52.74-8.16c.86-.14,1.7-.28,2.5-.44l.79-.16h0l.78-.18h0l.75-.18.37-.09.73-.19c.48-.13.94-.27,1.39-.42l.67-.22c8.32-2.86,11.9-8,10.54-16.84C105.91,83.29,98,78.38,84.07,80.54L31.33,88.7,27.48,63.87Zm-8.2,106.66c4.27-.66,6.42,1.42,7.41,3.57l.13.31h0l.12.31.08.25,0,.12.07.25.06.24,0,.11,0,.23,0,.12,0,.22,1.88,12.11-41.42,6.41-2.93-18.92Z"/><path class="cls-9" d="M226.25,37.13,219.6,53.05,215,51.11l6.65-15.92ZM220.79,62a17.31,17.31,0,0,0,4.92-2,14.39,14.39,0,0,0,3.54-3A18.05,18.05,0,0,0,231.59,53l5-12.09,4.65,1.94L236.2,55.06a17.8,17.8,0,0,1-3.14,5,15.57,15.57,0,0,1-4.53,3.45,18.1,18.1,0,0,1-5.93,1.7,29.58,29.58,0,0,1-5.32.12l-1.18-2.79A29.19,29.19,0,0,0,220.79,62Z"/><path class="cls-8" d="M257.83,50.3c3.52.89,7,1.94,10.47,3.17q6.38,2.27,12.6,4.93l-2.52,4.71q-5.73-2.69-11.55-5-5.34-2.19-10.81-3.88Zm2.84-18.43q5.76,1.15,11.41,2.77,4.76,1.34,9.4,3.06l-2,4.79q-5.19-2.24-10.55-4-4.86-1.59-9.83-2.78Zm.68,9.54a117.6,117.6,0,0,1,17.5,5.33l-2,4.6a116,116,0,0,0-17-6.15Z"/><path class="cls-9" d="M315.38,19.72a40.85,40.85,0,0,1,0,8.2l-4.25-.13a34.35,34.35,0,0,0,.05-8.17Zm-1.22,16.67a16.69,16.69,0,0,0,5.2-2,21.9,21.9,0,0,0,4.6-3.83,55.33,55.33,0,0,0,4.5-5.66l3.83,2.7a37.4,37.4,0,0,1-4.53,5.65,25.65,25.65,0,0,1-5.52,4.2,18.17,18.17,0,0,1-6.44,2.12,21,21,0,0,1-5.48-.13l-.72-2.66A22.64,22.64,0,0,0,314.16,36.39Zm8-15.15a40.8,40.8,0,0,1-.26,8.2l-4.33-.16A35.54,35.54,0,0,0,318,21Z"/><path class="cls-6" d="M296.94,55.36a57.54,57.54,0,0,0,4.79-9.26l4.64,1.62a42.41,42.41,0,0,1-1.8,4.14h13.86v3.75a33.75,33.75,0,0,1-1.62,7,26.52,26.52,0,0,1-1.8,3.81,27.54,27.54,0,0,1-2.34,3.17,25,25,0,0,1-2.81,2.63,30.63,30.63,0,0,1-3.27,2.09,39.56,39.56,0,0,1-7.82,3l-2-2.06a31.17,31.17,0,0,0,5.44-2.59,26.57,26.57,0,0,0,5.65-4.82,24.32,24.32,0,0,0,3.71-5.76,22.5,22.5,0,0,0,1.76-6.27H301.87a32.67,32.67,0,0,1-4.28,5.23,21.85,21.85,0,0,1-4.76,3.42l-2-1.66A38.13,38.13,0,0,0,296.94,55.36Z"/><path class="cls-2" d="M345.66,63.5a57.21,57.21,0,0,0,2.39-7.27,55.21,55.21,0,0,0,.88-5.55l-15.37,5.23-1.27-3.75,20.58-7,1.19,3.59a27.38,27.38,0,0,1-.46,5.14,50.06,50.06,0,0,1-1.47,5.4c-.16.57-.33,1.12-.5,1.66a53.54,53.54,0,0,0,6.14,3.42q4.08,1.92,8.28,3.54l-1.33,2.46a42.43,42.43,0,0,1-8.14-1.9,31.52,31.52,0,0,1-6.75-3.18,43.42,43.42,0,0,1-4.2,7.43,31.43,31.43,0,0,1-5.25,5.56L338.08,77A72.68,72.68,0,0,0,345.66,63.5Z"/><path class="cls-8" d="M263.75,183.82l.18,5.33-12.05.41c-.47-5.74-1.79-11.21-1.79-17.05l6-.58a93.53,93.53,0,0,0,1.1,12.41Z"/><path class="cls-8" d="M275,177.73a7.05,7.05,0,0,1,1.72,7,6.78,6.78,0,0,1-5.59,4.55,6.49,6.49,0,0,1-6.3-3.41,8.49,8.49,0,0,1-.15-6.74,6.12,6.12,0,0,1,4.67-3.37,6.81,6.81,0,0,1,5.65,1.94Zm-3.58,3.89c-.76-.56-2.21-.35-2.39.72a1.83,1.83,0,0,0,.7,1.79,1.52,1.52,0,0,0,1.75,0l.15-.13A1.54,1.54,0,0,0,271.45,181.62Z"/><path class="cls-8" d="M290.66,188.4l-5.53.51-.07-.52c-3.2,1-6.15,0-7.09-2a4.46,4.46,0,0,1,.22-3.71c.73-1.71,3.64-3.08,6.52-2.79,0-.09-.06-.38-.06-.47a7.16,7.16,0,0,0-2.31.08,7,7,0,0,0-2.24.85l-1.3-4.06a19.32,19.32,0,0,1,4.95-.94c1.8-.1,3.88-.24,5.3,1.07.42.39,1.47,1.14,1.51,4.54C290.59,183.45,290.63,185.93,290.66,188.4Zm-6-3-.08-2.35s-2.45-.4-2.39,1.42C282.25,186,284.67,185.37,284.67,185.37Z"/><path class="cls-8" d="M296.14,175.28a8.49,8.49,0,0,1,3.08-.44c0-1.46,0-2.93-.09-4.33l5.18-.22c-.29,5.39-.2,12.27-.3,17.79,0,0-6.79.87-9.21-.42C289.79,185,290.78,177,296.14,175.28Zm.18,7.7c.71,1.09,1.42.91,2.77.89l0-4.23A2.35,2.35,0,0,0,296.32,183Z"/><path class="cls-8" d="M318.22,181.91c-2.3.54-4.74.71-7.1,1.15-1.57.21.23.39.74.41a10.22,10.22,0,0,0,3.4-.43c.46,1.25,1.22,2.49,1.69,3.74-5.62,2.8-13.69-.13-11.18-8.37,1.26-4,7.08-5.45,10.69-2.4A7.11,7.11,0,0,1,318.22,181.91Zm-4.39-3c-.27-1.15-4.1-.82-4.12.63Z"/><path class="cls-8" d="M330.32,174.73c-.89,1.44-1.44,2.88-2.33,4.32a2.15,2.15,0,0,0-2.57.42s.72,5,.94,7.51l-6,.55c-.39-4.83-1.45-9.21-1.5-13.38,2-.17,4-.38,6-.46,0,.08,0,.15,0,.22A5.3,5.3,0,0,1,330.32,174.73Z"/><path class="cls-8" d="M332.26,187.12c-.19-2.54-1.78-16.72-1.78-16.72s.46-.28,4.34-.85a65,65,0,0,1,10-.41l.21,5.37a36,36,0,0,0-8.05.33c0,.14.06.91.07,1.16a32.18,32.18,0,0,1,6.64-.6l.14,4.6a26.6,26.6,0,0,0-6.11.58c0,.32.54,6.34.54,6.34Z"/><path class="cls-8" d="M353,186.55c-7.08.3-7.41-6.84-7.34-13.17l5.65,0s-.57,8.37,2,8.18c1.37-.11.46-7.76.46-7.76l6.1-.45C361.33,185.71,357.42,186.37,353,186.55Z"/><path class="cls-8" d="M376,185.66l-5.27.17c-.11-2.77.06-8.8-2.25-8.43-1.63.26-.61,6-.44,8.52l-5.51.19c-.28-3.54-1.08-9-1.46-13.4l6-.58,0,.46a7.48,7.48,0,0,1,3.42-.15C376.26,173.7,375.78,180.42,376,185.66Z"/><path class="cls-8" d="M389.21,179.47l.08,4.83c-16.41,6.09-17.56-17.64-.13-11.48l-1.45,4.57c-1.54-.49-4-1.15-5.35-.11C379.85,181.31,387,180.52,389.21,179.47Z"/><path class="cls-8" d="M400,180.5l.22,4.32c-8.07.64-9-2.81-9-8.89L390,176l-.14-4.15,1.32-.12-.23-4.37,5.39.09.05,4.13,2.55-.05s.07,2.58.12,4.15l-2.75.09C396.5,179.5,396,180.33,400,180.5Z"/><path class="cls-8" d="M407.6,184.75l-6,.19c-.06-3.94-.91-7.3-.87-11.22l6-.2C406.69,177.29,407.53,180.88,407.6,184.75Zm-6.89-13.37c-.06-1.47-.1-2.86,0-4.32l5.55-.18c0,.84-.06,2.35,0,3.17l.08,1.14Z"/><path class="cls-8" d="M419.16,172.87a7.08,7.08,0,0,1,1.73,7,6.77,6.77,0,0,1-5.59,4.54A6.49,6.49,0,0,1,409,181a8.51,8.51,0,0,1-.15-6.73,6.14,6.14,0,0,1,4.68-3.37,6.75,6.75,0,0,1,4.73,1.17A7.33,7.33,0,0,1,419.16,172.87Zm-3.57,3.9c-.77-.57-2.21-.36-2.39.72a1.83,1.83,0,0,0,.69,1.79,1.57,1.57,0,0,0,1.76,0l.15-.13A1.55,1.55,0,0,0,415.59,176.77Z"/><path class="cls-8" d="M436.66,183.62l-5.26.17c-.11-2.77.06-8.8-2.25-8.43-1.63.26-.61,6-.44,8.52l-5.52.19c-.28-3.54-1.07-9-1.45-13.41l6-.58v.46a7.51,7.51,0,0,1,3.43-.14C436.94,171.66,436.47,178.37,436.66,183.62Z"/><path class="cls-2" d="M61.06,20.64l8.57-.1A106.94,106.94,0,0,0,71.8,45.47l-8.42.88A110.69,110.69,0,0,1,61,22.26Z"/><path class="cls-2" d="M87.44,28.22a10,10,0,0,1,2.83,9.86,9.59,9.59,0,0,1-7.65,6.75,9.2,9.2,0,0,1-9.12-4.47,12.06,12.06,0,0,1-.59-9.53,8.68,8.68,0,0,1,6.43-5,9.55,9.55,0,0,1,6.76,1.4A10.08,10.08,0,0,1,87.44,28.22Zm-4.85,5.71c-1.11-.75-3.14-.37-3.34,1.16a2.62,2.62,0,0,0,1.09,2.5,2.19,2.19,0,0,0,2.48-.17,1.19,1.19,0,0,0,.2-.19A2.19,2.19,0,0,0,82.59,33.93Z"/><path class="cls-2" d="M110.16,42.45l-7.8,1-.13-.73c-4.46,1.61-8.7.3-10.14-2.41-1.21-2.27-.08-4.86.09-5.26.95-2.45,5-4.56,9.08-4.31,0-.13-.1-.54-.12-.67a10.08,10.08,0,0,0-6.38,1.58q-1-2.84-2.06-5.67a27.33,27.33,0,0,1,6.94-1.62c2.55-.24,5.49-.55,7.57,1.23.61.51,2.14,1.52,2.39,6.33C109.79,35.45,110,39,110.16,42.45Zm-8.65-4-.24-3.31s-3.5-.43-3.31,2.14C98.12,39.5,101.51,38.49,101.51,38.49Z"/><path class="cls-2" d="M117.18,23.58a12.15,12.15,0,0,1,4.34-.81c0-2.07-.22-4.14-.38-6.12l7.32-.6c-.11,7.64.4,17.37.57,25.18,0,0-9.55,1.62-13-.07C108.74,37.67,109.69,26.36,117.18,23.58Zm.69,10.87c1.06,1.5,2,1.21,4,1.11l-.29-6C118.8,29.13,116.31,31.69,117.87,34.45Z"/><path class="cls-2" d="M148.8,31.7c-3.23.9-6.67,1.28-10,2-2.21.39.34.53,1.06.53a13.91,13.91,0,0,0,4.78-.8c.74,1.74,1.88,3.45,2.62,5.2-7.8,4.28-19.38.59-16.31-11.22,1.56-5.71,9.72-8.11,15-4A10,10,0,0,1,148.8,31.7Zm-6.38-4c-.45-1.62-5.86-.93-5.81,1.12Z"/><path class="cls-2" d="M165.51,20.86c-1.17,2.1-1.87,4.16-3,6.26a3,3,0,0,0-3.62.73s1.3,7,1.75,10.57l-8.44,1.12c-.83-6.82-2.58-12.95-2.88-18.85,2.81-.36,5.68-.76,8.51-1l0,.31C160.89,18.93,163,19.13,165.51,20.86Z"/><path class="cls-9" d="M389.78,129.29a7.09,7.09,0,0,1,2,1.73,6,6,0,0,1,1,2.45,20.86,20.86,0,0,1,.28,3.8c0,1.16,0,2,.08,2.57a3.47,3.47,0,0,0,.32,1.26,1.22,1.22,0,0,0,.57.56,5.58,5.58,0,0,0,1.14.25,1.65,1.65,0,0,1,1.11.65,2.37,2.37,0,0,1,.44,1.48q0,2.13-2.58,2.13a6,6,0,0,1-2.86-.67,4.71,4.71,0,0,1-1.94-1.89,5.81,5.81,0,0,1-.71-2.8c0-1.78-.07-3.21-.1-4.29a15.29,15.29,0,0,0-.16-2.09,4.16,4.16,0,0,0-.78-1.78,6,6,0,0,0-1.36-1.12,4.91,4.91,0,0,1-1.18-.93,2,2,0,0,1-.35-1.31,2.17,2.17,0,0,1,1-1.95,10.36,10.36,0,0,0,1.8-1.34,3.11,3.11,0,0,0,.75-1.43,9.17,9.17,0,0,0,.26-1.9c0-.68.06-2.33.1-4.94a5.13,5.13,0,0,1,5.51-5.33c1.72,0,2.58.7,2.58,2.09a2.37,2.37,0,0,1-.43,1.5,1.66,1.66,0,0,1-1.12.63,3.37,3.37,0,0,0-1.42.42,1.54,1.54,0,0,0-.53,1.09,30.41,30.41,0,0,0-.16,3.13,25.69,25.69,0,0,1-.27,3.72,6.18,6.18,0,0,1-.93,2.47A6.57,6.57,0,0,1,389.78,129.29Z"/><path class="cls-9" d="M417.13,129.29a7.54,7.54,0,0,1-1.55-1.25,5.1,5.1,0,0,1-1-1.58,8.52,8.52,0,0,1-.55-2.2,25.85,25.85,0,0,1-.16-3c0-1.11,0-2-.07-2.56a3.44,3.44,0,0,0-.28-1.29,1.09,1.09,0,0,0-.59-.55,4.77,4.77,0,0,0-1.15-.24,1.71,1.71,0,0,1-1.1-.63,2.31,2.31,0,0,1-.44-1.5c0-1.39.84-2.09,2.54-2.09a6.06,6.06,0,0,1,2.88.66,5,5,0,0,1,1.95,1.88,5.57,5.57,0,0,1,.73,2.79q.11,5.83.24,6.41a4.11,4.11,0,0,0,.83,1.77,5.67,5.67,0,0,0,1.32,1.07,4.65,4.65,0,0,1,1.15.92,2.17,2.17,0,0,1,.38,1.39,2.13,2.13,0,0,1-1,1.94,9.5,9.5,0,0,0-1.79,1.32,3.15,3.15,0,0,0-.77,1.43,11.54,11.54,0,0,0-.26,2.56c0,1.13-.07,2.56-.1,4.27a5.41,5.41,0,0,1-1.56,3.89,5.46,5.46,0,0,1-4,1.47,2.86,2.86,0,0,1-1.89-.55,1.92,1.92,0,0,1-.65-1.58,2.61,2.61,0,0,1,.21-1.06,1.88,1.88,0,0,1,.55-.75,1.58,1.58,0,0,1,.78-.32,4.9,4.9,0,0,0,1.18-.26,1.12,1.12,0,0,0,.59-.6,4,4,0,0,0,.26-1.29q.06-.85.06-2.49a24.53,24.53,0,0,1,.29-3.79,5.79,5.79,0,0,1,.93-2.36A6.87,6.87,0,0,1,417.13,129.29Z"/><path class="cls-6" d="M178.86,19a6.27,6.27,0,0,1,3.76,1A3.26,3.26,0,0,1,184,22.8a3.49,3.49,0,0,1-1.44,2.89,6,6,0,0,1-3.74,1.12,5.54,5.54,0,0,1-4.35-1.62,3.23,3.23,0,0,1-.84-2.22,3.44,3.44,0,0,1,1.41-2.87A6.22,6.22,0,0,1,178.86,19Zm0,10.06a6.2,6.2,0,0,1,3.76,1A3.25,3.25,0,0,1,184,32.85a3.48,3.48,0,0,1-1.44,2.89,5.9,5.9,0,0,1-3.74,1.12,5.54,5.54,0,0,1-4.35-1.62,3.23,3.23,0,0,1-.84-2.21,3.46,3.46,0,0,1,1.41-2.88A6.15,6.15,0,0,1,178.86,29Z"/><text class="cls-10" transform="translate(90.62 208.66)">&lt;/&gt;</text><path class="cls-4" d="M74.1,149c-.68-.06,27.06-2.05,27.06-2.05l7.66,32.35s-10.38-3.23-12.6,1.19C96.22,180.52,93.33,150.91,74.1,149Z"/><path class="cls-4" d="M129,51.29c1.75.21,13.39,14.12,13.39,14.12L153,50.25Z"/><path class="cls-4" d="M27.48,98.23s2.87,11.66,2.19,14.63l70.38-13.19s-6-10-6-10.21S27.48,98.23,27.48,98.23Z"/></g></g></svg>