<svg width="52" height="52" viewBox="0 0 52 52" fill="none" xmlns="http://www.w3.org/2000/svg">
<rect x="1" y="1" width="50" height="50" rx="11" stroke="#FF3120" stroke-width="2"/>
<path fill-rule="evenodd" clip-rule="evenodd" d="M16.3193 38.6311C23.8459 39.6715 31.2387 40.6933 38.7784 41.735C36.2096 37.4053 33.7069 33.1863 31.1842 28.9329L16.3193 38.6311ZM40.9027 14.665C40.2393 15.6738 39.5745 16.6817 38.9119 17.6911C36.6363 21.1571 34.361 24.6232 32.0876 28.0909C31.961 28.284 31.7969 28.4371 31.9753 28.7348C34.1719 32.4073 36.3513 36.0905 38.5362 39.7705C38.8809 40.3517 39.2295 40.9307 39.6753 41.4884C40.1171 32.5568 40.5585 23.6249 41 14.6933L40.9027 14.665ZM10.9156 26.1158C11.0184 26.2143 11.2749 26.2717 11.3944 26.212C13.5014 25.1636 15.6219 24.1385 17.6829 23.0037C18.3551 22.6339 18.8719 21.9708 19.4509 21.4332C21.3683 19.6528 23.2827 17.8689 25.1963 16.0847C25.3133 15.9751 25.452 15.8691 25.5218 15.731C26.2091 14.3709 26.8846 13.004 27.5839 11.5977C26.7501 11.2803 25.9595 10.9698 25.159 10.6874C25.0505 10.6491 24.8795 10.7251 24.7619 10.7914C22.9092 11.8393 21.0217 12.8314 19.2279 13.9742C18.3304 14.546 17.5993 15.3886 16.8046 16.1224C15.5238 17.306 14.2446 18.4923 12.9824 19.6964C12.6475 20.016 12.3423 20.3811 12.0814 20.7656C11.2182 22.0383 10.3807 23.3292 9.50493 24.6567C9.99435 25.1692 10.4394 25.6591 10.9156 26.1158ZM18.6165 24.376C17.5683 28.8591 16.5265 33.317 15.4498 37.9214C20.4983 34.6279 25.4303 31.4104 30.3297 28.2146C26.4308 26.937 22.5445 25.6633 18.6165 24.376ZM39.6159 14.7083C35.3503 15.4299 31.1866 16.1341 26.9693 16.8474C28.4058 20.385 29.8135 23.8516 31.2612 27.4167C34.0621 23.1555 36.8076 18.9798 39.6159 14.7083ZM18.7924 23.459C22.6335 24.7214 26.3982 25.9587 30.2722 27.2322C28.8335 23.6837 27.4442 20.2593 26.0261 16.7625C23.6105 18.9984 21.231 21.2012 18.7924 23.459ZM11.0743 28.7301C9.7121 32.0269 8.39619 35.2116 7.05645 38.4538C9.63126 38.3766 12.1271 38.302 14.7088 38.2249C13.4968 35.0587 12.3086 31.9548 11.0743 28.7301ZM14.7992 35.9701L14.894 35.9491C15.8129 32.0813 16.7449 28.2401 17.6829 24.2211C15.5904 25.3223 13.5943 26.3724 11.5437 27.4516C12.5903 30.2055 13.7061 33.1106 14.7992 35.9701ZM38.072 14.081C36.8501 13.7534 35.6281 13.4246 34.4057 13.0992C32.6486 12.6314 30.8901 12.1695 29.1341 11.6975C28.9146 11.6384 28.756 11.5999 28.6269 11.8676C28.0062 13.1549 27.3663 14.4325 26.7358 15.7151C26.7163 15.7548 26.7205 15.8061 26.7054 15.9057C30.5106 15.322 34.2903 14.7419 38.0695 14.162L38.072 14.081ZM30.983 11.1529L40.9422 13.9423C40.3711 12.2946 39.8414 10.7667 39.2966 9.19532L30.9975 11.0583L30.983 11.1529ZM15.6435 39.3738C14.4101 39.2298 13.1438 39.3621 11.8928 39.384C10.8652 39.4015 9.8376 39.4412 8.80998 39.4736C8.70421 39.477 8.5987 39.4986 8.4932 39.614C16.989 40.4092 25.4846 41.2043 33.9801 42L33.9974 41.8851C31.274 41.5087 28.5504 41.1322 25.8271 40.756C22.4335 40.2868 19.0456 39.7708 15.6435 39.3738ZM7.22443 35.486C8.31919 32.9141 9.40929 30.3406 10.5084 27.7707C10.6183 27.513 10.6098 27.3379 10.3947 27.1304C9.93488 26.6873 9.50767 26.2098 9.00509 25.6805C8.32577 29.0763 7.66316 32.3881 7 35.6996L7.07426 35.7349C7.12496 35.6525 7.18689 35.5745 7.22443 35.486ZM28.8017 10.474C30.6479 9.99184 32.5209 9.61481 34.3829 9.19421C34.5035 9.16674 34.6214 9.12651 34.74 9.09211L34.7216 9C32.0989 9.35706 29.4764 9.71441 26.7216 10.0898C27.4727 10.4219 28.0514 10.6699 28.8017 10.474Z" fill="#D91404"/>
</svg>
