<svg width="52" height="52" viewBox="0 0 52 52" fill="none" xmlns="http://www.w3.org/2000/svg">
<rect x="1" y="1" width="50" height="50" rx="11" stroke="#3D9DD8" stroke-width="2"/>
<rect x="1" y="1" width="50" height="50" rx="11" stroke="url(#paint0_linear_1069_358)" stroke-width="2"/>
<path fill-rule="evenodd" clip-rule="evenodd" d="M44.8825 16.4512C45.1788 16.0485 45.1787 16.0484 45.1785 16.0483L45.1779 16.0478L45.1758 16.0463L45.1683 16.0408L45.14 16.0203C45.1154 16.0024 45.0791 15.9762 45.0316 15.9425C44.9367 15.8749 44.7971 15.7768 44.6167 15.653C44.2558 15.4055 43.731 15.0553 43.0718 14.6422C41.7542 13.8165 39.8964 12.7369 37.7356 11.7227C33.4394 9.70608 27.8412 7.89729 22.9011 8.98169L22.8752 8.98736L22.8501 8.99572L22.1521 9.22842C20.7039 9.71114 19.4347 10.454 18.6524 11.497L18.6441 11.5081L18.6364 11.5197L18.171 12.2178L18.162 12.2312L18.154 12.2452L14.6632 18.2956L15.1319 18.566C13.7521 20.2566 13.6936 22.6471 15.096 24.8286C17.423 27.8537 22.3099 29.4825 26.2657 28.3194L39.5195 23.8301L40.6934 23.4325C40.6934 23.4325 40.6927 23.432 40.6913 23.431L41.1224 23.6896L45.3112 16.7085L45.5454 16.3182L45.1788 16.0485L44.8825 16.4512ZM40.2844 23.1426L44.2154 16.5911C44.1654 16.5564 44.1106 16.5185 44.0511 16.4777C43.7002 16.2371 43.187 15.8946 42.5408 15.4896C41.2477 14.6792 39.4259 13.6208 37.3107 12.6279C33.0629 10.6341 27.7358 8.95481 23.141 9.95286L22.4683 10.1771C21.13 10.6232 20.0756 11.2727 19.4605 12.0863L19.012 12.759L16.2467 17.5521C16.7779 17.1905 17.4038 16.8951 18.1217 16.684L19.0524 16.4513C26.7521 14.7189 36.5216 20.6296 39.6679 22.724C39.916 22.8892 40.1229 23.0306 40.2844 23.1426ZM38.0888 22.8938C38.2194 22.9759 38.3445 23.0553 38.4638 23.1319L25.9647 27.3655C24.2129 27.8757 22.2161 27.7793 20.3738 27.1918C18.5377 26.6064 16.9325 25.5584 15.9145 24.2523C15.0275 22.8528 14.881 21.4422 15.2828 20.3038C15.6831 19.1699 16.6803 18.1556 18.3848 17.649L19.2832 17.4244C23.5889 16.4605 28.7292 18.0724 32.9362 20.0607C35.0144 21.0429 36.8113 22.0909 38.0888 22.8938Z" fill="#518AC8"/>
<path fill-rule="evenodd" clip-rule="evenodd" d="M33.349 23.3198C31.2641 22.6682 29.0321 22.6538 26.939 23.2784L26.9389 23.2783L26.9284 23.2817L12.5005 27.9356L12.316 27.9951L12.2198 28.1634L7.56592 36.3083L8.00168 36.5573C8.02874 36.5777 8.39128 36.8495 9.0206 37.2776C12.1662 39.4177 21.9769 45.4637 29.8743 43.5375L30.5724 43.3045C32.1318 42.8459 33.2935 41.9895 33.9862 40.9349L34.5002 41.2204L39.1526 32.8457C40.2006 31.0092 39.9024 28.9463 38.6756 26.983L37.7516 25.5044V25.9519C36.5171 24.7434 35.0098 23.8388 33.349 23.3198ZM34.7181 38.7689L38.2799 32.3575L38.2828 32.3522L38.2829 32.3522C39.0907 30.9386 38.9287 29.2888 37.8437 27.5389C36.6049 26.0001 34.9368 24.8637 33.0507 24.2743C31.1576 23.6826 29.131 23.669 27.2301 24.2351L12.9919 28.8278L8.70624 36.3283L9.18255 36.1747L22.4277 31.9022C24.4255 31.306 26.5557 31.3197 28.5456 31.9415C30.5356 32.5634 32.2946 33.765 33.5974 35.3926C34.4327 36.4783 34.7883 37.654 34.7181 38.7689ZM22.724 32.8574L10.2352 36.8858C10.3562 36.965 10.4831 37.0472 10.6157 37.1322C11.8959 37.9524 13.6985 39.0209 15.7893 40.0166C20.0108 42.0269 25.1894 43.6337 29.5979 42.5756L30.2558 42.356L30.2729 42.3503L30.2902 42.3452C32.0221 41.8358 33.0833 40.8047 33.5063 39.6915C33.9232 38.5943 33.7781 37.2719 32.8106 36.0099C31.6328 34.5416 30.0441 33.4575 28.2474 32.896C26.4509 32.3346 24.528 32.3212 22.724 32.8574Z" fill="url(#paint1_linear_1069_358)"/>
<defs>
<linearGradient id="paint0_linear_1069_358" x1="5.56866" y1="0.739415" x2="67.6269" y2="24.5488" gradientUnits="userSpaceOnUse">
<stop stop-color="#315AA9"/>
<stop offset="0.5" stop-color="#518AC8"/>
<stop offset="1" stop-color="#315AA9"/>
</linearGradient>
<linearGradient id="paint1_linear_1069_358" x1="24.6114" y1="25.6606" x2="12.627" y2="69.7799" gradientUnits="userSpaceOnUse">
<stop stop-color="#4377BB"/>
<stop offset="0.5" stop-color="#1A336B"/>
<stop offset="1" stop-color="#1A336B"/>
</linearGradient>
</defs>
</svg>
