<svg width="52" height="52" viewBox="0 0 52 52" fill="none" xmlns="http://www.w3.org/2000/svg">
<g clip-path="url(#clip0_1134_416)">
<g clip-path="url(#clip1_1134_416)">
<path d="M16.6113 33.3743H15.2306C15.1817 31.0438 15.0473 28.8528 14.8274 26.7997H14.8151L12.713 33.3743H11.6618L9.57217 26.7997H9.56016C9.40515 28.7709 9.3075 30.9624 9.26694 33.3743H8.00842C8.08953 30.4414 8.29337 27.6917 8.61914 25.125H10.3304L12.3221 31.1865H12.3344L14.3384 25.125H15.9757C16.3343 28.1314 16.5462 30.8813 16.6113 33.3743ZM22.5992 27.288C22.037 30.3386 21.2953 32.5552 20.3748 33.9389C19.6577 35.004 18.8719 35.5371 18.0163 35.5371C17.7882 35.5371 17.5067 35.4682 17.1732 35.3316V34.596C17.3362 34.6195 17.5275 34.6329 17.7473 34.6329C18.147 34.6329 18.4682 34.5229 18.7132 34.3026C19.0061 34.0341 19.1526 33.7324 19.1526 33.3986C19.1526 33.1697 19.0384 32.7017 18.8105 31.9931L17.2954 27.2877H18.6518L19.7393 30.8069C19.9837 31.606 20.0856 32.1638 20.0448 32.4816C20.6395 30.8933 21.0549 29.1615 21.2916 27.2875H22.5992V27.288Z" fill="#5D87A1"/>
<path d="M40.978 33.3743H37.0559V25.1249H38.3753V32.3588H40.978V33.3743ZM36.0293 33.5736L34.5128 32.8252C34.6472 32.7147 34.7758 32.5952 34.8916 32.4567C35.5362 31.6995 35.8577 30.5798 35.8577 29.0966C35.8577 26.3674 34.7868 25.0022 32.6441 25.0022C31.5934 25.0022 30.7738 25.3485 30.1876 26.0414C29.5435 26.7991 29.222 27.9149 29.222 29.3901C29.222 30.8402 29.507 31.9039 30.0771 32.5787C30.5987 33.1899 31.385 33.4959 32.4365 33.4959C32.8287 33.4959 33.1886 33.4479 33.5165 33.3511L35.4909 34.5004L36.0293 33.5736ZM31.1166 31.7235C30.7826 31.1862 30.6155 30.3234 30.6155 29.1337C30.6155 27.0566 31.2465 26.0169 32.5099 26.0169C33.1702 26.0169 33.6542 26.2655 33.9637 26.7618C34.2972 27.2999 34.465 28.155 34.465 29.3282C34.465 31.4223 33.8335 32.4695 32.571 32.4695C31.9103 32.4698 31.4264 32.2219 31.1166 31.7235ZM28.6471 31.0877C28.6471 31.7873 28.3904 32.3612 27.8776 32.8108C27.3643 33.2585 26.6759 33.4829 25.8133 33.4829C25.0065 33.4829 24.2242 33.2251 23.467 32.7123L23.8216 32.004C24.4732 32.3303 25.0631 32.4925 25.5927 32.4925C26.0897 32.4925 26.4782 32.3823 26.7599 32.1638C27.0414 31.9445 27.2092 31.6368 27.2092 31.2478C27.2092 30.7577 26.8675 30.3388 26.2405 29.988C25.6623 29.6705 24.506 29.0067 24.506 29.0067C23.8793 28.5499 23.5655 28.0595 23.5655 27.2516C23.5655 26.583 23.7995 26.0433 24.2677 25.6327C24.7365 25.2204 25.3413 25.015 26.0828 25.015C26.8485 25.015 27.5446 25.2202 28.1716 25.6263L27.8536 26.3349C27.3173 26.107 26.788 25.9931 26.2658 25.9931C25.8429 25.9931 25.5164 26.0948 25.2893 26.2989C25.0604 26.5022 24.9193 26.7623 24.9193 27.0814C24.9193 27.5691 25.2682 27.9933 25.9123 28.3511C26.4982 28.6692 27.6834 29.3444 27.6834 29.3444C28.3261 29.8004 28.6471 30.2863 28.6471 31.0877Z" fill="#F8981D"/>
<path d="M42.6343 22.3619C41.8366 22.3416 41.2189 22.4219 40.7005 22.6412C40.5508 22.701 40.3128 22.701 40.292 22.8902C40.3729 22.9702 40.3822 23.0993 40.4524 23.2098C40.5719 23.4091 40.7803 23.6772 40.9705 23.817C41.1794 23.9771 41.3891 24.1356 41.609 24.2752C41.9966 24.515 42.4361 24.6545 42.8139 24.8936C43.034 25.0326 43.2528 25.2124 43.4731 25.3621C43.5815 25.4419 43.6508 25.5713 43.7914 25.6212V25.5908C43.721 25.5011 43.701 25.3715 43.6319 25.2717L43.3325 24.983C43.0433 24.5945 42.6839 24.2554 42.2963 23.9769C41.9772 23.757 41.2792 23.4582 41.1498 23.0905L41.1295 23.0703C41.3488 23.0497 41.609 22.9702 41.8174 22.9091C42.1565 22.8197 42.4657 22.84 42.8136 22.7506C42.9737 22.7106 43.1324 22.6604 43.2931 22.6111V22.5212C43.1127 22.3416 42.9841 22.1031 42.7944 21.9334C42.2869 21.495 41.7277 21.0663 41.1498 20.7074C40.8403 20.5076 40.4422 20.379 40.1127 20.209C39.994 20.149 39.7939 20.1194 39.724 20.0196C39.5452 19.8003 39.4447 19.5116 39.315 19.252C39.0268 18.7043 38.747 18.0965 38.4983 17.5173C38.3185 17.1288 38.2091 16.7409 37.9898 16.3815C36.9626 14.6873 35.8471 13.6611 34.1326 12.6539C33.7641 12.4442 33.3258 12.3548 32.8575 12.2449L32.1097 12.2054C31.9501 12.1355 31.7903 11.9458 31.651 11.8562C31.0822 11.4976 29.6177 10.7204 29.1994 11.7465C28.9299 12.3951 29.598 13.0328 29.8274 13.3618C29.9968 13.5902 30.2164 13.85 30.3349 14.1094C30.405 14.2788 30.4248 14.4586 30.495 14.6376C30.6545 15.0763 30.8037 15.5642 31.0134 15.9735C31.1227 16.1822 31.242 16.4015 31.3818 16.5904C31.4619 16.7008 31.6011 16.7497 31.6315 16.9298C31.4925 17.1283 31.4816 17.4279 31.4018 17.6771C31.0432 18.8033 31.1833 20.1984 31.6916 21.026C31.8506 21.2752 32.23 21.8238 32.7375 21.6135C33.1868 21.4342 33.0872 20.8662 33.2164 20.3681C33.246 20.2477 33.2265 20.1688 33.2863 20.0898V20.1093C33.4253 20.3881 33.5656 20.6567 33.6945 20.9364C34.0037 21.4243 34.5421 21.9329 34.9906 22.2709C35.2294 22.4513 35.4186 22.7597 35.7177 22.8699V22.84H35.6979C35.6374 22.7506 35.5488 22.7106 35.4693 22.6412C35.2894 22.4617 35.0904 22.2424 34.9509 22.0433C34.533 21.4849 34.1633 20.8667 33.8351 20.2288C33.6745 19.9193 33.536 19.581 33.4066 19.272C33.3463 19.1528 33.3463 18.9729 33.2463 18.9129C33.0963 19.132 32.8778 19.3217 32.7684 19.5901C32.5787 20.0193 32.559 20.5474 32.4885 21.0964L32.4493 21.1157C32.1318 21.0359 32.0213 20.7074 31.9008 20.4286C31.6022 19.7205 31.552 18.5839 31.8111 17.767C31.8805 17.5581 32.1806 16.9001 32.0608 16.7011C32.0008 16.5103 31.8012 16.4017 31.6918 16.2515C31.5632 16.0626 31.4224 15.8236 31.3327 15.6139C31.0937 15.056 30.9733 14.4378 30.7159 13.8802C30.5955 13.6203 30.3866 13.3514 30.2175 13.112C30.0275 12.8431 29.8186 12.6537 29.6684 12.3348C29.6188 12.2252 29.5491 12.0459 29.6289 11.9266C29.6484 11.8466 29.6889 11.8167 29.7684 11.7967C29.8976 11.6876 30.2666 11.8263 30.396 11.8863C30.7655 12.0357 31.0745 12.1753 31.3829 12.3845C31.5224 12.4845 31.6721 12.6739 31.8511 12.7238H32.0608C32.3791 12.7932 32.738 12.7431 33.0376 12.8332C33.5656 13.0029 34.044 13.2518 34.473 13.5205C35.7785 14.3484 36.8551 15.5248 37.5818 16.9298C37.7011 17.1587 37.7518 17.3684 37.8606 17.6072C38.0706 18.096 38.3302 18.5943 38.5386 19.0727C38.748 19.541 38.9476 20.0191 39.2467 20.4081C39.3958 20.6173 39.9951 20.7269 40.2637 20.8366C40.4625 20.926 40.772 21.0055 40.9513 21.1151C41.2904 21.324 41.6282 21.5639 41.947 21.7936C42.1058 21.9131 42.6047 22.1623 42.6343 22.3619ZM32.4674 13.7003C32.3298 13.6989 32.1927 13.7158 32.0595 13.7505V13.7705H32.0787C32.159 13.9298 32.2986 14.0403 32.3981 14.1793C32.4784 14.3391 32.548 14.4976 32.6267 14.6571L32.6459 14.6374C32.7865 14.5378 32.8564 14.3783 32.8564 14.139C32.7959 14.0685 32.7865 13.9997 32.7361 13.9298C32.6774 13.83 32.548 13.7804 32.4674 13.7003Z" fill="#5D87A1"/>
<path d="M43.5836 33.373H43.7901V32.3623H43.4804L43.2277 33.052L42.9532 32.3623H42.6549V33.373H42.8499V32.6041H42.8608L43.1485 33.373H43.2971L43.5836 32.6041V33.373ZM41.9201 33.373H42.1386V32.5336H42.4246V32.3621H41.6221V32.5336H41.9196L41.9201 33.373Z" fill="#F8981D"/>
</g>
</g>
<rect x="1" y="1" width="50" height="50" rx="11" stroke="#5D87A1" stroke-width="2"/>
<defs>
<clipPath id="clip0_1134_416">
<rect width="52" height="52" rx="12" fill="white"/>
</clipPath>
<clipPath id="clip1_1134_416">
<rect width="51" height="51" fill="white" transform="translate(1 -3)"/>
</clipPath>
</defs>
</svg>
