<svg width="52" height="52" viewBox="0 0 52 52" fill="none" xmlns="http://www.w3.org/2000/svg">
<rect x="1" y="1" width="50" height="50" rx="11" stroke="#FF3E00" stroke-width="2"/>
<path d="M19.3004 32.9697C17.8997 32.8063 15.9348 31.5398 15.1274 30.927C14.7481 32.2693 14.1645 33.6992 15.2442 35.917C16.3239 38.1348 17.9289 39.2145 20.1466 39.8857C21.9209 40.4226 23.9013 39.6619 24.6697 39.2145C27.1307 37.7262 32.3795 34.4871 33.6868 33.4366C35.3209 32.1234 36.5757 30.8686 36.459 28.0672C36.3423 25.2658 34.533 23.8651 34.2996 23.6025C32.753 21.9683 30.4185 21.7349 29.9516 21.7349C28.4808 21.6181 27.0626 22.192 26.5374 22.4936L23.1231 24.653C22.9772 24.76 22.6154 24.9857 22.3352 25.0324C21.1096 25.3825 19.9132 24.5946 19.7381 23.3107C19.598 22.2835 20.3801 21.6571 20.7886 21.4722C23.4539 19.7505 28.8602 16.2663 29.1637 16.1029C30.2434 15.5776 30.7978 15.7527 31.6441 16.3363C32.3211 16.8032 32.3347 17.8343 32.2569 18.2915C33.6342 18.5249 35.5252 19.663 36.4298 20.3925C36.8967 19.342 36.9551 18.1456 36.8967 17.737C36.7508 15.8986 36.459 15.5776 35.7295 14.2936C35.1458 13.2665 33.8521 12.4066 33.2782 12.105C32.0583 11.3789 30.8961 11.3466 29.8494 11.3175L29.8348 11.3171C28.7843 11.288 27.9089 11.6673 27.4128 11.8716C27.0393 11.965 25.2923 13.0972 24.4655 13.6516C22.6076 14.8384 18.7868 17.276 18.3666 17.5328C17.8413 17.8538 17.2285 18.2039 16.3531 19.2253C15.4776 20.2466 15.0983 21.9683 15.1274 23.1064C15.1566 24.2445 15.4776 26.3455 17.8413 28.2423C19.7323 29.7597 22.1699 29.6916 23.1523 29.4679C24.7281 29.322 26.7124 27.7462 27.9672 26.9875C28.7551 26.3163 30.2726 25.7327 31.2355 26.8124C32.4028 28.0964 31.6441 29.2539 31.1188 29.6722C28.5898 31.2577 23.4033 34.528 22.8897 34.9248C22.2477 35.4209 20.847 35.9754 19.884 34.9248C19.1136 34.0844 19.1739 33.2712 19.3004 32.9697Z" stroke="#FF3E00" stroke-width="1.6"/>
<path d="M13.289 40.4401C8.64334 35.3042 10.5168 29.7792 12.0342 27.6587C8.70755 20.2466 13.0555 15.8986 14.9231 14.6146C16.4172 13.5875 22.8216 9.65381 25.837 7.81539C29.4554 6.38551 34.854 6.32714 39.202 11.9008C42.6804 16.3597 40.9237 21.696 39.6105 23.8068C42.4119 29.0594 39.6494 34.0105 37.918 35.8295C34.3968 38.1542 27.2902 42.833 27.0334 42.9497C26.7124 43.0956 19.0961 46.86 13.289 40.4401Z" stroke="#FF3E00" stroke-width="1.6"/>
</svg>
