<svg width="52" height="52" viewBox="0 0 52 52" fill="none" xmlns="http://www.w3.org/2000/svg">
<rect x="1" y="1" width="50" height="50" rx="11" stroke="#7011F5" stroke-width="2"/>
<path d="M9.98346 32.5614C9.65379 28.4406 7.19046 27.4562 6 27.4791V25.35C9.02193 24.8005 10.3955 20.1989 10.3269 15.1853C10.2719 11.1743 12.6849 10.1258 13.8982 10.1029H37.799C41.3704 9.75953 42.6066 12.9875 42.1945 14.2238C41.8649 15.2128 42.1945 17.8409 42.4006 19.0314C43.2247 24.2511 45.4912 25.4187 46.5214 25.35V27.4104C43.7742 27.6164 43.1561 30.9131 42.6753 32.1493C42.2907 33.1383 42.1488 36.9569 42.1259 38.7426C41.7412 41.8745 39.4473 42.6574 38.3484 42.6574H14.6537C11.3571 42.8635 9.98346 38.9487 10.3269 37.9872C10.6016 37.2179 10.2124 34.0495 9.98346 32.5614Z" stroke="#7011F5" stroke-width="2"/>
<path d="M30.0788 26.2403C31.038 26.4225 31.8515 26.9602 32.5195 27.8532C33.1875 28.7463 33.5215 29.7578 33.5215 30.8878C33.5215 31.8537 33.2817 32.7285 32.8021 33.5122C32.3397 34.2777 31.6631 34.8882 30.7725 35.3439C29.8818 35.7813 28.8456 36 27.6638 36H20.5215V17H27.3298C28.5459 17 29.5907 17.2187 30.4642 17.6561C31.3377 18.0935 31.9971 18.6859 32.4424 19.4331C32.8878 20.1621 33.1104 20.9823 33.1104 21.8935C33.1104 22.9871 32.8364 23.8983 32.2883 24.6273C31.7402 25.3564 31.0037 25.894 30.0788 26.2403ZM23.4503 24.9827H27.0729C28.032 24.9827 28.7771 24.7549 29.308 24.2993C29.8561 23.8254 30.1302 23.1511 30.1302 22.2763C30.1302 21.4197 29.8561 20.7544 29.308 20.2806C28.7771 19.7885 28.032 19.5424 27.0729 19.5424H23.4503V24.9827ZM27.4069 33.4576C28.4003 33.4576 29.1796 33.2024 29.7448 32.6921C30.31 32.1818 30.5926 31.471 30.5926 30.5597C30.5926 29.6302 30.2929 28.8921 29.6934 28.3453C29.0939 27.7986 28.2975 27.5252 27.3041 27.5252H23.4503V33.4576H27.4069Z" fill="black"/>
</svg>
