<svg width="52" height="52" viewBox="0 0 52 52" fill="none" xmlns="http://www.w3.org/2000/svg">
<rect x="1" y="1" width="50" height="50" rx="11" stroke="#FF4680" stroke-width="2"/>
<path d="M41.1035 36L35.8477 28.3008L30.5215 36H26.9531L33.9316 26.1387L27.2695 16.6992H30.873L35.8477 23.9766L40.7695 16.6992H44.3379L37.6758 26.1387L44.707 36H41.1035Z" fill="#FF4680"/>
<path d="M16.4941 16.3477C18.1465 16.3477 19.5645 16.7051 20.748 17.4199C21.9434 18.1348 22.8574 19.1484 23.4902 20.4609C24.1348 21.7734 24.457 23.3027 24.457 25.0488V26.9648H11.2383C11.2852 29.1445 11.8418 30.8086 12.9082 31.957C13.9863 33.0938 15.4863 33.6621 17.4082 33.6621C18.627 33.6621 19.7109 33.5508 20.6602 33.3281C21.6094 33.0938 22.5879 32.7598 23.5957 32.3262V35.1035C22.6113 35.5371 21.6387 35.8535 20.6777 36.0527C19.7168 36.252 18.5742 36.3516 17.25 36.3516C15.4102 36.3516 13.793 35.9824 12.3984 35.2441C11.0039 34.5059 9.91406 33.4043 9.12891 31.9395C8.35547 30.4746 7.96875 28.6582 7.96875 26.4902C7.96875 24.3691 8.32617 22.5586 9.04102 21.0586C9.74414 19.5469 10.7344 18.3867 12.0117 17.5781C13.3008 16.7578 14.7949 16.3477 16.4941 16.3477ZM16.459 18.9316C14.9473 18.9316 13.752 19.418 12.873 20.3906C12.0059 21.3633 11.4844 22.7168 11.3086 24.4512H21.1523C21.1289 22.8105 20.7422 21.4805 19.9922 20.4609C19.2539 19.4414 18.0762 18.9316 16.459 18.9316Z" fill="#FF4680"/>
</svg>
