<svg width="52" height="52" viewBox="0 0 52 52" fill="none" xmlns="http://www.w3.org/2000/svg">
<rect x="1" y="1" width="50" height="50" rx="11" stroke="#0868AC" stroke-width="2"/>
<mask id="path-2-inside-1_748_284" fill="white">
<path d="M14.108 11.7006C11.6957 15.1673 11.9959 19.678 13.839 23.3622L13.9738 23.624L14.0601 23.7901L14.1139 23.8855L14.2101 24.0575C14.2672 24.1582 14.3259 24.2583 14.386 24.359L14.4864 24.5244C14.553 24.6314 14.6209 24.7377 14.6905 24.8437L14.7774 24.9779C14.8735 25.1213 14.9717 25.264 15.073 25.4048L15.0816 25.4156L15.1315 25.4829C15.2191 25.6036 15.3093 25.723 15.4008 25.8415L15.5022 25.9704C15.5839 26.0731 15.667 26.1749 15.7513 26.2769L15.8464 26.3904C15.9596 26.5237 16.0755 26.6569 16.1933 26.7868L16.2002 26.794L16.2136 26.8088C16.3288 26.9345 16.4466 27.0575 16.5663 27.1806L16.6792 27.2944C16.7718 27.3876 16.8659 27.4792 16.9608 27.5704L17.0759 27.68C17.2029 27.7994 17.3309 27.9169 17.4618 28.0311L17.4677 28.0363L17.535 28.0934C17.6501 28.1935 17.7673 28.2919 17.8854 28.3894L18.0304 28.5052C18.1269 28.5823 18.2244 28.6588 18.3225 28.7336L18.479 28.852C18.5873 28.9318 18.6965 29.0102 18.8068 29.0873L18.9259 29.172L18.959 29.1956C19.0634 29.2678 19.1707 29.337 19.2773 29.4062L19.4151 29.4981C19.5792 29.6015 19.7455 29.7042 19.9135 29.8033L20.0514 29.881C20.1751 29.9522 20.2994 30.0225 20.4254 30.0907L20.6325 30.1977L20.9002 30.3368L20.9619 30.3667L21.0715 30.4195C21.2116 30.4864 21.353 30.5524 21.4958 30.616L21.5853 30.6561C21.7488 30.7276 21.9138 30.7962 22.0802 30.8621L22.2009 30.9094C22.3548 30.9691 22.511 31.0272 22.6678 31.0823L22.7266 31.1026C22.8985 31.163 23.0724 31.2185 23.2473 31.2733L23.373 31.3107C23.5508 31.3645 23.727 31.4281 23.9104 31.4623C35.5763 33.5895 38.9648 24.4522 38.9648 24.4522C36.1187 28.16 31.0672 29.1378 26.2808 28.0491C26.0994 28.0081 25.9235 27.9513 25.7466 27.8995L25.6134 27.8588C25.4408 27.806 25.2692 27.7505 25.0989 27.6915L25.0284 27.6662C24.8758 27.6124 24.7252 27.5559 24.5749 27.4979L24.4476 27.448C24.2832 27.383 24.1195 27.3151 23.958 27.2446L23.8602 27.2009C23.7214 27.1382 23.584 27.0749 23.4471 27.009L23.3277 26.9515C23.2204 26.8994 23.1144 26.8439 23.0081 26.7891L22.7951 26.6772C22.6655 26.6083 22.5385 26.5361 22.4122 26.4626L22.2829 26.3908C22.1146 26.2914 21.9486 26.189 21.7842 26.085L21.6497 25.9954C21.5305 25.9186 21.4118 25.8402 21.295 25.7595L21.1804 25.6791C21.0676 25.5997 20.9557 25.5186 20.8451 25.4369L20.6965 25.3244C20.5947 25.2466 20.4937 25.1682 20.3939 25.0878L20.2591 24.9795C20.1318 24.8752 20.0061 24.7695 19.882 24.6616L19.8407 24.6271C19.7065 24.5093 19.5746 24.3882 19.4443 24.2668L19.3328 24.1592C19.2363 24.0676 19.1411 23.9751 19.048 23.88L18.9364 23.7684C18.8176 23.647 18.7011 23.5239 18.5869 23.3989L18.5695 23.3802C18.4488 23.2483 18.3307 23.1135 18.2152 22.977L18.1223 22.8667C18.036 22.763 17.9507 22.6574 17.8674 22.5514L17.7738 22.4349C17.6731 22.3046 17.5753 22.1747 17.4792 22.0428C14.822 18.418 13.8672 13.4187 15.9911 9.31318M21.5958 8.77965C19.8515 11.2898 19.946 14.6508 21.3071 17.3053C21.5351 17.7503 21.7917 18.1824 22.0785 18.5932C22.3397 18.9683 22.6298 19.4139 22.9766 19.7147C23.1023 19.8532 23.2338 19.9884 23.368 20.121L23.4711 20.223C23.6013 20.3493 23.7339 20.4737 23.8707 20.5944L23.8871 20.6086L23.8911 20.6125C24.0427 20.7454 24.1992 20.873 24.358 20.999L24.464 21.0817C24.6235 21.2038 24.7859 21.3239 24.9526 21.4384L24.9667 21.4492L25.1898 21.5959L25.2955 21.6658C25.4146 21.7422 25.535 21.8164 25.6577 21.8876L25.7089 21.9178C25.8145 21.9785 25.9215 22.0382 26.0288 22.0966L26.1427 22.1557L26.3665 22.2718L26.4003 22.2872C26.5541 22.3627 26.709 22.4359 26.8675 22.5048L26.9705 22.5474C27.0972 22.6009 27.2248 22.6534 27.3535 22.7026L27.5175 22.763C27.6343 22.8063 27.7511 22.846 27.8693 22.8854L28.0281 22.9363C28.1958 22.9881 28.3618 23.0541 28.5363 23.0833C37.5434 24.5753 39.6227 17.6403 39.6227 17.6403C37.7485 20.3401 34.1184 21.628 30.2449 20.6227C30.073 20.5774 29.903 20.5282 29.7347 20.4753L29.5814 20.4258C29.4617 20.3874 29.3426 20.3461 29.2248 20.3031L29.0636 20.243C28.9344 20.1931 28.8064 20.1416 28.6794 20.0878L28.576 20.0442C28.4169 19.9749 28.2604 19.9018 28.1062 19.8256L27.8706 19.7059L27.7347 19.636C27.6343 19.5815 27.5346 19.5251 27.4365 19.4673L27.3653 19.427C27.2432 19.3558 27.1231 19.2826 27.0043 19.2065L26.8954 19.134L26.6618 18.9791C26.4957 18.8646 26.334 18.7448 26.1748 18.6231L26.0652 18.5364C24.3698 17.198 23.0258 15.3684 22.387 13.294C21.7173 11.1425 21.8616 8.72748 23.0219 6.76726M27.8936 6.59729C26.8652 8.1106 26.7641 9.99043 27.4778 11.6619C28.2302 13.4361 29.7721 14.8276 31.5718 15.4878L31.7956 15.5649L31.894 15.5964C32 15.6299 32.1054 15.6686 32.215 15.689C37.1883 16.6501 38.5373 13.1371 38.8962 12.6197C37.7147 14.321 35.7288 14.7295 33.2922 14.1379C33.0999 14.0913 32.8883 14.0218 32.7029 13.9558C32.465 13.8708 32.2307 13.7744 32.0027 13.6651C31.5702 13.4571 31.1577 13.2051 30.7751 12.9163C28.5948 11.2619 27.2406 8.10634 28.6633 5.53613"/>
</mask>
<path d="M13.839 23.3622L13.3023 23.6306L13.3056 23.6369L13.839 23.3622ZM13.9738 23.624L13.4404 23.8988L13.4414 23.9007L13.9738 23.624ZM14.0601 23.7901L13.5277 24.0668L13.5324 24.0758L13.5374 24.0846L14.0601 23.7901ZM14.1139 23.8855L14.6376 23.5927L14.6366 23.591L14.1139 23.8855ZM14.2101 24.0575L13.6864 24.3503L13.6881 24.3533L14.2101 24.0575ZM14.386 24.359L13.8706 24.6662L13.8731 24.6704L14.386 24.359ZM14.4864 24.5244L13.9735 24.8358L13.977 24.8416L14.4864 24.5244ZM14.6905 24.8437L15.194 24.5174L15.1921 24.5144L14.6905 24.8437ZM14.7774 24.9779L14.2738 25.3042L14.2791 25.312L14.7774 24.9779ZM15.073 25.4048L14.5862 25.7554L14.5938 25.7659L14.6018 25.7761L15.073 25.4048ZM15.0816 25.4156L15.5635 25.0582L15.5583 25.0512L15.5529 25.0443L15.0816 25.4156ZM15.1315 25.4829L15.6171 25.1305L15.6134 25.1255L15.1315 25.4829ZM15.4008 25.8415L14.9261 26.2084L14.9292 26.2123L15.4008 25.8415ZM15.5022 25.9704L15.0306 26.3413L15.0327 26.344L15.5022 25.9704ZM15.7513 26.2769L15.2888 26.6591L15.2914 26.6623L15.7513 26.2769ZM15.8464 26.3904L15.3866 26.7759L15.3892 26.779L15.8464 26.3904ZM16.1933 26.7868L15.7487 27.1898L15.7539 27.1955L15.7593 27.2011L16.1933 26.7868ZM16.2002 26.794L16.6438 26.3898L16.6341 26.3797L16.2002 26.794ZM16.2136 26.8088L15.7701 27.2129L15.7713 27.2142L16.2136 26.8088ZM16.5663 27.1806L16.1364 27.5991L16.1402 27.603L16.5663 27.1806ZM16.6792 27.2944L16.2531 27.7168L16.2535 27.7172L16.6792 27.2944ZM16.9608 27.5704L16.5448 28.0028L16.5471 28.005L16.9608 27.5704ZM17.0759 27.68L16.6623 28.1146L16.6648 28.117L17.0759 27.68ZM17.4618 28.0311L17.8604 27.5826L17.8562 27.5789L17.4618 28.0311ZM17.4677 28.0363L17.069 28.4849L17.0794 28.4938L17.4677 28.0363ZM17.535 28.0934L17.9285 27.6405L17.9232 27.636L17.535 28.0934ZM17.8854 28.3894L17.5035 28.8523L17.511 28.8582L17.8854 28.3894ZM18.0304 28.5052L18.4051 28.0365L18.4049 28.0364L18.0304 28.5052ZM18.3225 28.7336L17.9587 29.2107L17.9604 29.212L18.3225 28.7336ZM18.479 28.852L18.1169 29.3305L18.1232 29.3352L18.479 28.852ZM18.8068 29.0873L19.1544 28.5982L19.1507 28.5956L18.8068 29.0873ZM18.9259 29.172L19.2742 28.6834L19.2735 28.6829L18.9259 29.172ZM18.959 29.1956L18.6107 29.6842L18.6177 29.689L18.959 29.1956ZM19.2773 29.4062L19.6102 28.907L19.604 28.903L19.2773 29.4062ZM19.4151 29.4981L19.0823 29.9973L19.0887 30.0016L19.0953 30.0058L19.4151 29.4981ZM19.9135 29.8033L19.6087 30.3202L19.6187 30.3258L19.9135 29.8033ZM20.0514 29.881L20.3507 29.361L20.3462 29.3585L20.0514 29.881ZM20.4254 30.0907L20.1396 30.6184L20.15 30.6238L20.4254 30.0907ZM20.6325 30.1977L20.9091 29.6653L20.9079 29.6646L20.6325 30.1977ZM20.9002 30.3368L20.6236 30.8692L20.6311 30.8732L20.6388 30.8769L20.9002 30.3368ZM20.9619 30.3667L20.7005 30.9067L20.7014 30.9071L20.9619 30.3667ZM21.0715 30.4195L20.811 30.96L20.8129 30.9609L21.0715 30.4195ZM21.4958 30.616L21.7406 30.0682L21.7402 30.0681L21.4958 30.616ZM21.5853 30.6561L21.3405 31.2039L21.3447 31.2057L21.5853 30.6561ZM22.0802 30.8621L21.859 31.4199L21.8615 31.4209L22.0802 30.8621ZM22.2009 30.9094L21.9823 31.4681L21.9838 31.4687L22.2009 30.9094ZM22.6678 31.0823L22.4689 31.6484L22.4714 31.6493L22.6678 31.0823ZM22.7266 31.1026L22.9254 30.5365L22.923 30.5357L22.7266 31.1026ZM23.2473 31.2733L23.0679 31.8459L23.0761 31.8483L23.2473 31.2733ZM23.373 31.3107L23.5467 30.7364L23.5441 30.7356L23.373 31.3107ZM23.9104 31.4623L23.8007 32.0522L23.8028 32.0525L23.9104 31.4623ZM38.9648 24.4522L39.5274 24.6608L38.4889 24.0869L38.9648 24.4522ZM26.2808 28.0491L26.4139 27.4641L26.4131 27.4639L26.2808 28.0491ZM25.7466 27.8995L25.5714 28.4734L25.5778 28.4753L25.7466 27.8995ZM25.6134 27.8588L25.4378 28.4325L25.4381 28.4326L25.6134 27.8588ZM25.0989 27.6915L24.8966 28.2564L24.9023 28.2583L25.0989 27.6915ZM25.0284 27.6662L25.2307 27.1013L25.2279 27.1004L25.0284 27.6662ZM24.5749 27.4979L24.356 28.0565L24.3586 28.0575L24.5749 27.4979ZM24.4476 27.448L24.2271 28.006L24.2287 28.0067L24.4476 27.448ZM23.958 27.2446L23.7135 27.7925L23.7178 27.7944L23.958 27.2446ZM23.8602 27.2009L23.6133 27.7478L23.6157 27.7488L23.8602 27.2009ZM23.4471 27.009L23.7077 26.4685L23.7071 26.4682L23.4471 27.009ZM23.3277 26.9515L23.0653 27.4911L23.0677 27.4923L23.3277 26.9515ZM23.0081 26.7891L22.729 27.3203L22.7332 27.3224L23.0081 26.7891ZM22.7951 26.6772L22.5135 27.207L22.5161 27.2084L22.7951 26.6772ZM22.4122 26.4626L22.714 25.9439L22.7037 25.9382L22.4122 26.4626ZM22.2829 26.3908L21.9778 26.9074L21.9846 26.9114L21.9914 26.9152L22.2829 26.3908ZM21.7842 26.085L21.4516 26.5845L21.4634 26.592L21.7842 26.085ZM21.6497 25.9954L21.9822 25.4959L21.9747 25.4911L21.6497 25.9954ZM21.295 25.7595L20.9502 26.2506L20.9539 26.2531L21.295 25.7595ZM21.1804 25.6791L20.8352 26.1698L20.8357 26.1701L21.1804 25.6791ZM20.8451 25.4369L20.4829 25.9153L20.4885 25.9195L20.8451 25.4369ZM20.6965 25.3244L20.332 25.801L20.3343 25.8027L20.6965 25.3244ZM20.3939 25.0878L20.7704 24.6206L20.7696 24.6199L20.3939 25.0878ZM20.2591 24.9795L19.8787 25.4436L19.8834 25.4474L20.2591 24.9795ZM19.882 24.6616L20.2761 24.2089L20.2662 24.2006L19.882 24.6616ZM19.8407 24.6271L19.4449 25.078L19.4507 25.0831L19.4566 25.088L19.8407 24.6271ZM19.4443 24.2668L19.0277 24.6987L19.0353 24.7057L19.4443 24.2668ZM19.3328 24.1592L19.7494 23.7274L19.7458 23.724L19.3328 24.1592ZM19.048 23.88L19.4767 23.4601L19.4722 23.4557L19.048 23.88ZM18.9364 23.7684L18.5075 24.188L18.5121 24.1927L18.9364 23.7684ZM18.5869 23.3989L19.03 22.9943L19.0263 22.9904L18.5869 23.3989ZM18.5695 23.3802L18.127 23.7854L18.1301 23.7888L18.5695 23.3802ZM18.2152 22.977L17.7563 23.3635L17.7571 23.3645L18.2152 22.977ZM18.1223 22.8667L17.6611 23.2505L17.6634 23.2532L18.1223 22.8667ZM17.8674 22.5514L18.339 22.1805L18.3352 22.1758L17.8674 22.5514ZM17.7738 22.4349L17.2991 22.802L17.306 22.8105L17.7738 22.4349ZM17.4792 22.0428L17.9641 21.6894L17.9631 21.6881L17.4792 22.0428ZM21.3071 17.3053L21.841 17.0317L21.841 17.0316L21.3071 17.3053ZM22.0785 18.5932L22.5709 18.2503L22.5705 18.2498L22.0785 18.5932ZM22.9766 19.7147L23.4209 19.3115L23.3968 19.285L23.3698 19.2615L22.9766 19.7147ZM23.368 20.121L23.7903 19.6947L23.7897 19.6941L23.368 20.121ZM23.4711 20.223L23.0488 20.6493L23.0534 20.6537L23.4711 20.223ZM23.8707 20.5944L23.4737 21.0444L23.4795 21.0494L23.8707 20.5944ZM23.8871 20.6086L24.3114 20.1843L24.2955 20.1683L24.2784 20.1536L23.8871 20.6086ZM23.8911 20.6125L23.4668 21.0368L23.4807 21.0507L23.4956 21.0637L23.8911 20.6125ZM24.358 20.999L23.9851 21.4691L23.9889 21.4721L24.358 20.999ZM24.464 21.0817L24.0949 21.5548L24.0993 21.5582L24.464 21.0817ZM24.9526 21.4384L25.3178 20.9624L25.3053 20.9528L25.2923 20.9438L24.9526 21.4384ZM24.9667 21.4492L24.6014 21.9252L24.6188 21.9385L24.6371 21.9506L24.9667 21.4492ZM25.1898 21.5959L25.5208 21.0955L25.5194 21.0945L25.1898 21.5959ZM25.2955 21.6658L24.9644 22.1662L24.9714 22.1707L25.2955 21.6658ZM25.6577 21.8876L25.9625 21.3708L25.9588 21.3686L25.6577 21.8876ZM25.7089 21.9178L25.4041 22.4346L25.41 22.438L25.7089 21.9178ZM26.0288 22.0966L25.7419 22.6237L25.7525 22.6292L26.0288 22.0966ZM26.1427 22.1557L26.4191 21.6231L26.419 21.6231L26.1427 22.1557ZM26.3665 22.2718L26.09 22.8044L26.1035 22.8114L26.1174 22.8177L26.3665 22.2718ZM26.4003 22.2872L26.6644 21.7485L26.6569 21.7449L26.6493 21.7414L26.4003 22.2872ZM26.8675 22.5048L26.6282 23.0551L26.638 23.0592L26.8675 22.5048ZM26.9705 22.5474L27.2039 21.9947L27.2 21.9931L26.9705 22.5474ZM27.3535 22.7026L27.139 23.2631L27.1462 23.2657L27.3535 22.7026ZM27.5175 22.763L27.7261 22.2004L27.7247 22.1999L27.5175 22.763ZM27.8693 22.8854L27.6795 23.4547L27.6863 23.4568L27.8693 22.8854ZM28.0281 22.9363L27.8451 23.5077L27.8508 23.5095L28.0281 22.9363ZM28.5363 23.0833L28.4373 23.6751L28.4383 23.6752L28.5363 23.0833ZM39.6227 17.6403L40.1974 17.8127L39.1298 17.2982L39.6227 17.6403ZM30.2449 20.6227L30.0921 21.2029L30.0942 21.2034L30.2449 20.6227ZM29.7347 20.4753L29.5501 21.0463L29.555 21.0478L29.7347 20.4753ZM29.5814 20.4258L29.766 19.8549L29.7646 19.8544L29.5814 20.4258ZM29.2248 20.3031L29.0152 20.8653L29.0191 20.8667L29.2248 20.3031ZM29.0636 20.243L28.8477 20.8028L28.8541 20.8052L29.0636 20.243ZM28.6794 20.0878L28.9135 19.5354L28.9128 19.5351L28.6794 20.0878ZM28.576 20.0442L28.3367 20.5944L28.3427 20.5969L28.576 20.0442ZM28.1062 19.8256L27.8343 20.3605L27.8406 20.3637L28.1062 19.8256ZM27.8706 19.7059L27.5961 20.2394L27.5987 20.2407L27.8706 19.7059ZM27.7347 19.636L27.4486 20.1635L27.4602 20.1695L27.7347 19.636ZM27.4365 19.4673L27.7409 18.9502L27.7323 18.9454L27.4365 19.4673ZM27.3653 19.427L27.0629 19.9453L27.0694 19.949L27.3653 19.427ZM27.0043 19.2065L26.6718 19.706L26.6806 19.7116L27.0043 19.2065ZM26.8954 19.134L27.2279 18.6345L27.2269 18.6339L26.8954 19.134ZM26.6618 18.9791L26.321 19.4731L26.3302 19.4792L26.6618 18.9791ZM26.1748 18.6231L25.8027 19.0938L25.8103 19.0996L26.1748 18.6231ZM26.0652 18.5364L26.4373 18.0657L26.437 18.0655L26.0652 18.5364ZM22.387 13.294L22.9604 13.1174L22.9598 13.1157L22.387 13.294ZM27.4778 11.6619L28.0302 11.4276L28.0296 11.4263L27.4778 11.6619ZM31.5718 15.4878L31.3652 16.0512L31.3764 16.0551L31.5718 15.4878ZM31.7956 15.5649L31.6001 16.1324L31.6127 16.1364L31.7956 15.5649ZM31.894 15.5964L31.7112 16.1679L31.7134 16.1686L31.894 15.5964ZM32.215 15.689L32.3288 15.0999L32.3245 15.0991L32.215 15.689ZM38.8962 12.6197L39.3892 12.9617L38.4034 12.2774L38.8962 12.6197ZM33.2922 14.1379L33.4338 13.5549L33.4335 13.5548L33.2922 14.1379ZM32.7029 13.9558L32.501 14.5208L32.5018 14.5211L32.7029 13.9558ZM32.0027 13.6651L31.7426 14.2058L31.7434 14.2062L32.0027 13.6651ZM30.7751 12.9163L30.4125 13.3943L30.4137 13.3952L30.7751 12.9163ZM13.6155 11.3579C11.0409 15.0578 11.3937 19.8153 13.3024 23.6306L14.3756 23.0937C12.5981 19.5407 12.3504 15.2768 14.6005 12.0433L13.6155 11.3579ZM13.3056 23.6369L13.4404 23.8987L14.5072 23.3493L14.3724 23.0875L13.3056 23.6369ZM13.4414 23.9007L13.5277 24.0668L14.5925 23.5133L14.5062 23.3473L13.4414 23.9007ZM13.5374 24.0846L13.5912 24.1801L14.6366 23.591L14.5828 23.4955L13.5374 24.0846ZM13.5902 24.1784L13.6864 24.3503L14.7338 23.7647L14.6376 23.5927L13.5902 24.1784ZM13.6881 24.3533C13.7481 24.4592 13.8092 24.5633 13.8706 24.6662L14.9013 24.0518C14.8426 23.9533 14.7863 23.8572 14.7321 23.7616L13.6881 24.3533ZM13.8731 24.6704L13.9735 24.8358L14.9992 24.213L14.8988 24.0476L13.8731 24.6704ZM13.977 24.8416C14.0461 24.9525 14.1166 25.0628 14.1888 25.1729L15.1921 24.5144C15.1252 24.4126 15.0598 24.3103 14.9957 24.2072L13.977 24.8416ZM14.1869 25.1699L14.2739 25.3041L15.281 24.6516L15.194 24.5174L14.1869 25.1699ZM14.2791 25.312C14.3777 25.4591 14.4798 25.6077 14.5862 25.7554L15.5599 25.0541C15.4636 24.9203 15.3694 24.7834 15.2758 24.6437L14.2791 25.312ZM14.6018 25.7761L14.6103 25.7869L15.5529 25.0443L15.5443 25.0334L14.6018 25.7761ZM14.5996 25.773L14.6495 25.8402L15.6134 25.1255L15.5635 25.0582L14.5996 25.773ZM14.6458 25.8352C14.7379 25.9621 14.832 26.0866 14.9261 26.2084L15.8756 25.4746C15.7866 25.3595 15.7002 25.2451 15.6171 25.1305L14.6458 25.8352ZM14.9292 26.2123L15.0306 26.3413L15.9739 25.5996L15.8725 25.4706L14.9292 26.2123ZM15.0327 26.344C15.1174 26.4505 15.203 26.5553 15.2888 26.6591L16.2138 25.8947C16.1309 25.7945 16.0504 25.6958 15.9718 25.5969L15.0327 26.344ZM15.2914 26.6623L15.3866 26.7759L16.3063 26.005L16.2111 25.8915L15.2914 26.6623ZM15.3892 26.779C15.5053 26.9155 15.6255 27.0538 15.7487 27.1898L16.6378 26.3838C16.5255 26.2599 16.414 26.1318 16.3037 26.0019L15.3892 26.779ZM15.7593 27.2011L15.7662 27.2084L16.6341 26.3797L16.6272 26.3725L15.7593 27.2011ZM15.7567 27.1981L15.7701 27.2129L16.6571 26.4047L16.6437 26.3899L15.7567 27.1981ZM15.7713 27.2142C15.8921 27.3461 16.0145 27.4739 16.1364 27.5991L16.9963 26.7621C16.8786 26.6412 16.7654 26.5229 16.656 26.4034L15.7713 27.2142ZM16.1402 27.603L16.2531 27.7168L17.1053 26.872L16.9924 26.7582L16.1402 27.603ZM16.2535 27.7172C16.3507 27.8152 16.4487 27.9104 16.5448 28.0028L17.3767 27.138C17.2832 27.048 17.1928 26.9601 17.105 26.8717L16.2535 27.7172ZM16.5471 28.005L16.6623 28.1146L17.4895 27.2453L17.3744 27.1357L16.5471 28.005ZM16.6648 28.117C16.7952 28.2396 16.929 28.3625 17.0674 28.4832L17.8562 27.5789C17.7327 27.4712 17.6106 27.3592 17.487 27.2429L16.6648 28.117ZM17.0632 28.4795L17.0691 28.4848L17.8663 27.5878L17.8604 27.5826L17.0632 28.4795ZM17.0794 28.4938L17.1467 28.5509L17.9232 27.636L17.856 27.5789L17.0794 28.4938ZM17.1414 28.5463C17.2615 28.6507 17.3828 28.7525 17.5036 28.8522L18.2672 27.9266C18.1518 27.8313 18.0388 27.7363 17.9285 27.6405L17.1414 28.5463ZM17.511 28.8582L17.656 28.974L18.4049 28.0364L18.2598 27.9206L17.511 28.8582ZM17.6558 28.9739C17.7551 29.0532 17.8562 29.1326 17.9587 29.2107L18.6863 28.2565C18.5925 28.185 18.4987 28.1114 18.4051 28.0365L17.6558 28.9739ZM17.9604 29.212L18.1169 29.3305L18.8411 28.3736L18.6846 28.2552L17.9604 29.212ZM18.1232 29.3352C18.2354 29.4178 18.3487 29.4991 18.4629 29.579L19.1507 28.5956C19.0444 28.5213 18.9391 28.4457 18.8348 28.3689L18.1232 29.3352ZM18.4592 29.5764L18.5783 29.661L19.2735 28.6829L19.1544 28.5982L18.4592 29.5764ZM18.5776 29.6605L18.6107 29.6842L19.3073 28.707L19.2742 28.6834L18.5776 29.6605ZM18.6177 29.689C18.7309 29.7673 18.8467 29.842 18.9506 29.9095L19.604 28.903C19.4947 28.832 19.3959 28.7682 19.3004 28.7022L18.6177 29.689ZM18.9445 29.9055L19.0823 29.9973L19.748 28.9989L19.6101 28.907L18.9445 29.9055ZM19.0953 30.0058C19.2623 30.111 19.434 30.217 19.6087 30.3201L20.2184 29.2865C20.0571 29.1914 19.8961 29.092 19.7349 28.9905L19.0953 30.0058ZM19.6187 30.3258L19.7565 30.4036L20.3462 29.3585L20.2084 29.2807L19.6187 30.3258ZM19.752 30.401C19.8785 30.4738 20.0076 30.5468 20.1397 30.6183L20.7112 29.5631C20.5912 29.4982 20.4716 29.4307 20.3507 29.361L19.752 30.401ZM20.15 30.6238L20.3571 30.7307L20.9079 29.6646L20.7008 29.5576L20.15 30.6238ZM20.3558 30.7301L20.6236 30.8692L21.1769 29.8044L20.9091 29.6653L20.3558 30.7301ZM20.6388 30.8769L20.7005 30.9067L21.2233 29.8266L21.1616 29.7967L20.6388 30.8769ZM20.7014 30.9071L20.811 30.96L21.332 29.879L21.2224 29.8262L20.7014 30.9071ZM20.8129 30.9609C20.9562 31.0294 21.1026 31.0977 21.2514 31.164L21.7402 30.0681C21.6035 30.0071 21.467 29.9435 21.3302 29.8781L20.8129 30.9609ZM21.251 31.1638L21.3405 31.2039L21.8301 30.1083L21.7406 30.0682L21.251 31.1638ZM21.3447 31.2057C21.515 31.2803 21.6866 31.3515 21.859 31.4199L22.3013 30.3044C22.141 30.2408 21.9825 30.1749 21.826 30.1064L21.3447 31.2057ZM21.8615 31.4209L21.9823 31.4681L22.4195 30.3506L22.2988 30.3034L21.8615 31.4209ZM21.9838 31.4687C22.143 31.5305 22.3053 31.5909 22.4689 31.6484L22.8668 30.5162C22.7167 30.4635 22.5666 30.4077 22.418 30.35L21.9838 31.4687ZM22.4714 31.6493L22.5302 31.6696L22.923 30.5357L22.8642 30.5154L22.4714 31.6493ZM22.5278 31.6688C22.7099 31.7327 22.8919 31.7907 23.0679 31.8458L23.4267 30.7007C23.2529 30.6463 23.0871 30.5933 22.9254 30.5365L22.5278 31.6688ZM23.0761 31.8483L23.2018 31.8857L23.5441 30.7356L23.4185 30.6982L23.0761 31.8483ZM23.1992 31.885C23.3363 31.9264 23.574 32.01 23.8007 32.0522L24.0202 30.8724C23.88 30.8463 23.7653 30.8025 23.5467 30.7364L23.1992 31.885ZM23.8028 32.0525C29.8227 33.1502 33.7699 31.3406 36.2076 29.2064C37.4165 28.1479 38.242 27.021 38.7659 26.1581C39.0283 25.7261 39.2161 25.3584 39.3395 25.0958C39.4012 24.9645 39.4469 24.8592 39.4778 24.7851C39.4932 24.748 39.505 24.7187 39.5132 24.6978C39.5173 24.6873 39.5205 24.679 39.5229 24.6728C39.5241 24.6697 39.525 24.6671 39.5258 24.6651C39.5261 24.6642 39.5265 24.6633 39.5267 24.6626C39.5269 24.6622 39.527 24.6618 39.5271 24.6616C39.5272 24.6612 39.5274 24.6608 38.9648 24.4522C38.4023 24.2436 38.4024 24.2433 38.4025 24.243C38.4025 24.243 38.4026 24.2428 38.4026 24.2427C38.4027 24.2425 38.4027 24.2425 38.4026 24.2426C38.4025 24.2428 38.4023 24.2436 38.4018 24.2449C38.4008 24.2475 38.399 24.2522 38.3963 24.2589C38.391 24.2725 38.3823 24.2942 38.3701 24.3236C38.3456 24.3822 38.3071 24.4712 38.2534 24.5855C38.1459 24.8143 37.9779 25.1439 37.7402 25.5353C37.2643 26.3191 36.5135 27.3435 35.4171 28.3035C33.244 30.2061 29.6641 31.9015 24.0181 30.872L23.8028 32.0525ZM38.4889 24.0869C35.8356 27.5434 31.0649 28.522 26.4139 27.4641L26.1477 28.6342C31.0695 29.7537 36.4017 28.7767 39.4408 24.8176L38.4889 24.0869ZM26.4131 27.4639C26.2561 27.4284 26.113 27.3816 25.9154 27.3237L25.5778 28.4753C25.734 28.521 25.9426 28.5878 26.1485 28.6344L26.4131 27.4639ZM25.9219 27.3257L25.7887 27.285L25.4381 28.4326L25.5714 28.4733L25.9219 27.3257ZM25.789 27.2851C25.6223 27.2341 25.4578 27.1809 25.2955 27.1246L24.9023 28.2583C25.0806 28.3202 25.2593 28.3779 25.4378 28.4325L25.789 27.2851ZM25.3012 27.1266L25.2307 27.1013L24.8261 28.2311L24.8966 28.2563L25.3012 27.1266ZM25.2279 27.1004C25.0825 27.0491 24.9378 26.9949 24.7912 26.9382L24.3586 28.0575C24.5126 28.117 24.669 28.1757 24.8288 28.232L25.2279 27.1004ZM24.7938 26.9392L24.6664 26.8893L24.2287 28.0067L24.356 28.0565L24.7938 26.9392ZM24.6681 26.89C24.51 26.8275 24.3528 26.7623 24.1983 26.6948L23.7178 27.7944C23.8861 27.8679 24.0564 27.9386 24.2271 28.006L24.6681 26.89ZM24.2025 26.6966L24.1048 26.653L23.6157 27.7488L23.7135 27.7925L24.2025 26.6966ZM24.1072 26.6541C23.9709 26.5926 23.8384 26.5315 23.7077 26.4685L23.1866 27.5494C23.3296 27.6184 23.472 27.6839 23.6133 27.7478L24.1072 26.6541ZM23.7071 26.4682L23.5877 26.4108L23.0677 27.4923L23.1872 27.5497L23.7071 26.4682ZM23.5901 26.4119C23.4909 26.3637 23.3939 26.313 23.283 26.2558L22.7332 27.3224C22.8349 27.3749 22.9499 27.435 23.0653 27.4911L23.5901 26.4119ZM23.2872 26.258L23.0742 26.1461L22.5161 27.2084L22.729 27.3203L23.2872 26.258ZM23.0768 26.1474C22.9568 26.0836 22.8372 26.0157 22.714 25.944L22.1105 26.9812C22.2399 27.0566 22.3743 27.133 22.5135 27.207L23.0768 26.1474ZM22.7037 25.9382L22.5744 25.8663L21.9914 26.9152L22.1207 26.9871L22.7037 25.9382ZM22.5881 25.8742C22.4262 25.7786 22.2655 25.6795 22.105 25.5779L21.4634 26.592C21.6316 26.6984 21.803 26.8042 21.9778 26.9074L22.5881 25.8742ZM22.1167 25.5855L21.9822 25.496L21.3171 26.4948L21.4516 26.5844L22.1167 25.5855ZM21.9747 25.4911C21.8592 25.4166 21.746 25.3419 21.636 25.2658L20.9539 26.2531C21.0775 26.3385 21.2019 26.4206 21.3246 26.4997L21.9747 25.4911ZM21.6397 25.2684L21.5252 25.188L20.8357 26.1701L20.9502 26.2505L21.6397 25.2684ZM21.5257 25.1883C21.4173 25.1121 21.3092 25.0338 21.2016 24.9543L20.4885 25.9195C20.6021 26.0034 20.7179 26.0872 20.8352 26.1698L21.5257 25.1883ZM21.2073 24.9586L21.0586 24.846L20.3343 25.8027L20.4829 25.9153L21.2073 24.9586ZM21.0609 24.8477C20.9612 24.7715 20.8646 24.6965 20.7704 24.6206L20.0174 25.555C20.1227 25.6398 20.2282 25.7217 20.332 25.801L21.0609 24.8477ZM20.7696 24.6199L20.6347 24.5117L19.8834 25.4474L20.0183 25.5556L20.7696 24.6199ZM20.6394 24.5155C20.5159 24.4143 20.3949 24.3125 20.276 24.209L19.4881 25.1141C19.6173 25.2266 19.7476 25.3361 19.8787 25.4436L20.6394 24.5155ZM20.2662 24.2006L20.2248 24.1662L19.4566 25.088L19.4979 25.1225L20.2662 24.2006ZM20.2365 24.1762C20.1087 24.064 19.9817 23.9475 19.8534 23.8279L19.0353 24.7057C19.1675 24.829 19.3043 24.9546 19.4449 25.078L20.2365 24.1762ZM19.8609 23.835L19.7493 23.7274L18.9162 24.591L19.0278 24.6986L19.8609 23.835ZM19.7458 23.724C19.6527 23.6356 19.5631 23.5485 19.4766 23.4602L18.6193 24.2998C18.7192 24.4018 18.8199 24.4996 18.9198 24.5944L19.7458 23.724ZM19.4722 23.4557L19.3607 23.3441L18.5121 24.1927L18.6237 24.3042L19.4722 23.4557ZM19.3653 23.3488C19.2511 23.2321 19.1393 23.114 19.03 22.9943L18.1439 23.8036C18.2629 23.9339 18.3841 24.0619 18.5075 24.188L19.3653 23.3488ZM19.0263 22.9904L19.009 22.9717L18.1301 23.7888L18.1475 23.8075L19.0263 22.9904ZM19.0121 22.9751C18.8973 22.8496 18.7843 22.7207 18.6732 22.5894L17.7571 23.3645C17.877 23.5062 18.0003 23.647 18.127 23.7854L19.0121 22.9751ZM18.6741 22.5904L18.5812 22.4802L17.6634 23.2532L17.7563 23.3635L18.6741 22.5904ZM18.5835 22.4829C18.501 22.3838 18.4192 22.2824 18.339 22.1805L17.3957 22.9223C17.4822 23.0323 17.5711 23.1423 17.6611 23.2505L18.5835 22.4829ZM18.3352 22.1758L18.2417 22.0593L17.306 22.8105L17.3995 22.927L18.3352 22.1758ZM18.2485 22.0679C18.1509 21.9417 18.0566 21.8163 17.9641 21.6894L16.9943 22.3962C17.0941 22.5331 17.1953 22.6675 17.2992 22.8019L18.2485 22.0679ZM17.9631 21.6881C15.4061 18.1999 14.5292 13.4448 16.5241 9.58888L15.4582 9.03748C13.2051 13.3926 14.238 18.6361 16.9953 22.3975L17.9631 21.6881ZM21.1031 8.43726C19.2066 11.1664 19.3334 14.7709 20.7732 17.5791L21.841 17.0316C20.5587 14.5307 20.4964 11.4132 22.0886 9.12204L21.1031 8.43726ZM20.7731 17.579C21.0125 18.0461 21.2829 18.5017 21.5865 18.9367L22.5705 18.2498C22.3005 17.8631 22.0578 17.4545 21.841 17.0317L20.7731 17.579ZM21.5861 18.9361C21.8244 19.2781 22.1653 19.8052 22.5834 20.168L23.3698 19.2615C23.0942 19.0225 22.8551 18.6584 22.5709 18.2503L21.5861 18.9361ZM22.5323 20.118C22.6672 20.2667 22.8068 20.4099 22.9464 20.5478L23.7897 19.6941C23.6609 19.5669 23.5373 19.4398 23.4209 19.3115L22.5323 20.118ZM22.9458 20.5473L23.0489 20.6493L23.8933 19.7967L23.7903 19.6947L22.9458 20.5473ZM23.0534 20.6537C23.1883 20.7846 23.3279 20.9157 23.4737 21.0443L24.2677 20.1446C24.1399 20.0317 24.0144 19.9141 23.8888 19.7923L23.0534 20.6537ZM23.4795 21.0494L23.4959 21.0635L24.2784 20.1536L24.262 20.1395L23.4795 21.0494ZM23.4629 21.0328L23.4668 21.0368L24.3153 20.1882L24.3114 20.1843L23.4629 21.0328ZM23.4956 21.0637C23.6575 21.2056 23.8225 21.34 23.9851 21.4691L24.7309 20.529C24.5759 20.406 24.4278 20.2851 24.2866 20.1613L23.4956 21.0637ZM23.9889 21.4721L24.0949 21.5548L24.8331 20.6087L24.7271 20.526L23.9889 21.4721ZM24.0993 21.5582C24.2638 21.6841 24.435 21.8107 24.6128 21.9329L25.2923 20.9438C25.1368 20.837 24.9831 20.7235 24.8287 20.6053L24.0993 21.5582ZM24.5873 21.9144L24.6014 21.9252L25.332 20.9732L25.3178 20.9624L24.5873 21.9144ZM24.6371 21.9506L24.8602 22.0973L25.5194 21.0945L25.2963 20.9478L24.6371 21.9506ZM24.8588 22.0963L24.9644 22.1662L25.6265 21.1654L25.5208 21.0955L24.8588 22.0963ZM24.9714 22.1707C25.0967 22.2512 25.2249 22.3301 25.3566 22.4066L25.9588 21.3686C25.8451 21.3026 25.7324 21.2333 25.6196 21.1608L24.9714 22.1707ZM25.3529 22.4044L25.4041 22.4346L26.0137 21.401L25.9625 21.3708L25.3529 22.4044ZM25.41 22.438C25.5199 22.5012 25.6309 22.5631 25.742 22.6236L26.3157 21.5696C26.2121 21.5133 26.1092 21.4558 26.0078 21.3975L25.41 22.438ZM25.7525 22.6292L25.8664 22.6883L26.419 21.6231L26.3051 21.564L25.7525 22.6292ZM25.8663 22.6882L26.09 22.8044L26.6429 21.7393L26.4191 21.6231L25.8663 22.6882ZM26.1174 22.8177L26.1512 22.8331L26.6493 21.7414L26.6155 21.726L26.1174 22.8177ZM26.1361 22.826C26.295 22.9039 26.4586 22.9813 26.6283 23.055L27.1067 21.9545C26.9594 21.8905 26.8133 21.8215 26.6644 21.7485L26.1361 22.826ZM26.638 23.0592L26.741 23.1018L27.2 21.9931L27.097 21.9504L26.638 23.0592ZM26.7371 23.1002C26.8669 23.155 27.0015 23.2104 27.139 23.263L27.5679 22.1423C27.4482 22.0965 27.3275 22.0469 27.2039 21.9947L26.7371 23.1002ZM27.1462 23.2657L27.3103 23.3261L27.7247 22.1999L27.5607 22.1396L27.1462 23.2657ZM27.3089 23.3256C27.4354 23.3725 27.5598 23.4147 27.6795 23.4546L28.059 22.3162C27.9425 22.2774 27.8333 22.2402 27.7261 22.2005L27.3089 23.3256ZM27.6863 23.4568L27.8451 23.5077L28.2111 22.3649L28.0523 22.314L27.6863 23.4568ZM27.8508 23.5095C27.9578 23.5426 28.21 23.637 28.4373 23.675L28.6353 22.4915C28.5136 22.4711 28.4337 22.4337 28.2053 22.363L27.8508 23.5095ZM28.4383 23.6752C33.1241 24.4514 36.0845 23.0354 37.8681 21.3584C38.7489 20.5304 39.3272 19.6539 39.686 18.9839C39.8657 18.6483 39.9914 18.3626 40.0731 18.1576C40.114 18.0551 40.144 17.9726 40.1642 17.9138C40.1744 17.8845 40.1821 17.8611 40.1876 17.844C40.1903 17.8355 40.1925 17.8286 40.1941 17.8234C40.195 17.8207 40.1956 17.8185 40.1962 17.8167C40.1965 17.8159 40.1967 17.8151 40.1969 17.8144C40.197 17.814 40.1971 17.8136 40.1972 17.8134C40.1973 17.813 40.1974 17.8127 39.6227 17.6403C39.048 17.468 39.0481 17.4677 39.0482 17.4674C39.0482 17.4673 39.0483 17.4671 39.0483 17.4669C39.0484 17.4667 39.0484 17.4665 39.0485 17.4665C39.0485 17.4663 39.0484 17.4666 39.0482 17.4673C39.0477 17.4688 39.0468 17.4718 39.0453 17.4763C39.0424 17.4855 39.0373 17.5008 39.0301 17.5219C39.0155 17.564 38.992 17.629 38.9584 17.7132C38.8913 17.8817 38.7841 18.1261 38.6281 18.4174C38.3156 19.001 37.8112 19.7649 37.0462 20.4842C35.5384 21.9017 32.9557 23.2071 28.6344 22.4913L28.4383 23.6752ZM39.1298 17.2982C37.4194 19.762 34.0625 20.9936 30.3956 20.0419L30.0942 21.2034C34.1744 22.2624 38.0775 20.9183 40.1156 17.9825L39.1298 17.2982ZM30.3977 20.0424C30.2351 19.9996 30.0741 19.953 29.9143 19.9029L29.555 21.0478C29.7318 21.1033 29.9108 21.1551 30.0921 21.2029L30.3977 20.0424ZM29.9193 19.9044L29.766 19.8549L29.3968 20.9967L29.5501 21.0462L29.9193 19.9044ZM29.7646 19.8544C29.6538 19.8189 29.5424 19.7803 29.4304 19.7394L29.0191 20.8667C29.1427 20.9118 29.2695 20.9559 29.3983 20.9972L29.7646 19.8544ZM29.4343 19.7408L29.2732 19.6808L28.8541 20.8052L29.0152 20.8653L29.4343 19.7408ZM29.2796 19.6832C29.1557 19.6354 29.0338 19.5864 28.9135 19.5354L28.4453 20.6403C28.5789 20.6969 28.713 20.7509 28.8477 20.8028L29.2796 19.6832ZM28.9128 19.5351L28.8094 19.4914L28.3427 20.5969L28.446 20.6406L28.9128 19.5351ZM28.8154 19.494C28.6661 19.429 28.5184 19.36 28.3718 19.2876L27.8406 20.3637C28.0024 20.4436 28.1677 20.5209 28.3367 20.5944L28.8154 19.494ZM28.3781 19.2908L28.1425 19.171L27.5987 20.2407L27.8343 20.3605L28.3781 19.2908ZM28.1451 19.1724L28.0092 19.1025L27.4602 20.1695L27.5961 20.2394L28.1451 19.1724ZM28.0208 19.1086C27.9267 19.0575 27.833 19.0045 27.7408 18.9503L27.1321 19.9844C27.2361 20.0456 27.342 20.1055 27.4486 20.1634L28.0208 19.1086ZM27.7323 18.9454L27.6611 18.905L27.0694 19.949L27.1406 19.9893L27.7323 18.9454ZM27.6676 18.9087C27.5521 18.8414 27.4392 18.7725 27.3281 18.7013L26.6806 19.7116C26.807 19.7927 26.9343 19.8702 27.0629 19.9452L27.6676 18.9087ZM27.3368 18.707L27.2279 18.6345L26.5629 19.6334L26.6719 19.7059L27.3368 18.707ZM27.2269 18.6339L26.9933 18.479L26.3302 19.4792L26.5639 19.6341L27.2269 18.6339ZM27.0024 18.4852C26.8471 18.3781 26.6938 18.2646 26.5394 18.1465L25.8103 19.0996C25.9742 19.225 26.1443 19.3511 26.3211 19.473L27.0024 18.4852ZM26.5469 18.1524L26.4373 18.0657L25.6932 19.0072L25.8028 19.0938L26.5469 18.1524ZM26.437 18.0655C24.8257 16.7935 23.5594 15.0624 22.9604 13.1174L21.8135 13.4706C22.4923 15.6744 23.9139 17.6026 25.6935 19.0074L26.437 18.0655ZM22.9598 13.1157C22.3327 11.1008 22.4771 8.86562 23.5382 7.07287L22.5055 6.46164C21.2462 8.58933 21.1018 11.1841 21.8141 13.4723L22.9598 13.1157ZM27.3973 6.26006C26.2429 7.95893 26.1403 10.0572 26.926 11.8975L28.0296 11.4263C27.388 9.92362 27.4876 8.26228 28.3898 6.93452L27.3973 6.26006ZM26.9254 11.8962C27.7472 13.834 29.4211 15.338 31.3652 16.0511L31.7785 14.9245C30.123 14.3173 28.7132 13.0382 28.0302 11.4276L26.9254 11.8962ZM31.3764 16.0551L31.6001 16.1322L31.9911 14.9977L31.7673 14.9206L31.3764 16.0551ZM31.6127 16.1364L31.7112 16.1679L32.0769 15.025L31.9785 14.9935L31.6127 16.1364ZM31.7134 16.1686C31.7832 16.1907 31.948 16.2497 32.1054 16.2789L32.3245 15.0991C32.2627 15.0876 32.2168 15.0692 32.0747 15.0243L31.7134 16.1686ZM32.1011 16.2781C34.7549 16.7909 36.5184 16.1138 37.6664 15.1728C38.7552 14.2803 39.2969 13.0948 39.3892 12.9617L38.4032 12.2777C38.1366 12.662 37.8243 13.4917 36.9056 14.2448C36.0461 14.9493 34.6484 15.5481 32.3288 15.0999L32.1011 16.2781ZM38.4034 12.2774C37.421 13.692 35.7459 14.1162 33.4338 13.5549L33.1506 14.721C35.7118 15.3428 38.0083 14.9501 39.389 12.962L38.4034 12.2774ZM33.4335 13.5548C33.2713 13.5155 33.0824 13.454 32.904 13.3905L32.5018 14.5211C32.6941 14.5895 32.9286 14.6672 33.1509 14.7211L33.4335 13.5548ZM32.9047 13.3908C32.6847 13.3122 32.4697 13.2236 32.2619 13.124L31.7434 14.2062C31.9917 14.3252 32.2453 14.4295 32.501 14.5208L32.9047 13.3908ZM32.2628 13.1244C31.8664 12.9337 31.4878 12.7025 31.1366 12.4374L30.4137 13.3952C30.8276 13.7076 31.274 13.9804 31.7426 14.2058L32.2628 13.1244ZM31.1378 12.4383C29.0968 10.8897 27.9625 8.04103 29.1883 5.82672L28.1384 5.24555C26.5186 8.17164 28.0927 11.6341 30.4125 13.3943L31.1378 12.4383Z" fill="#0868AC" mask="url(#path-2-inside-1_748_284)"/>
<path d="M26.7741 36.5968H25.3875C25.3107 36.5968 25.2343 36.6585 25.2178 36.7337L24.7257 39.0109L24.2335 41.2881C24.2174 41.3632 24.1409 41.4249 24.0642 41.4249H23.0827C22.1118 41.4249 22.224 40.7532 22.4229 39.8331L22.4288 39.8053L22.4504 39.6891L22.4544 39.6674L22.4987 39.4312L22.5463 39.1782L22.5968 38.9206L22.8206 37.8273L23.0447 36.734C23.0601 36.6585 23.0096 36.5965 22.9328 36.5965H21.5097C21.4329 36.5965 21.3568 36.6582 21.3411 36.7337L21.0349 38.1853L20.7291 39.6373L20.7284 39.6392L20.7002 39.7744C20.3478 41.3832 20.441 42.9178 22.3566 42.9661L22.4124 42.9671H25.419C25.4958 42.9671 25.5722 42.9054 25.5883 42.8302L26.2367 39.7823L26.8851 36.734C26.9011 36.6585 26.8513 36.5972 26.7741 36.5968ZM11.9245 36.5808H10.402C10.3249 36.5808 10.2481 36.6425 10.2311 36.7173L10.0867 37.3545L9.94232 37.9917C9.92558 38.0668 9.97447 38.1282 10.0516 38.1282H11.5859C11.663 38.1282 11.7395 38.0665 11.7559 37.9914L11.8953 37.3545L12.0348 36.7176C12.0508 36.6425 12.0016 36.5808 11.9245 36.5808ZM11.4829 38.564H9.94822C9.87144 38.564 9.79433 38.6256 9.77727 38.7005L9.56169 39.6553L9.34644 40.6098L9.28639 40.8835L9.07935 41.858L8.87263 42.8329C8.85655 42.908 8.82341 43.0294 8.7988 43.1023C8.7988 43.1023 8.51202 43.9554 8.03 43.9455L7.96963 43.9442L7.55258 43.9367C7.4758 43.9357 7.39836 43.9957 7.38032 44.0702L7.22118 44.7393L7.06236 45.408C7.04432 45.4828 7.09288 45.5445 7.16933 45.5458C7.44266 45.5491 8.05494 45.556 8.42539 45.556C9.62929 45.556 10.2642 44.8889 10.6708 42.9694L11.1469 40.7663L11.5934 38.7001C11.6095 38.6256 11.5596 38.564 11.4829 38.564ZM39.74 38.0475L39.6763 37.7847L39.6137 37.5156L39.5818 37.3798C39.4572 36.8951 39.0913 36.6159 38.2966 36.6159L37.0596 36.6146L35.9203 36.6129H34.6383C34.5615 36.6129 34.4854 36.6746 34.4693 36.7498L34.4126 37.0175L34.3456 37.3338L34.3269 37.4227L33.7498 40.1265L33.2018 42.6931C33.1854 42.7686 33.1801 42.8611 33.1893 42.8985C33.1985 42.9362 33.3465 42.9671 33.4233 42.9671H34.5796C34.6567 42.9671 34.7541 42.9533 34.7961 42.9362C34.8381 42.9192 34.9002 42.7679 34.9156 42.6928L35.121 41.6759L35.3267 40.6587L35.3271 40.6571L35.3546 40.5215L35.604 39.3534L35.8242 38.3218C35.8406 38.2467 35.9164 38.1853 35.9931 38.185L39.6317 38.1833C39.7088 38.184 39.7574 38.1226 39.74 38.0475ZM44.424 35.6719L44.1438 35.6728H42.9793C42.9021 35.6728 42.8034 35.725 42.7604 35.7887L40.1849 39.5615C40.1416 39.6251 40.0921 39.6159 40.075 39.5411L39.8854 38.71C39.8683 38.6348 39.7912 38.5735 39.7141 38.5735H38.0587C37.9816 38.5735 37.936 38.6338 37.957 38.7077L38.6989 41.3068C38.7199 41.3809 38.7215 41.5023 38.7025 41.5771L38.3793 42.8348C38.3599 42.9096 38.4072 42.9703 38.4843 42.9703H40.1206C40.1974 42.9703 40.2762 42.9093 40.2952 42.8348L40.6187 41.5771C40.6378 41.502 40.6912 41.3911 40.7378 41.3294L44.9188 35.7805C44.9654 35.7188 44.9401 35.6686 44.8633 35.6692L44.424 35.6719ZM31.2708 38.9265V38.9252C31.2613 39.0086 31.1841 39.0699 31.107 39.0699H29.008C28.9352 39.0699 28.8984 39.0207 28.9093 38.9597L28.9112 38.9548L28.9099 38.9554L28.9109 38.9485L28.9204 38.9128C29.1209 38.3799 29.5291 38.0301 30.2966 38.0301C31.1608 38.0298 31.3295 38.4517 31.2708 38.9265ZM30.6549 36.5037C27.9606 36.5037 27.3221 38.139 26.9638 39.7898C26.6058 41.4725 26.6363 43.0452 29.4247 43.0452H29.7627L29.8467 43.0448H29.8664L30.2011 43.0438H30.207C30.9433 43.0409 31.6819 43.0353 31.9808 43.033C32.0573 43.0317 32.1321 42.9703 32.1478 42.8952L32.2607 42.3436L32.2827 42.2363L32.4172 41.5781C32.4327 41.503 32.3825 41.441 32.3053 41.441H29.7988C28.8016 41.441 28.5057 41.1762 28.6149 40.3972H32.6217L32.6213 40.3975L32.624 40.3972C32.6876 40.3962 32.7467 40.3522 32.77 40.2938L32.7795 40.2591L32.7792 40.2594C33.3741 38.0153 33.2034 36.504 30.6549 36.5037ZM17.9203 38.918L17.8823 39.0522L17.5798 40.1248L17.2772 41.1968C17.2566 41.2713 17.1762 41.3317 17.0991 41.3317H15.4978C14.2831 41.3317 13.9871 40.3814 14.2831 38.9803C14.5787 37.5471 15.1585 36.6562 16.3542 36.566C17.9883 36.4426 18.3151 37.5917 17.9203 38.918ZM19.0189 41.2493C19.0189 41.2493 19.7739 39.4158 19.9452 38.3572C20.1792 36.9401 19.4694 34.884 16.7283 34.884C14.0029 34.884 12.819 36.8465 12.3675 38.9803C11.916 41.1296 12.5076 43.014 15.2176 42.9986L17.3556 42.9907L19.3536 42.9835C19.4304 42.9828 19.5091 42.9218 19.5288 42.8476L19.877 41.52C19.8963 41.4452 19.8494 41.3842 19.7723 41.3835L19.4386 41.3816L19.1049 41.3796C19.0396 41.3793 19.0022 41.3366 19.0101 41.2805L19.0189 41.2493ZM32.5114 40.0218C32.5114 40.0727 32.4704 40.114 32.4195 40.114C32.369 40.114 32.3277 40.0727 32.3277 40.0218C32.3277 39.9713 32.3687 39.9303 32.4195 39.9303C32.4704 39.9303 32.5114 39.9713 32.5114 40.0218Z" fill="#131B28"/>
</svg>
