<svg width="52" height="52" viewBox="0 0 52 52" fill="none" xmlns="http://www.w3.org/2000/svg">
<rect x="1" y="1" width="50" height="50" rx="11" stroke="#F1DC50" stroke-width="2"/>
<path d="M41.6348 35.1274C41.5696 34.5175 41.2949 34.0426 40.8107 33.7027C40.3311 33.3628 39.7072 33.1929 38.939 33.1929C38.399 33.1929 37.9357 33.2744 37.5493 33.4373C37.1629 33.6003 36.8672 33.8214 36.6624 34.1008C36.4575 34.3801 36.3527 34.699 36.3481 35.0575C36.3481 35.3555 36.4156 35.6139 36.5506 35.8327C36.6903 36.0515 36.8788 36.2378 37.1163 36.3914C37.3537 36.5404 37.6168 36.6661 37.9055 36.7685C38.1941 36.871 38.4851 36.9571 38.7784 37.0269L40.1193 37.3622C40.6594 37.4879 41.1785 37.6578 41.6767 37.872C42.1795 38.0861 42.6288 38.3562 43.0245 38.6821C43.4249 39.008 43.7415 39.4014 43.9743 39.8623C44.2071 40.3232 44.3235 40.8633 44.3235 41.4825C44.3235 42.3206 44.1093 43.0585 43.681 43.6964C43.2526 44.3296 42.6334 44.8254 41.8233 45.1839C41.0179 45.5377 40.0425 45.7147 38.8971 45.7147C37.7844 45.7147 36.8183 45.5424 35.9989 45.1979C35.1841 44.8533 34.5463 44.3505 34.0854 43.6894C33.6291 43.0283 33.3823 42.2228 33.3451 41.273H35.8941C35.9314 41.7712 36.085 42.1856 36.3551 42.5161C36.6251 42.8467 36.9766 43.0934 37.4096 43.2564C37.8473 43.4194 38.3361 43.5008 38.8762 43.5008C39.4395 43.5008 39.9331 43.417 40.3567 43.2494C40.7851 43.0772 41.1203 42.8397 41.3624 42.5371C41.6045 42.2298 41.7279 41.8713 41.7325 41.4616C41.7279 41.0891 41.6185 40.7818 41.4043 40.5397C41.1901 40.293 40.8898 40.0881 40.5034 39.9252C40.1216 39.7576 39.6747 39.6086 39.1625 39.4782L37.5353 39.0592C36.3574 38.7566 35.4262 38.298 34.7418 37.6834C34.0621 37.0642 33.7222 36.2424 33.7222 35.2182C33.7222 34.3755 33.9503 33.6375 34.4066 33.0043C34.8675 32.3711 35.4937 31.8799 36.2852 31.5308C37.0767 31.1769 37.973 31 38.974 31C39.9889 31 40.8782 31.1769 41.6417 31.5308C42.4099 31.8799 43.0129 32.3665 43.4505 32.9904C43.8882 33.6096 44.114 34.3219 44.1279 35.1274H41.6348Z" fill="#3C3C3C"/>
<path d="M28.4809 31.1957H31.0509V41.2522C31.0462 42.1741 30.8507 42.9679 30.4643 43.6337C30.0778 44.2948 29.5377 44.8046 28.844 45.1631C28.155 45.5169 27.3518 45.6939 26.4347 45.6939C25.5966 45.6939 24.8424 45.5449 24.1719 45.2469C23.5062 44.9443 22.9777 44.4973 22.5866 43.906C22.1955 43.3147 22 42.5791 22 41.6992H24.577C24.5816 42.0856 24.6654 42.4185 24.8284 42.6978C24.996 42.9772 25.2265 43.1914 25.5198 43.3403C25.8131 43.4893 26.1506 43.5638 26.5324 43.5638C26.9468 43.5638 27.2983 43.4777 27.587 43.3054C27.8756 43.1285 28.0944 42.8678 28.2434 42.5232C28.3971 42.1787 28.4762 41.755 28.4809 41.2522V31.1957Z" fill="#3C3C3C"/>
</svg>
