<svg width="52" height="52" viewBox="0 0 52 52" fill="none" xmlns="http://www.w3.org/2000/svg">
<rect x="1" y="1" width="50" height="50" rx="11" stroke="#8CC84B" stroke-width="2"/>
<g clip-path="url(#clip0_665_3433)">
<path d="M24.4423 6.87303L24.4448 6.87163C25.3269 6.377 26.4869 6.37544 27.366 6.87108L27.3694 6.87296C29.5217 8.06447 31.6742 9.25505 33.8265 10.4456C36.868 12.128 39.9094 13.8103 42.9503 15.495L42.951 15.4954C43.7762 15.9508 44.3208 16.8511 44.3125 17.7594V17.7639L44.3125 35.0606L44.3126 35.0638C44.3185 36.0063 43.7216 36.932 42.844 37.3806L42.8369 37.3843L42.8299 37.3881C40.107 38.8921 37.3842 40.3974 34.6615 41.9026C32.2089 43.2585 29.7564 44.6143 27.3043 45.9689L27.3017 45.9704C26.4097 46.4701 25.2322 46.433 24.3623 45.8888L24.3533 45.8831L24.3441 45.8779C23.4998 45.3984 22.653 44.9192 21.8067 44.4403C21.0996 44.0402 20.3928 43.6403 19.688 43.2404C19.6192 43.2003 19.5484 43.1616 19.4839 43.1265C19.5043 43.1193 19.5249 43.1118 19.5455 43.1038C20.1935 42.8997 20.7885 42.5846 21.3347 42.2954C21.3671 42.2783 21.3994 42.2612 21.4315 42.2442L21.4407 42.2499L21.4511 42.2558C22.0102 42.5699 22.5734 42.8913 23.1384 43.2138C23.8993 43.6481 24.6635 44.0843 25.4255 44.5069C25.7386 44.6831 26.0451 44.6368 26.2625 44.5582C26.4122 44.504 26.5737 44.4106 26.6683 44.3559C26.6911 44.3427 26.71 44.3318 26.7239 44.3242L26.7264 44.3228C29.1466 42.9828 31.5707 41.6437 33.9951 40.3046C36.651 38.8375 39.3072 37.3702 41.9588 35.9014C42.3291 35.7182 42.5257 35.3364 42.5053 34.9556C42.5076 31.331 42.5073 27.7058 42.5071 24.0809C42.5069 22.0112 42.5068 19.9416 42.5071 17.8722C42.537 17.4301 42.2769 17.0468 41.9073 16.8724C39.0327 15.2864 36.1593 13.6992 33.2859 12.1121C31.0135 10.8569 28.7411 9.60173 26.468 8.34706C26.3004 8.24015 26.1057 8.18351 25.9072 8.18323C25.7084 8.18294 25.5132 8.23918 25.3452 8.34591C23.0622 9.60646 20.7801 10.8678 18.4983 12.129C15.6347 13.7117 12.7715 15.2943 9.90678 16.875C9.55049 17.0438 9.2699 17.4182 9.30558 17.8753C9.30617 21.6716 9.30597 25.4682 9.30577 29.2651C9.30568 31.1611 9.30558 33.0572 9.30558 34.9533C9.29332 35.1471 9.33927 35.3398 9.43712 35.5074L9.86887 35.2552L9.43712 35.5074C9.53578 35.6763 9.68214 35.8111 9.85634 35.8965C10.763 36.4002 11.6709 36.9018 12.5782 37.4031C13.0443 37.6606 13.5101 37.918 13.9756 38.1755L13.9755 38.1756L13.9844 38.1803C14.8159 38.6187 15.9245 38.9293 16.9699 38.5474C17.9202 38.2119 18.5857 37.2704 18.5697 36.269C18.5731 33.5657 18.5724 30.8664 18.5718 28.1676C18.5711 25.2189 18.5703 22.2709 18.5749 19.319C19.2095 19.3148 19.8389 19.3108 20.4665 19.3199L20.4665 19.3394C20.4655 21.4434 20.4663 23.547 20.467 25.6503C20.4682 29.2551 20.4694 32.8593 20.4621 36.4641L20.4621 36.4657C20.4637 37.8776 19.8708 39.3134 18.6613 39.9414C17.0636 40.7513 15.0465 40.5926 13.4054 39.7842L13.4041 39.7836C12.4706 39.3271 11.5801 38.8284 10.6757 38.322C10.1187 38.0101 9.55634 37.6952 8.97547 37.3854L8.97552 37.3853L8.96631 37.3806C8.08899 36.9357 7.49414 36.0073 7.50013 35.064V35.0608V17.7639H7.50015L7.5001 17.7591C7.49118 16.8317 8.05766 15.9144 8.90886 15.4655L8.90891 15.4656L8.91755 15.4608C12.8213 13.3026 16.7245 11.143 20.6275 8.98359C21.8991 8.28004 23.1707 7.57651 24.4423 6.87303Z" stroke="#8CC84B"/>
<path d="M35.184 19.8628L35.1859 19.8638C36.5195 20.5718 37.3101 22.054 37.3871 23.5632L37.378 23.5632C37.1656 23.5629 36.9559 23.5637 36.7477 23.5645C36.3112 23.5661 35.8813 23.5677 35.4478 23.5594C35.4411 23.5436 35.4358 23.5249 35.4331 23.506L35.4302 23.4857L35.4256 23.4658C35.2181 22.5627 34.6991 21.5914 33.7317 21.1057L33.7317 21.1057L33.7275 21.1037C32.4423 20.4733 30.976 20.4881 29.7207 20.5009C29.6725 20.5014 29.6247 20.5019 29.5772 20.5023L29.5665 20.5024L29.5559 20.503C28.6116 20.5521 27.4381 20.6307 26.492 21.2735C25.6424 21.8445 25.4277 22.9463 25.7045 23.7921L25.7115 23.8134L25.7203 23.834C25.8877 24.2235 26.1936 24.4573 26.4815 24.6064C26.7342 24.7373 27.0153 24.8232 27.2288 24.8885C27.2506 24.8952 27.2718 24.9016 27.2921 24.9079L27.3037 24.9115L27.3154 24.9145C28.536 25.2272 29.7885 25.3896 31.0052 25.5473C31.1806 25.5701 31.3553 25.5927 31.529 25.6157C32.9219 25.8 34.2657 26.007 35.5482 26.4479L35.5504 26.4487C36.5882 26.7999 37.4924 27.4482 37.7994 28.3657C38.2498 29.7504 38.0369 31.3674 37.0783 32.427L37.0759 32.4297C36.2805 33.322 35.0949 33.8346 33.8438 34.1205C32.1845 34.4826 30.4485 34.4948 28.7267 34.3307C27.1082 34.1495 25.5167 33.7392 24.3598 32.7388L24.3567 32.7362C23.426 31.9445 22.9416 30.7033 22.9607 29.4719C23.6084 29.4668 24.254 29.4651 24.8987 29.4726L24.8987 29.4732L24.9025 29.4977C25.0316 30.3254 25.3645 31.3189 26.2349 31.8987L26.2349 31.8988L26.245 31.9052C27.6001 32.7617 29.2605 32.7775 30.6607 32.7908C30.797 32.7921 30.9307 32.7934 31.0615 32.7954L31.0762 32.7956L31.0909 32.795C31.1562 32.7921 31.2226 32.7894 31.2898 32.7866C31.8619 32.7629 32.4985 32.7366 33.1121 32.6282C33.8047 32.5059 34.5097 32.2733 35.1165 31.7918L35.124 31.7859L35.1313 31.7796C35.8534 31.1602 36.0322 30.1676 35.8559 29.362L35.8528 29.3478L35.8488 29.3337C35.7265 28.8983 35.4364 28.6014 35.1357 28.3997C34.8401 28.2014 34.5045 28.0745 34.2322 27.984L34.2323 27.9839L34.2226 27.9809C32.893 27.5688 31.5146 27.4254 30.1936 27.2879C30.1246 27.2807 30.0557 27.2735 29.987 27.2663C28.5851 27.1196 27.248 26.9639 25.9817 26.5157L25.9785 26.5146C24.9674 26.1646 24.0843 25.5329 23.744 24.6427C23.2233 23.2579 23.4782 21.577 24.529 20.5611L24.529 20.5611L24.5325 20.5576C25.5959 19.5088 27.1662 19.074 28.7558 18.9155C30.9971 18.7748 33.2871 18.8455 35.184 19.8628ZM24.8973 29.4484L24.8973 29.4486L24.8973 29.4484Z" stroke="#8CC84B"/>
</g>
<defs>
<clipPath id="clip0_665_3433">
<rect width="38" height="41" fill="white" transform="translate(7 6)"/>
</clipPath>
</defs>
</svg>
