<svg width="52" height="52" viewBox="0 0 52 52" fill="none" xmlns="http://www.w3.org/2000/svg">
<rect x="1" y="1" width="50" height="50" rx="11" stroke="#008776" stroke-width="2"/>
<path d="M18.5516 38.0754C18.5233 38.0277 18.4982 37.9784 18.4762 37.9278C18.3245 37.5919 18.2779 37.2212 18.342 36.8605H9.35856L22.709 14.3958L27.0921 21.7631L28.3627 19.6131L24.5419 13.1775C24.3588 12.8478 24.0923 12.5674 23.7666 12.3617C23.4409 12.156 23.0665 12.0316 22.6776 12C22.2894 12.0169 21.9141 12.1375 21.5941 12.3483C21.2742 12.5591 21.0225 12.8515 20.8678 13.1922L7.34278 35.9294C7.14061 36.2505 7.02405 36.6141 7.00334 36.9883C6.98263 37.3625 7.05842 37.7358 7.22403 38.0754C7.43202 38.3891 7.72766 38.6408 8.0775 38.8021C8.42733 38.9634 8.81741 39.028 9.20359 38.9883H20.5317C20.1455 39.0286 19.7552 38.9643 19.4052 38.8029C19.0553 38.6416 18.7591 38.3895 18.5516 38.0754Z" fill="#00C492"/>
<path d="M44.5958 35.9289L33.4814 17.2094C33.2991 16.8763 33.032 16.5925 32.7047 16.3841C32.3774 16.1758 32.0005 16.0496 31.6087 16.0172C31.2211 16.0333 30.846 16.1532 30.5262 16.3633C30.2064 16.5734 29.9549 16.8652 29.8002 17.2054L28.3627 19.6131L29.6416 21.7631L31.6206 18.413L42.6163 36.8599H38.4351C38.4885 37.1649 38.4584 37.4778 38.3478 37.7683C38.3245 37.8325 38.2953 37.8946 38.2605 37.9539L38.2249 38.0221C37.9977 38.3288 37.6951 38.5774 37.3436 38.7457C36.9921 38.914 36.6027 38.997 36.2097 38.9872H42.7505C43.1435 38.9973 43.533 38.9145 43.8845 38.7461C44.2361 38.5778 44.5387 38.3291 44.7656 38.0221C44.9448 37.6929 45.0238 37.3222 44.9938 36.9523C44.9638 36.5823 44.8259 36.2277 44.5958 35.9289Z" fill="#008776"/>
<path d="M38.2249 38.0221L38.2605 37.9539C38.2953 37.8946 38.3245 37.8325 38.3478 37.7683C38.4584 37.4778 38.4885 37.1649 38.4351 36.8599C38.3734 36.5311 38.2498 36.2162 38.0705 35.9294L29.65 21.7631L28.3627 19.6131L18.6668 35.9294C18.5034 36.2197 18.3935 36.5346 18.342 36.8605C18.2742 37.2204 18.3169 37.5913 18.4649 37.9284C18.4868 37.979 18.512 38.0283 18.5403 38.076C18.7484 38.3895 19.044 38.6411 19.3939 38.8024C19.7437 38.9636 20.1337 39.028 20.5199 38.9883H36.1978C36.5927 38.9995 36.9843 38.9172 37.338 38.7489C37.6916 38.5805 37.9963 38.3312 38.2249 38.0232V38.0221ZM28.3627 23.9136L36.0595 36.8599H20.6695L28.3627 23.9136Z" fill="#2D4A5D"/>
</svg>
