<svg width="52" height="52" viewBox="0 0 52 52" fill="none" xmlns="http://www.w3.org/2000/svg">
<rect x="1" y="1" width="50" height="50" rx="11" stroke="#00DC82" stroke-width="2"/>
<g clip-path="url(#clip0_748_300)">
<path d="M17.0008 32.8387H24.7562C25.0025 32.8387 25.2445 32.7747 25.4578 32.6533C25.6712 32.5318 25.8483 32.3571 25.9714 32.1467C26.0945 31.9363 26.1593 31.6976 26.1592 31.4547C26.1591 31.2118 26.0941 30.9732 25.9708 30.7629L20.7625 21.8666C20.6394 21.6563 20.4623 21.4816 20.249 21.3602C20.0357 21.2387 19.7938 21.1748 19.5475 21.1748C19.3012 21.1748 19.0593 21.2387 18.846 21.3602C18.6327 21.4816 18.4556 21.6563 18.3325 21.8666L17.0008 24.1429L14.397 19.6918C14.2738 19.4814 14.0967 19.3068 13.8833 19.1854C13.67 19.0639 13.428 19 13.1817 19C12.9354 19 12.6934 19.0639 12.48 19.1854C12.2667 19.3068 12.0895 19.4814 11.9663 19.6918L5.48525 30.7629C5.36195 30.9732 5.29698 31.2118 5.29688 31.4547C5.29677 31.6976 5.36153 31.9363 5.48464 32.1467C5.60775 32.3571 5.78487 32.5318 5.9982 32.6533C6.21151 32.7747 6.45351 32.8387 6.69984 32.8387H11.568C13.4969 32.8387 14.9193 32.0031 15.8981 30.3731L18.2744 26.3148L19.5471 24.1429L23.367 30.6667H18.2744L17.0008 32.8387ZM11.4887 30.6645L8.09129 30.6638L13.184 21.9658L15.725 26.3148L14.0236 29.2215C13.3736 30.2792 12.6352 30.6645 11.4887 30.6645Z" fill="#00DC82"/>
</g>
<path d="M42.1289 21.3335H44.7031V32.769H42.1289V21.3335Z" fill="#35495E"/>
<path d="M34.9338 33C34.1307 33 33.4377 32.89 32.8546 32.67C32.2716 32.439 31.7875 32.1254 31.4025 31.7294C31.0284 31.3224 30.7479 30.8438 30.5609 30.2938C30.3849 29.7327 30.2969 29.1167 30.2969 28.4456V21.3335H32.8711V28.2311C32.8711 28.6931 32.9206 29.0892 33.0196 29.4192C33.1296 29.7382 33.2726 30.0023 33.4487 30.2113C33.6357 30.4093 33.8557 30.5523 34.1087 30.6403C34.3727 30.7283 34.6588 30.7723 34.9668 30.7723C35.5938 30.7723 36.0999 30.5798 36.4849 30.1948C36.881 29.8097 37.079 29.1552 37.079 28.2311V21.3335H39.6532V28.4456C39.6532 29.1167 39.5597 29.7327 39.3727 30.2938C39.1857 30.8548 38.8996 31.3389 38.5146 31.7459C38.1296 32.1419 37.64 32.45 37.046 32.67C36.4519 32.89 35.7479 33 34.9338 33Z" fill="#35495E"/>
<defs>
<clipPath id="clip0_748_300">
<rect width="21" height="14" fill="white" transform="translate(5.29688 19)"/>
</clipPath>
</defs>
</svg>
