<svg width="52" height="52" viewBox="0 0 52 52" fill="none" xmlns="http://www.w3.org/2000/svg">
<rect x="1" y="1" width="50" height="50" rx="11" stroke="#00AAFF" stroke-width="2"/>
<path d="M27 21.8504C27 23.0197 26.7257 24.1228 26.177 25.1597C25.6283 26.1966 24.7503 27.046 23.5432 27.7079C22.3361 28.3477 20.7888 28.6676 18.9012 28.6676H14.7531V38H11V15H18.9012C20.6571 15 22.1385 15.3089 23.3457 15.9266C24.5748 16.5223 25.4856 17.3386 26.0782 18.3755C26.6927 19.4125 27 20.5707 27 21.8504ZM18.9012 25.5899C20.3278 25.5899 21.3923 25.27 22.0947 24.6302C22.797 23.9683 23.1481 23.0417 23.1481 21.8504C23.1481 19.3353 21.7325 18.0777 18.9012 18.0777H14.7531V25.5899H18.9012Z" fill="#00AAFF"/>
<path d="M35.78 38C34.5026 38 33.353 37.7709 32.3311 37.3128C31.3288 36.8348 30.5329 36.1974 29.9433 35.4007C29.3537 34.5841 29.0393 33.6778 29 32.6819H32.4785C32.5374 33.379 32.8617 33.9666 33.4512 34.4446C34.0605 34.9028 34.8171 35.1318 35.7211 35.1318C36.6644 35.1318 37.3915 34.9525 37.9025 34.594C38.4331 34.2156 38.6984 33.7376 38.6984 33.1599C38.6984 32.5425 38.4036 32.0844 37.8141 31.7856C37.2441 31.4868 36.3303 31.1582 35.0726 30.7996C33.8541 30.461 32.8617 30.1324 32.0952 29.8137C31.3288 29.495 30.6606 29.007 30.0907 28.3497C29.5404 27.6924 29.2653 26.826 29.2653 25.7504C29.2653 24.874 29.5208 24.0773 30.0317 23.3603C30.5427 22.6233 31.2698 22.0457 32.2132 21.6274C33.1761 21.2091 34.2766 21 35.5147 21C37.3621 21 38.8458 21.478 39.966 22.4341C41.1058 23.3702 41.715 24.6549 41.7937 26.2882H38.4331C38.3742 25.5513 38.0794 24.9637 37.5488 24.5255C37.0181 24.0873 36.3008 23.8682 35.3968 23.8682C34.5125 23.8682 33.8345 24.0375 33.3628 24.3761C32.8912 24.7147 32.6553 25.1629 32.6553 25.7206C32.6553 26.1588 32.8125 26.5272 33.127 26.826C33.4414 27.1248 33.8246 27.3638 34.2766 27.5431C34.7286 27.7024 35.3968 27.9115 36.2812 28.1705C37.4603 28.4892 38.4233 28.8178 39.1701 29.1564C39.9365 29.4751 40.5949 29.9531 41.1451 30.5905C41.6954 31.2279 41.9803 32.0744 42 33.1301C42 34.0662 41.7445 34.9028 41.2336 35.6397C40.7226 36.3767 39.9955 36.9543 39.0522 37.3726C38.1285 37.7909 37.0378 38 35.78 38Z" fill="#00AAFF"/>
</svg>
