<svg width="52" height="52" viewBox="0 0 52 52" fill="none" xmlns="http://www.w3.org/2000/svg">
<rect x="1" y="1" width="50" height="50" rx="11" stroke="#1CDAFD" stroke-width="2"/>
<path d="M33.5907 22.3672C36.388 27.2147 38.0733 32.0513 38.5589 35.9326C38.8018 37.8749 38.7396 39.54 38.3947 40.8347C38.0509 42.1254 37.4442 42.9922 36.6323 43.4607C35.8204 43.9292 34.7663 44.0208 33.4768 43.6727C32.1833 43.3234 30.7104 42.5442 29.1504 41.3619C26.0328 38.9995 22.6885 35.1202 19.8912 30.2727C17.0938 25.4252 15.4085 20.5885 14.923 16.7072C14.68 14.765 14.7423 13.0998 15.0871 11.8052C15.4309 10.5145 16.0376 9.64768 16.8495 9.17916C17.6615 8.71063 18.7155 8.61903 20.005 8.96718C21.2985 9.3164 22.7714 10.0957 24.3315 11.2779C27.449 13.6404 30.7933 17.5197 33.5907 22.3672Z" stroke="#1CDAFD" stroke-width="1.5"/>
<path d="M20.4648 22.1653C17.6674 27.0128 15.9821 31.8494 15.4966 35.7307C15.2536 37.673 15.3159 39.3381 15.6607 40.6328C16.0045 41.9235 16.6112 42.7903 17.4232 43.2588C18.2351 43.7273 19.2891 43.8189 20.5787 43.4708C21.8721 43.1215 23.345 42.3423 24.9051 41.16C28.0226 38.7976 31.3669 34.9183 34.1643 30.0708C36.9616 25.2233 38.6469 20.3866 39.1325 16.5053C39.3754 14.563 39.3132 12.8979 38.9683 11.6033C38.6245 10.3126 38.0178 9.44578 37.2059 8.97725C36.394 8.50873 35.3399 8.41712 34.0504 8.76528C32.7569 9.1145 31.284 9.89377 29.724 11.076C26.6064 13.4385 23.2621 17.3178 20.4648 22.1653Z" stroke="#1CDAFD" stroke-width="1.5"/>
<path d="M26.5401 18.9467C20.9433 18.9467 15.9118 19.9044 12.3074 21.4238C10.5037 22.1841 9.09258 23.0703 8.14362 24.0161C7.19754 24.959 6.75005 25.9177 6.75005 26.8551C6.75005 27.7925 7.19754 28.7513 8.14362 29.6941C9.09258 30.6399 10.5037 31.5261 12.3074 32.2864C15.9118 33.8058 20.9433 34.7636 26.5401 34.7636C32.1368 34.7636 37.1683 33.8058 40.7727 32.2864C42.5764 31.5261 43.9875 30.6399 44.9365 29.6941C45.8826 28.7513 46.3301 27.7925 46.3301 26.8551C46.3301 25.9177 45.8826 24.959 44.9365 24.0161C43.9875 23.0703 42.5764 22.1841 40.7727 21.4238C37.1683 19.9044 32.1368 18.9467 26.5401 18.9467Z" stroke="#1CDAFD" stroke-width="1.5"/>
<circle cx="26.7034" cy="25.8864" r="4.14067" fill="#1CDAFD"/>
</svg>
