<svg width="52" height="52" viewBox="0 0 52 52" fill="none" xmlns="http://www.w3.org/2000/svg">
<rect x="1" y="1" width="50" height="50" rx="11" stroke="#4C4C4C" stroke-width="2"/>
<g clip-path="url(#clip0_1093_373)">
<path d="M28.6025 8C37.5524 8 42 12.2836 42 19.1262C42 24.2442 38.8703 27.582 34.6423 28.1383C38.2113 28.8616 40.2977 30.9199 40.6822 34.9809L40.7378 35.7278L40.7864 36.4259L40.8283 37.079L40.8575 37.5714L40.8888 38.1525L40.905 38.4841L40.9282 39.0108L40.9468 39.5083L40.9561 39.7943L40.9686 40.2525L40.9794 40.7765L40.9833 41.0297L40.9903 41.7633L40.9926 42.5289L40.9927 42.9866H31.7632L31.7637 42.7957L31.767 42.4249L31.7725 42.0637L31.7884 41.1889L31.7925 40.8956L31.7956 40.4357L31.7952 40.1416L31.7925 39.8331L31.7888 39.5911L31.7812 39.2522L31.7703 38.8928L31.7556 38.5106L31.7367 38.1035L31.7256 37.8899L31.7068 37.5561L31.685 37.2054L31.6514 36.7098L31.6224 36.316C31.6141 36.1946 31.6044 36.076 31.5935 35.9602L31.5699 35.7323C31.2651 33.0422 30.204 31.9427 28.3867 31.576L28.2335 31.5471C28.1302 31.529 28.0246 31.513 27.9166 31.4991L27.7529 31.4797C27.7435 31.4787 27.7341 31.4777 27.7247 31.4767C27.7064 31.4748 27.6881 31.4729 27.6697 31.4711L27.5008 31.4562L27.3283 31.444L27.1524 31.4344L26.9749 31.4275L26.7939 31.4231L26.6096 31.4209L12 31.4206V24.133H26.9554C27.1999 24.133 27.4369 24.1284 27.6663 24.1188L27.8932 24.1077L28.115 24.0933L28.3318 24.0756C28.3675 24.0723 28.403 24.069 28.4383 24.0654L28.6476 24.0427C28.7854 24.0263 28.9198 24.0077 29.0509 23.9868L29.245 23.9536C31.6719 23.5112 32.8852 22.2157 32.8852 19.6877C32.8852 16.8506 30.9087 15.1311 26.9554 15.1311H12V8H28.6025ZM21.7589 37.5538C22.9699 37.5538 23.4765 38.23 23.657 38.8771L23.6808 38.9702L23.7003 39.0624L23.7131 39.1352L23.7185 39.1712L23.7276 39.2423L23.7345 39.3119L23.7371 39.3461L23.7408 39.413L23.742 39.4458L23.7429 39.5095V42.9866H12V37.5538H21.7589Z" fill="url(#paint0_linear_1093_373)"/>
<path d="M28.6025 8C37.5524 8 42 12.2836 42 19.1262C42 24.2442 38.8703 27.582 34.6423 28.1383C38.2113 28.8616 40.2977 30.9199 40.6822 34.9809L40.7378 35.7278L40.7864 36.4259L40.8283 37.079L40.8575 37.5714L40.8888 38.1525L40.905 38.4841L40.9282 39.0108L40.9468 39.5083L40.9561 39.7943L40.9686 40.2525L40.9794 40.7765L40.9833 41.0297L40.9903 41.7633L40.9926 42.5289L40.9927 42.9866H31.7632L31.7637 42.7957L31.767 42.4249L31.7725 42.0637L31.7884 41.1889L31.7925 40.8956L31.7956 40.4357L31.7952 40.1416L31.7925 39.8331L31.7888 39.5911L31.7812 39.2522L31.7703 38.8928L31.7556 38.5106L31.7367 38.1035L31.7256 37.8899L31.7068 37.5561L31.685 37.2054L31.6514 36.7098L31.6224 36.316C31.6141 36.1946 31.6044 36.076 31.5935 35.9602L31.5699 35.7323C31.2651 33.0422 30.204 31.9427 28.3867 31.576L28.2335 31.5471C28.1302 31.529 28.0246 31.513 27.9166 31.4991L27.7529 31.4797C27.7435 31.4787 27.7341 31.4777 27.7247 31.4767C27.7064 31.4748 27.6881 31.4729 27.6697 31.4711L27.5008 31.4562L27.3283 31.444L27.1524 31.4344L26.9749 31.4275L26.7939 31.4231L26.6096 31.4209L12 31.4206V24.133H26.9554C27.1999 24.133 27.4369 24.1284 27.6663 24.1188L27.8932 24.1077L28.115 24.0933L28.3318 24.0756C28.3675 24.0723 28.403 24.069 28.4383 24.0654L28.6476 24.0427C28.7854 24.0263 28.9198 24.0077 29.0509 23.9868L29.245 23.9536C31.6719 23.5112 32.8852 22.2157 32.8852 19.6877C32.8852 16.8506 30.9087 15.1311 26.9554 15.1311H12V8H28.6025ZM21.7589 37.5538C22.9699 37.5538 23.4765 38.23 23.657 38.8771L23.6808 38.9702L23.7003 39.0624L23.7131 39.1352L23.7185 39.1712L23.7276 39.2423L23.7345 39.3119L23.7371 39.3461L23.7408 39.413L23.742 39.4458L23.7429 39.5095V42.9866H12V37.5538H21.7589Z" stroke="url(#paint1_linear_1093_373)"/>
</g>
<defs>
<linearGradient id="paint0_linear_1093_373" x1="10.9286" y1="7.4697" x2="45.8725" y2="48.6536" gradientUnits="userSpaceOnUse">
<stop stop-color="#3366B0"/>
<stop offset="0.213892" stop-color="#6ACD67"/>
<stop offset="0.439811" stop-color="#E6BE16"/>
<stop offset="0.661647" stop-color="#9110FF"/>
<stop offset="0.875" stop-color="#FF4444"/>
</linearGradient>
<linearGradient id="paint1_linear_1093_373" x1="10.9286" y1="7.4697" x2="45.8725" y2="48.6536" gradientUnits="userSpaceOnUse">
<stop stop-color="#3366B0"/>
<stop offset="0.213892" stop-color="#6ACD67"/>
<stop offset="0.439811" stop-color="#E6BE16"/>
<stop offset="0.661647" stop-color="#9110FF"/>
<stop offset="0.875" stop-color="#FF4444"/>
</linearGradient>
<clipPath id="clip0_1093_373">
<rect width="30" height="35" fill="white" transform="translate(12 8)"/>
</clipPath>
</defs>
</svg>
