<svg width="52" height="52" viewBox="0 0 52 52" fill="none" xmlns="http://www.w3.org/2000/svg">
<rect x="1" y="1" width="50" height="50" rx="11" stroke="#38BDF8" stroke-width="2"/>
<path d="M16.0876 26.1167C8.85235 26.4877 6.34785 31.605 6 34.1172C9.07265 30.001 14.0005 30.8126 15.4498 32.6678C16.8992 34.523 21.3053 38.5812 26.407 38.5812C32.8074 38.5348 35.7989 33.1896 36.4946 30.5228C32.3784 34.9288 28.1463 33.7114 25.4794 30.5228C22.8126 27.3342 19.624 26.1167 16.0876 26.1167Z" stroke="#38BDF8" stroke-width="1.7"/>
<path d="M26.2909 14C19.0557 14.371 16.5512 19.4883 16.2034 22.0005C19.276 17.8843 24.2039 18.6959 25.6532 20.5511C27.1026 22.4063 31.5086 26.4645 36.6104 26.4645C43.0108 26.4181 46.0023 21.0729 46.698 18.4061C42.5818 22.8121 38.3496 21.5947 35.6828 18.4061C33.016 15.2175 29.8274 14 26.2909 14Z" stroke="#38BDF8" stroke-width="1.7"/>
</svg>
