<svg width="52" height="52" viewBox="0 0 52 52" fill="none" xmlns="http://www.w3.org/2000/svg">
<rect x="1" y="1" width="50" height="50" rx="11" stroke="#303030" stroke-width="2"/>
<rect x="1" y="1" width="50" height="50" rx="11" stroke="url(#paint0_linear_665_3394)" stroke-width="2"/>
<path d="M7.81471 12.6578L7.81475 12.6579L26.1216 44.7609C26.1324 44.7799 26.1417 44.7863 26.1479 44.7897C26.1567 44.7946 26.1703 44.7989 26.1874 44.7988C26.2045 44.7987 26.2181 44.7943 26.2269 44.7893C26.2332 44.7858 26.2426 44.7793 26.2533 44.7601C26.2534 44.76 26.2534 44.7599 26.2535 44.7598L44.204 12.6607C44.2168 12.6377 44.2163 12.6261 44.2158 12.6206C44.2151 12.6111 44.211 12.5962 44.1996 12.5803C44.1882 12.5644 44.1753 12.5555 44.1663 12.5517C44.161 12.5494 44.1499 12.5451 44.124 12.5498L7.81471 12.6578ZM7.81471 12.6578C7.80136 12.6344 7.80183 12.6225 7.80222 12.6168C7.80289 12.6072 7.80697 12.5921 7.81824 12.5761C7.82952 12.5602 7.84234 12.5513 7.85124 12.5474C7.85641 12.5451 7.86753 12.5407 7.89397 12.5454C7.89401 12.5454 7.89404 12.5454 7.89408 12.5454L25.8603 15.7563C25.861 15.7564 25.8616 15.7565 25.8622 15.7566C26.0832 15.7967 26.3096 15.7966 26.5305 15.7563L44.1238 12.5498L7.81471 12.6578Z" stroke="url(#paint1_linear_665_3394)" stroke-width="1.8"/>
<path d="M24.1802 23.0738L24.1813 23.0735C24.4078 23.0215 24.6438 23.0271 24.8676 23.09L24.8676 23.09C25.0914 23.1528 25.2958 23.2709 25.4621 23.4333C25.6283 23.5957 25.7512 23.7972 25.8193 24.0194L24.9589 24.2833L25.8193 24.0194C25.8874 24.2415 25.8987 24.477 25.8522 24.7045C25.8521 24.7047 25.8521 24.7049 25.852 24.7051L24.8917 29.407L26.5135 28.9137L26.5139 28.9135C27.5227 28.6072 28.4884 29.493 28.2773 30.5219L28.2771 30.5231L27.138 36.0344L36.3775 17.5954L33.3923 18.1716C33.3921 18.1717 33.3918 18.1717 33.3915 18.1718C33.3914 18.1718 33.3913 18.1718 33.3913 18.1718C33.1582 18.2169 32.9174 18.2014 32.6921 18.1268L32.9748 17.2724L32.6921 18.1268C32.4663 18.0521 32.2636 17.9207 32.1034 17.745C31.9431 17.5694 31.8307 17.3555 31.7769 17.1239C31.7232 16.8929 31.7298 16.6519 31.7958 16.4242L31.7956 16.4247L24.1802 23.0738ZM24.1802 23.0738L21.0182 23.8044L21.7846 10.8712M24.1802 23.0738L21.7846 10.8712M24.3495 30.003L24.3492 30.0029L24.3484 30.0028L23.8713 29.9053L24.3495 30.003ZM24.3495 30.003L24.2425 30.4786M24.3495 30.003L24.3498 30.0031L24.4916 30.4694M24.3495 30.003L24.2425 30.4786M24.3495 30.003L24.2425 30.4786M24.2425 30.4786C24.3249 30.4971 24.4108 30.494 24.4916 30.4694M24.4916 30.4694L24.3499 30.0031L24.4916 30.4694ZM21.7846 10.8712L34.0931 8.45968L31.7963 16.4225L21.7846 10.8712ZM37.1991 17.4368C37.199 17.4369 37.1989 17.4369 37.1989 17.4369L37.1991 17.4368Z" stroke="url(#paint2_linear_665_3394)" stroke-width="1.8"/>
<defs>
<linearGradient id="paint0_linear_665_3394" x1="-0.430825" y1="-1.72687" x2="34.6527" y2="40.7346" gradientUnits="userSpaceOnUse">
<stop stop-color="#41D1FF"/>
<stop offset="1" stop-color="#BD34FE"/>
</linearGradient>
<linearGradient id="paint1_linear_665_3394" x1="6.58549" y1="10.5124" x2="28.9273" y2="40.8543" gradientUnits="userSpaceOnUse">
<stop stop-color="#41D1FF"/>
<stop offset="1" stop-color="#BD34FE"/>
</linearGradient>
<linearGradient id="paint2_linear_665_3394" x1="24.9907" y1="8.15315" x2="29.0322" y2="35.8776" gradientUnits="userSpaceOnUse">
<stop stop-color="#FFEA83"/>
<stop offset="0.083" stop-color="#FFDD35"/>
<stop offset="1" stop-color="#FFA800"/>
</linearGradient>
</defs>
</svg>
